<svg id="Layer_1" data-name="Layer 1" xmlns="http://www.w3.org/2000/svg" viewBox="0 0 100 100"><defs><style>.cls-1{fill:#00dd7e;}</style></defs><title>neotaglogo_mark</title><path class="cls-1" d="M96.2,31.1h-18V79.6H69.4a7.56,7.56,0,0,1-5.7-3L25.3,31.2c-.1,0-.1,0-.1-.1H24.1V92.9A50,50,0,0,0,100,50.1,48.46,48.46,0,0,0,96.2,31.1Z"/><path class="cls-1" d="M30.9,25.5,69.4,71h1.1V31.1H53.05a.92.92,0,0,1-.92-.92.94.94,0,0,1,.07-.34l2.63-6.65h0a.91.91,0,0,1,.88-.69h36A50,50,0,1,0,16.4,87.1V28.7c0-3.4,2.5-6.2,5.5-6.2h3.3A7.56,7.56,0,0,1,30.9,25.5Z"/></svg>