<svg id="Layer_1" data-name="Layer 1" xmlns="http://www.w3.org/2000/svg" viewBox="0 0 200 40"><defs><style>.cls-1{fill:#00dd7e;}</style></defs><title>neotaglogo_text</title><path class="cls-1" d="M33,9.1V28.56H30.76V9.1A3.39,3.39,0,0,0,27.4,5.69H2.27V28.56H0V3.38H27.4A5.72,5.72,0,0,1,33,9.1Z"/><path class="cls-1" d="M68.23,14.82V9.1a3.4,3.4,0,0,0-3.36-3.41H42.93A3.4,3.4,0,0,0,39.56,9.1V22.84a3.4,3.4,0,0,0,3.37,3.41H70.5v2.31H42.93a5.66,5.66,0,0,1-5.64-5.72V9.1a5.69,5.69,0,0,1,5.64-5.72H64.87A5.72,5.72,0,0,1,70.5,9.1v8h-27v-2.3Z"/><path class="cls-1" d="M108,9.1V22.84a5.7,5.7,0,0,1-5.64,5.72H80.39a5.66,5.66,0,0,1-5.64-5.72V9.1a5.69,5.69,0,0,1,5.64-5.72h21.94A5.72,5.72,0,0,1,108,9.1Zm-2.28,0a3.39,3.39,0,0,0-3.36-3.41H80.39A3.39,3.39,0,0,0,77,9.1V22.84a3.39,3.39,0,0,0,3.36,3.41h21.94a3.39,3.39,0,0,0,3.36-3.41Z"/><path class="cls-1" d="M126.25,26.25v2.31h-8.39a5.66,5.66,0,0,1-5.64-5.72V0h2.27V3.38H124V5.69h-9.48V22.84a3.4,3.4,0,0,0,3.37,3.41Z"/><path class="cls-1" d="M162.54,9.1V28.56H135a5.66,5.66,0,0,1-5.64-5.72V18.28A5.66,5.66,0,0,1,135,12.56h20.77v2.26H135a3.41,3.41,0,0,0-3.37,3.46v4.56A3.4,3.4,0,0,0,135,26.25h25.3V9.1a3.4,3.4,0,0,0-3.36-3.41H130.46V3.38H156.9A5.72,5.72,0,0,1,162.54,9.1Z"/><path class="cls-1" d="M166.78,40V37.74h27.58a3.45,3.45,0,0,0,3.37-3.46V5.69H172.42a3.4,3.4,0,0,0-3.36,3.41V22.84a3.4,3.4,0,0,0,3.36,3.41h21.35v2.31H172.42a5.67,5.67,0,0,1-5.64-5.72V9.1a5.7,5.7,0,0,1,5.64-5.72H200v30.9A5.7,5.7,0,0,1,194.36,40Z"/></svg>