<svg width="375" height="667" viewBox="0 0 375 667" fill="none" xmlns="http://www.w3.org/2000/svg">
<g clip-path="url(#clip0_101_6104)">
<rect width="375" height="667" fill="#050B2A"/>
<g opacity="0.25">
<path d="M-14 422V494L361 730V658L-14 422Z" fill="url(#paint0_linear_101_6104)"/>
<path d="M-14 505V577L361 813V741L-14 505Z" fill="url(#paint1_linear_101_6104)"/>
<path d="M-14 588V660L361 896V824L-14 588Z" fill="url(#paint2_linear_101_6104)"/>
</g>
<g opacity="0.25">
<path d="M56 -237V-165L431 71V-1L56 -237Z" fill="url(#paint3_linear_101_6104)"/>
<path d="M56 -154V-82L431 154V82L56 -154Z" fill="url(#paint4_linear_101_6104)"/>
<path d="M56 -71V1L431 237V165L56 -71Z" fill="url(#paint5_linear_101_6104)"/>
</g>
</g>
<defs>
<linearGradient id="paint0_linear_101_6104" x1="-14" y1="494" x2="361" y2="730" gradientUnits="userSpaceOnUse">
<stop stop-color="#FFA5A5"/>
<stop offset="0.875" stop-color="#DB4DFF" stop-opacity="0"/>
</linearGradient>
<linearGradient id="paint1_linear_101_6104" x1="-14" y1="577" x2="361" y2="813" gradientUnits="userSpaceOnUse">
<stop stop-color="#FFA5A5"/>
<stop offset="0.875" stop-color="#DB4DFF" stop-opacity="0"/>
</linearGradient>
<linearGradient id="paint2_linear_101_6104" x1="-14" y1="660" x2="361" y2="896" gradientUnits="userSpaceOnUse">
<stop stop-color="#FFA5A5"/>
<stop offset="0.875" stop-color="#DB4DFF" stop-opacity="0"/>
</linearGradient>
<linearGradient id="paint3_linear_101_6104" x1="56" y1="-165" x2="431" y2="71" gradientUnits="userSpaceOnUse">
<stop stop-color="#FFA5A5"/>
<stop offset="0.875" stop-color="#DB4DFF" stop-opacity="0"/>
</linearGradient>
<linearGradient id="paint4_linear_101_6104" x1="56" y1="-82" x2="431" y2="154" gradientUnits="userSpaceOnUse">
<stop stop-color="#FFA5A5"/>
<stop offset="0.875" stop-color="#DB4DFF" stop-opacity="0"/>
</linearGradient>
<linearGradient id="paint5_linear_101_6104" x1="56" y1="1" x2="431" y2="237" gradientUnits="userSpaceOnUse">
<stop stop-color="#FFA5A5"/>
<stop offset="0.875" stop-color="#DB4DFF" stop-opacity="0"/>
</linearGradient>
<clipPath id="clip0_101_6104">
<rect width="375" height="667" fill="white"/>
</clipPath>
</defs>
</svg>
