<svg xmlns="http://www.w3.org/2000/svg" xmlns:xlink="http://www.w3.org/1999/xlink" viewBox="0 0 500 500"><defs><style>.cls-1,.cls-8{fill:none;}.cls-2{clip-path:url(#clip-path);}.cls-3,.cls-4,.cls-5,.cls-6,.cls-7,.cls-8,.cls-9{stroke:#00aeef;stroke-linecap:round;stroke-linejoin:round;}.cls-3{fill:url(#linear-gradient);}.cls-4{fill:#f1f2f2;}.cls-5{fill:#808285;}.cls-6{fill:#d1d3d4;}.cls-7{fill:#a7a9ac;}.cls-9{fill:#e6e7e8;}</style><clipPath id="clip-path"><rect class="cls-1" x="1.22" y="1.22" width="500.44" height="497.78"/></clipPath><linearGradient id="linear-gradient" x1="258.56" y1="525.67" x2="258.56" y2="-33.44" gradientUnits="userSpaceOnUse"><stop offset="0" stop-color="#fff"/><stop offset="0.06" stop-color="#f8fbfd"/><stop offset="0.14" stop-color="#e5eff7"/><stop offset="0.24" stop-color="#c5dcec"/><stop offset="0.36" stop-color="#98c2de"/><stop offset="0.48" stop-color="#5fa0cc"/><stop offset="0.61" stop-color="#1b78b6"/><stop offset="0.66" stop-color="#0068ad"/><stop offset="0.98" stop-color="#2e3192"/></linearGradient></defs><g id="Layer_6" data-name="Layer 6"><g class="cls-2"><rect class="cls-3" x="-23.67" y="-33.44" width="564.44" height="559.11"/><polygon class="cls-4" points="-51.22 403 240.33 324.78 577.22 392.33 527.44 528.33 -13.89 529.22 -51.22 403"/><path class="cls-5" d="M240,192.85l-8.94-216s.09-12.09-8.63-12.47-10.58,8.25-10,11.92l8.22,218.21Z"/><path class="cls-6" d="M355.35,280.82l-19,158.07s-9,19.34-33.73,13.94L149.26,397.74,132.85,267.55s.22-4-10.23-6.55c0,0-2.53-1.18-3.12-5.31s-5.74-30.27-5.74-30.27-.25-2.11.48-2.79-2.42,4.22,4.89,6.13,221.54,57.11,221.54,57.11S353.83,288,355.35,280.82Z"/><polyline class="cls-7" points="355.35 280.81 398.86 166.31 369.85 337.48 336.35 438.89 355.35 281.32"/><line class="cls-8" x1="133.07" y1="215.83" x2="321.05" y2="262.38"/><line class="cls-8" x1="395.03" y1="162.99" x2="360.41" y2="246.19"/><path class="cls-9" d="M113.51,223.48s-3-13.27.45-16.64c4.48-4.34,93.88-86.13,93.88-86.13s5.51-5,29.45.45,140.32,22.72,140.32,22.72,18.9,2.75,21,6.85c1.8,3.49.23,14.56.23,15.07L355.47,280.48s-.92,6.71-13.51,5.55-223.14-57.36-223.14-57.36S113.51,227.3,113.51,223.48Z"/><ellipse class="cls-9" cx="124.02" cy="208.86" rx="10.06" ry="5.4"/><ellipse class="cls-9" cx="343.37" cy="263.02" rx="8.69" ry="11.64" transform="translate(45.33 576.48) rotate(-83.9)"/><ellipse class="cls-9" cx="390.89" cy="152.71" rx="4.85" ry="8.22" transform="translate(195.24 523.98) rotate(-83.55)"/><ellipse class="cls-9" cx="216.3" cy="121.36" rx="8.01" ry="3.46"/><polygon class="cls-7" points="340.34 218.08 342.36 190.59 367.49 142.69 366.14 165.8 340.34 218.08"/><polygon class="cls-6" points="285.45 177.47 342.45 190.28 340.43 218.28 181.06 183.71 181.06 160.26 285.28 183.88 285.45 177.47"/><polygon class="cls-9" points="180.97 160.57 222.79 122.29 226.16 122.63 226.16 126.5 285.78 137.13 288.9 133.84 301.04 135.95 301.04 139.49 311.25 141.26 316.47 133.5 367.49 142.69 342.36 190.59 285.36 177.77 285.19 184.18 180.97 160.57"/><polyline class="cls-8" points="282.15 180.98 269.22 178.05 297.78 140.5"/><line class="cls-8" x1="275.3" y1="176.14" x2="293.62" y2="150.51"/><line class="cls-8" x1="287.35" y1="135.47" x2="255.51" y2="173.44"/><line class="cls-8" x1="226.16" y1="126.5" x2="193.56" y2="158.6"/><polyline class="cls-8" points="221.1 127.24 186.59 159.39 247.41 173"/><ellipse class="cls-9" cx="340.21" cy="168.41" rx="10.41" ry="5.57"/><ellipse class="cls-9" cx="355.08" cy="142.86" rx="8.98" ry="4.68"/><ellipse class="cls-7" cx="164.15" cy="268.77" rx="12.93" ry="15.63" transform="translate(-150.14 248.64) rotate(-54.92)"/><ellipse class="cls-9" cx="162.24" cy="271.27" rx="7.81" ry="10.68" transform="translate(-150.57 225.91) rotate(-50.87)"/><path class="cls-8" d="M334.83,166.59a9.92,9.92,0,0,1,11.92.1"/><line class="cls-8" x1="341.12" y1="163.38" x2="340.87" y2="168.44"/><path class="cls-8" d="M356.81,138.7c0-.22-2,.62-2.31,2.59"/><path class="cls-8" d="M351.44,139.46a12.48,12.48,0,0,1,8.68,1.07"/><path class="cls-8" d="M211.6,120.1a8,8,0,0,1,9.15-.12"/><path class="cls-8" d="M215.15,118.31c.55,0,1.52.26,1.6,1.9"/><path class="cls-8" d="M118.29,205.66c.22,0,6.34-2.2,10.17,2.84"/><path class="cls-8" d="M119.86,208.86s3.37-4.78,7.48-4.33"/><path class="cls-8" d="M336.56,259.31s7.49-3.12,13.39,2.28"/><line class="cls-8" x1="344.05" y1="256.78" x2="343.12" y2="263.53"/><path class="cls-8" d="M385,150.62s5.89-4,12-.17"/><path class="cls-8" d="M392,152.05s-.17-2.69-.85-3.24"/></g></g></svg>