<svg id="Layer_1" data-name="Layer 1" xmlns="http://www.w3.org/2000/svg" viewBox="0 0 300 486"><defs><style>.cls-1{font-size:17.28px;font-family:Expansiva;}.cls-1,.cls-2{fill:#00de7e;}.cls-3{fill:none;stroke:#00de7e;stroke-miterlimit:10;}</style></defs><title>naotag_station</title><text class="cls-1" transform="translate(144.47 318.04) rotate(90)">neotag.io</text><path class="cls-2" d="M162.59,72.5h-4.94V85.82h-2.41a2.08,2.08,0,0,1-1.57-.82L143.13,72.53s0,0,0,0h-.3v17a13.55,13.55,0,0,0,7.11,2,13.73,13.73,0,0,0,13.73-13.73A13.26,13.26,0,0,0,162.59,72.5Z"/><path class="cls-2" d="M144.66,71l10.58,12.49h.3v-11h-4.79a.26.26,0,0,1-.26-.25.24.24,0,0,1,0-.09l.72-1.83h0a.25.25,0,0,1,.24-.19h9.88a13.73,13.73,0,1,0-20.68,17.74v-16a1.63,1.63,0,0,1,1.51-1.7h.91A2.06,2.06,0,0,1,144.66,71Z"/><path class="cls-3" d="M230.28,475.87c-3.61-59.63-4.68-119.74-4.57-172.53.15-70.78,2.44-128.43,3.66-154.2.44-9.4.74-14.55.74-14.55H69.52s.3,5.15.75,14.55c1.21,25.77,3.5,83.42,3.65,154.2.12,52.79-1,112.9-4.57,172.53Z"/><path class="cls-3" d="M70.27,149.14H68.54v154.2h5.38C73.77,232.56,71.48,174.91,70.27,149.14Z"/><polygon class="cls-3" points="158.44 11.12 141.19 11.12 132.03 32.69 132.03 39.7 143.89 39.7 155.75 39.7 167.61 39.7 167.61 32.69 158.44 11.12"/><rect class="cls-3" x="138.49" y="39.7" width="22.64" height="8.63"/><rect class="cls-3" x="132.02" y="48.32" width="35.58" height="76.02"/><rect class="cls-3" x="59.78" y="124.34" width="180.07" height="10.24" rx="2"/><rect class="cls-3" x="59.78" y="475.87" width="180.07" height="10.24" rx="2"/><rect class="cls-3" x="148.47" y="-0.2" width="2.7" height="11.32"/><path class="cls-3" d="M158.19,162.44l-.54,19.68-.09,3.5h3a4.32,4.32,0,0,1,4.31,4.31v49.6a4.32,4.32,0,0,1-4.31,4.31h-4.82l0,1.08a4.33,4.33,0,0,1-4.31,4.32h-4.32a4.33,4.33,0,0,1-4.31-4.32l0-1.08h-4.81a4.33,4.33,0,0,1-4.32-4.31v-49.6a4.33,4.33,0,0,1,4.32-4.31h3l-.05-1.86,0-1-.55-20.31H128.79v140.9h42.05V162.44Z"/><path class="cls-3" d="M142.7,243.84l0,1.08a4.33,4.33,0,0,0,4.31,4.32h4.32a4.33,4.33,0,0,0,4.31-4.32l0-1.08"/><polyline class="cls-3" points="157.94 185.62 157.56 185.62 157.53 186.48"/><polyline class="cls-3" points="157.94 185.62 157.56 185.62 157.53 186.48"/><path class="cls-3" d="M141.24,197.62l-.11-3.52-.27-8.48h-3a4.33,4.33,0,0,0-4.32,4.31v49.6a4.33,4.33,0,0,0,4.32,4.31h4.81Z"/><path class="cls-3" d="M160.53,185.62h-3l0,.86-.16,5.2-.21,6.56-1.45,45.6h4.82a4.32,4.32,0,0,0,4.31-4.31v-49.6A4.32,4.32,0,0,0,160.53,185.62Z"/><path class="cls-3" d="M173.4,149H126.24a1.49,1.49,0,0,0-1.49,1.49V161a1.49,1.49,0,0,0,1.49,1.49H173.4a1.49,1.49,0,0,0,1.49-1.49V150.46A1.49,1.49,0,0,0,173.4,149Z"/><path class="cls-3" d="M155.68,244.92a4.33,4.33,0,0,1-4.31,4.32h-4.32a4.33,4.33,0,0,1-4.31-4.32l0-1.08v-.07h-1.08v59.52H156.9V243.77h-1.18v.07Z"/><path class="cls-3" d="M140.23,162.44l.55,20.31,0,1,.05,1.86.27,8.48.11,3.52,1.46,46.15v.07l0,1.08a4.33,4.33,0,0,0,4.31,4.32h4.32a4.33,4.33,0,0,0,4.31-4.32l0-1.08v-.07l1.44-45.53.21-6.56.16-5.2,0-.86.09-3.5.54-19.68Z"/><path class="cls-3" d="M152.61,197.84h-8.4V212a.94.94,0,0,0,.93.94h8.2a.94.94,0,0,0,.93-.94V197.84Z"/><path class="cls-3" d="M153.34,178.1h-8.2a.93.93,0,0,0-.93.93v18.81h10.06V179A.93.93,0,0,0,153.34,178.1Z"/><line class="cls-3" x1="126.29" y1="30.36" x2="121.82" y2="31.85"/><line class="cls-3" x1="125.89" y1="23.4" x2="118.65" y2="22.72"/><line class="cls-3" x1="128.07" y1="16.2" x2="124.05" y2="13.77"/><line class="cls-3" x1="173.35" y1="30.36" x2="177.82" y2="31.85"/><line class="cls-3" x1="173.74" y1="23.4" x2="180.98" y2="22.72"/><line class="cls-3" x1="171.56" y1="16.2" x2="175.58" y2="13.77"/><line class="cls-3" x1="79.48" y1="452.43" x2="95.69" y2="468.64"/><line class="cls-3" x1="79.06" y1="442.87" x2="105.25" y2="469.06"/><line class="cls-3" x1="88.62" y1="443.29" x2="104.83" y2="459.5"/><line class="cls-3" x1="137.88" y1="109.02" x2="146.71" y2="117.85"/><line class="cls-3" x1="137.65" y1="103.81" x2="151.92" y2="118.08"/><line class="cls-3" x1="142.86" y1="104.04" x2="151.69" y2="112.87"/><path class="cls-3" d="M229.55,149.14h1.73v154.2h-5.39C226,232.56,228.33,174.91,229.55,149.14Z"/><path class="cls-3" d="M69.08,149.14,31,149a4.32,4.32,0,0,0-4.31,4.31v4.85A4.32,4.32,0,0,0,31,162.44H55.14l13.4.17V149.14Z"/><polygon class="cls-3" points="62.07 224.17 60.72 243.87 60.72 243.87 68.54 245.67 68.54 224.17 62.07 224.17"/><polygon class="cls-3" points="49.67 247.27 57.75 217.62 53.94 215.27 44.24 234.15 39.4 243.57 49.67 247.27"/><polygon class="cls-3" points="39.4 243.57 44.24 234.15 39.4 243.57 39.4 243.57"/><polygon class="cls-3" points="60.72 243.87 62.07 221.93 56.95 220.58 50.45 244.38 60.45 248.35 60.72 243.87 60.72 243.87 60.72 243.87"/><path class="cls-3" d="M39.75,215.8a.82.82,0,0,1,.12,1.14l-8.79,10.92a.81.81,0,0,1-1.26-1l8.79-10.92A.82.82,0,0,1,39.75,215.8Zm-3.57-4.6a.81.81,0,0,1,1.14-.12.8.8,0,0,1,.12,1.13l-8.79,10.92a.8.8,0,0,1-1.13.13.81.81,0,0,1-.13-1.14ZM34.47,206a.8.8,0,0,1,.12,1.13l-8.78,10.92a.81.81,0,1,1-1.26-1l8.78-10.92A.81.81,0,0,1,34.47,206Z"/><path class="cls-3" d="M44.36,216.87s-10.47-26-14.55-25.87c-2.28.09-12.13,9.24-20.39,17.31-7.09,14.87-9,23.15-9,23.15,3.6,16.17,18,25.93,18,25.93,11.16-2.77,19.69-11.48,19.69-11.48l17.56-33.74a3.63,3.63,0,0,0-3.37-2C46.1,220.29,44.36,216.87,44.36,216.87ZM31.62,239.68a7.32,7.32,0,0,1-2.81,5.4c-2.07,1.78-5-.3-6.1-1.46s-6.4-10.76-6.4-10.76-5.54-8-1.15-13.18,6.14-.81,6.14-.81L25.69,228Z"/><path class="cls-3" d="M24.84,180.59l-6.52-3.8a.51.51,0,0,0-.7.18l-9.7,16.65a.54.54,0,0,0-.06.39h0l3.55,10.25C14.81,197.48,19.2,189.55,24.84,180.59Z"/><path class="cls-3" d="M39.75,215.8a.82.82,0,0,1,.12,1.14l-8.79,10.92a.81.81,0,0,1-1.26-1l8.79-10.92A.82.82,0,0,1,39.75,215.8Zm-3.57-4.6a.81.81,0,0,1,1.14-.12.8.8,0,0,1,.12,1.13l-8.79,10.92a.8.8,0,0,1-1.13.13.81.81,0,0,1-.13-1.14ZM34.47,206a.8.8,0,0,1,.12,1.13l-8.78,10.92a.81.81,0,1,1-1.26-1l8.78-10.92A.81.81,0,0,1,34.47,206Z"/><path class="cls-3" d="M44.36,216.87s-10.47-26-14.55-25.87c-2.28.09-12.13,9.24-20.39,17.31-7.09,14.87-9,23.15-9,23.15,3.6,16.17,18,25.93,18,25.93,11.16-2.77,19.69-11.48,19.69-11.48l17.56-33.74a3.63,3.63,0,0,0-3.37-2C46.1,220.29,44.36,216.87,44.36,216.87ZM31.62,239.68a7.32,7.32,0,0,1-2.81,5.4c-2.07,1.78-5-.3-6.1-1.46s-6.4-10.76-6.4-10.76-5.54-8-1.15-13.18,6.14-.81,6.14-.81L25.69,228Z"/><path class="cls-3" d="M24.84,180.59l-6.52-3.8a.51.51,0,0,0-.7.18l-9.7,16.65a.54.54,0,0,0-.06.39h0l3.55,10.25C14.81,197.48,19.2,189.55,24.84,180.59Z"/><polygon class="cls-3" points="60.72 243.87 60.72 243.87 68.54 245.67 68.54 224.17 62.07 224.17 60.72 243.87"/><polygon class="cls-3" points="56.95 220.58 57.75 217.62 53.94 215.27 44.24 234.15 39.4 243.57 49.67 247.27 51.06 242.16 56.95 220.58 56.95 220.58"/><polygon class="cls-3" points="62.07 221.93 56.95 220.58 51.06 242.16 50.45 244.38 60.45 248.35 60.72 243.87 60.72 243.87 62.07 221.93"/><polygon class="cls-3" points="56.95 220.58 51.06 242.16 56.95 220.58 56.95 220.58"/><path class="cls-3" d="M37.07,162.44q-6.91,9.66-12.23,18.15c-5.64,9-10,16.89-13.43,23.67-.7,1.4-1.37,2.75-2,4.05,8.26-8.07,18.11-17.22,20.39-17.31,4.08-.16,14.55,25.87,14.55,25.87s1.74,3.42,7.93-6.73a9.68,9.68,0,0,0-4.1,1s-8.49-7.86-5.42-14.84S45,185.46,45,185.46L55.07,165a6,6,0,0,0,4-2.49l-3.94-.05Z"/><path class="cls-3" d="M230.75,149.14,268.8,149a4.32,4.32,0,0,1,4.31,4.31v4.85a4.32,4.32,0,0,1-4.31,4.31H244.68l-13.39.17V149.14Z"/><polygon class="cls-3" points="237.76 224.17 239.1 243.87 239.1 243.87 231.29 245.67 231.29 224.17 237.76 224.17"/><polygon class="cls-3" points="250.16 247.27 242.07 217.62 245.88 215.27 255.58 234.15 260.42 243.57 250.16 247.27"/><polygon class="cls-3" points="260.42 243.57 255.58 234.15 260.42 243.57 260.42 243.57"/><polygon class="cls-3" points="239.1 243.87 237.76 221.93 242.88 220.58 249.37 244.38 239.37 248.35 239.1 243.87 239.1 243.87 239.1 243.87"/><path class="cls-2" d="M269.38,228.66h-.15a1.32,1.32,0,0,1-.88-.48l-8.79-10.92a1.31,1.31,0,0,1,.2-1.84,1.3,1.3,0,0,1,1-.28,1.32,1.32,0,0,1,.88.48l8.79,10.92a1.28,1.28,0,0,1,.28,1,1.32,1.32,0,0,1-.48.88A1.28,1.28,0,0,1,269.38,228.66Zm-8.8-12.54a.26.26,0,0,0-.19.07.31.31,0,0,0-.11.21.29.29,0,0,0,.06.22l8.79,10.92a.26.26,0,0,0,.21.11.32.32,0,0,0,.23-.06.33.33,0,0,0,.11-.21.29.29,0,0,0-.07-.22l-8.79-10.93a.31.31,0,0,0-.2-.11Zm11.22,7.82a1.32,1.32,0,0,1-1-.49L262,212.53a1.31,1.31,0,0,1,.2-1.84,1.28,1.28,0,0,1,1-.28,1.24,1.24,0,0,1,.88.48l8.79,10.92a1.28,1.28,0,0,1,.28,1,1.31,1.31,0,0,1-1.3,1.17ZM263,211.4a.26.26,0,0,0-.19.07.3.3,0,0,0-.05.43l8.79,10.92a.31.31,0,0,0,.43.05.3.3,0,0,0,.12-.21.39.39,0,0,0-.07-.23h0l-8.79-10.92a.31.31,0,0,0-.21-.11Zm11.64,7.47a1.31,1.31,0,0,1-1-.48l-8.79-10.92a1.31,1.31,0,0,1,2-1.65h0l8.79,10.92a1.3,1.3,0,0,1-1,2.12Zm-8.79-12.53a.26.26,0,0,0-.19.07.3.3,0,0,0-.05.43l8.79,10.92a.31.31,0,0,0,.43.05.33.33,0,0,0,.05-.44l-8.79-10.92A.32.32,0,0,0,265.86,206.34Z"/><path class="cls-2" d="M281.51,257.93l-.21-.05c-11.17-2.77-19.85-11.53-19.93-11.62l-.09-.11-17.68-34,.11-.23a4.14,4.14,0,0,1,3.81-2.31h.29l.15.25c3.87,6.34,5.81,7,6.48,7h0a.61.61,0,0,0,.56-.29c1.74-4.33,10.72-26.13,15-26.13H270c.73,0,3,.11,20.71,17.45l.1.14c7,14.75,9,23.18,9,23.26l0,.11,0,.11c-3.6,16.17-18,26.13-18.16,26.23Zm-19.38-12.31c.72.71,8.84,8.58,19.19,11.23,1.66-1.19,14.21-10.64,17.54-25.38-.25-1-2.34-9.18-8.87-22.87-15.71-15.34-19.22-17.07-20-17.1h0c-2.74,0-10.06,15.65-14,25.55a1.64,1.64,0,0,1-1.41.87c-1.76.06-4.24-2.37-7.26-7.27a3,3,0,0,0-2.53,1.53Zm10.74.66a3.24,3.24,0,0,1-2.19-.82,7.76,7.76,0,0,1-3-5.8l.05-.2,5.94-11.66,4.38-9.14a3.35,3.35,0,0,1,2.31-2c1.4-.23,3,.67,4.66,2.66,4.59,5.37-.88,13.44-1.12,13.78-.53,1-5.44,9.78-6.45,10.83A7.22,7.22,0,0,1,272.87,246.28Zm-4.17-6.48a6.93,6.93,0,0,0,2.64,4.9c1.8,1.56,4.52-.5,5.41-1.42.7-.73,4.17-6.78,6.33-10.67.08-.11,5.29-7.81,1.2-12.6-1.44-1.69-2.73-2.49-3.74-2.32a2.38,2.38,0,0,0-1.55,1.37l-4.41,9.19Z"/><path class="cls-2" d="M288.5,205.55l-.53-1.06c-3.82-7.61-8.33-15.56-13.41-23.63l-.28-.44,7-4.06a1,1,0,0,1,1.37.36l9.71,16.65a1,1,0,0,1,.12.69v.15l-.07.07Zm-12.82-24.78c4.75,7.57,9,15,12.65,22.21l3.15-9.1-9.71-16.65Z"/><path class="cls-2" d="M269.38,228.66h-.15a1.32,1.32,0,0,1-.88-.48l-8.79-10.92a1.31,1.31,0,0,1,.2-1.84,1.3,1.3,0,0,1,1-.28,1.32,1.32,0,0,1,.88.48l8.79,10.92a1.28,1.28,0,0,1,.28,1,1.32,1.32,0,0,1-.48.88A1.28,1.28,0,0,1,269.38,228.66Zm-8.8-12.54a.26.26,0,0,0-.19.07.31.31,0,0,0-.11.21.29.29,0,0,0,.06.22l8.79,10.92a.26.26,0,0,0,.21.11.32.32,0,0,0,.23-.06.33.33,0,0,0,.11-.21.29.29,0,0,0-.07-.22l-8.79-10.93a.31.31,0,0,0-.2-.11Zm11.22,7.82a1.32,1.32,0,0,1-1-.49L262,212.53a1.31,1.31,0,0,1,.2-1.84,1.28,1.28,0,0,1,1-.28,1.24,1.24,0,0,1,.88.48l8.79,10.92a1.28,1.28,0,0,1,.28,1,1.31,1.31,0,0,1-1.3,1.17ZM263,211.4a.26.26,0,0,0-.19.07.3.3,0,0,0-.05.43l8.79,10.92a.31.31,0,0,0,.43.05.3.3,0,0,0,.12-.21.39.39,0,0,0-.07-.23h0l-8.79-10.92a.31.31,0,0,0-.21-.11Zm11.64,7.47a1.31,1.31,0,0,1-1-.48l-8.79-10.92a1.31,1.31,0,0,1,2-1.65h0l8.79,10.92a1.3,1.3,0,0,1-1,2.12Zm-8.79-12.53a.26.26,0,0,0-.19.07.3.3,0,0,0-.05.43l8.79,10.92a.31.31,0,0,0,.43.05.33.33,0,0,0,.05-.44l-8.79-10.92A.32.32,0,0,0,265.86,206.34Z"/><path class="cls-2" d="M281.51,257.93l-.21-.05c-11.17-2.77-19.85-11.53-19.93-11.62l-.09-.11-17.68-34,.11-.23a4.14,4.14,0,0,1,3.81-2.31h.29l.15.25c3.87,6.34,5.81,7,6.48,7h0a.61.61,0,0,0,.56-.29c1.74-4.33,10.72-26.13,15-26.13H270c.73,0,3,.11,20.71,17.45l.1.14c7,14.75,9,23.18,9,23.26l0,.11,0,.11c-3.6,16.17-18,26.13-18.16,26.23Zm-19.38-12.31c.72.71,8.84,8.58,19.19,11.23,1.66-1.19,14.21-10.64,17.54-25.38-.25-1-2.34-9.18-8.87-22.87-15.71-15.34-19.22-17.07-20-17.1h0c-2.74,0-10.06,15.65-14,25.55a1.64,1.64,0,0,1-1.41.87c-1.76.06-4.24-2.37-7.26-7.27a3,3,0,0,0-2.53,1.53Zm10.74.66a3.24,3.24,0,0,1-2.19-.82,7.76,7.76,0,0,1-3-5.8l.05-.2,5.94-11.66,4.38-9.14a3.35,3.35,0,0,1,2.31-2c1.4-.23,3,.67,4.66,2.66,4.59,5.37-.88,13.44-1.12,13.78-.53,1-5.44,9.78-6.45,10.83A7.22,7.22,0,0,1,272.87,246.28Zm-4.17-6.48a6.93,6.93,0,0,0,2.64,4.9c1.8,1.56,4.52-.5,5.41-1.42.7-.73,4.17-6.78,6.33-10.67.08-.11,5.29-7.81,1.2-12.6-1.44-1.69-2.73-2.49-3.74-2.32a2.38,2.38,0,0,0-1.55,1.37l-4.41,9.19Z"/><path class="cls-2" d="M288.5,205.55l-.53-1.06c-3.82-7.61-8.33-15.56-13.41-23.63l-.28-.44,7-4.06a1,1,0,0,1,1.37.36l9.71,16.65a1,1,0,0,1,.12.69v.15l-.07.07Zm-12.82-24.78c4.75,7.57,9,15,12.65,22.21l3.15-9.1-9.71-16.65Z"/><path class="cls-2" d="M230.79,246.29V223.67h7.43l1.41,20.59Zm1-21.62V245l6.78-1.56-1.28-18.81Z"/><path class="cls-2" d="M249.82,247.92l-7.42-27.21h0l-.91-3.32,4.59-2.83,15,29.29Zm-7.17-30.07,7.85,28.76,9.21-3.31-14-27.32Z"/><path class="cls-2" d="M238.92,249.07l-1.69-27.52,6-1.58L250,244.68Zm-.64-26.76,1.55,25.32,8.94-3.55-6.24-22.89Z"/><rect class="cls-2" x="245.32" y="220.19" width="1" height="22.36" transform="translate(-52.22 72.84) rotate(-15.26)"/><path class="cls-2" d="M254.44,217.92c-1.82,0-4.29-2.53-7.34-7.52l-.44-.74.86,0a9.81,9.81,0,0,1,4,.9c1.33-1.33,7.67-8.1,5.07-14-2.76-6.3-2.41-10.12-2.28-11l-9.9-20.09a6.75,6.75,0,0,1-4.07-2.64l-.61-.79,4.93-.07H263l.15.21c4.38,6.12,8.51,12.24,12.25,18.18,5.09,8.1,9.62,16.08,13.45,23.71q1.06,2.1,2,4.05l1.22,2.55-2-2c-15.76-15.41-19.27-17.14-20.05-17.17h0c-2.74,0-10.06,15.65-14,25.55a1.64,1.64,0,0,1-1.41.87Zm-6-7.24c3.54,5.6,5.34,6.24,6,6.24h0a.61.61,0,0,0,.56-.29c1.74-4.33,10.72-26.13,15-26.13H270c.7,0,2.79.11,18.66,15.46-.24-.48-.48-1-.73-1.47-3.82-7.61-8.33-15.56-13.41-23.63-3.69-5.86-7.75-11.88-12.06-17.92l-20.65,0a5.17,5.17,0,0,0,2.94,1.5l.28,0,.13.26,10.17,20.63,0,.17s-.76,3.84,2.19,10.55c3.17,7.23-5.19,15.07-5.55,15.4l-.26.24-.31-.16A10.13,10.13,0,0,0,248.46,210.68Z"/></svg>