<?xml version="1.0" encoding="utf-8"?>
<!-- Generator: Adobe Illustrator 23.0.6, SVG Export Plug-In . SVG Version: 6.00 Build 0)  -->
<svg version="1.1" id="Layer_1" xmlns="http://www.w3.org/2000/svg" xmlns:xlink="http://www.w3.org/1999/xlink" x="0px" y="0px"
	 viewBox="0 0 1074 614" style="enable-background:new 0 0 1074 614;" xml:space="preserve">
<style type="text/css">
	.st0{clip-path:url(#SVGID_2_);}
	.st1{clip-path:url(#SVGID_2_);fill:url(#SVGID_3_);}
	.st2{clip-path:url(#SVGID_2_);fill:url(#SVGID_4_);}
	.st3{opacity:0.99;clip-path:url(#SVGID_2_);fill:url(#SVGID_5_);enable-background:new    ;}
	.st4{clip-path:url(#SVGID_2_);fill:#4C7938;}
	.st5{clip-path:url(#SVGID_2_);fill:url(#SVGID_6_);}
	.st6{clip-path:url(#SVGID_2_);fill:#009245;}
	.st7{clip-path:url(#SVGID_2_);fill:#68594C;}
	.st8{clip-path:url(#SVGID_2_);fill:#42210B;}
	.st9{clip-path:url(#SVGID_2_);fill:url(#SVGID_7_);}
	.st10{fill:#F7F2DA;}
	.st11{fill:#00DE7E;}
	.st12{fill:#333333;}
	.st13{fill:#FFFFFF;}
	.st14{fill:#4D4D4D;}
	.st15{fill:#1A1A1A;}
	.st16{fill:none;stroke:#00DE7E;stroke-miterlimit:10;}
	.st17{fill:none;}
	.st18{fill:#00AB61;}
	.st19{fill:#0CCFEB;}
	.st20{fill:#00EDFF;}
	.st21{clip-path:url(#SVGID_2_);fill:none;}
	.st22{fill:#29ABE2;}
	.st23{fill:#2E3192;}
	.st24{opacity:0.23;clip-path:url(#SVGID_2_);enable-background:new    ;}
	.st25{clip-path:url(#SVGID_2_);fill:#548EA8;stroke:#2E3192;stroke-width:1.5;stroke-miterlimit:10;}
	.st26{fill:#808080;}
	.st27{fill:#544D47;}
	.st28{fill:#0071BC;}
	.st29{fill:#548EA8;}
	.st30{fill:#1B1464;}
	.st31{clip-path:url(#SVGID_2_);fill:#2E3192;}
	.st32{fill:#72655A;}
	.st33{fill:#534741;}
	.st34{clip-path:url(#SVGID_2_);fill:#451172;stroke:#2C0259;stroke-width:0.23;stroke-miterlimit:10;}
	.st35{fill:#998008;}
	.st36{fill:#665334;}
	.st37{fill:#AA68AA;}
	.st38{fill:#662D91;}
	.st39{clip-path:url(#SVGID_2_);fill:#AA68AA;}
	.st40{clip-path:url(#SVGID_2_);fill:#451172;}
	.st41{fill:#66420C;}
	.st42{clip-path:url(#SVGID_2_);fill:#998008;stroke:#665334;stroke-width:0.23;stroke-miterlimit:10;}
	.st43{fill:#C67A00;}
	.st44{fill:#AA5304;}
	.st45{fill:#AF6282;}
	.st46{fill:#FF7BAC;}
	.st47{fill:#E2A569;}
	.st48{fill:#C98039;}
	.st49{fill:#C6BB6D;}
	.st50{fill:#998328;}
	.st51{clip-path:url(#SVGID_2_);fill:#AA5304;}
	.st52{clip-path:url(#SVGID_2_);fill:#C67A00;stroke:#AA5304;stroke-width:0.23;stroke-miterlimit:10;}
	.st53{clip-path:url(#SVGID_2_);fill:#E2A569;stroke:#C98039;stroke-width:0.75;stroke-miterlimit:10;}
	.st54{clip-path:url(#SVGID_2_);fill:#808080;}
	.st55{fill:#FFFAF3;}
	.st56{fill:#00DD7E;}
</style>
<title>neotag_station_withtextandkids</title>
<rect x="1" y="0.5" width="1073" height="613"/>
<g>
	<g>
		<defs>
			<rect id="SVGID_1_" x="0.5" width="1074" height="614"/>
		</defs>
		<clipPath id="SVGID_2_">
			<use xlink:href="#SVGID_1_"  style="overflow:visible;"/>
		</clipPath>
		<rect x="-1.5" y="-77" class="st0" width="1076" height="800"/>
		
			<linearGradient id="SVGID_3_" gradientUnits="userSpaceOnUse" x1="536.1999" y1="312.1" x2="536.1999" y2="-90.6" gradientTransform="matrix(1 0 0 1 0 14)">
			<stop  offset="0" style="stop-color:#0071BC"/>
			<stop  offset="0.39" style="stop-color:#004299"/>
			<stop  offset="0.79" style="stop-color:#001879"/>
			<stop  offset="1" style="stop-color:#00086D"/>
		</linearGradient>
		<path class="st1" d="M11.6,256.8c0.2-4.9,3.4-9.1,8-10.7c0,0-2.7-5.3,5.3-8c0,0,0-8,8-5.3c0,0,2.7-10.7,10.7-5.3
			c0,0,2.7-5.3,8-2.7c0,0,2.7-2.7,8,0c0,0,5.3-2.7,10.6,2.7c0,0,8-5.3,10.7,5.3c0,0,8,0,8,10.7c0,0,8,2.7,2.7,8c0,0,0,5.3-2.7,5.3
			c0,0,5.3,2.7,0,5.3c1.4,0,2.6,1.1,2.7,2.5v0.1c0,0,5.3,0,2.7,5.3c0,0,8-2.7,5.3,5.3c0,0,5.3,0,8,2.7c0,0,5.3-8,10.7,0
			c0,0,5.3-2.7,10.7,0c0,0,5.3-10.7,13.3-8c0,0,8-10.7,13.3-2.7c0,0,10.6,2.7,10.6,10.7c0,0,10.7,5.3,8,10.7c0,0,10.7,0,10.7,10.7
			c0,0,5.3-2.7,5.3,0c0,0-2.7-13.3,0-16c0,0-5.3-2.7-2.7-10.7c0,0-2.7-8,0-13.3c0,0,5.3-5.3,10.6,2.7c0,0,0-8,5.3-10.7
			c0,0,5.3-10.7,16-5.3c0,0,8-8,10.6,5.3c0,0,10.7,0,2.7,16c0,0,5.3-2.7,8,0c0,0,0-13.3,2.7-13.3c0,0,5.3-5.3,8,2.7
			c0,0,2.7,10.7,0,21.3c0,0,10.6,0,5.3,16c0,0,13.3,2.7,16,16c0,0,10.6,5.3,8,16c0,0,2.7-2.7,10.6,0c0,0,0-16,16-16
			c0,0-2.7-21.3,10.6-18.7c0,0,8-5.3,16,0c0,0-2.3-4.5-0.5-7.3c0.1-0.2,0.3-0.5,0.5-0.7c2.7-2.7,5.3,0,5.3,0s-5.3-13.3,5.3-18.7
			c0,0,2.7-2.7,8,0c0,0,5.3-8,13.3,0c0,0,13.3,0,13.3,13.3c0,0,8,5.3,2.7,18.7c0,0,2.7,2.7,5.3,10.7c0,0,0-10.7,2.7-13.3
			c0,0,5.3-5.3,10.6,5.3c0,0,10.6-5.3,10.6,10.7c0,0,8-8,13.3,2.7c0,0,0-13.3,8-18.7c0,0-2.7-8,8-8c0,0,2.7-13.3,13.3-8
			c0,0,8-8,16,5.3c0,0,16-2.7,13.3,13.3c0,0,10.7,0,8,16c0,0,8-8,16-2.7c0,0,0-13.3,10.7-16c0,0,2.7-21.3,10.7-24
			c0,0,8-2.7,13.3,13.3c0,0,5.3-10.7,10.7-10.7c0,0,5.3,0,5.3,10.7c0,0,5.3,2.7,2.7,13.3c0,0,10.7,2.7,5.3,13.3c0,0,2.7,5.3,0,10.7
			c0,0,8,0,10.7,5.3c0,0-2.7-13.3,2.7-16c0,0,0-21.3,8-18.7c0,0,2.7-16,13.3-13.3c0,0,5.3-10.7,13.3,2.7c0,0,5.3-16,13.3,0
			c0,0,5.3-5.3,13.3,2.7c0,0,18.7-8,29.3,0c0,0,8,0,13.3,5.3c0,0,13.3-5.3,26.6,0c0,0,10.7-8,26.6,0c0,0,16-5.3,26.6-2.7
			c0,0,8-10.7,21.3-2.7c0,0,5.3-2.7,13.3,2.7c0,0,5.3-16,13.3-18.7c0,0,10.7-2.7,18.6,13.3c0,0,10.7,5.3,10.7,13.3
			c0,0,0-16,5.3-21.3c0,0-2.7-18.7,5.3-21.3c0,0,8,0,10.7,18.7c0,0,5.3-8,8-2.7c0,0,0-13.3,5.3-13.3c0,0,0-10.7,8-10.7
			c0,0,13.3,2.7,18.6,16c0,0,8-8,16,0c0,0,10.7-18.7,18.7-2.7c0,0,16,0,16,16c0,0,16-8,24,2.7c0,0,21.3-13.3,34.6-2.7
			c0,0,0.6-0.4,1.7-0.9c-6.5-1.8-17.9-6.4-1.7-12.4c0,0-8-16,18.6-10.7c0,0,13.3-8,26.6,0c0,0,6.9-4.6,18.6,1.2V-76.6H-1.7v9.5
			c18.5-1.9,56.1-4.7,71.9,1.2c21.3,8,13.3,18.7,13.3,18.7c18.6,18.7-8,16-8,16c10.7,16-18.7,10.7-18.7,10.7c8,8-2.7,18.7-2.7,18.7
			c0,10.7-18.6,8-18.6,8c8,2.7,5.3,8,5.3,8c13.3,2.7,13.3,10.7,13.3,10.7c18.6,2.7,16,16,16,16c24,0,18.6,5.3,18.6,5.3
			c16-8,21.3,0,21.3,0c0-8,13.3-10.7,13.3-10.7c13.3-16,16,0,16,0c13.3,13.3-2.7,16-2.7,16c5.3,18.7-16,21.3-16,21.3
			c-10.7,18.7-24,5.3-24,5.3c0,8-8,8-8,8c13.3,29.3-16,5.3-16,5.3c-5.3,10.7-16,2.7-16,2.7c-5.3,8-21.3,2.7-21.3,2.7
			c4.6,2.9,7.6,7.9,8,13.3c13.3-5.3,18.6,2.7,18.6,2.7c13.3,5.3,2.7,16,2.7,16c10.7,21.3-13.3,13.3-13.3,13.3c8,13.3-8,13.3-8,13.3
			c2.7,16-21.3-2.7-21.3-2.7c2.7,5.3,0,10.7,0,10.7c13.4,10.7,2.8,18.7,2.8,18.7c2.7,8-10.6,8-10.6,8c8,5.3-2.7,13.3-5.3,13.3
			l-10.6-3.6V266l16,4C14.4,270.1,9,262.1,11.6,256.8z"/>
		
			<linearGradient id="SVGID_4_" gradientUnits="userSpaceOnUse" x1="507.4001" y1="403.5" x2="507.4001" y2="209.5779" gradientTransform="matrix(1 0 0 1 0 14)">
			<stop  offset="0" style="stop-color:#001F45"/>
			<stop  offset="1" style="stop-color:#005845"/>
		</linearGradient>
		<path class="st2" d="M928.2,417.5c-0.2-1.1-0.3-2.3-0.3-3.4c0,0-40-5.3,16-18.7c0,0,29.3-5.3,45.3-5.3h2.7c0,0-2.7-5.3,13.3-13.3
			c0,0-50.6,8-26.6-5.3c0,0-34.6,2.7-10.7-10.7c0,0-5.3-8,2.7-16c0,0-63.9,10.7-10.7-8c0,0,0-5.3,10.7-8c0,0-42.6-5.3-8-13.3
			c0,0,5.3-8,21.3-2.7c0,0,18.6-5.3,29.3,0c0,0-5.3-8,0-13.3c0,0-5.3-8,2.7-16c0,0-24,2.7,0-10.7c0,0-1.6-0.3-3.6-0.9
			c-1.1,0.5-1.7,0.9-1.7,0.9c-13.3-10.7-34.6,2.7-34.6,2.7c-8-10.7-24-2.7-24-2.7c0-16-16-16-16-16c-8-16-18.7,2.7-18.7,2.7
			c-8-8-16,0-16,0c-5.3-13.3-18.6-16-18.6-16c-8,0-8,10.7-8,10.7c-5.3,0-5.3,13.3-5.3,13.3c-2.7-5.3-8,2.7-8,2.7
			c-2.7-18.7-10.7-18.7-10.7-18.7c-8,2.7-5.3,21.3-5.3,21.3c-5.3,5.3-5.3,21.3-5.3,21.3c0-8-10.7-13.3-10.7-13.3
			c-8-16-18.6-13.3-18.6-13.3c-8,2.7-13.3,18.7-13.3,18.7c-8-5.3-13.3-2.7-13.3-2.7c-13.3-8-21.3,2.7-21.3,2.7
			c-10.7-2.7-26.6,2.7-26.6,2.7c-16-8-26.6,0-26.6,0c-13.3-5.3-26.6,0-26.6,0c-5.3-5.3-13.3-5.3-13.3-5.3c-10.7-8-29.3,0-29.3,0
			c-8-8-13.3-2.7-13.3-2.7c-8-16-13.3,0-13.3,0c-8-13.3-13.3-2.7-13.3-2.7c-10.7-2.7-13.3,13.3-13.3,13.3c-8-2.7-8,18.7-8,18.7
			c-5.3,2.7-2.7,16-2.7,16c-2.7-5.3-10.7-5.3-10.7-5.3c2.7-5.3,0-10.7,0-10.7c5.3-10.7-5.3-13.3-5.3-13.3
			c2.7-10.7-2.7-13.3-2.7-13.3c0-10.7-5.3-10.7-5.3-10.7c-5.3,0-10.7,10.7-10.7,10.7c-5.3-16-13.3-13.3-13.3-13.3
			c-8,2.7-10.7,24-10.7,24c-10.7,2.7-10.7,16-10.7,16c-8-5.3-16,2.7-16,2.7c2.7-16-8-16-8-16c2.7-16-13.3-13.3-13.3-13.3
			c-8-13.3-16-5.3-16-5.3c-10.7-5.3-13.3,8-13.3,8c-10.6,0-8,8-8,8c-8,5.3-8,18.7-8,18.7c-5.3-10.7-13.3-2.7-13.3-2.7
			c0-16-10.6-10.7-10.6-10.7c-5.3-10.7-10.6-5.3-10.6-5.3c-2.7,2.7-2.7,13.3-2.7,13.3c-2.7-8-5.3-10.7-5.3-10.7
			c5.3-13.3-2.7-18.7-2.7-18.7c0-13.3-13.3-13.3-13.3-13.3c-8-8-13.3,0-13.3,0c-5.3-2.7-8,0-8,0c-10.7,5.3-5.3,18.7-5.3,18.7
			s-2.7-2.7-5.3,0c-0.2,0.2-0.4,0.4-0.5,0.7c-1.7,2.8,0.5,7.3,0.5,7.3c-8-5.3-16,0-16,0c-13.3-2.7-10.6,18.7-10.6,18.7
			c-16,0-16,16-16,16c-8-2.7-10.6,0-10.6,0c2.7-10.7-8-16-8-16c-2.7-13.3-16-16-16-16c5.3-16-5.3-16-5.3-16c2.7-10.7,0-21.3,0-21.3
			c-2.7-8-8-2.7-8-2.7c-2.7,0-2.7,13.3-2.7,13.3c-2.7-2.7-8,0-8,0c8-16-2.7-16-2.7-16c-2.7-13.3-10.6-5.3-10.6-5.3
			c-10.6-5.3-16,5.3-16,5.3c-5.3,2.7-5.3,10.7-5.3,10.7c-5.3-8-10.6-2.7-10.6-2.7c-2.7,5.3,0,13.3,0,13.3c-2.7,8,2.7,10.7,2.7,10.7
			c-2.7,2.7,0,16,0,16c0-2.7-5.3,0-5.3,0c0-10.7-10.7-10.7-10.7-10.7c2.7-5.3-8-10.7-8-10.7c0-8-10.6-10.7-10.6-10.7
			c-5.3-8-13.3,2.7-13.3,2.7c-8-2.7-13.3,8-13.3,8c-5.3-2.7-10.7,0-10.7,0c-5.3-8-10.7,0-10.7,0c-2.7-2.7-8-2.7-8-2.7
			c2.7-8-5.3-5.3-5.3-5.3c2.7-5.3-2.7-5.3-2.7-5.3c0-1.4-1.1-2.6-2.5-2.7h-0.1c5.3-2.7,0-5.3,0-5.3c2.7,0,2.7-5.3,2.7-5.3
			c5.3-5.3-2.7-8-2.7-8c0-10.7-8-10.7-8-10.7c-2.7-10.7-10.7-5.3-10.7-5.3c-5.3-5.3-10.7-2.7-10.7-2.7c-5.3-2.7-8,0-8,0
			c-5.3-2.7-8,2.7-8,2.7c-8-5.3-10.7,5.3-10.7,5.3c-8-2.7-8,5.3-8,5.3c-8,2.7-5.3,8-5.3,8c-4.6,1.5-7.8,5.8-8,10.7
			c-2.3,5.3,3,13.3,3,13.3l-16-4v149.6C76,410.6,431,391.3,928.2,417.5z"/>
		
			<linearGradient id="SVGID_5_" gradientUnits="userSpaceOnUse" x1="536.3" y1="709.3" x2="536.3" y2="390.1283" gradientTransform="matrix(1 0 0 1 0 14)">
			<stop  offset="0" style="stop-color:#003923"/>
			<stop  offset="0.97" style="stop-color:#008744"/>
			<stop  offset="1" style="stop-color:#009245"/>
		</linearGradient>
		<path class="st3" d="M1010.4,587.4c-13.3-5.3-10.7-5.3-10.7-5.3c5.3-5.3,32-5.3,32-5.3c8.8-1.3,17.7-2.1,26.6-2.3
			c0-0.1,0-0.2,0-0.3s1.6-57.9,1.1-88.7c-12.3-1.4-26.4,2.8-38.4-1.9c0,0-8,10.7-21.3,13.3c0,0-8,8-18.7,10.7
			c0,0-10.7,10.7-18.6,10.7c3.2-4.7,6.7-9.2,10.7-13.3c0,0,5.3-10.7,10.7-16c0,0-5.3,5.3-16,5.3c0,0-16,5.3-24,2.7
			c0,0-10.7,0-13.3-5.3c0,0-13.3,8-18.6,5.3c0,0,2.7-8,13.3-13.3c0,0,6.9-13.8,25-20c-9.5,2.7-30,7-9-12c0,0-47.9,8-10.7-10.7
			c0,0-50.6,5.3,5.3-13.3c-4.1-1.7-7-5.5-7.7-9.9C431,391.3,76,410.6-1.7,415.6v307.7h1076v-133
			C1056.2,590.9,1020.2,591.3,1010.4,587.4z"/>
		<path class="st4" d="M1065.8,486.5c0.3,6.3,0.6,14.1,0.6,23.6c0,0,2.1,46.8,0.7,64.4c2.8,0.1,5.2,0.3,7.3,0.5v-87.7
			C1071.5,487.3,1068.6,487.1,1065.8,486.5z"/>
		
			<linearGradient id="SVGID_6_" gradientUnits="userSpaceOnUse" x1="991.9514" y1="503.9999" x2="991.9514" y2="231.2444" gradientTransform="matrix(1 0 0 1 0 14)">
			<stop  offset="0" style="stop-color:#001509"/>
			<stop  offset="1" style="stop-color:#003200"/>
		</linearGradient>
		<path class="st5" d="M1055.7,248.8c-13.3-8-26.6,0-26.6,0c-26.6-5.3-18.6,10.7-18.6,10.7c-16.2,6.1-4.8,10.6,1.7,12.4
			c2.1,0.6,3.6,0.9,3.6,0.9c-24,13.3,0,10.7,0,10.7c-8,8-2.7,16-2.7,16c-5.3,5.3,0,13.3,0,13.3c-10.7-5.3-29.3,0-29.3,0
			c-16-5.3-21.3,2.7-21.3,2.7c-34.6,8,8,13.3,8,13.3c-10.7,2.7-10.7,8-10.7,8c-53.3,18.7,10.7,8,10.7,8c-8,8-2.7,16-2.7,16
			c-24,13.3,10.7,10.7,10.7,10.7c-24,13.3,26.6,5.3,26.6,5.3c-16,8-13.3,13.3-13.3,13.3h-2.7c-16,0-45.3,5.3-45.3,5.3
			c-55.9,13.3-16,18.7-16,18.7c0,1.1,0.1,2.3,0.3,3.4c0.7,4.4,3.6,8.2,7.7,9.9c-55.9,18.7-5.3,13.3-5.3,13.3
			c-37.3,18.7,10.7,10.7,10.7,10.7c-21,19-0.6,14.6,9,12c1.4-0.5,2.8-0.9,4.3-1.3c0,0-1.8,0.6-4.3,1.3c-18.1,6.2-25,20-25,20
			c-10.7,5.3-13.3,13.3-13.3,13.3c5.3,2.7,18.6-5.3,18.6-5.3c2.7,5.3,13.3,5.3,13.3,5.3c8,2.7,24-2.7,24-2.7c10.7,0,16-5.3,16-5.3
			c-5.3,5.3-10.7,16-10.7,16c-3.9,4.1-7.5,8.6-10.7,13.3c8,0,18.6-10.7,18.6-10.7c10.7-2.7,18.7-10.7,18.7-10.7
			c13.3-2.7,21.3-13.3,21.3-13.3c11.9,4.8,26.1,0.5,38.4,1.9c-0.2-8.9-0.5-15.5-1.1-17.9c0,0,0-13.3,2.7-10.7s2.7,8,2.7,8
			s1.3,6.6,2.1,21.8c2.8,0.6,5.7,0.8,8.6,0.7V250C1062.6,244.1,1055.7,248.8,1055.7,248.8z"/>
		<path class="st6" d="M950.1,463.4c2.5-0.7,4.3-1.3,4.3-1.3C953,462.4,951.5,462.9,950.1,463.4z"/>
		<path class="st7" d="M1067,574.4c-0.1,1.7-0.3,3.3-0.7,4.9c0,1.4-1.1,2.6-2.5,2.7h-0.1c0,0-5.2,2.6-5.3-7.7
			c-8.9,0.2-17.8,1-26.6,2.3c0,0-26.6,0-32,5.3c0,0-2.7,0,10.7,5.3c9.8,3.9,45.8,3.5,63.9,3v-15.5
			C1072.2,574.7,1069.8,574.5,1067,574.4z"/>
		<path class="st8" d="M1066.3,510c0-9.5-0.2-17.2-0.6-23.6c-0.8-15.1-2.1-21.8-2.1-21.8s0-5.3-2.7-8s-2.7,10.7-2.7,10.7
			c0.6,2.4,0.9,9,1.1,17.9c0.5,30.9-1.1,88.7-1.1,88.7s0,0.2,0,0.3c0.1,10.2,5.3,7.7,5.3,7.7c1.4,0,2.6-1.1,2.7-2.6v-0.1
			c0.3-1.6,0.6-3.3,0.7-4.9C1068.4,556.8,1066.3,510,1066.3,510z"/>
		
			<linearGradient id="SVGID_7_" gradientUnits="userSpaceOnUse" x1="71.642" y1="189.4" x2="71.642" y2="-83.4546" gradientTransform="matrix(1 0 0 1 0 14)">
			<stop  offset="0" style="stop-color:#001509"/>
			<stop  offset="1" style="stop-color:#003200"/>
		</linearGradient>
		<path class="st9" d="M14.3,190.1c0,0,13.3,0,10.7-8c0,0,10.7-8-2.7-18.7c0,0,2.7-5.3,0-10.7c0,0,24,18.7,21.3,2.7c0,0,16,0,8-13.3
			c0,0,24,8,13.3-13.3c0,0,10.7-10.7-2.7-16c0,0-5.3-8-18.6-2.7c-0.4-5.5-3.4-10.4-8-13.3c0,0,16,5.3,21.3-2.7c0,0,10.7,8,16-2.7
			c0,0,29.3,24,16-5.3c0,0,8,0,8-8c0,0,13.3,13.3,24-5.3c0,0,21.3-2.7,16-21.3c0,0,16-2.7,2.7-16c0,0-2.7-16-16,0
			c0,0-13.3,2.7-13.3,10.7c0,0-5.3-8-21.3,0c0,0,5.3-5.3-18.6-5.3c0,0,2.7-13.3-16-16c0,0,0-8-13.3-10.7c0,0,2.7-5.3-5.3-8
			c0,0,18.6,2.7,18.6-8c0,0,10.7-10.7,2.7-18.7c0,0,29.3,5.3,18.6-10.7c0,0,26.6,2.7,8-16c0,0,8-10.7-13.3-18.7
			c-15.8-5.9-53.5-3.1-72-1.2v267L9,203.4C11.6,203.4,22.3,195.4,14.3,190.1z"/>
		<g class="st0">
			
				<image style="overflow:visible;opacity:0.86;enable-background:new    ;" width="126" height="126" xlink:href="97D5793F.png"  transform="matrix(1 0 0 1 853.5 40)">
			</image>
			<ellipse class="st10" cx="916.4" cy="103" rx="23.4" ry="23.4"/>
		</g>
		<g class="st0">
			<path d="M572.6,410.6c-1.6-27-2.1-54.1-2.1-78c0.1-32,1.1-58.1,1.7-69.7c0.2-4.3,0.3-6.6,0.3-6.6H500c0,0,0.1,2.3,0.3,6.6
				c0.5,11.7,1.6,37.7,1.6,69.7c0,8.3,0,16.9-0.2,25.8c-0.3,16.9-0.8,34.6-1.9,52.2L572.6,410.6z"/>
			<rect x="528.2" y="217.2" width="16.1" height="34.4"/>
			<g>
				<g>
					<path class="st11" d="M537,345.1h-3.2v-0.4h3.2c0.3,0,0.6-0.2,0.6-0.5v-4.6h-3.7v-0.4h4.2v5C538,344.7,537.6,345.1,537,345.1
						C537.1,345.2,537,345.2,537,345.1z"/>
					<path class="st11" d="M536.1,351.9h0.9c0.3,0,0.6-0.2,0.6-0.5v-4.1c0-0.3-0.3-0.6-0.6-0.6h-2.2c-0.3,0-0.6,0.3-0.5,0.6v5h-0.4
						v-5c0-0.5,0.4-0.9,0.9-0.9h2.2c0.5,0,0.9,0.4,0.9,0.9v4.1c0,0.5-0.4,0.9-0.9,0.9h-1.3v-5.2h0.4L536.1,351.9z"/>
					<path class="st11" d="M537,359.4h-2.2c-0.5,0-0.9-0.4-0.9-0.9v-4.1c0-0.5,0.4-0.9,0.9-0.9h2.2c0.5,0,0.9,0.4,0.9,0.9v4.1
						C537.9,359,537.5,359.4,537,359.4z M537,359c0.3,0,0.6-0.3,0.6-0.6v-4.1c0-0.3-0.3-0.6-0.6-0.6h-2.2c-0.3,0-0.6,0.3-0.5,0.6
						v4.1c0,0.3,0.2,0.6,0.5,0.6H537z"/>
					<path class="st11" d="M534.2,363.4h-0.4v-1.9c0-0.5,0.4-0.9,0.9-0.9h4.1v0.4H538v2h-0.4v-2h-2.8c-0.3,0-0.6,0.3-0.5,0.6
						L534.2,363.4z"/>
					<path class="st11" d="M537,370.3h-3.2v-5c0-0.5,0.4-0.9,0.9-0.9h0.7c0.5,0,0.9,0.4,0.9,0.9v4.3h-0.4v-4.3
						c0-0.3-0.3-0.6-0.6-0.5h-0.7c-0.3,0-0.5,0.2-0.5,0.5v4.6h2.8c0.3,0,0.6-0.2,0.6-0.5v-4.8h0.4v4.8
						C538,369.9,537.5,370.3,537,370.3L537,370.3z"/>
					<path class="st11" d="M532,371.5h0.4v5c0,0.3,0.3,0.6,0.6,0.5h4.6v-4.6c0-0.3-0.3-0.6-0.6-0.6h-2.2c-0.3,0-0.6,0.3-0.5,0.6v4.3
						h-0.4v-4.3c0-0.5,0.4-0.9,0.9-0.9h2.2c0.5,0,0.9,0.4,0.9,0.9v5h-5c-0.5,0-0.9-0.4-0.9-0.9V371.5z"/>
					<path class="st11" d="M534.5,378.8v0.2c0,0.1-0.1,0.2-0.2,0.2l0,0h-0.2c-0.1,0-0.2-0.1-0.2-0.2l0,0v-0.2c0-0.1,0.1-0.2,0.2-0.2
						l0,0h0.2C534.4,378.6,534.5,378.6,534.5,378.8L534.5,378.8z"/>
					<path class="st11" d="M538,380.4v0.4h-4.1v-0.4H538z M539.1,380.7h-0.4v-0.4h0.4V380.7z"/>
					<path class="st11" d="M537,387.9h-2.2c-0.5,0-0.9-0.4-0.9-0.9v-4.1c0-0.5,0.4-0.9,0.9-0.9h2.2c0.5,0,0.9,0.4,0.9,0.9v4.1
						C537.9,387.4,537.5,387.9,537,387.9z M537,387.5c0.3,0,0.6-0.3,0.6-0.6v-4.1c0-0.3-0.3-0.6-0.6-0.6h-2.2
						c-0.3,0-0.6,0.3-0.5,0.6v4.1c0,0.3,0.2,0.6,0.5,0.6H537z"/>
				</g>
				<g>
					<path class="st11" d="M542,228.1h-2.2v6h-1.1c-0.3,0-0.5-0.1-0.7-0.4l-4.8-5.6l0,0h-0.1v7.7c1,0.6,2.1,0.9,3.2,0.9
						c3.4,0,6.2-2.8,6.2-6.2C542.5,229.7,542.4,228.9,542,228.1z"/>
					<path class="st11" d="M534,227.4l4.8,5.6h0.1v-5h-2.2c-0.1,0-0.1,0-0.1-0.1l0,0c0,0,0,0,0-0.1l0.3-0.8l0,0
						c0-0.1,0.1-0.1,0.1-0.1h4.5c-1.8-2.9-5.7-3.7-8.6-1.9c-2.9,1.8-3.7,5.7-1.9,8.6c0.3,0.5,0.7,0.9,1.1,1.3v-7.3
						c0-0.4,0.3-0.7,0.7-0.8h0.4C533.5,227,533.8,227.2,534,227.4z"/>
				</g>
			</g>
			<path class="st12" d="M500.3,262.8h-0.8v69.7h2.4C501.9,300.5,500.9,274.5,500.3,262.8z"/>
			<g>
				
					<image style="overflow:visible;opacity:0.87;enable-background:new    ;" width="47" height="44" xlink:href="97D5793D.png"  transform="matrix(1 0 0 1 512.5 185)">
				</image>
				<polygon class="st13" points="540.2,200.4 532.4,200.4 528.2,210.1 528.2,213.3 533.6,213.3 539,213.3 544.3,213.3 544.3,210.1 
									"/>
			</g>
			<rect x="531.2" y="213.3" class="st12" width="10.2" height="3.9"/>
			<path d="M497.6,251.6H575c1.1,0,2,0.9,2,2v0.6c0,1.1-0.9,2-2,2h-77.4c-1.1,0-2-0.9-2-2v-0.6C495.6,252.5,496.5,251.6,497.6,251.6
				z"/>
			<path d="M497.6,410.6H575c1.1,0,2,0.9,2,2v0.6c0,1.1-0.9,2-2,2h-77.4c-1.1,0-2-0.9-2-2v-0.6C495.6,411.5,496.5,410.6,497.6,410.6
				z"/>
			<rect x="535.7" y="195.3" class="st14" width="1.2" height="5.1"/>
			<path class="st15" d="M540.1,268.8l-0.2,8.9v1.6h1.3c1.1,0,2,0.9,2,2v22.4c0,1.1-0.9,2-2,2H539v0.5c0,1.1-0.9,1.9-2,2h-2
				c-1.1,0-1.9-0.9-2-2v-0.5h-2.2c-1.1,0-2-0.9-2-2v-22.4c0-1.1,0.9-1.9,2-2h1.3v-0.8V278l-0.3-9.2h-5.2v63.7h19v-63.7H540.1z"/>
			<path class="st16" d="M533.1,305.6v0.5c0,1.1,0.9,1.9,2,2h2c1.1,0,1.9-0.9,2-2v-0.5"/>
			<polyline class="st16" points="540,279.3 539.8,279.3 539.8,279.7 			"/>
			<polyline class="st16" points="540,279.3 539.8,279.3 539.8,279.7 			"/>
			<g>
				<path class="st11" d="M532.4,284.7v-1.6l-0.1-3.8H531c-1.1,0-1.9,0.9-2,2v22.4c0,1.1,0.9,2,2,2h2.2L532.4,284.7z"/>
				<path class="st11" d="M541.1,279.3h-1.3v0.4l-0.1,2.4l-0.1,3l-0.7,20.6h2.2c1.1,0,2-0.9,2-2v-22.4
					C543.1,280.2,542.2,279.3,541.1,279.3z"/>
			</g>
			<path class="st12" d="M546.9,262.7h-21.3c-0.4,0-0.7,0.3-0.7,0.7v4.8c0,0.4,0.3,0.7,0.7,0.7h21.3c0.4,0,0.7-0.3,0.7-0.7v-4.8
				C547.6,263,547.3,262.7,546.9,262.7z"/>
			<g>
				<path class="st12" d="M538.9,306.1c0,1.1-0.9,1.9-2,2h-2c-1.1,0-1.9-0.9-2-2v-0.5l0,0h-0.5v26.9h6.9v-27h-0.5L538.9,306.1
					L538.9,306.1z"/>
				<path class="st17" d="M532,268.8l0.3,9.2v0.5v0.8l0.1,3.8v1.6l0.7,20.9l0,0v0.5c0,1.1,0.9,1.9,2,2h2c1.1,0,1.9-0.9,2-2v-0.5
					l0.7-20.6l0.1-3l0.1-2.4v-0.4v-1.6l0.2-8.9L532,268.8z"/>
			</g>
			<path class="st16" d="M537.5,284.8h-3.8v6.4c0,0.2,0.2,0.4,0.4,0.4h3.7c0.2,0,0.4-0.2,0.4-0.4l0,0v-6.4H537.5z"/>
			<path class="st11" d="M537.9,275.9h-3.7c-0.2,0-0.4,0.2-0.4,0.4l0,0v8.5h4.5v-8.5C538.3,276.1,538.1,275.9,537.9,275.9z"/>
			<path class="st12" d="M572.3,262.8h0.8v69.7h-2.4C570.7,300.5,571.8,274.5,572.3,262.8z"/>
			<g>
				<path class="st12" d="M499.8,262.8l-17.2-0.1c-1.1,0-1.9,0.9-2,2v2.2c0,1.1,0.9,1.9,2,2h10.9l6,0.1v-6.1h0.3V262.8z"/>
				<path class="st16" d="M486.4,305.5l2.2-4.2L486.4,305.5z"/>
			</g>
			<path class="st16" d="M486.5,293c0.2,0.1,0.2,0.4,0.1,0.5l-4,4.9c-0.1,0.2-0.4,0.2-0.5,0.1s-0.2-0.4-0.1-0.5l4-4.9
				C486.2,292.9,486.4,292.9,486.5,293L486.5,293z M484.9,290.9c0.1-0.2,0.3-0.2,0.5-0.1s0.2,0.3,0.1,0.5c0,0,0,0.1-0.1,0.1l-4,4.9
				c-0.1,0.2-0.4,0.2-0.5,0.1l0,0c-0.2-0.1-0.2-0.3-0.1-0.5l0,0L484.9,290.9z M484.2,288.6c0.2,0.1,0.2,0.4,0.1,0.5l0,0l-4,4.9
				c-0.1,0.2-0.3,0.2-0.5,0.1l0,0c-0.2-0.1-0.2-0.4-0.1-0.5l4-4.9C483.8,288.5,484,288.4,484.2,288.6L484.2,288.6z"/>
			<g>
				<path class="st16" d="M488.6,293.4c0,0-4.7-11.8-6.6-11.7c-1,0-5.5,4.2-9.2,7.8c-1.7,3.3-3,6.8-4.1,10.4
					c1.6,7.3,8.1,11.7,8.1,11.7c3.3-1,6.4-2.8,8.9-5.2l7.9-15.3c-0.3-0.6-0.9-0.9-1.5-0.9C489.4,295,488.6,293.4,488.6,293.4z
					 M482.9,303.8c-0.1,1-0.5,1.9-1.3,2.5c-0.9,0.8-2.3-0.1-2.8-0.7s-2.9-4.9-2.9-4.9s-2.5-3.6-0.5-6s2.8-0.4,2.8-0.4l2,4.1
					L482.9,303.8z"/>
				<path class="st16" d="M479.8,277l-3-1.7c-0.1-0.1-0.2,0-0.3,0.1l0,0l-4.4,7.5c0,0.1,0,0.1,0,0.2l0,0l1.6,4.6
					C475.3,284.7,477.3,281.1,479.8,277z"/>
			</g>
			<path class="st11" d="M479.8,277l-3-1.7c-0.1-0.1-0.2,0-0.3,0.1l0,0l-4.4,7.5c0,0.1,0,0.1,0,0.2l0,0l1.6,4.6
				C475.3,284.7,477.3,281.1,479.8,277z"/>
			<g>
				<polygon class="st14" points="496,305.6 496,305.6 499.6,306.5 499.6,296.7 496.6,296.7 				"/>
				<polygon class="st18" points="494.3,295.1 494.7,293.8 493,292.7 488.6,301.3 486.4,305.5 491,307.2 491.7,304.9 				"/>
				<polygon class="st14" points="496.6,295.7 494.3,295.1 491.7,304.9 491.4,305.9 495.9,307.7 496,305.6 496,305.6 				"/>
				<path d="M485.3,268.8c-2.1,2.9-3.9,5.6-5.5,8.2c-2.5,4-4.5,7.6-6.1,10.7c-0.3,0.6-0.6,1.3-0.9,1.8c3.7-3.6,8.2-7.8,9.2-7.8
					c1.9-0.1,6.6,11.7,6.6,11.7s0.8,1.5,3.6-3c-0.6,0-1.3,0.2-1.9,0.5c0,0-3.8-3.5-2.5-6.7s1-4.9,1-4.9l4.5-9.3
					c0.7-0.1,1.4-0.5,1.8-1.1h-1.8L485.3,268.8z"/>
			</g>
			<path class="st11" d="M488.6,293.4c0,0-4.7-11.8-6.6-11.7c-1,0-5.5,4.2-9.2,7.8c-1.7,3.3-3,6.8-4.1,10.4
				c1.6,7.3,8.1,11.7,8.1,11.7c3.3-1,6.4-2.8,8.9-5.2l7.9-15.3c-0.3-0.6-0.9-0.9-1.5-0.9C489.4,295,488.6,293.4,488.6,293.4z
				 M482.9,303.8c-0.1,1-0.5,1.9-1.3,2.5c-0.9,0.8-2.3-0.1-2.8-0.7s-2.9-4.9-2.9-4.9s-2.5-3.6-0.5-6s2.8-0.4,2.8-0.4l2,4.1
				L482.9,303.8z"/>
			<g>
				<path class="st12" d="M572.8,262.8l17.2-0.1c1.1,0,2,0.9,2,2v2.2c0,1.1-0.9,2-2,2h-10.9l-6,0.1v-6.1h-0.3V262.8z"/>
				<path class="st16" d="M586.3,305.5l-2.2-4.2L586.3,305.5z"/>
			</g>
			<path class="st16" d="M586.6,293l4,4.9c0.1,0.2,0.1,0.4-0.1,0.5s-0.4,0.1-0.5-0.1l0,0l-4-4.9c-0.1-0.2-0.1-0.4,0.1-0.5
				C586.2,292.8,586.5,292.8,586.6,293L586.6,293z M591.7,295.8c0.1,0.1,0.1,0.4,0,0.5l0,0c-0.2,0.1-0.4,0.1-0.5,0l-4-4.9
				c-0.1-0.1-0.2-0.4,0-0.5c0.1-0.1,0.4-0.2,0.5,0c0,0,0,0.1,0.1,0.1L591.7,295.8z M589,288.6l4,4.9c0.1,0.2,0.1,0.4-0.1,0.5
				c-0.2,0.1-0.4,0.1-0.5-0.1l0,0l-4-4.9c-0.1-0.2-0.1-0.4,0-0.5l0,0C588.6,288.4,588.9,288.4,589,288.6z"/>
			<g>
				<path class="st16" d="M580.4,290.4c-0.6,0-1.2,0.3-1.5,0.9l7.9,15.3c2.5,2.4,5.6,4.2,8.9,5.2c0,0,6.5-4.4,8.1-11.7
					c-1-3.6-2.4-7.1-4-10.5c-3.7-3.6-8.2-7.8-9.2-7.8c-1.8-0.1-6.6,11.7-6.6,11.7S583.2,295,580.4,290.4z M592.4,298.5l2-4.1
					c0,0,0.8-2,2.8,0.4s-0.5,6-0.5,6s-2.4,4.4-2.9,4.9s-1.8,1.4-2.8,0.6c-0.8-0.6-1.2-1.5-1.3-2.5L592.4,298.5z"/>
				<path class="st16" d="M592.8,277l3-1.7c0.1-0.1,0.2,0,0.3,0.1l0,0l4.4,7.5c0,0.1,0,0.1,0,0.2l0,0l-1.6,4.6
					C597.4,284.7,595.4,281.1,592.8,277z"/>
			</g>
			<path class="st11" d="M592.8,277l3-1.7c0.1-0.1,0.2,0,0.3,0.1l0,0l4.4,7.5c0,0.1,0,0.1,0,0.2l0,0l-1.6,4.6
				C597.4,284.7,595.4,281.1,592.8,277z"/>
			<g>
				<polygon class="st14" points="576.6,305.6 576.6,305.6 573.1,306.5 573.1,296.7 576,296.7 				"/>
				<polygon class="st18" points="578.3,295.1 578,293.8 579.7,292.7 584.1,301.3 586.3,305.5 581.6,307.2 581,304.9 				"/>
				<polygon class="st14" points="576,295.7 578.3,295.1 581,304.9 581.3,305.9 576.7,307.7 576.6,305.6 576.6,305.6 				"/>
				<path d="M587.3,268.8c2.1,2.9,3.9,5.6,5.5,8.2c2.5,4,4.5,7.6,6.1,10.7c0.3,0.6,0.6,1.3,0.9,1.8c-3.7-3.6-8.2-7.8-9.2-7.8
					c-1.8-0.1-6.6,11.7-6.6,11.7s-0.8,1.5-3.6-3c0.6,0,1.3,0.2,1.8,0.5c0,0,3.8-3.5,2.5-6.7s-1-4.9-1-4.9l-4.6-9.3
					c-0.7-0.1-1.4-0.5-1.8-1.1h1.8L587.3,268.8z"/>
			</g>
			<path class="st11" d="M592.4,298.5l2-4.1c0,0,0.8-2,2.8,0.4s-0.5,6-0.5,6s-2.4,4.4-2.9,4.9s-1.8,1.4-2.8,0.6
				c-0.8-0.6-1.2-1.5-1.3-2.5L592.4,298.5z M580.4,290.4c-0.6,0-1.2,0.3-1.5,0.9l7.9,15.3c2.5,2.4,5.6,4.2,8.9,5.2
				c0,0,6.5-4.4,8.1-11.7c-1-3.6-2.4-7.1-4-10.5c-3.7-3.6-8.2-7.8-9.2-7.8c-1.8-0.1-6.6,11.7-6.6,11.7S583.2,295,580.4,290.4
				L580.4,290.4z"/>
			<g>
				<g>
					<circle class="st19" cx="483.9" cy="277.3" r="1.8"/>
					<circle class="st20" cx="483.6" cy="277" r="1.3"/>
				</g>
				<g>
					<circle class="st19" cx="588.7" cy="277.3" r="1.8"/>
					<circle class="st20" cx="588.4" cy="277" r="1.3"/>
				</g>
			</g>
			<path d="M486.5,293c0.2,0.1,0.2,0.4,0.1,0.5l-4,4.9c-0.1,0.2-0.4,0.2-0.5,0.1s-0.2-0.4-0.1-0.5l4-4.9
				C486.2,292.9,486.4,292.9,486.5,293L486.5,293z M484.9,290.9c0.1-0.2,0.3-0.2,0.5-0.1s0.2,0.3,0.1,0.5c0,0,0,0.1-0.1,0.1l-4,4.9
				c-0.1,0.2-0.4,0.2-0.5,0.1l0,0c-0.2-0.1-0.2-0.3-0.1-0.5l0,0L484.9,290.9z M484.2,288.6c0.2,0.1,0.2,0.4,0.1,0.5l0,0l-4,4.9
				c-0.1,0.2-0.3,0.2-0.5,0.1l0,0c-0.2-0.1-0.2-0.4-0.1-0.5l4-4.9C483.8,288.5,484,288.4,484.2,288.6L484.2,288.6z"/>
			<path d="M586.6,293l4,4.9c0.1,0.2,0.1,0.4-0.1,0.5s-0.4,0.1-0.5-0.1l0,0l-4-4.9c-0.1-0.2-0.1-0.4,0.1-0.5
				C586.2,292.8,586.5,292.8,586.6,293L586.6,293z M591.7,295.8c0.1,0.1,0.1,0.4,0,0.5l0,0c-0.2,0.1-0.4,0.1-0.5,0l-4-4.9
				c-0.1-0.1-0.2-0.4,0-0.5c0.1-0.1,0.4-0.2,0.5,0c0,0,0,0.1,0.1,0.1L591.7,295.8z M589,288.6l4,4.9c0.1,0.2,0.1,0.4-0.1,0.5
				c-0.2,0.1-0.4,0.1-0.5-0.1l0,0l-4-4.9c-0.1-0.2-0.1-0.4,0-0.5l0,0C588.6,288.4,588.9,288.4,589,288.6z"/>
		</g>
		<rect x="-0.5" y="391.1" class="st21" width="631" height="332.4"/>
		<g class="st0">
			<path class="st22" d="M465.6,310.2c0,0-3.6-8.5-0.4-10.9c4.2-3.3,8.6-1.3,6.5,0.1c-1.1,0.8-2.3,1.3-3.5,1.7c0,0,6.9,3.5,4.3,8.8
				L465.6,310.2z"/>
			<path class="st23" d="M465.6,310.2c-0.8-1.9-1.4-3.8-1.8-5.9c-0.2-1-0.2-2.1,0-3.1c0.1-0.5,0.3-1,0.6-1.5
				c0.2-0.2,0.3-0.4,0.5-0.6s0.4-0.3,0.6-0.5c0.9-0.6,1.8-1,2.8-1.3s2.2-0.2,3.2,0.1c0.1,0,0.3,0.1,0.4,0.2s0.3,0.2,0.3,0.3
				c0.1,0.1,0.2,0.3,0.2,0.5s-0.1,0.4-0.1,0.5c-0.4,0.4-0.8,0.8-1.3,1c-0.9,0.5-1.9,0.9-2.9,1.1l0,0l0,0c0.8,0.4,1.5,1,2.2,1.6
				s1.3,1.3,1.8,2c0.5,0.8,0.8,1.6,0.9,2.5c0,0.9-0.1,1.8-0.5,2.6l0,0L465.6,310.2z M465.6,310.2l6.8-0.4l0,0
				c0.4-0.8,0.6-1.7,0.5-2.6s-0.4-1.8-0.9-2.5c-0.5-0.8-1.1-1.4-1.8-2c-0.7-0.6-1.4-1.1-2.2-1.5l0,0l0,0c0.9-0.4,1.8-0.9,2.6-1.5
				c0.4-0.2,0.8-0.5,1.1-0.9c0.2-0.3-0.1-0.6-0.5-0.8c-0.9-0.3-1.9-0.4-2.8-0.1c-1,0.2-1.9,0.6-2.7,1.2c-0.4,0.2-0.8,0.6-1.1,1
				c-0.3,0.4-0.4,0.8-0.6,1.3c-0.2,1-0.2,2-0.1,3C464.4,306.4,464.9,308.3,465.6,310.2L465.6,310.2z"/>
		</g>
		<path class="st24" d="M778.4,421.8l-1.1-0.1l-1.1-0.1l-2.2-0.3l-1.1-0.1l-1.1-0.1c-1.8-0.2-3.7-0.4-5.5-0.6c0-0.3,0.1-0.5,0.2-0.8
			c0.1-0.5,0.2-0.9,0.3-1.4s0.2-0.9,0.3-1.4c0-0.3,0-0.5,0-0.8c0-0.1-0.1-0.3-0.1-0.4c-0.1-0.2-0.2-0.3-0.3-0.4
			c0.5-0.1,1-0.2,1.4-0.4c0.3-0.1,0.5-0.2,0.7-0.4c0.2-0.1,0.3-0.3,0.2-0.5s-0.2-0.4-0.4-0.5s-0.5-0.3-0.7-0.4
			c-0.6-0.2-1.2-0.4-1.8-0.6c-0.7-0.2-1.3-0.3-2-0.4c-1.4-0.3-2.8-0.5-4.2-0.7s-2.9-0.4-4.3-0.5s-2.9-0.3-4.4-0.3s-3-0.1-4.5-0.2
			s-3,0-4.5,0c-0.8,0-1.5,0-2.3,0.1c-0.4,0-0.8,0.1-1.2,0.1h-0.3l-0.3,0.1l-0.3,0.1l-0.3,0.1h-0.1l-0.1,0.1c-0.1,0-0.1,0.1-0.2,0.1
			c0,0,0,0-0.1,0.1v0.1v0.1v0.1c0,0,0,0.1,0.1,0.1l0.1,0.1l0.1,0.1c0,0,0.1,0.1,0.2,0.1c0.4,0.2,0.8,0.4,1.2,0.5h-0.3
			c-1.2-0.2-2.4-0.3-3.7-0.4s-2.5-0.2-3.7-0.3s-2.5-0.1-3.8-0.2s-2.5,0-3.8,0c-0.6,0-1.3,0-1.9,0.1c-0.3,0-0.7,0-1,0.1
			c-0.3,0-0.7,0.1-1,0.2c-0.1,0-0.1,0.1-0.2,0.1c-0.1,0-0.1,0.1-0.2,0.1l-0.1,0.1c0,0,0,0,0,0.1c0,0,0,0,0,0.1v0.1
			c0,0,0,0.1,0.1,0.1l0.1,0.1l0.1,0.1l0.1,0.1c0.4,0.2,0.9,0.4,1.3,0.6c1,0.3,2,0.6,3.1,0.9s2.2,0.5,3.3,0.7l1.7,0.3l0.6,0.1l0,0
			l0,0c-0.2,0.2-0.4,0.3-0.5,0.5s-0.3,0.4-0.5,0.5c-0.3,0.4-0.6,0.7-0.8,1s-0.5,0.8-0.8,1.2h-0.6c-1.5,0.1-3,0.2-4.5,0.3h-0.5h-0.5
			l-1.1,0.1c-0.7,0.1-1.4,0.2-2.2,0.3c-1.4,0.2-2.8,0.4-4.1,0.7c-0.7,0.1-1.3,0.3-1.9,0.5l-0.9,0.3l-0.4,0.1l-0.2,0.1h-0.1h-0.1
			l-0.2,0.1l0.1,0.1l0,0c1.1,1.2,2.1,2.4,3.1,3.7s1.9,2.5,2.8,3.7c0.4,0.6,0.8,1.2,1.2,1.8c0,0.2-0.1,0.3-0.1,0.5c0,0.3,0,0.5,0,0.8
			v0.1c0,0-0.3-0.2-0.4-0.3l-0.3-0.2c-0.2-0.1-0.3-0.1-0.5-0.2h-0.2H715h-0.1h-0.2h-0.2c-0.1,0-0.2,0-0.3,0l-0.3,0.1l-0.1,0.1
			c-0.1,0.1-0.2,0.3-0.2,0.4s-0.1,0.3-0.1,0.4v0.1l-0.7,0.1l-0.3,0.1c-0.1,0-0.2,0.1-0.3,0.1l-0.1,0.1c0,0,0,0,0,0.1v0.1v0.1
			c0,0.1,0.1,0.3,0.2,0.4c0.1,0.1,0.1,0.3,0.2,0.4s0.3,0.5,0.5,0.8c0.7,1.1,1.4,2.1,2.1,3.1l0.3,0.4l-1.9-0.4
			c-0.8-0.2-1.7-0.3-2.5-0.5s-1.7-0.3-2.6-0.4l-0.5-0.1c0-0.2,0.1-0.4,0.1-0.5l1-4.6l-1.8-0.1c0-0.5,0-1.1,0.1-1.6s0.1-1.2,0.2-1.8
			c0-0.3,0.1-0.6,0.1-0.9s0.1-0.6,0.1-0.9c0.2-1.2,0.5-2.4,0.7-3.6c0.1-0.6,0.3-1.2,0.4-1.8c0.1-0.6,0.2-1.2,0.2-1.8
			c0-0.3,0-0.6,0-0.9s-0.1-0.7-0.3-1c-0.2-0.4-0.5-0.7-0.8-1c-0.2-0.2-0.5-0.4-0.8-0.5l-0.5-0.2c0.3-0.1,0.6-0.2,0.9-0.3
			c0.3-0.1,0.6-0.2,0.8-0.4c0.2-0.1,0.3-0.3,0.3-0.5c-0.1-0.2-0.3-0.4-0.5-0.5c-0.3-0.2-0.6-0.3-0.9-0.4c-0.7-0.3-1.4-0.5-2.2-0.7
			s-1.6-0.4-2.4-0.5c-1.6-0.3-3.3-0.6-5-0.8s-3.4-0.4-5.2-0.6s-3.5-0.3-5.3-0.4s-3.5-0.2-5.3-0.2s-3.6-0.1-5.3,0
			c-0.9,0-1.8,0-2.7,0.1c-0.5,0-0.9,0.1-1.4,0.1c-0.2,0-0.5,0.1-0.7,0.1s-0.4,0.1-0.6,0.2c-0.2,0.1-0.3,0.2-0.5,0.3
			c-0.1,0.1-0.1,0.2-0.1,0.3c-1.4-0.1-2.8-0.2-4.2-0.3c-1.8-0.1-3.5-0.2-5.3-0.2s-3.6-0.1-5.3,0c-0.9,0-1.8,0-2.7,0.1
			c-0.5,0-0.9,0.1-1.4,0.1l-0.7,0.1c-0.2,0-0.4,0.1-0.6,0.2c-0.2,0.1-0.3,0.2-0.5,0.3c-0.1,0.1-0.1,0.2-0.1,0.3
			c0,0.1,0.1,0.2,0.2,0.3c0.1,0.1,0.2,0.2,0.3,0.3c0.6,0.3,1.2,0.6,1.9,0.8c0.7,0.2,1.4,0.5,2.1,0.7l2.2,0.6c1.5,0.4,3.1,0.7,4.7,1
			l2.4,0.5l0.4,0.1h-0.1c-0.2,0.1-0.3,0.3-0.4,0.4c-0.1,0.1-0.2,0.2-0.3,0.4c-0.2,0.2-0.3,0.5-0.4,0.8c-0.2,0.5-0.4,1-0.5,1.5
			c-0.2,1-0.4,2-0.4,3c-0.1,1-0.1,2,0,3c0,0.5,0,1,0.1,1.5s0.1,1,0.1,1.5c0.1,0.9,0.2,1.8,0.3,2.8c-0.4,0-0.7,0-1.1,0.1
			c-0.5,0-1.1,0.1-1.6,0.2c-0.3,0-0.5,0.1-0.8,0.1l-0.4,0.1h-0.2h-0.1H658l0,0h-0.1l-0.2,0.1v0.1l0,0c0.1,0.9,0.3,1.8,0.4,2.7
			l-2.7,1.5l-0.1,0.1h0.1l0,0c0.4,0.2,0.7,0.3,1,0.5c-0.3,0-0.5,0.1-0.8,0.1c-0.6,0.1-1.1,0.3-1.7,0.5c-0.5,0.2-1,0.3-1.5,0.5
			l-0.2,0.1l-0.2,0.1l-0.3,0.2l-0.3,0.2c-0.1,0.1-0.2,0.1-0.3,0.2l-0.3,0.2l-0.2,0.2l-0.2,0.2l-0.1,0.1l-0.1,0.1
			c-0.5,0.4-0.9,0.9-1.1,1.5c-0.2,0.5-0.3,1-0.3,1.5v0.4v0.1v0.1v0.2v0.2v0.1v0.1l0.1,0.4c0,0.1,0.1,0.3,0.1,0.4l0.1,0.4
			c0,0.1,0.1,0.3,0.1,0.4l0.1,0.4c0.1,0.3,0.2,0.5,0.3,0.8l0.2,0.4c0.1,0.1,0.1,0.3,0.2,0.4c0.6,1.1,1.3,2.1,2.2,3
			c1.1,1.1,2.3,2.1,3.6,2.9c1.6,1,3.4,1.9,5.2,2.6c1,0.4,2.1,0.8,3.2,1.1c0.6,0.2,1.2,0.3,1.8,0.5c0.3,0.1,0.6,0.1,0.9,0.2l0.5,0.1
			h0.2l0,0c0.2,0.1,0.5,0.2,0.7,0.2c0.3,0.1,0.7,0.2,1.1,0.3l0.6,0.1h0.3h0.2h0.2l1.5,0.1c-2.1,0-4.2,0.1-6.3,0.3
			c-2.8,0.2-5.6,0.7-8.4,1.3c-2.2,0.5-4.3,1.3-6.2,2.4c-0.7,0.4-1.3,0.9-1.8,1.5c-0.2,0.2-0.3,0.5-0.5,0.8c-2,0.1-3.2,0.4-3.7,0.8
			c-0.8,0.7,1.2,1.7,1.6,1.8c-1.4,0.6-2,1.3-1.7,1.9s1.6,1,2,1.1c-0.6,0.6-0.6,1,0,1.4c0.9,0.4,1.9,0.6,2.8,0.6
			c-0.3,0.5-0.2,0.9,0.4,1.1c1,0.3,2,0.4,3,0.4c-0.2,0.5,0,0.9,0.7,1.2c1.6,0.8,5.2,1,5.8,1c0.6,0.6,1.3,0.9,2.1,1
			c2,0.3,4.1,0.4,6.1,0.1c2,0.8,4.2,1.1,6.3,1c0.8,0,1.7-0.2,2.5-0.4c2.2,0.8,4.5,1.1,6.8,1c1.9,0,3.8-0.6,5.5-1.6
			c1.4,0.3,2.8,0.3,4.2,0.1c2.1-0.4,2.6-1.5,2.7-1.8c1.2,0.3,2.5,0.3,3.7,0.1c1.5-0.4,1.5-1.3,1.5-1.5c2,0,3.2-0.1,3.8-0.5
			c0.7-0.5-0.1-1.1-0.4-1.3c1.7-0.3,2.7-0.6,2.8-1c0.2-0.6-1.3-1.1-1.7-1.2c1.7-0.6,2.4-1.2,2.1-1.8c-0.4-0.8-2.4-1.3-3-1.4
			c1-0.4,1.5-0.8,1.5-1.1c1.3,0.5,2.7,0.9,4.2,1.3c4.2,1.1,8.5,1.9,12.8,2.4c5.4,0.6,10.8,0.9,16.2,0.9c2.4-0.1,4.6-0.2,6.7-0.3
			c-1.6,1.2-3.5,2.1-5.4,2.6c-1.7,0.5-3.4,0.8-5.1,1v0.1c4.7-0.1,9.4-1,13.8-2.7c1.2-0.4,2.3-1,3.3-1.6c1.9-0.3,3.6-0.6,5.2-1
			c0.4,0.8,0.4,1.7,0,2.5c-0.4,0.7-0.9,1.2-1.5,1.7l-0.4,0.2l0.5-0.2c4.3-1.4,5.6-3.2,6-4.5c0.1-0.4,0.2-0.9,0.1-1.3
			c0.8-0.3,1.6-0.8,2.3-1.3c0.6-0.1,1.3-0.1,2-0.3c3.2-0.5,6.2-1.5,9-3.1l0.4-0.2l-0.6,0.2c-2.9,0.8-6,1.3-9,1.6
			c0.6-0.9,0.8-1.9,0.7-3c-0.3-2.9-3.2-5-5.6-6.2c-1.6-0.8-3.3-1.5-5.1-1.9h-0.2l0.1,0.1c0.4,0.8,0.6,1.7,0.6,2.5
			c-1-0.4-2.1-0.8-3.1-1.2c-0.8-0.7-1.7-1.3-2.6-1.8l-0.5-0.3l0.3,0.3c0.4,0.3,0.6,0.7,0.8,1.2c-2.2-0.6-4.4-1-6.6-1.3l0.3-0.4h0.8
			c1.1,0,2.2,0,3.3-0.1s2.2-0.2,3.3-0.3c0.5-0.1,1-0.2,1.5-0.3c0.4-0.1,0.8-0.3,1.1-0.4l0.8-0.1c0.6-0.1,1.2-0.3,1.8-0.5
			c0.5-0.2,1-0.4,1.5-0.6s0.9-0.4,1.3-0.6c0.8-0.4,1.6-0.9,2.4-1.3s1.4-0.9,2.1-1.4c1.3-0.9,2.6-1.8,3.7-2.8c0.6-0.5,1.1-1,1.7-1.4
			l0.8-0.7l0.8-0.7c1-1,2-2,2.8-3c0.2-0.2,0.4-0.5,0.6-0.8c0.1-0.1,0.2-0.3,0.3-0.4s0.2-0.3,0.3-0.4v-0.1V435c0,0,0,0,0-0.1
			l-0.1-0.1c-0.1-0.1-0.2-0.1-0.3-0.2l-0.3-0.1c-0.2-0.1-0.4-0.1-0.7-0.2v-0.1c0-0.1,0-0.3,0-0.4c0-0.2-0.1-0.3-0.1-0.4l-0.1-0.1
			c-0.1-0.1-0.1-0.1-0.2-0.1c-0.1,0-0.2-0.1-0.3-0.1s-0.1,0-0.2,0h-0.5h0.9c-0.2,0-0.3,0.1-0.5,0.1c-0.1,0-0.3,0.1-0.4,0.1l-0.5,0.2
			v-0.1c0.1-0.3,0.1-0.5,0.2-0.8c0-0.3,0-0.5,0-0.8c0-0.1-0.1-0.3-0.1-0.4s-0.1-0.2-0.2-0.2c-0.1-0.1-0.1-0.1-0.2-0.1
			c-0.1-0.1-0.3-0.1-0.4-0.1c-0.1,0-0.3-0.1-0.4-0.1h-0.4H772l0,0l0.3-0.3c1.4-1.5,2.8-2.9,4.3-4.4l2.1-2.2l1-1.1l0.5-0.5l0.3-0.3
			l0.1-0.1l0.1-0.1l0,0l0,0L778.4,421.8z M713.5,462.2c1.4,1.3,3.1,2.2,4.9,2.8c-5.1-1-10.1-2.4-14.9-4.3l-0.6-0.2l0.4,0.3
			c4.4,3.1,10.5,4.6,12.7,5.1c-4.2-0.6-8.3-1.7-12.3-3.1c-0.3-0.3-0.7-0.5-1.1-0.6c-0.4-0.1-0.9-0.2-1.3-0.3l-0.6-0.2l-0.6-0.3
			l0.4,0.3l0.2,0.1c-0.4,0-0.8-0.1-1.2-0.1c-0.8,0-1.5,0-1.8,0c-1.4-0.7-2.8-1.2-4.2-1.6c-2.7-0.8-5.4-1.4-8.2-1.8
			c0.1-0.1,0.3-0.3,0.4-0.4c1.6,0,3.2,0,4.8,0c2.1,0,4.2-0.1,6.3-0.2c1-0.1,2.1-0.1,3.1-0.3l1.4-0.2h0.3c0.1,0,0.1,0,0.1,0h0.2h0.2
			h0.3l0.6-0.1l0.5-0.1c3,2.1,6.3,3.6,9.8,4.6l1.1,0.3c0.5,0.3,1.1,0.6,1.7,0.8s1.2,0.5,1.8,0.7c-1.4-0.3-2.7-0.8-4-1.3l-0.4-0.2
			L713.5,462.2z M706.5,445.8l-0.3,0.2v-0.2H706.5z M713.2,454.7c-0.7,0.4-1.3,0.9-1.8,1.6c-0.4,0.5-0.6,1.1-0.6,1.7
			c0,0.3,0.1,0.7,0.2,1c-2-0.4-4-1-6-1.8c-0.3-0.1-0.6-0.2-0.9-0.4l0,0c0.8-0.1,1.6-0.3,2.4-0.5s1.5-0.3,2.3-0.5l1.1-0.3l1-0.3
			c1.1-0.3,2.2-0.7,3.3-1.2C713.9,454.4,713.6,454.5,713.2,454.7L713.2,454.7z M727.9,451c-2.8,0.2-5.6,0.7-8.4,1.4
			c-1.3,0.3-2.5,0.7-3.7,1.2l0.6-0.3c0.3-0.1,0.5-0.3,0.7-0.4l0.3-0.2l0.3-0.2c0.8-0.6,1.6-1.1,2.4-1.7s1.5-1.2,2.2-1.8
			c0.7-0.6,1.2-1.2,1.8-1.9V447l0.5,0.3c0.4,0.2,0.8,0.5,1.2,0.7s0.9,0.5,1.4,0.7s1.1,0.4,1.7,0.6h0.1l0.7,0.3
			c0.8,0.3,1.5,0.5,2.3,0.6c0.4,0.1,0.9,0.2,1.4,0.2l0.7,0.1h0.4h0.3l1,0.1c0,0.1,0,0.1,0,0.2C733.1,450.7,730.5,450.8,727.9,451z
			 M746.7,414.6l2,0.4l0.5,0.1l-0.5,0.3l-0.2,0.2l-0.1,0.1l0,0l0,0l0,0c-0.4,0.3-0.8,0.6-1.1,1c-0.3,0.3-0.5,0.7-0.8,1.1
			c-0.2,0.3-0.4,0.7-0.6,1l0,0h-1.1h-0.1c0.2-0.4,0.4-0.8,0.5-1.3c0.1-0.2,0.1-0.5,0.1-0.7c0-0.3-0.1-0.6-0.4-0.8
			c-0.1-0.1-0.3-0.2-0.4-0.3c0.3-0.1,0.7-0.1,1-0.3c0.2-0.1,0.4-0.2,0.6-0.3c0.1-0.1,0.2-0.3,0.2-0.4s-0.1-0.1-0.1-0.2L746.7,414.6z
			"/>
		<g class="st24">
			<path d="M496,459.4L496,459.4L496,459.4z"/>
			<path d="M575.6,459.4L575.6,459.4L575.6,459.4z"/>
			<path d="M602.8,461.7c-1.6-3-8.1-4.7-8.1-4.7c-3,0.3-6,1-8.9,2.1l-3.5,2.7l0.7-0.5l2.2-1.7l-4.6-0.7l-0.4,0.5l-4.5-0.7l-0.1,0.8
				l0,0l-0.6,4l2.3,0.3l-0.4,0.5l1.7,0.4l-0.7,0.6c0.5,0.3,1,0.4,1.5,0.4c0.6,0,1.2-0.1,1.8-0.2c0,0,3.8,1.4,2.5,2.7
				c-1.4,1.3-1,2-1,2l-4.5,3.7c-0.6,0-1.2,0.2-1.8,0.5h-4.3V463h2.9l0.6-3.6l-3.5-0.3v-10.5h-1.5c-0.1-10.5,0.6-21.1,2.1-31.5h2.3
				c1.1,0,2-0.4,2-0.8V416c0-0.4-0.9-0.8-2-0.8h-77.4c-1.1,0-2,0.4-2,0.8v0.3c0,0.4,0.9,0.8,2,0.8h2.3c1,7,1.6,14,1.9,21.1
				c0.1,3.6,0.2,7.1,0.2,10.4h-2.4v10.5l-3.5,0.3l0.6,3.5h2.9v11.3h-4.3c-0.6-0.3-1.2-0.4-1.8-0.5L489,470c0,0,0.4-0.7-1-2
				s2.5-2.7,2.5-2.7c0.6,0.1,1.2,0.2,1.9,0.2c0.5,0,1.1-0.1,1.5-0.4l-0.7-0.6l1.7-0.4l-0.4-0.5l2.3-0.3l-0.6-3.9l0,0l-0.1-0.8
				l-4.5,0.7l0.3,0.4l-0.6-0.9l-4.6,0.7l2.2,1.7l0.7,0.5l-3.5-2.7c-2.9-1.1-5.9-1.8-8.9-2.1c-1.4,0.4-2.7,0.9-4,1.5
				c0-0.1,0-0.2-0.1-0.3c2.6-0.8,5-1.8,6.1-2.9c0,0-14-9.6-15-10.1c-0.8-0.4-8.2-0.8-15.6,0.1c0.1-0.5,0.2-1,0.3-1.6
				c1.2-7.9,2.8-10.9,2.8-10.9c-1-0.4-2-0.8-3.1-1c1.7-5.2,4.8-16.7,2-19.6c0,0-0.1-0.4-1.1-0.8c6-1.7,13-4.4,3-4.9
				c-7.2-0.4-14.3,0.1-21.4,1.3c3.5-1.5,4.7-2.9-2.5-3.2c-16.1-0.8-33.1,2.5-28.9,5.1c-2.9,1.3,8.6,4.9,6,19.8
				c-0.9-0.3-1.4,0.3-1.7,1.1l-2.5,0.2l-1.7-14.1c0-0.3-0.3-0.5-0.5-0.4l-12.5,1.5c-0.3,0-0.5,0.3-0.4,0.6l1.3,11.1
				c-0.9-0.2-1.2,1.9-0.2,3.8c-0.3,0.1-0.5,0.2-0.5,0.3c-0.1,1,12,22,21.9,22.4c0.2,0,0.4,0,0.6,0c3.4,1.2,9.8,1.6,15.8,1.8
				c0.1,0.3,0.4,0.7,0.7,1.1c-2.3,0.4-4.6,0.9-6.8,1.7c-1.8-0.1-3.5-0.1-5.3,0.1c-3.3,0.3-3.1,3.4-7.2,5.4s-0.5,2.3-2.7,4.4
				c-2.1,2.2,5.6,5.8,5.9,7s10.8,2.3,15.2,3.5c4.5,1.2,12.8-0.9,18.7-0.8s11-3,14.1-3.8c2.9-0.7,1.6-2,0-5.2c0.6-0.8,0.9-1.8,1-2.8
				c0-5.4-10.2-9.8-23-10.1c0-0.2,0-0.3-0.1-0.5c1.9,0,3.1-0.1,3.1-0.1c1.4-0.1,2.7-0.6,3.9-1.4c4.3-0.8,8.6-2,12.7-3.5
				c0,0-2,1.5,1,2c0,0,4,6.1,7,5.6l1-0.2c-0.3,1.1-0.3,2.3,1.1,2.8c1.7,0.7,3.6,1,5.4,0.9c0.6,0.6,1.3,1.3,2.3,2.1l0.9,0.7l-1.6,1.9
				c0,0,0,0,0,0.1l4.4,3c0.1,0,0.2,0,0.3,0l3-0.7c1.6,1,3.4,2.1,5.5,3.3h-2.7c-1.1,0-2,0.4-2,0.8v1c0,0.4,0.9,0.8,2,0.8h17.2h0.5
				c-0.2,1.7-0.3,2.7-0.3,2.7h-2.4c-1.1,0-2,0.4-2,0.8v0.3c0,0.5,0.9,0.8,2,0.8h30.6v13.9h2.9v1.6h-2.9v1.2l4.1,3.9h3.3v2.1h1.2V502
				h3.3l4.1-3.9v-1.3h-2.9v-1.6h2.9v-13.9H575c1.1,0,2-0.4,2-0.8v-0.3c0-0.5-1-0.8-2-0.8h-2.4c0,0-0.1-0.9-0.3-2.7H589
				c1.1,0,2-0.4,2-0.8V475c0-0.4-0.9-0.8-2-0.8h-2.7c2.1-1.2,3.9-2.3,5.5-3.3l3,0.7c0.1,0,0.2,0,0.3,0l4.4-3c0,0,0,0,0-0.1l-1.6-1.9
				l0.9-0.7C600.3,464.8,601.7,463.3,602.8,461.7z M430.9,429.8L430.9,429.8c-1.9,0-4-0.1-6.2-0.1c1.2-4.2,2.8-10.2,2.7-14.5
				C429.6,417.9,432.2,422.3,430.9,429.8z M468.1,462c0,0,0.3-0.1,0.7-0.2c0,0.1,0.2,0.2,0.3,0.4C468.5,462.1,468.1,462,468.1,462z
				 M480.2,462.3l-2,1.7c-0.3,0.2-0.8,0.4-1.2,0.3c0.2-0.2,0.2-0.6,0-0.9c0.6,0,1.1-0.1,1.6-0.4c0.3-0.2,0.5-0.6,0.3-0.9
				c-0.1-0.1-0.1-0.2-0.3-0.3c0.2,0,0.4-0.1,0.6-0.2c0.5-0.3,0.4-0.8-0.1-1.2c0.3,0,0.6-0.1,0.8-0.2c0.4-0.3,0.4-0.7-0.1-1
				c0.6-0.2,1.2-0.2,1.8,0c1.3,0.5,1.3,1,1.3,1L480.2,462.3z M596.2,463.8c-2,0.9-2.8,0.2-2.8,0.2l-2-1.7l-2.7-2.1c0,0,0-0.5,1.3-1
				c0.9-0.2,1.9-0.1,2.8,0.3c0.5,0.2,2.9,2,2.9,2S598.2,462.9,596.2,463.8z"/>
		</g>
		<path class="st25" d="M463,304.5c1.9,0.6,13,4,16,10c0,0-6.5,11.5-12.5,14.5c-1.3,0.6-16.5,7.5-25.5,2.5s-9.5-20.5-9.5-20.5
			s11-2,24,4c0,0,0-2,3-3C458.5,312,460,303.5,463,304.5z"/>
		<path class="st0" d="M497.5,415c0,0,40,5,77,0C574.5,415,512.5,409,497.5,415z"/>
		<g class="st0">
			<path class="st26" d="M443.4,398.1c0,0,24,11.2,8.9,12.7s-31-4.6-27-9.5S443.4,398.1,443.4,398.1z"/>
			<path class="st27" d="M443.4,398c2.9,1.1,5.8,2.5,8.5,4.1c1.4,0.8,2.7,1.7,3.9,2.8c0.7,0.5,1.2,1.2,1.7,1.9
				c0.3,0.4,0.4,0.9,0.5,1.4c0,0.3,0,0.6-0.1,0.9s-0.2,0.5-0.4,0.7c-0.6,0.7-1.5,1.1-2.4,1.3c-0.8,0.2-1.6,0.3-2.4,0.4
				c-1.6,0.2-3.2,0.2-4.7,0.2c-3.2,0-6.3-0.3-9.4-0.8s-6.2-1.4-9.1-2.7c-1.5-0.6-2.8-1.5-4-2.7c-0.6-0.6-1.1-1.4-1.2-2.3
				s0.3-1.8,1-2.4c1.2-1.2,2.6-2,4.2-2.3c1.5-0.4,3.1-0.7,4.7-0.8C437.2,397.5,440.3,397.6,443.4,398z M443.4,398.2
				c-3.1-0.3-6.2-0.2-9.3,0.1c-1.5,0.2-3,0.5-4.5,0.9c-1.4,0.4-2.8,1.1-3.8,2.2c-0.5,0.4-0.7,1.1-0.7,1.7c0.1,0.7,0.5,1.3,1,1.7
				c1.1,1,2.4,1.8,3.8,2.3c2.8,1.2,5.8,2,8.8,2.5s6.1,0.7,9.2,0.7c1.5,0,3.1-0.1,4.6-0.3c0.7-0.1,1.5-0.2,2.2-0.4
				c0.6-0.1,1.2-0.4,1.7-0.8c0.1-0.2,0.2-0.4,0.2-0.6c0-0.1,0-0.3-0.1-0.4s-0.1-0.3-0.2-0.4c-0.4-0.6-0.9-1.1-1.4-1.6
				c-1.1-1-2.3-2-3.6-2.8C448.7,401.3,446,399.7,443.4,398.2L443.4,398.2z"/>
		</g>
		<g class="st0">
			<path class="st28" d="M447.5,355.6l0.2,1c1,5.9,6,36.2,2.7,43.1c0,0-0.9,6.1-22.4,2.5c-9.6-1.6,6.6-5.4,2.8-39.8l17.5-6.9"/>
			<path class="st23" d="M447.5,355.6c0.8,3.6,1.5,7.3,2.2,10.9s1.2,7.3,1.7,11s0.9,7.4,1,11.1c0.1,1.9,0.1,3.8,0,5.7
				c0,2-0.4,4-1.1,5.9l0.1-0.3c0,0.2-0.1,0.4-0.1,0.5s-0.1,0.2-0.2,0.4c-0.1,0.2-0.3,0.4-0.4,0.6c-0.3,0.3-0.6,0.6-1,0.9
				c-0.6,0.5-1.4,0.9-2.1,1.1c-1.4,0.5-2.9,0.8-4.4,1c-2.8,0.3-5.7,0.3-8.5,0c-1.4-0.1-2.8-0.3-4.2-0.5c-0.7-0.1-1.4-0.2-2.1-0.3
				s-1.4-0.2-2.2-0.4c-0.4-0.1-0.8-0.3-1.2-0.5c-0.6-0.3-1-0.7-1.3-1.3c-0.2-0.6-0.3-1.2-0.1-1.8c0.1-0.4,0.2-0.8,0.4-1.2
				c0.6-1.4,1.2-2.6,1.8-3.8c2.3-5,3.7-10.2,4.3-15.7c0.6-5.5,0.8-11,0.4-16.5l0,0l0,0l0,0l17.5-6.9v0.1l-17.5,6.9v-0.1l0,0
				c1,5.5,1.3,11.1,1,16.7c-0.3,5.7-1.6,11.2-3.8,16.5c-0.5,1.3-1.2,2.6-1.7,3.8c-0.1,0.3-0.2,0.5-0.2,0.8c0,0.1,0,0.2,0,0.3
				c0.3,0.2,0.6,0.3,1,0.4c0.6,0.1,1.2,0.3,1.9,0.4s1.4,0.2,2,0.3c1.4,0.2,2.7,0.3,4.1,0.5c2.7,0.3,5.5,0.3,8.3,0
				c1.3-0.1,2.6-0.4,3.8-0.8c0.5-0.2,1.1-0.5,1.5-0.8c0.2-0.1,0.4-0.3,0.6-0.5c0.1-0.1,0.1-0.2,0.2-0.3v-0.1c0,0,0-0.1,0,0l0.1-0.3
				c0.6-1.6,1-3.3,1-5c0.1-1.8,0.1-3.6,0.1-5.5c0-3.7-0.3-7.4-0.6-11s-0.7-7.4-1.1-11s-0.9-7.4-1.3-11L447.5,355.6z"/>
		</g>
		<g class="st0">
			<path class="st26" d="M418.8,401c0,0,25.6,12,9.5,13.5s-33.1-4.9-28.9-10.1S418.8,401,418.8,401z"/>
			<path class="st27" d="M418.8,401c3.1,1.2,6.1,2.7,9,4.4c1.5,0.8,2.9,1.8,4.1,2.9c0.7,0.6,1.3,1.2,1.8,2c0.3,0.4,0.5,0.9,0.5,1.4
				c0,0.3,0,0.6-0.1,0.9c0,0.1-0.1,0.3-0.2,0.4s-0.2,0.2-0.3,0.4c-0.7,0.7-1.6,1.2-2.5,1.4c-0.8,0.2-1.7,0.4-2.6,0.4
				c-1.7,0.2-3.4,0.3-5,0.3c-3.4,0-6.7-0.3-10-0.9c-3.3-0.5-6.6-1.5-9.7-2.9c-1.6-0.7-3-1.6-4.3-2.8c-0.7-0.7-1.1-1.5-1.3-2.4
				c-0.1-1,0.3-1.9,1-2.6c1.3-1.2,2.8-2.1,4.5-2.5c1.6-0.4,3.3-0.7,5-0.8C412.2,400.4,415.5,400.5,418.8,401z M418.8,401.1
				c-3.3-0.3-6.6-0.3-9.9,0.1c-1.6,0.2-3.3,0.5-4.8,1c-1.5,0.4-2.9,1.2-4.1,2.4c-0.5,0.5-0.8,1.2-0.7,1.9c0.2,0.7,0.5,1.4,1.1,1.8
				c1.2,1.1,2.5,1.9,4,2.5c3,1.2,6.2,2.1,9.4,2.6c3.2,0.5,6.5,0.8,9.8,0.8c1.6,0,3.3-0.1,4.9-0.3c0.8-0.1,1.6-0.2,2.3-0.4
				c0.7-0.1,1.3-0.5,1.8-0.9c0.2-0.2,0.2-0.4,0.2-0.6c0-0.1,0-0.3-0.1-0.4c-0.1-0.2-0.1-0.3-0.2-0.5c-0.4-0.6-0.9-1.2-1.5-1.7
				c-1.2-1.1-2.5-2.1-3.9-3C424.5,404.4,421.7,402.7,418.8,401.1L418.8,401.1z"/>
		</g>
		<g class="st0">
			<path class="st28" d="M423.2,355.6c0,0,0.1,0.4,0.2,1c1.1,6.3,6.5,38.6,2.9,46c0,0-0.9,6.6-24,2.6c-10.2-1.7,7-5.8,3-42.5
				l18.7-7.3"/>
			<path class="st23" d="M423.2,355.6c0.9,3.9,1.6,7.8,2.3,11.7s1.3,7.8,1.8,11.8s0.9,7.9,1.1,11.9c0.1,2,0.1,4,0,6
				c0,1-0.1,2.1-0.3,3.1c-0.1,1.1-0.4,2.2-0.9,3.2l0.1-0.3c0,0.2-0.1,0.4-0.1,0.5c-0.1,0.1-0.1,0.3-0.2,0.4
				c-0.1,0.2-0.3,0.4-0.4,0.6c-0.3,0.4-0.6,0.7-1,1c-0.7,0.5-1.4,0.9-2.2,1.2c-1.5,0.5-3.1,0.9-4.6,1c-3,0.3-6.1,0.3-9.1,0
				c-1.5-0.1-3-0.3-4.5-0.5c-0.7-0.1-1.5-0.2-2.2-0.3c-0.8-0.1-1.5-0.3-2.3-0.5c-0.4-0.1-0.9-0.3-1.3-0.5c-0.6-0.3-1-0.7-1.3-1.3
				c-0.2-0.6-0.3-1.2-0.2-1.8c0.1-0.4,0.2-0.9,0.4-1.3c0.6-1.5,1.3-2.7,1.9-4.1c2.4-5.3,4-11,4.6-16.8c0.6-5.9,0.8-11.8,0.4-17.7
				l0,0l0,0l0,0l18.7-7.3v0.1l-18.7,7.3v-0.1l0,0c1,5.9,1.4,11.9,1.1,17.8c-0.3,6-1.7,12-4.1,17.5c-0.6,1.4-1.3,2.8-1.8,4
				c-0.1,0.3-0.2,0.6-0.3,0.9c0,0.1,0,0.2,0,0.4c0.3,0.2,0.7,0.4,1.1,0.5c0.6,0.2,1.3,0.3,2.1,0.4s1.4,0.2,2.2,0.3
				c1.5,0.2,2.9,0.4,4.4,0.5c2.9,0.3,5.8,0.3,8.6,0.1c1.4-0.1,2.7-0.4,4-0.9c0.6-0.2,1.2-0.5,1.7-0.9c0.2-0.2,0.4-0.3,0.6-0.5
				c0.1-0.1,0.1-0.2,0.2-0.3l0.1-0.1c0,0,0-0.1,0,0l0.1-0.3c0.7-1.7,1-3.5,1.1-5.4s0.1-3.9,0.1-5.8c0-3.9-0.3-7.9-0.6-11.8
				s-0.8-7.9-1.2-11.8s-1-7.9-1.5-11.8L423.2,355.6z"/>
		</g>
		<g class="st0">
			<path class="st29" d="M399.6,362.4c0,0,7.7-34.5,7-44.9s31.8-7.7,31.8-7.7s8.1,0,10.2,27.6c1.2,15.7,2.8,21.6,2.8,21.6
				S440,369.8,399.6,362.4z"/>
			<path class="st23" d="M399.6,362.4c1.4-6.6,2.7-13.2,3.9-19.8s2.3-13.3,2.8-20c0.1-1.7,0.2-3.3,0.1-5c-0.1-0.9,0.1-1.8,0.5-2.6
				c0.4-0.8,1-1.5,1.7-2c1.4-1,3-1.7,4.6-2.2s3.3-0.8,5-1.1c3.4-0.5,6.7-0.7,10.1-0.7s6.8,0,10.1,0.3l0,0c0.6,0.1,1.2,0.3,1.8,0.6
				c0.5,0.3,1,0.7,1.4,1.1c0.8,0.8,1.5,1.7,2.1,2.7c1.1,1.9,2,4,2.6,6.1c1.2,4.2,2.1,8.6,2.6,13s0.8,8.7,1.3,13.1
				c0.4,4.3,1.1,8.6,2,12.8l0,0l0.1,0.5l-0.3,0.3c-0.9,0.7-1.9,1.4-3,1.9c-1,0.5-2.1,0.9-3.1,1.3c-2.1,0.7-4.3,1.3-6.5,1.7
				c-4.4,0.7-8.8,1.1-13.3,1c-4.4,0-8.9-0.3-13.3-0.9C408.3,364,404,363.3,399.6,362.4z M399.6,362.4c8.7,1.6,17.6,2.3,26.4,2.2
				c4.4-0.1,8.8-0.5,13.1-1.4c2.1-0.4,4.2-1,6.3-1.8c1-0.4,2-0.8,3-1.3c0.9-0.5,1.8-1,2.6-1.7l-0.2,0.7l0,0c-0.9-4.3-1.6-8.7-2-13.1
				c-0.5-4.4-0.7-8.8-1.1-13.1c-0.4-4.3-1.2-8.6-2.4-12.8c-0.6-2.1-1.4-4.1-2.5-5.9c-0.5-0.9-1.2-1.8-1.9-2.5
				c-0.4-0.4-0.7-0.7-1.2-1c-0.4-0.3-0.8-0.4-1.3-0.5l0,0c-3.3-0.3-6.7-0.4-10-0.4s-6.7,0.2-10,0.6c-1.7,0.2-3.3,0.6-4.9,1
				s-3.1,1.1-4.5,2c-3.1,1.9-1.6,5.9-2.2,9.1c-0.6,6.7-1.8,13.4-3,20S401.1,355.8,399.6,362.4L399.6,362.4z"/>
		</g>
		<g class="st0">
			<path class="st22" d="M435.4,306.8c0,0,0.7,6.1-3.2,8.6c-2.8,1.8-7.5-5.3-7.5-5.3s0.8-2.7,1.4-4.4S435.4,306.8,435.4,306.8z"/>
			<path class="st23" d="M435.4,306.7c0.3,1.7,0.3,3.4-0.1,5c-0.2,0.8-0.6,1.6-1.1,2.3c-0.5,0.7-1.2,1.4-1.9,1.8
				c-0.4,0.3-1,0.4-1.5,0.3s-0.9-0.2-1.3-0.5c-0.7-0.4-1.4-1-2-1.6c-1.1-1.2-2.1-2.5-2.9-4l0,0l0,0l0,0l1.1-3.4l0.3-0.9
				c0.1-0.3,0.3-0.6,0.6-0.6c0.6-0.1,1.2-0.2,1.8-0.1c1.2,0.1,2.4,0.4,3.5,0.6C433.1,306,434.2,306.3,435.4,306.7z M435.3,306.8
				c-1.1-0.3-2.3-0.7-3.4-1c-1.2-0.3-2.3-0.5-3.5-0.6c-0.6-0.1-1.2-0.1-1.8,0.1c-0.6,0.1-0.6,0.9-0.8,1.4l-1.1,3.4l0,0l0,0
				c1,1.2,2.1,2.4,3.3,3.5c0.6,0.5,1.2,1,1.9,1.3c0.6,0.4,1.3,0.4,1.9,0.1c1.3-0.8,2.2-2.1,2.7-3.5
				C435,309.9,435.3,308.4,435.3,306.8L435.3,306.8z"/>
		</g>
		<g class="st0">
			<path class="st23" d="M457.1,284.4c1.8-7.3,3.5-10.1,0.3-11.7s-8.2-7.8-14.1-7.6s-14.2-3.9-18.7-1.6s-14.9,4.5-15.2,6.9
				s-8,9.6-5.9,13.9s-1.4,4.8,2.7,8.8s3.9,10.1,7.2,10.7c2.2,0.3,4.4,0.3,6.6,0L457.1,284.4z"/>
			<path class="st30" d="M457.1,284.4c0.4-2.2,1-4.5,1.5-6.7c0.1-0.5,0.2-1.1,0.2-1.7c0.1-0.5,0-1.1-0.2-1.6s-0.5-0.8-0.9-1.1
				c-0.4-0.2-1-0.5-1.5-0.8c-2-1.3-3.7-2.8-5.5-4c-0.9-0.6-1.9-1.2-2.9-1.6c-1-0.5-2-0.8-3.1-0.9c-0.3,0-0.5-0.1-0.8,0h-0.8
				c-0.6,0-1.2,0-1.8,0c-1.2-0.1-2.3-0.3-3.5-0.5c-2.3-0.4-4.5-1-6.7-1.3s-4.4-0.5-6.2,0.4c-2.1,1-4.3,1.8-6.5,2.5
				c-2.1,0.7-4.3,1.5-6.3,2.4c-0.5,0.2-0.9,0.5-1.3,0.8c-0.1,0.1-0.3,0.2-0.4,0.4v0.1l0,0v0.1l-0.1,0.3c-0.2,0.6-0.5,1.2-0.9,1.8
				c-0.3,0.5-0.7,1-1,1.5c-1.4,1.8-2.6,3.7-3.6,5.6c-0.5,0.9-0.7,1.9-0.7,2.9c0,0.2,0,0.5,0.1,0.7s0.1,0.4,0.2,0.7
				c0.3,0.6,0.5,1.2,0.6,1.8c0.3,1.3-0.1,2.6-0.1,3.5c0.1,1,0.6,1.9,1.3,2.6l1.2,1.3c0.4,0.5,0.7,0.9,1,1.5c0.6,1,1.1,2.1,1.6,3.1
				c0.4,1.1,0.8,2.2,1.3,3.2s1,2,2.1,2.3s2.2,0.4,3.3,0.4c1.1,0.1,2.3,0,3.4-0.1l0,0L457.1,284.4z M457.1,284.4L420,303.9l0,0
				c-2.3,0.5-4.6,0.5-6.9,0.2c-0.6-0.2-1.2-0.5-1.6-1s-0.7-1-1-1.5c-0.5-1-1-2.1-1.5-3.1s-1-2-1.6-2.9c-0.3-0.5-0.6-0.9-1-1.3
				l-1.2-1.2c-0.4-0.4-0.8-0.9-1.1-1.5c-0.4-0.6-0.6-1.2-0.6-1.9c0-0.6,0-1.2,0.1-1.8c0.1-0.5,0-1-0.1-1.5s-0.3-1-0.5-1.4
				c-0.1-0.3-0.3-0.6-0.4-0.9s-0.2-0.7-0.2-1c0-1.3,0.3-2.5,0.8-3.7c1-2.1,2.3-4.1,3.6-6c0.3-0.5,0.6-0.9,0.9-1.4
				c0.3-0.4,0.5-0.8,0.7-1.3v-0.1v-0.1v-0.2c0.1-0.2,0.2-0.5,0.3-0.7c0.2-0.3,0.5-0.6,0.8-0.8c0.5-0.4,1.1-0.7,1.6-1
				c2.1-1,4.3-1.8,6.5-2.5c2.1-0.7,4.2-1.4,6.3-2.4c1.2-0.6,2.4-0.9,3.7-0.9c1.2,0,2.4,0.1,3.6,0.3c2.3,0.4,4.5,1,6.8,1.5
				c1.1,0.2,2.2,0.4,3.3,0.5c0.5,0.1,1.1,0.1,1.6,0.1c0.6,0,1.2,0,1.8,0.1c1.2,0.2,2.4,0.6,3.5,1.1s2.1,1.1,3,1.8
				c1.9,1.4,3.6,3,5.4,4.3c0.5,0.4,0.9,0.6,1.5,0.9c0.5,0.4,0.9,0.9,1.1,1.5s0.2,1.2,0.1,1.8c-0.1,0.6-0.2,1.2-0.4,1.7
				C458.5,280.1,457.7,282.2,457.1,284.4L457.1,284.4z"/>
		</g>
		<g class="st0">
			<path class="st12" d="M388.7,361l14.9-1.8c0.3,0,0.5,0.2,0.6,0.4l2.6,21.8c0,0.3-0.2,0.5-0.4,0.6l-14.9,1.8
				c-0.3,0-0.5-0.2-0.6-0.4l-2.6-21.8C388.2,361.3,388.4,361,388.7,361z"/>
			<path class="st15" d="M406.4,382.5l-9.5,1.3l-4.8,0.6h-0.3h-0.1h-0.2c-0.5,0-0.9-0.3-1.1-0.8c0-0.1-0.1-0.2-0.1-0.3v-0.1v-0.3
				l-0.1-0.6l-0.3-2.4l-1-9.6l-0.5-4.8l-0.3-2.4l-0.1-1.2v-0.3c0-0.1,0-0.3,0-0.4c0.1-0.4,0.4-0.6,0.8-0.7l9.6-1l4.7-0.5l0.6-0.1
				c0.3,0,0.6,0.2,0.7,0.5c0.1,0.5,0.1,0.8,0.2,1.3l0.3,2.4c0.4,3.2,0.8,6.4,1.3,9.6l0.6,4.8l0.3,2.4l0.2,1.2v0.3c0,0.2,0,0.3,0,0.5
				C407.1,382.2,406.8,382.5,406.4,382.5z M406.3,381.5l-0.9-8.8c-0.3-3.2-0.7-6.4-1-9.6l-0.3-2.4c0-0.4-0.1-0.9-0.1-1.1
				c0-0.1-0.1-0.2-0.2-0.2l-0.6,0.1l-4.8,0.6l-9.6,1.2c-0.1,0-0.1,0,0,0.5l0.2,1.2l0.3,2.4l0.6,4.8l1.3,9.6l0.3,2.4l0.1,1
				c0-0.1-0.1-0.1-0.1-0.1l0.5-0.1l4.8-0.6L406.3,381.5z"/>
		</g>
		<g class="st0">
			<path class="st22" d="M397.8,347.8c-4.7-0.2-8.6,2.5-8.8,5.9l0,0l0,0c-3,3.6-3,12.3-1.7,11.7s3.2-5,3-3.9s-1.2,10.3,0.5,9.8
				s3.6-8.1,3.6-8.1s-0.8,9.6,1.5,8.3c1.9-1.1,2.9-8,3.1-11.2c1.4-0.1,2.7-0.6,3.9-1.3c0.6,2.7,1,7,2.5,6c1.8-1.1,1.3-6.7,0.4-9.2
				c0.2-0.5,0.3-0.9,0.3-1.4C406.2,351,402.5,348,397.8,347.8z"/>
			<path class="st23" d="M397.8,347.8c-2-0.1-3.9,0.4-5.6,1.3c-0.9,0.5-1.6,1.1-2.2,1.9s-0.9,1.7-1,2.7l0,0
				c-0.9,1.2-1.6,2.7-1.9,4.2c-0.4,1.5-0.5,3-0.5,4.6c0,0.8,0.1,1.5,0.2,2.3c0,0.2,0.1,0.3,0.2,0.5c0.1,0.1,0.1,0.1,0.3,0
				c0.3-0.2,0.5-0.5,0.8-0.8c0.5-0.6,0.9-1.3,1.2-2l0.6-1l0.1-0.1l0.1-0.1l0,0l0,0c0,0,0,0,0.1,0s0.2,0.1,0.2,0.1v0.1v0.1v0.1v0.1
				l-0.1,0.6c-0.2,1.5-0.3,3.1-0.3,4.6c0,0.8,0,1.5,0,2.3c0,0.4,0.1,0.8,0.1,1.1c0.1,0.3,0.2,0.8,0.4,0.9s0.2,0,0.3-0.1
				c0.1-0.1,0.3-0.2,0.4-0.3c0.2-0.3,0.4-0.6,0.6-0.9c0.4-0.7,0.7-1.4,1-2.1c0.6-1.4,1.1-2.9,1.6-4.4l0,0l0,0c0,1.8-0.1,3.5,0,5.3
				c0,0.9,0.2,1.7,0.5,2.5c0.2,0.4,0.5,0.6,0.8,0.4s0.6-0.5,0.8-0.9c0.8-1.6,1.3-3.2,1.6-4.9c0.4-1.7,0.6-3.5,0.8-5.2l0,0
				c1.4-0.1,2.7-0.6,3.9-1.3l0,0c0.4,1.3,0.7,2.7,1,4.1c0.1,0.3,0.2,0.7,0.3,1c0.1,0.3,0.3,0.5,0.5,0.8c0.2,0.1,0.4,0.1,0.6-0.1
				s0.4-0.5,0.5-0.7c0.4-1.3,0.6-2.6,0.5-4s-0.3-2.8-0.6-4.1l0,0c0.4-1,0.4-2.2,0-3.2s-1-1.9-1.9-2.6
				C402.1,348.8,400,348,397.8,347.8z M397.8,347.8c2.2,0.1,4.3,0.8,6.1,2.3c0.9,0.7,1.5,1.6,1.9,2.6s0.4,2.2,0,3.2l0,0
				c0.5,1.3,0.9,2.7,1,4.1c0.1,0.7,0.1,1.4,0.1,2.1s-0.2,1.5-0.4,2.1c-0.1,0.4-0.4,0.7-0.7,1c-0.2,0.1-0.4,0.2-0.6,0.3
				c-0.2,0-0.5,0-0.7-0.2c-0.3-0.3-0.5-0.6-0.6-1c-0.1-0.3-0.2-0.7-0.3-1c-0.3-1.4-0.4-2.8-0.6-4.2l0,0c-1.2,0.7-2.6,1.1-3.9,1.3
				l0,0c-0.1,1.8-0.2,3.5-0.5,5.2c-0.2,1.8-0.8,3.5-1.6,5c-0.2,0.4-0.5,0.7-0.9,1c-0.2,0.2-0.5,0.2-0.8,0c-0.2-0.1-0.4-0.3-0.5-0.6
				c-0.3-0.8-0.5-1.7-0.5-2.6c-0.1-1.8,0-3.5,0.2-5.3l0,0c-0.3,1.5-0.7,3-1.2,4.5c-0.3,0.7-0.6,1.5-0.9,2.2c-0.2,0.4-0.4,0.7-0.6,1
				c-0.1,0.2-0.3,0.3-0.5,0.4c-0.1,0.1-0.2,0.1-0.3,0.2c-0.2,0-0.3,0-0.5-0.1c-0.2-0.2-0.3-0.4-0.4-0.6s-0.1-0.4-0.2-0.6
				c-0.1-0.4-0.1-0.8-0.1-1.2c0-0.8,0-1.6,0-2.4c0-1.6,0.2-3.1,0.4-4.7l0.1-0.6v-0.1l0,0l0,0c0,0,0,0,0,0.1s0.1,0.1,0.1,0.1
				c0.1,0,0.1,0,0.1,0l0,0l0,0l-0.1,0.1l-0.6,1c-0.4,0.7-0.8,1.4-1.3,2c-0.2,0.3-0.5,0.6-0.9,0.9c-0.1,0.1-0.2,0.1-0.3,0.1
				c-0.2,0-0.3,0-0.4-0.2s-0.2-0.4-0.3-0.6c-0.2-0.8-0.2-1.6-0.2-2.4c0-1.6,0.3-3.1,0.7-4.6c0.4-1.5,1-2.9,2-4.2l0,0
				c0.1-1,0.4-1.9,1-2.7c0.6-0.8,1.3-1.5,2.2-1.9C393.9,348.2,395.8,347.7,397.8,347.8L397.8,347.8z"/>
		</g>
		<g class="st0">
			<path class="st29" d="M408.5,313c-9.9,0.8-22,42.3-21.9,44.3s13.2,5.3,22.6,2.5C409.2,359.7,418.7,312.1,408.5,313z"/>
			<path class="st23" d="M408.5,313.5c-1.4,0.3-2.7,1-3.6,2.1c-1,1.1-2,2.3-2.8,3.5c-1.6,2.6-3.1,5.3-4.3,8.1
				c-2.5,5.6-4.6,11.4-6.6,17.2c-1,2.9-1.9,5.9-2.7,8.8l-0.6,2.2l-0.3,1.1c0,0.2-0.1,0.4-0.1,0.5v0.1c0-0.1,0-0.1,0-0.1
				c0.2,0.2,0.4,0.3,0.6,0.4c0.3,0.2,0.6,0.3,0.9,0.5c0.7,0.3,1.4,0.5,2.1,0.8c2.9,0.8,5.9,1.4,8.9,1.5c3.1,0.2,6.1,0.1,9.1-0.5l0,0
				l0,0c0.7-4,1.4-8.1,1.9-12.1s1-8.1,1.4-12.2s0.5-8.2,0.3-12.2c-0.1-2-0.3-4-0.8-6c-0.2-0.9-0.6-1.8-1.2-2.6
				C410.3,313.8,409.4,313.4,408.5,313.5z M408.5,312.5c0.6,0,1.2,0.1,1.8,0.4c0.5,0.3,1,0.7,1.3,1.2c0.6,0.9,1,1.9,1.3,3
				c0.5,2,0.7,4.1,0.8,6.2c0.1,4.1-0.1,8.2-0.5,12.3c-0.4,4.1-1,8.1-1.6,12.2s-1.4,8.1-2.2,12.1l0,0l0,0c-1.5,0.6-3,0.9-4.6,1.2
				c-1.5,0.3-3.1,0.4-4.7,0.4c-3.2,0.1-6.3-0.3-9.4-1c-0.8-0.2-1.6-0.4-2.3-0.7c-0.4-0.2-0.8-0.3-1.2-0.5c-0.5-0.2-0.9-0.6-1.2-1
				c-0.1-0.2-0.2-0.4-0.3-0.7c0-0.1,0-0.2,0-0.3V357c0-0.2,0.1-0.4,0.1-0.6l0.3-1.2c0.2-0.8,0.4-1.5,0.6-2.3c0.9-3,1.8-6,2.8-8.9
				s2.1-5.9,3.3-8.7s2.4-5.7,3.8-8.5s2.9-5.5,4.7-8.1c0.9-1.3,1.9-2.5,3-3.7C405.2,313.6,406.8,312.8,408.5,312.5L408.5,312.5z"/>
		</g>
		<g class="st0">
			<ellipse class="st22" cx="434.2" cy="288.7" rx="24.2" ry="20"/>
			<path class="st23" d="M458.8,288.7c0,3-0.7,6-2.2,8.6s-3.4,4.9-5.8,6.7c-9.9,7.3-23.4,7.3-33.4,0c-2.4-1.8-4.4-4.1-5.9-6.7
				c-3-5.3-3-11.9,0.1-17.2c1.5-2.6,3.5-4.8,5.9-6.5c4.8-3.4,10.6-5.3,16.5-5.2c5.9,0,11.7,1.8,16.5,5.3c2.4,1.7,4.4,4,5.9,6.5
				C458,282.8,458.8,285.7,458.8,288.7z M457.9,288.7c0-2.8-0.7-5.6-2.1-8.1s-3.3-4.7-5.6-6.4c-4.7-3.4-10.3-5.2-16.1-5.1
				c-5.8,0-11.4,1.8-16,5.3c-2.3,1.7-4.2,3.9-5.5,6.4c-2.8,5-2.8,11.1,0.1,16.1c1.4,2.4,3.3,4.5,5.6,6.2c9.5,6.7,22.2,6.7,31.8,0
				c2.3-1.7,4.2-3.8,5.6-6.2C457.1,294.3,457.9,291.5,457.9,288.7z"/>
		</g>
		<path class="st31" d="M457.1,282.2c-0.1-0.3-0.1-0.6-2-1.4s1.2-2.7-4.1-3.5s-3.9,1.4-10.7,2.1s-6.1-3.7-9.3-1.9s-7,0.7-8.9,3.3
			s-4.6-2.2-5.8,0.9s4.6,6.6-0.6,11.3s-3.5,5.6-3.5,5.6l-5.3-15l7.5-10.5c0,0,11.1-4.7,11.8-4.9s13.7,0,13.7,0l7.7,1.6l8.6,8.1
			c0.3,0.3,0.6,0.7,0.6,1.2l0.8,4.1"/>
		<g class="st0">
			<circle cx="435.5" cy="292" r="2.8"/>
			
				<ellipse transform="matrix(0.8005 -0.5993 0.5993 0.8005 -87.3106 319.702)" class="st13" cx="436.6" cy="291" rx="0.7" ry="1.4"/>
		</g>
		<path class="st31" d="M439.1,288c-0.9-0.5-1.8-0.8-2.8-1c-0.9-0.2-1.9-0.4-2.9-0.4c-0.5,0-1,0-1.5,0l-1.5,0.2l-1.6,0.2
			c-0.5,0.1-1,0.2-1.6,0.2v-0.1c0.9-0.6,1.9-1,2.9-1.4c0.5-0.2,1-0.3,1.6-0.5c0.5-0.1,1.1-0.2,1.6-0.2c0.6,0,1.1,0,1.7,0
			c0.6,0.1,1.1,0.2,1.7,0.4C437.9,285.9,438.8,286.8,439.1,288L439.1,288z"/>
		<g class="st0">
			<circle cx="451.9" cy="291.4" r="2.5"/>
			
				<ellipse transform="matrix(0.8085 -0.5885 0.5885 0.8085 -84.272 322.1825)" class="st13" cx="452.9" cy="290.6" rx="0.6" ry="1.2"/>
		</g>
		<path class="st31" d="M454.6,288.4c-0.2-0.6-0.5-1.2-1.1-1.5c-0.5-0.4-1.1-0.7-1.7-0.8c-0.3-0.1-0.7-0.2-1-0.3
			c-0.4-0.1-0.7-0.2-1.1-0.2c-0.7-0.2-1.5-0.3-2.3-0.5l0,0c0.8-0.2,1.5-0.4,2.3-0.5s1.6,0,2.4,0.1c0.4,0.1,0.8,0.2,1.2,0.4
			c0.4,0.2,0.8,0.4,1.2,0.8c0.4,0.4,0.6,0.9,0.6,1.4s-0.2,1-0.5,1.3V288.4z"/>
		<g class="st0">
			<path class="st22" d="M669.7,400.3c0,0-26,12.2-9.6,13.7s33.6-4.9,29.3-10.3S669.7,400.3,669.7,400.3z"/>
			<path class="st23" d="M669.7,400.4c-2.9,1.7-5.8,3.4-8.6,5.3c-1.4,0.9-2.7,1.9-3.9,3c-0.6,0.5-1.1,1.1-1.5,1.8
				c-0.1,0.1-0.2,0.3-0.2,0.5c0,0.1-0.1,0.3-0.1,0.4c0,0.2,0.1,0.5,0.2,0.6c0.5,0.5,1.2,0.8,1.8,0.9c0.8,0.2,1.6,0.3,2.4,0.4
				c1.6,0.2,3.3,0.3,5,0.3c3.3,0,6.7-0.2,10-0.8c3.3-0.5,6.5-1.4,9.6-2.7c1.5-0.6,2.9-1.5,4.1-2.5c0.6-0.5,0.9-1.1,1.1-1.9
				c0-0.7-0.2-1.4-0.7-1.9c-1.1-1.1-2.6-2-4.1-2.4c-1.6-0.5-3.2-0.8-4.9-1C676.4,400.1,673.1,400.1,669.7,400.4z M669.7,400.3
				c3.4-0.5,6.8-0.6,10.1-0.4c1.7,0.1,3.4,0.4,5.1,0.8c1.7,0.4,3.3,1.3,4.6,2.5c0.7,0.7,1.1,1.7,1,2.6c-0.2,0.9-0.6,1.8-1.3,2.5
				c-1.3,1.2-2.8,2.2-4.4,2.9c-3.1,1.4-6.4,2.4-9.8,2.9c-3.4,0.6-6.8,0.9-10.2,0.9c-1.7,0-3.4-0.1-5.1-0.3c-0.9-0.1-1.7-0.2-2.6-0.5
				c-1-0.2-1.9-0.7-2.6-1.4c-0.1-0.1-0.2-0.2-0.3-0.4L654,412c-0.1-0.3-0.1-0.6-0.1-0.9c0.1-0.5,0.3-1,0.5-1.5
				c0.5-0.8,1.1-1.4,1.8-2c1.3-1.1,2.7-2.1,4.2-3C663.4,403,666.5,401.5,669.7,400.3L669.7,400.3z"/>
		</g>
		<g class="st0">
			<path class="st32" d="M668.8,338.8c-1.1,6.4-3.7,54.1-0.1,61.6c0,0,2.7,3.4,15.8,2.4c10.5-0.8,1.4-20.5,5.5-57.8"/>
			<path class="st33" d="M668.8,338.8c-0.5,5.1-0.6,10.3-0.8,15.4s-0.3,10.3-0.3,15.5s0,10.3,0.2,15.4c0.1,2.6,0.2,5.1,0.5,7.6
				c0.1,1.3,0.3,2.5,0.5,3.8c0.2,1.2,0.5,2.3,0.9,3.4l-0.1-0.2l0,0c0,0,0,0,0.1,0l0.2,0.1l0.4,0.3c0.3,0.1,0.6,0.3,1,0.4
				c0.7,0.3,1.4,0.5,2.1,0.6c1.5,0.3,3,0.5,4.5,0.5c1.5,0.1,3.1,0,4.7,0l1.2-0.1c0.4,0,0.8,0,1.1-0.1c0.6-0.1,1.2-0.3,1.7-0.6
				c1-0.9,1.6-2.1,1.7-3.4c0.3-1.5,0.4-3,0.4-4.6c0-3.1-0.1-6.3-0.3-9.5c-0.3-6.4-0.4-12.8-0.2-19.3c0.2-6.4,0.8-12.8,1.8-19.1h0.1
				c-0.4,6.4-0.6,12.8-0.5,19.2s0.5,12.8,0.9,19.1c0.2,3.2,0.4,6.4,0.5,9.7c0,1.7-0.1,3.3-0.3,5c-0.2,0.9-0.4,1.8-0.8,2.6
				c-0.4,0.9-1.1,1.7-1.9,2.3c-0.8,0.6-1.8,0.9-2.8,1c-0.5,0.1-0.9,0.1-1.3,0.1l-1.2,0.1c-1.6,0.1-3.3,0.1-4.9,0
				c-1.7-0.1-3.4-0.3-5-0.6c-0.8-0.2-1.7-0.4-2.5-0.8c-0.4-0.2-0.8-0.4-1.2-0.6c-0.2-0.1-0.4-0.3-0.6-0.4l-0.3-0.2l-0.2-0.1
				c-0.1-0.1-0.1-0.1-0.2-0.2l-0.1-0.1v-0.1c-0.5-1.3-0.9-2.7-1-4.1c-0.2-1.3-0.3-2.6-0.4-3.9c-0.2-2.6-0.3-5.2-0.3-7.8
				c0-5.2,0-10.4,0.3-15.5s0.5-10.3,0.9-15.5c0.2-2.6,0.4-5.2,0.7-7.7C668,343.9,668.3,341.4,668.8,338.8L668.8,338.8z"/>
		</g>
		<path class="st34" d="M701.2,283c0.6,0.2,6.5,1.3,5.8-4.3c0,0,6.3-2,2-6.8c0,0,6.1-2.9,0.9-8.5c0,0,4.4-3.3-1-6
			c0,0,2.9-4.6-3.2-4.9c0,0,0.5-6.4-4.9-3.9c0,0-0.7-7.2-6.5-5c0,0-4.1-8.7-11.7-2.5c0,0-3.6-3.6-8.5,0.9c0,0-6.4-2.4-7.8,2.5
			c0,0-7.3,0.2-6.3,5.5c0,0-4.4-0.7-3.3,3.7c0,0-4.6,0.2-2.8,5.1c0,0-4.3,2.6-0.3,7.9c0,0-6.3,6.5,4.4,7.3
			C666.1,274.9,701.2,283,701.2,283z"/>
		<g class="st0">
			<path class="st22" d="M689.7,403.2c0,0-26,12.2-9.6,13.8s33.6-5,29.3-10.3S689.7,403.2,689.7,403.2z"/>
			<path class="st23" d="M689.7,403.2c-2.9,1.7-5.8,3.4-8.6,5.3c-1.4,0.9-2.7,1.9-3.9,3c-0.6,0.5-1.1,1.1-1.5,1.8
				c-0.1,0.1-0.2,0.3-0.2,0.5c0,0.1-0.1,0.3-0.1,0.4c0,0.2,0.1,0.5,0.2,0.6c0.5,0.5,1.2,0.8,1.8,0.9c0.8,0.2,1.6,0.3,2.4,0.4
				c1.6,0.2,3.3,0.3,5,0.3c3.3,0,6.7-0.2,10-0.8c3.3-0.5,6.5-1.4,9.6-2.7c1.5-0.6,2.9-1.5,4.1-2.5c0.6-0.5,0.9-1.1,1.1-1.9
				c0-0.7-0.2-1.4-0.7-1.9c-1.1-1.1-2.6-2-4.1-2.4c-1.6-0.5-3.2-0.8-4.9-1C696.4,402.9,693,402.9,689.7,403.2z M689.7,403.1
				c3.4-0.5,6.8-0.6,10.2-0.4c1.7,0.1,3.4,0.4,5.1,0.8c1.7,0.4,3.3,1.3,4.6,2.5c0.7,0.7,1.1,1.6,1,2.6c-0.2,0.9-0.6,1.8-1.3,2.5
				c-1.3,1.2-2.8,2.2-4.4,2.9c-3.1,1.4-6.4,2.4-9.8,2.9c-3.4,0.6-6.8,0.9-10.2,0.9c-1.7,0-3.4-0.1-5.1-0.3c-0.9-0.1-1.7-0.2-2.6-0.5
				c-1-0.2-1.9-0.7-2.6-1.4c-0.1-0.1-0.2-0.2-0.3-0.4c-0.1-0.1-0.1-0.3-0.2-0.4c-0.1-0.3-0.1-0.6-0.1-0.9c0.1-0.5,0.3-1,0.5-1.5
				c0.5-0.8,1.1-1.4,1.8-2c1.3-1.1,2.7-2.1,4.2-3C683.4,405.8,686.5,404.3,689.7,403.1L689.7,403.1z"/>
		</g>
		<g class="st0">
			<path class="st32" d="M688.8,341.6c-1.1,6.4-3.7,54.1-0.1,61.6c0,0,2.7,3.4,15.8,2.4c10.5-0.8,1.4-20.5,5.5-57.8"/>
			<path class="st33" d="M688.8,341.7c-0.5,5.1-0.6,10.3-0.8,15.4s-0.3,10.3-0.3,15.5s0,10.3,0.2,15.4c0.1,2.6,0.2,5.1,0.5,7.6
				c0.1,1.3,0.3,2.5,0.5,3.8c0.2,1.2,0.5,2.3,0.9,3.4l-0.1-0.2l0,0l0.1,0.1l0.2,0.1c0.1,0.1,0.3,0.2,0.4,0.3c0.3,0.2,0.6,0.3,1,0.4
				c0.7,0.3,1.4,0.5,2.1,0.6c1.5,0.3,3,0.5,4.5,0.5c1.5,0.1,3.1,0,4.7,0l1.2-0.1c0.4,0,0.8,0,1.1-0.1c0.6-0.1,1.2-0.3,1.7-0.6
				c1-0.9,1.6-2.1,1.7-3.4c0.3-1.5,0.4-3,0.4-4.6c0-3.1-0.1-6.3-0.3-9.5c-0.3-6.4-0.4-12.8-0.2-19.3c0.2-6.4,0.8-12.8,1.8-19.2h0.1
				c-0.4,6.4-0.6,12.8-0.5,19.2s0.5,12.8,0.9,19.1c0.2,3.2,0.4,6.4,0.5,9.7c0,1.7-0.1,3.3-0.4,5c-0.2,0.9-0.4,1.8-0.8,2.6
				c-0.4,0.9-1.1,1.7-1.9,2.3c-0.8,0.6-1.8,0.9-2.8,1.1c-0.5,0.1-0.9,0.1-1.3,0.1l-1.2,0.1c-1.6,0.1-3.3,0.1-4.9,0
				c-1.7-0.1-3.4-0.3-5-0.6c-0.8-0.2-1.7-0.4-2.5-0.8c-0.4-0.2-0.8-0.4-1.2-0.6c-0.2-0.1-0.4-0.3-0.6-0.4l-0.3-0.2l-0.2-0.1
				c-0.1-0.1-0.1-0.1-0.2-0.2l-0.1-0.1v-0.1c-0.5-1.3-0.9-2.7-1-4.1c-0.2-1.3-0.3-2.6-0.4-3.9c-0.2-2.6-0.3-5.2-0.3-7.8
				c-0.1-5.2,0-10.4,0.3-15.5c0.2-5.2,0.5-10.3,0.8-15.5c0.2-2.6,0.4-5.1,0.7-7.7S688.3,344.3,688.8,341.7L688.8,341.7z"/>
		</g>
		<g class="st0">
			<path class="st35" d="M711.3,362.6c0,0-3.8-51.1-3.2-61.7s-32.3-7.8-32.3-7.8s-8.2,0-10.4,28c-1.2,16-2.5,39.2-2.5,39.2
				S667.7,366.1,711.3,362.6z"/>
			<path class="st36" d="M711.3,362.6c-0.7-8.1-1.2-16.2-1.8-24.3s-1.1-16.2-1.4-24.4c-0.2-4.1-0.3-8.1-0.3-12.2c0-0.5,0-1,0-1.5
				s-0.2-0.9-0.4-1.4c-0.4-0.9-1.1-1.6-1.9-2.1c-1.7-1.1-3.6-1.8-5.5-2.2c-3.9-0.8-8-1.3-12-1.3c-4.1-0.1-8.1,0-12.1,0.4l0,0
				c-0.6,0.1-1.2,0.4-1.7,0.8c-0.6,0.4-1,0.9-1.5,1.5c-0.9,1.1-1.6,2.4-2.2,3.7c-1.2,2.7-2,5.4-2.6,8.3c-1.1,5.7-1.8,11.5-2.1,17.4
				c-0.8,11.7-1.5,23.4-2.1,35.1l0,0l-0.2-0.5c0.1,0.1,0.3,0.2,0.4,0.3c0.2,0.1,0.4,0.2,0.6,0.3c0.4,0.2,0.9,0.4,1.3,0.5
				c0.9,0.3,1.9,0.6,2.9,0.8c2,0.4,4,0.7,6,0.9s4,0.4,6.1,0.5s4.1,0.2,6.1,0.2s4.1,0,6.1,0s4.1,0,6.1-0.1
				C703.2,363,707.1,362.8,711.3,362.6z M711.3,362.6c-4,0.3-8.2,0.7-12.2,1c-2,0.1-4.1,0.2-6.1,0.3s-4.1,0.1-6.1,0.2s-4.1,0-6.1,0
				s-4.1-0.1-6.1-0.3c-2.1-0.2-4.1-0.4-6.1-0.8c-1-0.2-2-0.4-3-0.7c-0.5-0.2-1-0.3-1.5-0.6c-0.3-0.1-0.5-0.2-0.8-0.4
				c-0.3-0.2-0.6-0.4-0.8-0.6l-0.2-0.2v-0.3l0,0c0.7-11.7,1.4-23.5,2.3-35.2c0.3-5.9,1.1-11.8,2.3-17.5c0.6-2.9,1.5-5.8,2.8-8.5
				c0.6-1.4,1.4-2.7,2.4-3.9c0.5-0.6,1.1-1.1,1.7-1.6c0.7-0.5,1.4-0.9,2.3-1l0,0c4.1-0.3,8.2-0.4,12.2-0.2c4.1,0.1,8.2,0.6,12.2,1.5
				c2,0.4,4,1.2,5.7,2.4c0.9,0.6,1.6,1.4,2.1,2.4c0.2,0.5,0.4,1,0.4,1.6c0,0.5,0,1.1,0,1.6c-0.1,4,0,8.1,0.1,12.2
				c0.3,8.1,0.8,16.2,1.2,24.4S710.7,354.4,711.3,362.6L711.3,362.6z"/>
		</g>
		<g class="st0">
			<path class="st37" d="M678.9,290c0,0-0.8,6.2,3.3,8.8c2.8,1.8,7.6-5.4,7.6-5.4s-0.8-2.8-1.4-4.5S678.9,290,678.9,290z"/>
			<path class="st38" d="M679,290c0,1.6,0.3,3.2,0.8,4.7s1.5,2.7,2.7,3.6c0.6,0.3,1.3,0.2,1.9-0.1c0.7-0.4,1.3-0.8,1.9-1.4
				c1.2-1.1,2.3-2.3,3.4-3.5l0,0l0,0l-1.1-3.5c-0.2-0.5-0.2-1.3-0.9-1.4c-0.6-0.1-1.2-0.1-1.8-0.1c-1.2,0.1-2.4,0.4-3.6,0.7
				C681.3,289.3,680.1,289.7,679,290z M678.9,289.9c1.2-0.4,2.3-0.7,3.5-1s2.4-0.5,3.6-0.7c0.6-0.1,1.2-0.1,1.8,0.1
				c0.3,0.1,0.6,0.3,0.7,0.6l0.3,0.9l1.1,3.5l0,0l0,0c-0.8,1.5-1.8,2.9-2.9,4.1c-0.6,0.6-1.3,1.2-2,1.6c-0.4,0.2-0.9,0.4-1.3,0.5
				c-0.5,0.1-1,0-1.5-0.3c-0.8-0.5-1.4-1.1-1.9-1.9c-0.5-0.7-0.9-1.5-1.2-2.4C678.6,293.3,678.5,291.6,678.9,289.9L678.9,289.9z"/>
		</g>
		<g class="st0">
			<ellipse class="st37" cx="680.2" cy="271.6" rx="24.6" ry="20.3"/>
			<path class="st38" d="M656,271.6c0.1,2.9,0.8,5.7,2.3,8.2c1.4,2.5,3.4,4.6,5.7,6.3c9.7,6.8,22.6,6.8,32.2,0
				c2.3-1.7,4.2-3.8,5.7-6.3c1.4-2.5,2.2-5.3,2.2-8.1c0-2.9-0.7-5.7-2.1-8.2c-1.4-2.5-3.3-4.7-5.6-6.5c-4.7-3.5-10.4-5.3-16.3-5.3
				c-5.9-0.1-11.6,1.8-16.3,5.2c-2.3,1.7-4.2,4-5.7,6.5C656.7,265.9,656,268.7,656,271.6z M655.1,271.6c0-3,0.9-6,2.4-8.6
				s3.6-4.9,6-6.6c4.9-3.5,10.7-5.4,16.7-5.4c6-0.1,11.9,1.8,16.8,5.3c2.4,1.8,4.5,4,6,6.6s2.3,5.6,2.4,8.7c0,3.1-0.8,6.1-2.2,8.8
				c-1.5,2.7-3.5,5-6,6.8c-10.1,7.4-23.8,7.3-33.9,0c-2.4-1.8-4.4-4.1-5.9-6.8C655.8,277.7,655.1,274.7,655.1,271.6L655.1,271.6z"/>
		</g>
		<path class="st39" d="M679.3,276.3c0,0,0,0.1,0.1,0.3c0.4,0.8,2.3,2.5,7,3.6c5.8,1.4-5.6,3.9-5.6,3.9l-3.6-4.5"/>
		<path class="st39" d="M658.3,276.3l0.1,0.3c0.4,0.8,1.1,1.7,5.9,2.9c5.8,1.4-1.4,3.7-1.4,3.7l-5-4.6"/>
		<g class="st0">
			<circle cx="678.8" cy="274.9" r="2.9"/>
			
				<ellipse transform="matrix(0.9223 -0.3866 0.3866 0.9223 -53.1476 284.2844)" class="st13" cx="680.2" cy="274.3" rx="0.7" ry="1.4"/>
		</g>
		<g class="st0">
			<circle cx="662.2" cy="274.4" r="2.5"/>
			
				<ellipse transform="matrix(0.9223 -0.3866 0.3866 0.9223 -54.2925 277.7603)" class="st13" cx="663.4" cy="273.9" rx="0.6" ry="1.2"/>
		</g>
		<path class="st40" d="M678.7,268.6c0.6-0.9,1.6-1.5,2.7-1.4c1,0,2,0.4,2.9,0.9c0.4,0.2,0.8,0.5,1.2,0.8c0.3,0.3,0.7,0.7,1,1
			c0.6,0.7,1.2,1.5,1.6,2.3l0,0c-0.4-0.3-0.8-0.5-1.1-0.8l-1.1-0.8l-1.1-0.7c-0.4-0.2-0.7-0.4-1.1-0.6c-0.7-0.4-1.5-0.6-2.3-0.7
			C680.4,268.5,679.5,268.5,678.7,268.6L678.7,268.6z"/>
		<path class="st40" d="M665,267.7l-2,0.5c-0.6,0.1-1.2,0.4-1.8,0.7c-0.6,0.3-1.2,0.7-1.7,1.1l-0.9,0.6c-0.3,0.2-0.6,0.5-0.9,0.7
			l0,0c0.1-0.4,0.3-0.7,0.5-1.1s0.4-0.7,0.6-1c0.5-0.6,1.1-1.2,1.7-1.6c0.7-0.5,1.5-0.8,2.3-0.9C663.7,266.6,664.5,266.9,665,267.7
			L665,267.7z"/>
		<path class="st40" d="M702.9,282.5c0,0-5.1-0.3-3.7-3.8c0,0-3.8-2-1.1-4.9c0,0-3.7-2.7-1-5.1c0,0-4.1-1.3-3.4-3.6
			c-2.2,0.4-4.4-0.6-5.7-2.5c0,0-3.3,2-6,0c0,0-0.1,1.4-4.7-0.6c0,0-1.6,1.7-6.2-0.6c0,0-1.9,1.8-5.8,0c0,0-1.3,2.8-3.7,1.1
			c0,0-1.1,3.3-4.3,3.6c0,0-0.6,5.1-2.6,6l-0.2-8.4l7.7-9.8l15.7-5.3l16.8,0.7l9.4,7.6l2.3,14.6L702.9,282.5z"/>
		<g class="st0">
			<path class="st35" d="M704.7,295.8c0,0,10,4.1,14.6,13.9c8.7,18.5,15.7,35.7-23.9,42.1c0,0-9.4-12.4-8.6-22.2
				c0,0,13.8-1.4,21.1-1.4c0,0-1.1-1.1,1.5-2.3C709.4,326,692,296,704.7,295.8z"/>
			<path class="st41" d="M704.8,295.3c0.1,0,0.1,0,0.2,0.1h0.1l0.2,0.1l0.3,0.1l0.6,0.3c0.4,0.2,0.8,0.4,1.2,0.6
				c0.8,0.4,1.5,0.9,2.3,1.4c1.5,1,2.9,2.1,4.2,3.2c2.7,2.4,4.9,5.3,6.4,8.5c1.5,3.1,3,6.3,4.3,9.6c1.4,3.3,2.2,6.8,2.5,10.4
				c0.1,1.8,0,3.7-0.5,5.5s-1.2,3.5-2.3,5c-2.2,2.9-5.1,5.2-8.4,6.7c-3.2,1.5-6.5,2.7-10,3.4c-3.4,0.8-6.9,1.4-10.4,1.7h-0.1l0,0
				c-1.2-1.6-2.3-3.3-3.3-5.1c-1-1.8-1.9-3.6-2.8-5.4c-0.8-1.9-1.5-3.8-2-5.8s-0.7-4-0.6-6v-0.1h0.1c3.5-0.3,7-0.6,10.5-0.9
				c3.5-0.2,7-0.5,10.6-0.5l-0.1,0.2c-0.2-0.2-0.3-0.5-0.3-0.8c0.1-0.3,0.2-0.5,0.4-0.7c0.4-0.4,0.9-0.7,1.4-0.9v0.1
				c-1.5-2.5-2.8-5.1-4.1-7.7s-2.4-5.3-3.5-8s-1.7-5.6-2-8.5c-0.2-1.5,0.1-3.1,0.9-4.4c0.4-0.7,1.1-1.2,1.8-1.5
				c0.4-0.2,0.7-0.3,1.1-0.4l0.6-0.1L704.8,295.3z M704.6,296.2h-0.4l-0.5,0.1c-0.3,0.1-0.7,0.1-1,0.3c-0.6,0.2-1.1,0.7-1.5,1.2
				c-0.7,1.2-1,2.6-0.8,4c0.2,2.9,0.8,5.7,1.8,8.4c0.9,2.7,2,5.4,3.3,8c1.2,2.6,2.5,5.2,3.9,7.8v0.1h-0.1c-0.5,0.2-0.9,0.5-1.3,0.8
				c-0.2,0.2-0.3,0.4-0.3,0.6s0,0.5,0.2,0.6l0.2,0.2h-0.2c-3.5,0-7,0.2-10.5,0.5s-7,0.5-10.5,0.9l0.1-0.1c-0.1,2,0.1,4,0.6,6
				s1.2,3.9,2,5.7c1.6,3.7,3.6,7.2,6,10.5h-0.1l0,0c6.8-1.6,13.5-3.3,19.6-6.5c3-1.5,5.6-3.6,7.7-6.3c1.9-2.7,2.7-6,2.4-9.3
				c-0.3-3.4-1.1-6.7-2.3-9.9c-1.2-3.2-2.6-6.4-4-9.5s-3.4-5.9-5.8-8.2c-1.2-1.2-2.5-2.3-3.9-3.3c-0.7-0.5-1.4-1-2.2-1.4
				c-0.4-0.2-0.7-0.4-1.1-0.6l-0.6-0.3l-0.3-0.1L704.6,296.2L704.6,296.2C704.6,296.3,704.6,296.2,704.6,296.2z"/>
		</g>
		<g class="st0">
			<path class="st35" d="M682.6,327.1c0,0-1.6,20.4,10.5,29.4l6.2-3.7c0,0-9.7-15.4-8.3-25.7C690.9,327.1,687.1,327,682.6,327.1z"/>
			<path class="st41" d="M682.7,327.2c0,0.1,0,0.1,0,0.1v1.8c0,0.7,0,1.4,0.1,2c0.1,1.3,0.2,2.7,0.4,4c0.3,2.7,0.9,5.3,1.7,7.8
				s1.9,4.9,3.3,7.2c1.4,2.2,3.2,4.1,5.3,5.6l0,0h-1l6.5-3.1v0.2l0,0c-1.2-2-2.3-4-3.3-6c-1-2.1-1.9-4.2-2.7-6.3
				c-0.8-2.1-1.5-4.3-1.9-6.6c-0.5-2.3-0.6-4.6-0.4-6.9l0.2,0.2L682.7,327.2z M682.5,326.9h8.4h0.2v0.2c-0.2,2.3-0.1,4.5,0.4,6.8
				c0.5,2.2,1.1,4.4,1.9,6.5c0.8,2.1,1.7,4.2,2.7,6.3c1,2,2.1,4,3.3,6l0,0l0.1,0.1l-0.1,0.1l-5.8,4.4l-0.5,0.3l-0.6-0.4l0,0
				c-2.2-1.8-4-3.9-5.5-6.3c-1.3-2.4-2.4-5-3.2-7.6c-0.7-2.6-1.2-5.3-1.4-8c-0.1-1.4-0.2-2.7-0.2-4.1c0-0.7,0-1.4,0-2v-1v-0.5v-0.3
				C682.3,327.3,682.4,327.1,682.5,326.9z"/>
		</g>
		<path class="st42" d="M713.8,335.1c-0.6-3.2-2.9-5.8-5.9-6.9"/>
		<path class="st42" d="M718,330.1c0,0-3.3-5.1-8.6-4.1"/>
		<g class="st0">
			<path class="st35" d="M673.1,294.1c0,0-15.5,5.7-17.9,33.8c-2.7,17.4,8.9,20.7,8.9,20.7s7.9-14.8,8.2-20.4c0,0-3.4-1.7-5.5-1.6
				c0,0,1.1-1.8-0.5-2.4C666.3,324.2,664,316.2,673.1,294.1z"/>
			<path class="st41" d="M673,294.2c-0.1,0.1,0,0.1-0.1,0.1l-0.2,0.1l-0.4,0.2c-0.3,0.2-0.6,0.3-0.9,0.5c-0.6,0.4-1.1,0.8-1.6,1.1
				s-1,0.9-1.5,1.3l-1.4,1.4c-1.8,2-3.4,4.1-4.7,6.4c-2.5,4.7-4.3,9.8-5.3,15c-0.6,2.6-0.8,5.3-1.1,7.9c-0.4,2.6-0.4,5.3-0.1,7.9
				c0.3,2.6,1.2,5.1,2.6,7.3c1.4,2.2,3.5,3.9,5.9,5l-0.1,0.1l0,0c1.7-3.2,3.3-6.6,4.8-9.9c0.7-1.7,1.4-3.4,2.1-5.1
				c0.7-1.7,1.1-3.5,1.3-5.3l0.1,0.1c-0.9-0.4-1.8-0.8-2.7-1.1c-0.9-0.3-1.8-0.5-2.8-0.5c-0.1,0-0.1,0-0.1-0.1c0,0,0,0,0-0.1
				c0.2-0.4,0.4-0.8,0.4-1.3c0-0.2-0.1-0.4-0.2-0.6c-0.1-0.2-0.3-0.3-0.5-0.4l0,0c0,0,0,0,0-0.1c-0.4-2.6-0.4-5.2,0.1-7.8
				c0.4-2.6,0.9-5.1,1.6-7.6c0.3-1.3,0.7-2.5,1.1-3.7s0.8-2.5,1.2-3.7s0.9-2.5,1.3-3.6S672.5,295.4,673,294.2z M673.2,294.1
				c-0.5,1.2-0.9,2.5-1.4,3.7l-1.3,3.7c-0.4,1.2-0.8,2.5-1.2,3.7s-0.8,2.5-1.1,3.7c-0.7,2.5-1.2,5-1.6,7.6c-0.4,2.5-0.5,5.2-0.1,7.7
				l-0.1-0.1c0.2,0.1,0.5,0.2,0.6,0.4c0.2,0.2,0.3,0.5,0.3,0.7c0,0.5-0.1,1-0.4,1.4l-0.1-0.2c1,0,2,0.2,2.9,0.5s1.8,0.7,2.7,1.1
				l0.1,0.1c-0.2,1.8-0.7,3.6-1.4,5.4c-0.6,1.7-1.3,3.5-2.1,5.1c-1.5,3.4-3.1,6.7-4.8,10l0,0c0,0-0.1,0.1-0.1,0l0,0
				c-2.7-0.8-5-2.4-6.6-4.7c-1.6-2.3-2.7-4.9-3-7.7c-0.3-2.7-0.3-5.5,0.2-8.2c0.3-2.7,0.6-5.4,1.2-8c1-5.4,2.9-10.5,5.7-15.2
				c1.4-2.3,3.1-4.5,5-6.4l1.5-1.4c0.5-0.4,1.1-0.9,1.6-1.2c0.6-0.4,1.1-0.8,1.7-1.1c0.3-0.2,0.6-0.3,0.9-0.5
				c0.1-0.1,0.3-0.2,0.5-0.2l0.2-0.1C672.9,294.1,673.1,294,673.2,294.1L673.2,294.1z"/>
		</g>
		<g class="st0">
			<path class="st35" d="M677.3,327.5c0,0-1.6,18.8-13.9,25.3l-3.1-4c0,0,10.1-10.8,11.4-22.2C671.7,326.5,673.2,326.7,677.3,327.5z
				"/>
			<path class="st41" d="M677.5,327.3c0,0.1,0,0.3,0,0.4v0.2v0.5l-0.1,0.9c-0.1,0.6-0.2,1.2-0.3,1.9c-0.2,1.2-0.5,2.5-0.8,3.7
				c-0.6,2.4-1.5,4.8-2.5,7.1c-1.1,2.3-2.4,4.5-4,6.5c-1.7,2-3.7,3.6-5.9,4.9l-0.6,0.4l-0.4-0.6l-2.7-4.4l-0.1-0.2l0.1-0.1l0,0
				c1.4-1.6,2.7-3.2,3.9-4.9c1.2-1.7,2.3-3.5,3.3-5.3s1.9-3.8,2.6-5.7c0.7-2,1.2-4,1.5-6.1v-0.2h0.2
				C673.7,326.6,675.6,327,677.5,327.3z M677.1,327.6c-1.8-0.3-3.7-0.5-5.5-0.8l0.2-0.2c-0.3,2.1-0.8,4.2-1.5,6.2s-1.6,3.9-2.6,5.8
				s-2.2,3.6-3.4,5.4c-1.2,1.7-2.5,3.4-4,5l0,0v-0.3l3.6,3.6l-1-0.2c2.1-1.1,4-2.6,5.7-4.4c1.6-1.9,3-3.9,4.1-6.1s2-4.5,2.7-6.9
				c0.4-1.2,0.7-2.4,0.9-3.6c0.1-0.6,0.3-1.2,0.4-1.8l0.2-0.9l0.1-0.5v-0.2C677.1,327.6,677.1,327.6,677.1,327.6L677.1,327.6z"/>
		</g>
		<path class="st42" d="M662.1,328.8c0,0,0.7-2,4.7-2.3"/>
		<path class="st42" d="M666.3,324.1c0,0-3.7-0.5-5.1,1.2"/>
		<g class="st0">
			<path class="st43" d="M724.7,278.3c0,0-9.5,0.7-17.3,18.3c0,0,3.3-9,18.3-12.3S724.7,278.3,724.7,278.3z"/>
			<path class="st44" d="M724.7,278.6c-1,0.2-2,0.5-3,1c-0.5,0.2-0.9,0.5-1.4,0.7s-0.9,0.6-1.3,0.9c-1.7,1.3-3.3,2.8-4.7,4.4
				c-1.4,1.7-2.6,3.4-3.8,5.3c-0.5,0.9-1.1,1.9-1.6,2.8l-1.4,2.9l-0.2-0.1l0,0c0.5-1.5,1.4-3,2.5-4.2c1.1-1.3,2.3-2.4,3.6-3.3
				c2.7-1.9,5.6-3.3,8.8-4.2c0.8-0.3,1.6-0.4,2.3-0.6s1.6-0.4,2.3-0.5c1.5-0.3,3-0.8,4.4-1.5c0.3-0.2,0.5-0.5,0.5-0.6
				s-0.2-0.4-0.5-0.6c-0.6-0.4-1.3-0.8-2-1C727.8,279.3,726.2,278.9,724.7,278.6z M724.7,278c1.6,0.3,3.2,0.7,4.8,1.2
				c0.8,0.2,1.6,0.6,2.3,1.1c0.5,0.3,0.7,0.8,0.8,1.3c-0.1,0.5-0.4,1-0.9,1.2c-1.4,0.8-3,1.4-4.6,1.8c-0.8,0.2-1.6,0.4-2.3,0.6
				s-1.5,0.4-2.3,0.6c-3,0.9-5.9,2.3-8.5,4.1c-2.6,1.8-4.8,4.1-6.4,6.8l0,0l-0.2-0.1l1.4-3c0.5-1,1-1.9,1.5-2.9
				c1.1-1.9,2.3-3.7,3.7-5.4c1.4-1.7,3-3.2,4.7-4.6c0.4-0.3,0.9-0.6,1.4-0.9s1-0.6,1.5-0.8C722.5,278.5,723.6,278.2,724.7,278
				L724.7,278z"/>
		</g>
		<g class="st0">
			<path class="st45" d="M734.5,403c0,0-18.3,8.5-6.8,9.6s23.6-3.5,20.6-7.2S734.5,403,734.5,403z"/>
			<path class="st46" d="M734.5,403c-2,1.2-4,2.5-5.9,3.8c-1,0.6-1.9,1.4-2.7,2.1c-0.4,0.4-0.7,0.8-1,1.2c-0.1,0.2-0.2,0.3-0.2,0.5
				c0,0.1,0,0.2,0.1,0.3c0.3,0.3,0.8,0.5,1.2,0.6c0.5,0.1,1.1,0.2,1.6,0.3c1.2,0.1,2.3,0.2,3.5,0.2c2.3,0,4.7-0.2,7-0.5
				c2.3-0.4,4.5-1,6.7-1.9c1-0.4,2-1,2.8-1.7c0.4-0.3,0.6-0.8,0.7-1.2c0-0.5-0.1-0.9-0.5-1.2c-0.8-0.8-1.8-1.4-2.8-1.7
				c-1.1-0.4-2.3-0.6-3.4-0.7C739.3,402.9,736.9,402.8,734.5,403z M734.5,402.9c2.4-0.4,4.8-0.5,7.1-0.3c1.2,0.1,2.4,0.3,3.6,0.6
				c1.2,0.3,2.4,0.9,3.3,1.8c0.5,0.5,0.8,1.2,0.8,2c-0.1,0.7-0.5,1.3-1,1.8c-0.9,0.9-2,1.6-3.1,2.1c-2.2,1-4.5,1.7-6.9,2.1
				s-4.8,0.6-7.2,0.6c-1.2,0-2.4-0.1-3.6-0.2c-0.6-0.1-1.3-0.2-1.9-0.3c-0.7-0.1-1.4-0.5-1.9-1c-0.3-0.4-0.5-0.9-0.4-1.3
				s0.2-0.8,0.4-1.1c0.4-0.6,0.8-1.1,1.3-1.5c0.9-0.8,1.9-1.5,3-2.1C730.1,404.7,732.3,403.7,734.5,402.9L734.5,402.9z"/>
		</g>
		<g class="st0">
			<path class="st12" d="M728.2,358.3c0,0-0.1,0.4-0.2,1c-1,6,3.1,36.6,6.5,43.7c0,0,0.3,3.4,8.5,2.3c9.8-1.4-1-9.8,2.8-44.7
				l-18.3-2.3"/>
			<path class="st15" d="M728.2,358.3c-0.2,1.9-0.2,3.8,0,5.6c0.1,1.9,0.4,3.8,0.6,5.6c0.5,3.8,1,7.5,1.7,11.2s1.3,7.4,2.1,11.1
				c0.4,1.8,0.8,3.7,1.3,5.5c0.4,1.8,1,3.5,1.8,5.1l0.1,0.4c0-0.1,0,0,0,0s0,0,0,0.1s0.1,0.1,0.1,0.2c0.1,0.1,0.2,0.3,0.4,0.4
				c0.4,0.2,0.8,0.4,1.2,0.5c1,0.2,2.1,0.3,3.2,0.2c0.5,0,1.1,0,1.7-0.1c0.5,0,1.1-0.1,1.6-0.3c0.4-0.1,0.9-0.3,1.2-0.5
				s0.5-0.5,0.6-0.8c0.3-1,0.3-2,0.2-3c-0.1-1.1-0.2-2.3-0.4-3.5c-0.3-2.3-0.7-4.7-0.9-7.1c-0.5-4.8-0.6-9.5-0.4-14.3
				c0.2-4.8,0.7-9.5,1.5-14.2l0,0v0.1l-18.3-2.3v-0.1l18.3,2.3h0.1v0.1l0,0c-0.2,4.7-0.4,9.5-0.2,14.2c0.1,4.7,0.5,9.4,1.1,14
				c0.3,2.3,0.7,4.6,1.1,7c0.2,1.2,0.4,2.4,0.5,3.6c0.2,1.4,0.1,2.7-0.3,4.1c-0.3,0.8-0.8,1.5-1.5,1.9c-0.6,0.4-1.3,0.7-2,0.9
				c-0.6,0.2-1.3,0.3-1.9,0.3c-0.6,0.1-1.2,0.1-1.9,0.2c-1.3,0.1-2.6-0.1-3.9-0.4c-0.7-0.2-1.4-0.5-2-0.9c-0.3-0.2-0.6-0.5-0.9-0.9
				c-0.1-0.2-0.2-0.4-0.3-0.6c-0.1-0.1-0.1-0.2-0.1-0.3c-0.1-0.1-0.1-0.3-0.1-0.5l0.1,0.4c-0.8-1.8-1.4-3.7-1.8-5.6
				c-0.4-1.9-0.8-3.7-1.2-5.6c-0.7-3.7-1.2-7.5-1.7-11.3c-0.4-3.8-0.8-7.5-1-11.3c-0.1-1.9-0.2-3.8-0.2-5.7
				C727.6,362.1,727.8,360.2,728.2,358.3L728.2,358.3z"/>
		</g>
		<g class="st0">
			<path class="st45" d="M753.7,405.5c0,0-21.7,10.2-8,11.5s28.1-4.1,24.5-8.6S753.7,405.5,753.7,405.5z"/>
			<path class="st46" d="M753.7,405.5c-2.4,1.4-4.8,2.9-7.1,4.5c-1.1,0.8-2.2,1.6-3.3,2.5c-0.5,0.4-0.9,0.9-1.2,1.5
				c-0.1,0.2-0.2,0.4-0.3,0.7c0,0.2,0,0.3,0.2,0.5c0.4,0.4,0.9,0.6,1.5,0.7c0.7,0.2,1.3,0.3,2,0.4c1.4,0.1,2.8,0.2,4.1,0.2
				c2.8,0,5.6-0.2,8.3-0.6s5.4-1.2,8-2.2c1.2-0.5,2.4-1.2,3.4-2.1c0.5-0.4,0.8-0.9,0.9-1.5c0-0.6-0.2-1.1-0.6-1.5
				c-0.9-1-2.1-1.7-3.4-2c-1.3-0.4-2.7-0.7-4.1-0.8C759.3,405.3,756.5,405.3,753.7,405.5z M753.7,405.4c2.8-0.4,5.6-0.5,8.5-0.4
				c1.4,0.1,2.8,0.3,4.2,0.7c1.5,0.3,2.8,1.1,3.8,2.1c0.6,0.6,1,1.4,0.9,2.3c-0.1,0.8-0.5,1.5-1.1,2.1c-1.1,1-2.3,1.8-3.7,2.4
				c-2.6,1.2-5.4,2-8.2,2.5s-5.7,0.7-8.5,0.7c-1.4,0-2.8-0.1-4.3-0.2c-0.7-0.1-1.5-0.2-2.2-0.4c-0.8-0.2-1.6-0.6-2.2-1.2
				c-0.4-0.4-0.5-1-0.5-1.5c0.1-0.5,0.2-0.9,0.5-1.3c0.4-0.6,0.9-1.2,1.5-1.7c1.1-0.9,2.3-1.8,3.5-2.5
				C748.5,407.6,751,406.4,753.7,405.4L753.7,405.4z"/>
		</g>
		<g class="st0">
			<path class="st12" d="M747.6,357.7c0,0-0.1,0.4-0.2,1.1c-1.1,6.4,1.4,37.6,5,45.1c0,0,2.3,7.3,11.5,5c8.5-2.2,0.7-5.9,4.8-43.2
				l-21.9-8"/>
			<path class="st15" d="M747.7,357.7c-0.3,1.9-0.3,3.9-0.2,5.8s0.2,3.9,0.3,5.8c0.3,3.9,0.7,7.7,1.2,11.6c0.5,3.8,1,7.7,1.7,11.5
				c0.3,1.9,0.7,3.8,1.2,5.6c0.4,1.8,1,3.6,1.7,5.3l0,0v0.1c0.2,0.5,0.4,0.9,0.7,1.4c0.3,0.4,0.6,0.9,1,1.2c0.8,0.7,1.7,1.3,2.7,1.6
				c2.2,0.5,4.4,0.4,6.5-0.3c0.5-0.1,0.9-0.3,1.4-0.6c0.3-0.2,0.6-0.5,0.7-0.9c0.3-1,0.4-2.1,0.3-3.2c0-2.4-0.3-4.9-0.3-7.4
				c-0.3-10,0.4-19.9,2.1-29.7l0,0v0.1l-21.9-8v-0.1l21.9,8l0,0l0,0l0,0c-0.6,9.9-0.6,19.7,0,29.6c0.2,2.5,0.4,4.9,0.5,7.4
				c0.1,1.4,0,2.8-0.5,4.2c-0.3,0.8-0.9,1.5-1.6,2c-0.6,0.4-1.3,0.7-2,0.9c-2.6,0.9-5.4,1.1-8.1,0.3c-1.4-0.4-2.6-1.2-3.6-2.2
				c-0.5-0.5-0.9-1.1-1.3-1.6c-0.4-0.6-0.7-1.3-0.9-2l0.1,0.2c-0.8-1.9-1.4-3.8-1.8-5.8c-0.4-1.9-0.8-3.9-1-5.8
				c-0.5-3.9-1-7.8-1.3-11.7c-0.3-3.9-0.5-7.8-0.5-11.7c0-2,0-3.9,0.1-5.9c0-2,0.3-3.9,0.7-5.8L747.7,357.7z"/>
		</g>
		<g class="st0">
			<path class="st47" d="M782.5,389.8c0,0-22.3-60.4-21.7-71s-21.5-6.1-21.5-6.1s-10.2-1-12.4,27c-1.2,15.9-11.7,46.4-11.7,46.4
				S728.1,404.5,782.5,389.8z"/>
			<path class="st48" d="M782.5,389.8c-1.6-3.8-3.2-7.7-4.6-11.6s-2.9-7.8-4.3-11.7c-2.7-7.9-5.4-15.7-7.8-23.7c-1.2-4-2.4-8-3.5-12
				c-0.5-2-1-4-1.5-6.1c-0.2-1-0.4-2.1-0.5-3.1c-0.1-0.5-0.1-1.1-0.2-1.6c0-0.3,0-0.5,0-0.8v-0.8c0-0.9-0.2-1.8-0.7-2.6
				c-0.5-0.8-1.2-1.4-2-1.8c-1.8-0.8-3.7-1.3-5.7-1.4c-4.1-0.2-8.2,0.1-12.2,0.9h-0.1h-0.2c-0.3,0-0.6,0-0.9,0.1
				c-0.3,0.1-0.7,0.2-1,0.4c-0.7,0.3-1.3,0.8-1.8,1.3c-1.1,1.1-2.1,2.4-2.8,3.7c-1.5,2.9-2.6,6-3.2,9.1c-0.7,3.2-1.2,6.5-1.5,9.8
				c-0.1,1.6-0.3,3.3-0.5,5s-0.5,3.3-0.8,5c-1.2,6.6-2.9,13-4.7,19.4s-3.8,12.7-6,19l0,0l-0.1-0.7c0.9,1.1,1.9,2,3,2.8
				c1.2,0.8,2.4,1.5,3.7,2.2c2.6,1.2,5.3,2.2,8.1,2.8c5.7,1.2,11.5,1.8,17.4,1.6c5.8-0.1,11.6-0.7,17.4-1.6
				C771.1,392.5,776.8,391.3,782.5,389.8z M782.5,389.8c-5.6,1.6-11.3,2.9-17.1,4s-11.6,1.8-17.4,2c-5.9,0.3-11.8-0.1-17.6-1.3
				c-2.9-0.6-5.7-1.5-8.4-2.8c-1.4-0.6-2.7-1.4-3.9-2.2c-1.3-0.8-2.5-1.9-3.5-3.1l-0.2-0.3l0.1-0.4l0,0c2.1-6.3,4.1-12.6,5.9-19
				c1.8-6.4,3.4-12.8,4.6-19.3c0.3-1.6,0.5-3.3,0.8-4.9s0.3-3.2,0.5-4.9c0.3-3.3,0.8-6.7,1.5-9.9c0.7-3.3,1.8-6.6,3.4-9.6
				c0.8-1.6,1.9-3,3.2-4.2c0.7-0.6,1.4-1.1,2.2-1.5c0.4-0.2,0.9-0.4,1.3-0.5c0.5-0.1,1-0.2,1.5-0.2h-0.3c2.1-0.4,4.2-0.7,6.3-0.8
				c2.1-0.2,4.2-0.2,6.4,0c2.2,0.1,4.3,0.7,6.3,1.6c1,0.6,1.9,1.4,2.6,2.4c0.6,1,0.9,2.2,0.9,3.4c0,2,0.2,4,0.6,6c0.4,2,0.9,4,1.4,6
				c1,4,2.2,8,3.4,12c2.4,7.9,5,15.8,7.7,23.7c1.3,3.9,2.7,7.9,3.9,11.8S781.3,385.9,782.5,389.8L782.5,389.8z"/>
		</g>
		<g class="st0">
			<path class="st49" d="M740.4,308.7c0,0-0.3,9.9,3.7,12.5c2.8,1.8,7.1-9.1,7.1-9.1s-0.8-2.8-1.4-4.5S740.4,308.7,740.4,308.7z"/>
			<path class="st50" d="M740.5,308.7c0.2,2.1,0.5,4.2,0.9,6.3c0.2,1,0.6,2,1,3c0.4,0.9,1,1.8,1.7,2.4c0.4,0.3,0.6,0.5,1,0.4
				c0.4-0.2,0.8-0.4,1.1-0.7c0.7-0.7,1.4-1.6,1.9-2.5c0.6-0.9,1.1-1.8,1.6-2.8s1-1.9,1.5-2.9l0,0l0,0c-0.3-1.2-0.7-2.3-1-3.5
				l-0.3-0.9c-0.1-0.3-0.3-0.5-0.6-0.5c-0.6-0.1-1.2-0.2-1.8-0.1c-1.2,0.1-2.4,0.4-3.6,0.7C742.8,308,741.6,308.4,740.5,308.7z
				 M740.4,308.6c1.2-0.4,2.3-0.7,3.5-1s2.4-0.5,3.6-0.7c0.6-0.1,1.2-0.1,1.8,0.1c0.3,0.1,0.6,0.3,0.7,0.6l0.3,0.9
				c0.4,1.1,0.7,2.3,1.1,3.5l0,0l0,0c-0.6,2.1-1.5,4.1-2.5,6c-0.5,1-1.2,1.9-1.9,2.7c-0.4,0.5-1,0.8-1.5,1c-0.4,0.1-0.7,0.1-1.1,0
				c-0.3-0.1-0.6-0.3-0.8-0.5c-0.9-0.8-1.5-1.8-1.9-2.9c-0.4-1-0.7-2.1-0.9-3.2C740.2,313,740.2,310.8,740.4,308.6L740.4,308.6z"/>
		</g>
		<g class="st0">
			<ellipse class="st49" cx="741.7" cy="290.3" rx="24.6" ry="20.3"/>
			<path class="st50" d="M717.5,290.3c0.1,2.9,0.8,5.7,2.3,8.2c1.4,2.5,3.4,4.6,5.7,6.3c9.7,6.8,22.6,6.8,32.2,0
				c2.3-1.7,4.2-3.8,5.7-6.3c1.4-2.5,2.2-5.3,2.2-8.1c0-2.9-0.7-5.7-2.1-8.2c-1.4-2.5-3.3-4.7-5.6-6.5c-4.7-3.5-10.4-5.3-16.3-5.3
				c-5.9-0.1-11.6,1.8-16.3,5.3c-2.3,1.7-4.2,4-5.7,6.5C718.3,284.6,717.5,287.4,717.5,290.3z M716.6,290.3c0-3,0.9-6,2.4-8.6
				s3.6-4.9,6-6.6c4.9-3.5,10.7-5.4,16.7-5.4s11.9,1.8,16.7,5.3c2.4,1.8,4.5,4,6,6.6c3.1,5.4,3.2,12,0.1,17.5c-1.5,2.7-3.5,5-6,6.8
				c-10.1,7.4-23.8,7.3-33.9,0c-2.4-1.8-4.4-4.1-5.9-6.8C717.3,296.4,716.6,293.4,716.6,290.3z"/>
		</g>
		<g class="st0">
			<path class="st49" d="M723.5,324.3c-3.8-1.4-6.1-4.9-5-7.8v-0.1c-1.2-3.9,1.8-10.9,2.6-9.9s0.9,5.1,1.1,4.2s2.6-8.7,3.8-7.7
				s0.1,7.7,0.1,7.7s2.7-8,4-6.1c1.1,1.5-0.4,7.4-1.4,10c1.1,0.6,2,1.4,2.7,2.4c1.4-2,3.2-5.3,4.1-4c1.1,1.5-1.3,5.8-2.9,7.5
				c0,0.4-0.1,0.8-0.3,1.2C731.3,324.6,727.3,325.7,723.5,324.3z"/>
			<path class="st50" d="M723.5,324.3c-1.6-0.6-3-1.6-4.1-3c-0.5-0.7-0.9-1.5-1.1-2.3c-0.2-0.8-0.1-1.7,0.2-2.5l0,0
				c-0.4-1.3-0.5-2.7-0.3-4.1c0.1-1.4,0.5-2.7,1-4c0.2-0.7,0.6-1.3,1-1.9c0.1-0.2,0.3-0.4,0.5-0.5c0.1,0,0.2-0.1,0.3-0.1
				s0.3,0,0.4,0.1c0.1,0.1,0.2,0.2,0.3,0.3c0.2,0.3,0.4,0.7,0.5,1.1c0.2,0.7,0.3,1.4,0.4,2l0.1,1v0.1l0,0l0,0v-0.1l0,0
				c-0.2-0.2-0.4-0.2-0.6-0.1l-0.1,0.1c-0.1,0-0.1,0.1-0.2,0.2v0.1l0,0v-0.1l0.1-0.5c0.4-1.3,0.8-2.6,1.3-3.9
				c0.3-0.6,0.5-1.3,0.8-1.9c0.2-0.3,0.3-0.6,0.5-1c0.1-0.2,0.2-0.3,0.4-0.5s0.5-0.4,0.8-0.4c0.2,0,0.5,0,0.7,0.2
				c0.1,0.1,0.2,0.2,0.3,0.4c0.1,0.2,0.2,0.4,0.3,0.6c0.1,0.4,0.2,0.7,0.2,1.1c0,0.7,0,1.4-0.1,2.1c-0.2,1.4-0.5,2.7-0.9,4l0,0
				c0.3-1.5,0.8-3,1.4-4.4c0.3-0.8,0.8-1.5,1.3-2.1c0.2-0.2,0.5-0.3,0.8-0.4c0.3,0,0.7,0.1,0.9,0.4c0.3,0.4,0.4,0.8,0.5,1.3
				c0.1,1.6-0.1,3.2-0.6,4.7c-0.4,1.5-0.9,2.9-1.6,4.3l0,0l0,0c1.1,0.6,2,1.4,2.7,2.4l0,0c0.4-1.2,0.9-2.3,1.6-3.4
				c0.2-0.3,0.4-0.6,0.6-0.8c0.3-0.3,0.7-0.6,1.1-0.7c0.3-0.1,0.7,0,1,0.2c0.2,0.2,0.4,0.4,0.5,0.6c0.2,0.4,0.3,0.8,0.3,1.2
				c0,0.7-0.2,1.4-0.5,2c-0.2,0.6-0.5,1.2-0.9,1.7c-0.7,1.1-1.5,2-2.5,2.8l0,0c-0.1,1-0.5,1.9-1.1,2.6c-0.7,0.7-1.5,1.2-2.4,1.5
				C727.3,325.2,725.3,325.1,723.5,324.3z M723.5,324.3c1.8,0.7,3.8,0.8,5.6,0.3c0.9-0.3,1.7-0.8,2.4-1.5c0.6-0.7,1-1.6,1.1-2.6l0,0
				c0.6-1.1,1.1-2.1,1.6-3.3c0.5-1,0.8-2.1,0.9-3.3c0-0.2,0-0.4-0.1-0.5c0-0.1,0-0.1,0-0.1s0.1,0,0.2,0c0,0-0.2,0.1-0.4,0.3
				c-0.2,0.2-0.4,0.4-0.6,0.6c-0.8,0.9-1.6,1.8-2.6,2.6l0,0l0,0l0,0c-0.7-1-1.7-1.8-2.7-2.4l0,0l0,0l0,0c0.4-1.5,0.7-3,1-4.5
				c0.3-1.4,0.4-2.9,0.3-4.4c0-0.3-0.1-0.6-0.3-0.9l-0.1-0.1c-0.1,0-0.2,0.1-0.3,0.1c-0.5,0.5-0.9,1.1-1.2,1.7
				c-0.7,1.3-1.4,2.7-2.1,4.1l-0.1,0.1v-0.1l0,0c-0.1-1.4-0.1-2.7-0.1-4c0-0.7,0-1.3-0.1-1.9c0-0.3-0.1-0.6-0.2-0.9
				c0-0.1-0.1-0.2-0.1-0.3s0,0,0,0c0.1,0,0.1,0.1,0.2,0c0.2,0,0,0,0,0.1c-0.1,0.1-0.2,0.2-0.2,0.3c-0.2,0.3-0.3,0.5-0.5,0.8
				c-0.3,0.6-0.6,1.2-0.8,1.8c-0.5,1.2-1,2.5-1.3,3.8l-0.1,0.5v0.1v0.1c0,0,0,0.1-0.1,0.1c0,0.1-0.1,0.1-0.2,0.2l-0.1,0.1
				c-0.1,0-0.3,0-0.4,0c-0.1,0-0.2-0.1-0.3-0.2l0,0c0,0,0-0.1-0.1-0.1c0-0.1,0-0.1,0-0.1v-0.1v-0.2l-0.1-1c-0.1-0.6-0.1-1.3-0.3-1.9
				c-0.1-0.3-0.1-0.6-0.3-0.8c0,0-0.1-0.1,0,0c0.1,0,0.1,0,0.2,0c-0.1,0.1-0.2,0.1-0.2,0.2c-0.4,0.5-0.7,1-1,1.6
				c-0.5,1.2-0.9,2.5-1.2,3.8s-0.3,2.7-0.1,4l0,0c-0.3,0.8-0.3,1.7-0.2,2.5c0.2,0.8,0.6,1.6,1.1,2.3
				C720.7,322.7,722,323.7,723.5,324.3L723.5,324.3z"/>
		</g>
		<g class="st0">
			<circle cx="740.3" cy="293.6" r="2.9"/>
			
				<ellipse transform="matrix(0.9223 -0.3866 0.3866 0.9223 -55.593 309.5143)" class="st13" cx="741.7" cy="293" rx="0.7" ry="1.4"/>
		</g>
		<g class="st0">
			<path class="st43" d="M767,275.6c0,0,2.5-11.2-5.3-18.6c2.3,4.7,2.3,10.3,0,15C757.9,280,767,275.6,767,275.6z"/>
			<path class="st44" d="M766.9,275.5c0.2-1.6,0.3-3.3,0.2-4.9c-0.1-1.7-0.3-3.3-0.7-4.9s-1-3.2-1.8-4.6c-0.8-1.5-1.8-2.8-3-4
				l0.2-0.1l0,0c1,2,1.5,4.1,1.7,6.4c0.2,2.2-0.1,4.4-0.8,6.5c-0.2,0.5-0.3,1-0.6,1.5l-0.7,1.5c-0.2,0.5-0.4,1-0.5,1.5
				s-0.1,1,0.1,1.5c0.3,0.5,0.7,0.7,1.3,0.8c0.5,0,1.1,0,1.6-0.1C764.9,276.3,766,276,766.9,275.5z M767.1,275.7
				c-1,0.5-2.1,0.9-3.2,1.1c-0.5,0.1-1.1,0.2-1.7,0.1c-0.6,0-1.1-0.3-1.4-0.9c-0.2-0.5-0.2-1.1-0.1-1.7c0.1-0.5,0.3-1.1,0.5-1.6
				l0.7-1.5c0.2-0.5,0.4-1,0.6-1.5c0.7-2.1,0.9-4.3,0.8-6.4c-0.1-2.2-0.7-4.3-1.6-6.3l0,0l-0.4-0.7l0.6,0.6c1.3,1.1,2.3,2.5,3.2,4
				s1.5,3.1,1.9,4.7s0.7,3.3,0.7,5C767.7,272.3,767.5,274,767.1,275.7L767.1,275.7z"/>
		</g>
		<path class="st51" d="M736.8,287.2c0.4-0.9,1.2-1.5,2.2-1.6c0.9-0.1,1.9,0,2.7,0.4c0.4,0.2,0.8,0.4,1.2,0.6s0.7,0.5,1.1,0.7
			c0.7,0.5,1.3,1.1,1.9,1.8l0,0c-0.4-0.2-0.7-0.4-1.1-0.7s-0.7-0.4-1.1-0.6c-0.7-0.4-1.5-0.7-2.2-1c-0.7-0.2-1.5-0.3-2.3-0.3
			C738.3,286.6,737.6,286.8,736.8,287.2L736.8,287.2z"/>
		<path class="st51" d="M727.7,287.5c-0.7-0.3-1.5-0.4-2.3-0.3s-1.5,0.3-2.2,0.7c-0.7,0.4-1.4,0.9-2,1.4c-0.3,0.3-0.7,0.5-1,0.8
			s-0.6,0.6-1,0.8l0,0c0.4-0.7,0.9-1.4,1.5-2.1c0.3-0.3,0.6-0.6,0.9-0.9c0.3-0.3,0.7-0.5,1.1-0.8c0.8-0.5,1.7-0.8,2.6-0.9
			C726.3,286.2,727.2,286.6,727.7,287.5L727.7,287.5z"/>
		<g class="st0">
			<path class="st43" d="M758.9,266.9c0,0-5.2-12.2-17.2-14.4c0,0,9.4,2.9,11.3,14.4C754.9,278.4,758.9,266.9,758.9,266.9z"/>
			<path class="st44" d="M758.8,266.9c-1-1.7-2-3.2-3.2-4.7s-2.5-2.9-3.9-4.2c-1.4-1.3-3-2.4-4.6-3.3l-1.3-0.7l-1.3-0.5l-0.7-0.3
				l-0.7-0.2l-1.4-0.4l0.1-0.2l0,0c2.5,1,4.7,2.5,6.5,4.4c1.8,1.9,3.2,4.3,4,6.8c0.4,1.3,0.7,2.5,0.9,3.9c0.2,1.3,0.6,2.5,1.1,3.7
				c0.2,0.3,0.4,0.5,0.6,0.7c0.3,0.1,0.6,0.1,0.8,0c0.5-0.3,1-0.8,1.3-1.4C757.8,269.3,758.3,268.1,758.8,266.9z M759,266.9
				c-0.4,1.3-1,2.5-1.7,3.6c-0.3,0.6-0.8,1.1-1.4,1.5c-0.3,0.2-0.7,0.2-1,0s-0.5-0.5-0.7-0.8c-0.6-1.2-1-2.5-1.2-3.8
				s-0.5-2.6-0.9-3.8c-0.8-2.5-2.2-4.8-4-6.7c-1.8-1.9-4-3.4-6.4-4.4l0,0v-0.2c1.9,0.3,3.8,0.8,5.6,1.7s3.4,2,4.9,3.3s2.8,2.8,4,4.4
				C757.4,263.3,758.3,265.1,759,266.9L759,266.9z"/>
		</g>
		<path class="st52" d="M767.4,275.6c0,0,6.9,0.3,12.6,10c0,0-6.2-5.5-11.7-5.1S767.4,275.6,767.4,275.6z"/>
		<g class="st0">
			<circle cx="723.7" cy="293.1" r="2.5"/>
			
				<ellipse transform="matrix(0.9223 -0.3866 0.3866 0.9223 -56.7368 302.9912)" class="st13" cx="724.9" cy="292.6" rx="0.6" ry="1.2"/>
		</g>
		<g class="st0">
			<path class="st43" d="M745.3,261.5c-1.7-0.2-26.9-2.6-38.4,18.3c0,0,8.8-9.1,15.7-10.3c0,0-7.7,3.2-13.1,12.9
				c0,0,7-7.2,15.2-10.5c-2.5,1.9-4.4,4.6-5.4,7.5c2-2.2,4.5-3.9,7.3-4.9c-1.3,2.7-1.3,5.9,0,8.6c1.1-3.6,3.6-6.6,7-8.3
				c-1.3,2.4-1.7,5.2-1.2,7.9c1.6-2.1,3.3-4.1,5.3-5.9c0,0-0.9,5.2-0.4,7.9c0,0,2.3-2.9,6-6.9c0.8,1.8,1.4,3.7,1.9,5.6
				c0,0,2.2-2.7,2.3-4.6c0,0,3.1,4.2,1.4,13.2c0,0,3.6-4.6,3.7-9.7c0,0,0,12.9-1.7,17.7c2.3-2.9,4.2-6.1,5.8-9.5
				c0,0,2.3,12.2-0.5,19.5c0,0,5.6-7.7,5.5-17.3c0,0,0.9,11.5-0.4,16.6c0,0,9.6-5.6,10.4-20.5S763.7,264.1,745.3,261.5z"/>
			<path class="st44" d="M745.2,262c-3.7-0.4-7.4-0.3-11.1,0.3c-3.7,0.5-7.3,1.5-10.7,3c-1.7,0.7-3.4,1.6-5,2.6s-3.1,2.1-4.5,3.3
				c-2.8,2.5-5.2,5.4-7,8.7l0,0l-0.2-0.1c1.1-1.1,2.3-2.2,3.5-3.3s2.4-2,3.7-3c1.3-0.9,2.6-1.8,4-2.5c1.4-0.8,2.9-1.3,4.5-1.6
				l0.9-0.1l-0.8,0.4c-1.4,0.7-2.8,1.5-4,2.4s-2.4,1.9-3.5,3s-2.1,2.3-3,3.5s-1.8,2.5-2.5,3.9l-0.2-0.1c2.2-2.2,4.6-4.2,7.2-6
				c2.5-1.8,5.2-3.4,8.1-4.6l0.9-0.4l-0.8,0.6c-1.2,0.9-2.3,2.1-3.2,3.4c-0.4,0.6-0.8,1.3-1.2,2s-0.7,1.4-1,2.1l-0.2-0.1
				c1-1.1,2.1-2.1,3.4-2.9c1.2-0.8,2.6-1.5,4-2l0,0l0.3-0.1l-0.1,0.3c-0.7,1.3-1,2.8-1.1,4.2c0,1.5,0.3,3,1,4.3l0,0
				c0.6-1.8,1.5-3.4,2.7-4.9c0.6-0.7,1.3-1.4,2-2s1.5-1.1,2.3-1.6l0,0l0.4-0.2l-0.2,0.4c-0.7,1.2-1.1,2.5-1.3,3.8
				c-0.1,0.7-0.1,1.3-0.1,2s0.1,1.3,0.2,2h-0.2c1.6-2.1,3.3-4.1,5.3-5.9l0.3-0.2l-0.1,0.3c-0.2,1.3-0.4,2.6-0.5,3.9
				s-0.1,2.6,0.1,3.9h-0.2c1.9-2.4,4-4.6,6-6.9l0.1-0.1l0.1,0.2c0.8,1.8,1.4,3.7,1.9,5.6h-0.2c0.5-0.7,1-1.4,1.4-2.2
				c0.4-0.7,0.7-1.5,0.8-2.4v-0.3l0.2,0.3c0.6,1,1,2,1.3,3.1s0.5,2.2,0.5,3.4c0.1,1.1,0.1,2.3,0,3.4c0,0.6-0.1,1.1-0.2,1.7l-0.3,1.7
				l-0.2-0.1c1-1.4,1.9-2.9,2.5-4.6c0.7-1.6,1.1-3.3,1.1-5.1h0.2c0,3-0.1,5.9-0.3,8.9c-0.1,1.5-0.3,3-0.4,4.4
				c-0.2,1.5-0.5,2.9-0.9,4.4l0.1-0.1c1.1-1.5,2.2-3,3.1-4.6c1-1.6,1.8-3.2,2.6-4.9l0.2-0.3l0.1,0.4c0.3,1.6,0.5,3.2,0.6,4.9
				s0.3,3.3,0.3,4.9c0.1,3.3-0.4,6.6-1.4,9.7l-0.2-0.1c1.7-2.5,3.1-5.3,4-8.2c0.5-1.4,0.9-2.9,1.1-4.4c0.3-1.5,0.4-3,0.4-4.6h0.3
				c0.2,2.8,0.3,5.5,0.3,8.3c0,1.4,0,2.8-0.1,4.2c-0.1,1.4-0.2,2.8-0.5,4.1l0,0l-0.2-0.1c4.2-3.4,7.3-8.2,8.5-13.5
				c0.7-2.6,1-5.3,1-8c0-1.3,0-2.7-0.2-4s-0.5-2.6-0.8-3.9c-0.7-2.6-2-5-3.6-7.1s-3.7-3.9-5.9-5.4c-1.1-0.7-2.3-1.4-3.5-2
				c-1.3-0.5-2.5-1.1-3.8-1.5C750.6,263.1,747.9,262.4,745.2,262z M745.4,260.9c2.8,0.4,5.5,1,8.2,1.8c1.4,0.4,2.7,0.9,4,1.4
				c1.3,0.6,2.5,1.3,3.8,2c2.5,1.5,4.6,3.4,6.4,5.6c1.8,2.3,3.1,4.9,3.9,7.6c0.4,1.4,0.7,2.8,0.9,4.2c0.1,1.4,0.2,2.8,0.2,4.3
				c-0.1,2.8-0.5,5.7-1.3,8.4c-1.6,5.4-5,10.4-9.8,13.3l-0.2,0.1l0.1-0.3l0,0c0.3-1.4,0.5-2.7,0.5-4.1c0.1-1.4,0.1-2.8,0.1-4.1
				c0-2.8-0.1-5.5-0.3-8.3h0.2c0,1.5-0.1,3.1-0.4,4.6c-0.2,1.5-0.6,3-1.1,4.5c-0.9,2.9-2.3,5.7-4,8.3l-0.5,0.7l0.3-0.9
				c1-3.1,1.5-6.4,1.4-9.6c0-1.6-0.1-3.3-0.2-4.9s-0.3-3.3-0.6-4.9h0.2c-0.8,1.7-1.7,3.3-2.6,4.9c-1,1.6-2,3.1-3.2,4.6l-0.4,0.5
				l0.1-0.7c0.4-1.4,0.7-2.9,0.9-4.3c0.2-1.5,0.3-3,0.4-4.4c0.2-3,0.3-5.9,0.3-8.9h0.2c-0.1,1.8-0.5,3.5-1.2,5.2
				c-0.7,1.6-1.5,3.2-2.6,4.6l-0.3,0.4l0.1-0.5l0.3-1.7c0-0.6,0.1-1.1,0.2-1.7c0.1-1.1,0.1-2.2,0-3.4c-0.1-1.1-0.3-2.2-0.5-3.3
				c-0.3-1.1-0.7-2.1-1.3-3.1h0.2c-0.1,0.9-0.4,1.7-0.9,2.5c-0.4,0.8-0.9,1.5-1.5,2.2l-0.1,0.2l-0.1-0.2c-0.5-1.9-1.1-3.8-1.9-5.6
				h0.2c-2.1,2.2-4.1,4.5-6,6.9l-0.2,0.2v-0.2c-0.2-1.3-0.2-2.7-0.1-4c0.1-1.3,0.3-2.6,0.5-4l0.2,0.1c-1.9,1.8-3.7,3.8-5.2,5.9
				l-0.2,0.2v-0.3c-0.1-0.7-0.2-1.4-0.2-2c0-0.7,0-1.4,0.1-2.1c0.2-1.4,0.6-2.7,1.3-3.9l0.1,0.2l0,0c-0.9,0.4-1.7,0.8-2.4,1.4
				s-1.4,1.2-2,1.9c-1.2,1.4-2.1,3.1-2.7,4.9l0,0c-0.7-1.3-1.1-2.8-1.1-4.3s0.3-3,1-4.3l0.1,0.2l0,0c-1.4,0.5-2.7,1.2-3.9,2
				s-2.3,1.8-3.3,2.9L719,280l0.2-0.6c0.3-0.7,0.6-1.5,1-2.1c0.4-0.7,0.8-1.4,1.2-2c0.9-1.3,2-2.5,3.2-3.4l0.1,0.2
				c-2.8,1.2-5.6,2.7-8.1,4.5s-4.9,3.8-7.1,5.9l-0.6,0.6l0.4-0.7c0.8-1.4,1.6-2.7,2.5-3.9c0.9-1.3,1.9-2.4,3-3.5s2.3-2.1,3.5-3.1
				c1.2-0.9,2.6-1.8,4-2.4l0.1,0.2c-1.5,0.3-3,0.9-4.4,1.6s-2.7,1.6-4,2.5s-2.5,1.9-3.7,2.9s-2.4,2.1-3.5,3.2l-0.6,0.6l0.5-0.8l0,0
				c1.8-3.3,4.1-6.3,6.9-8.9c1.4-1.3,2.9-2.5,4.5-3.5s3.3-1.9,5-2.7c3.5-1.6,7.1-2.6,10.9-3.3C737.8,260.8,741.6,260.6,745.4,260.9
				L745.4,260.9z"/>
		</g>
		<g class="st0">
			<path class="st49" d="M768.6,344.1c4.1-0.2,7.5,2.1,7.7,5.2l0,0l0,0c2.6,3.1,2.6,10.7,1.5,10.2s-2.8-4.4-2.6-3.4s1,9-0.5,8.6
				s-3.1-7-3.1-7s0.7,8.4-1.3,7.2c-1.6-1-2.5-7-2.7-9.7c-1.2-0.1-2.4-0.5-3.4-1.1c-0.5,2.4-0.8,6.1-2.2,5.2c-1.6-1-1.1-5.8-0.3-8
				c-0.1-0.4-0.2-0.8-0.3-1.2C761.3,346.9,764.5,344.3,768.6,344.1z"/>
			<path class="st50" d="M768.6,344.1c1.7-0.1,3.4,0.3,4.9,1.1c0.7,0.4,1.4,1,1.9,1.7s0.8,1.5,0.8,2.4l0,0c0.9,1,1.5,2.3,1.9,3.6
				c0.4,1.3,0.6,2.7,0.7,4.1c0,0.7,0,1.4-0.2,2.1c-0.1,0.2-0.2,0.5-0.3,0.6s-0.1,0.1-0.2,0.2c-0.1,0.1-0.3,0.1-0.4,0.1
				c-0.2,0-0.3-0.1-0.4-0.2c-0.3-0.2-0.6-0.5-0.8-0.8c-0.4-0.5-0.8-1.1-1.2-1.7l-0.5-0.9v-0.1l0,0l0,0h0.1l0,0c0.1,0,0.2,0.1,0.3,0
				c0.1,0,0.2-0.1,0.3-0.2l0.1-0.1c0-0.1,0.1-0.1,0.1-0.2l0,0l0,0v0.1l0.1,0.5c0.2,1.4,0.3,2.7,0.4,4.1c0,0.7,0,1.4,0,2.1
				c0,0.4-0.1,0.7-0.1,1.1c0,0.2-0.1,0.4-0.2,0.6c-0.1,0.3-0.3,0.6-0.6,0.7c-0.2,0.1-0.5,0.1-0.7,0.1s-0.3-0.1-0.4-0.2
				c-0.2-0.1-0.4-0.3-0.5-0.5c-0.2-0.3-0.4-0.6-0.6-1c-0.3-0.6-0.6-1.3-0.8-2c-0.4-1.3-0.6-2.7-0.7-4l0,0c0.3,1.5,0.5,3.1,0.5,4.6
				c0,0.8-0.1,1.6-0.4,2.4c-0.1,0.3-0.3,0.5-0.5,0.6c-0.3,0.2-0.7,0.1-1,0c-0.4-0.3-0.7-0.6-0.9-1c-0.7-1.4-1.1-2.9-1.3-4.5
				c-0.2-1.5-0.3-3.1-0.3-4.6l0,0l0,0c-1.2-0.1-2.4-0.5-3.4-1.1l0,0c0.1,1.2,0.1,2.5-0.1,3.8c-0.1,0.3-0.1,0.7-0.2,1
				c-0.1,0.4-0.4,0.8-0.7,1.1c-0.3,0.2-0.6,0.3-1,0.3c-0.3,0-0.5-0.2-0.7-0.4c-0.3-0.3-0.6-0.6-0.7-1c-0.2-0.6-0.4-1.3-0.4-2
				c0-0.6,0-1.3,0.1-1.9c0.2-1.3,0.6-2.5,1.2-3.5l0,0c-0.3-0.9-0.3-1.9,0-2.8s0.9-1.7,1.7-2.3C764.7,344.9,766.6,344.1,768.6,344.1z
				 M768.6,344.1c-1.9,0.1-3.8,0.8-5.3,2c-0.7,0.6-1.3,1.4-1.6,2.3s-0.3,1.9,0,2.8l0,0c-0.1,1.2-0.2,2.4-0.2,3.6
				c0,1.1,0.1,2.2,0.5,3.3c0.1,0.2,0.2,0.3,0.3,0.5c0,0.1,0.1,0,0,0.1s-0.2,0-0.2,0c0.1-0.1,0.2-0.3,0.3-0.4
				c0.1-0.2,0.2-0.5,0.3-0.8c0.4-1.2,0.8-2.3,1.3-3.4l0,0l0,0c1.1,0.6,2.2,1,3.4,1.1l0,0l0,0l0,0c0.2,1.5,0.5,3,0.9,4.5
				c0.3,1.5,0.8,2.9,1.4,4.2c0.1,0.3,0.3,0.5,0.6,0.7c0.1,0.1,0.1,0,0.1,0c0.1-0.1,0.1-0.1,0.2-0.2c0.2-0.7,0.4-1.4,0.4-2.1
				c0.1-1.5,0.2-3,0.3-4.5v-0.1v0.1l0,0c0.6,1.2,1.1,2.5,1.7,3.7c0.3,0.6,0.5,1.2,0.9,1.7c0.1,0.3,0.3,0.5,0.5,0.7
				c0.1,0.1,0.2,0.2,0.2,0.2s0.1,0,0,0s-0.1,0-0.2,0c-0.1,0.1,0,0,0-0.1s0.1-0.2,0.1-0.4c0.1-0.3,0.1-0.6,0.1-0.9c0-0.6,0-1.3,0-2
				c0-1.3-0.1-2.7-0.3-4l-0.1-0.5V356c0,0,0,0,0-0.1v-0.1c0-0.1,0-0.2,0.1-0.2l0.1-0.1c0.1-0.1,0.2-0.2,0.4-0.2c0.1,0,0.2,0,0.3,0
				l0,0l0.1,0.1l0.1,0.1l0.1,0.1l0.1,0.1l0.5,0.9c0.3,0.6,0.6,1.1,1,1.7c0.2,0.2,0.4,0.4,0.6,0.6c0,0,0.1,0.1,0,0s-0.2,0-0.2,0
				c0.1-0.1,0.1-0.2,0.1-0.3c0.2-0.6,0.2-1.2,0.2-1.9c0-1.3-0.1-2.7-0.4-4c-0.2-1.3-0.7-2.6-1.5-3.7l0,0c0-0.9-0.3-1.7-0.8-2.4
				c-0.5-0.7-1.1-1.3-1.9-1.7C771.9,344.2,770.3,344,768.6,344.1L768.6,344.1z"/>
		</g>
		<g class="st0">
			<path class="st47" d="M759.2,314.9c8.6,0.7,20.3,38.5,20.2,40.2s-11.5,4.6-19.7,2.1C759.8,357.3,750.3,314.2,759.2,314.9z"/>
			<path class="st48" d="M759.2,314.5c1.5,0.3,2.8,1,3.8,2.1c1,1,1.9,2.1,2.7,3.3c1.6,2.3,3,4.8,4.2,7.3c2.5,5,4.6,10.2,6.5,15.4
				c0.9,2.6,1.8,5.3,2.6,7.9c0.4,1.4,0.8,2.6,1.1,4.1c0,0.1,0,0.2,0,0.3c0,0.2,0,0.4-0.1,0.6c-0.1,0.3-0.3,0.5-0.5,0.6
				c-0.3,0.2-0.6,0.4-1,0.6c-0.7,0.3-1.4,0.5-2.1,0.7c-2.7,0.7-5.6,1.1-8.4,1c-2.8,0-5.6-0.4-8.3-1.3l0,0l0,0
				c-1.6-7.2-2.9-14.5-3.8-21.9c-0.5-3.7-0.7-7.4-0.8-11.1c0-1.9,0.1-3.7,0.5-5.6c0.2-1,0.5-1.9,1-2.7c0.3-0.4,0.6-0.8,1.1-1.1
				C758.2,314.7,758.7,314.5,759.2,314.5z M759.2,315.3c-0.8-0.1-1.6,0.3-2,1.1c-0.5,0.8-0.8,1.6-0.9,2.5c-0.4,1.8-0.5,3.6-0.5,5.5
				c0,3.7,0.2,7.4,0.6,11.1c0.8,7.4,2,14.7,3.5,21.9l0,0l0,0c2.7,0.6,5.5,0.7,8.2,0.5s5.4-0.7,8-1.5c0.6-0.2,1.2-0.4,1.8-0.7
				c0.3-0.1,0.5-0.3,0.7-0.5c0.1,0,0.1-0.1,0.1-0.1v0.1V355c-0.3-1.3-0.7-2.6-1.1-3.9c-0.8-2.6-1.7-5.3-2.6-7.9
				c-1.8-5.2-3.8-10.4-6.2-15.4c-1.1-2.5-2.5-4.9-3.9-7.2c-0.7-1.1-1.6-2.2-2.5-3.2C761.6,316.3,760.5,315.6,759.2,315.3z"/>
		</g>
		<g class="st0">
			<g>
				
					<ellipse transform="matrix(0.7965 -0.6046 0.6046 0.7965 -83.3054 347.6666)" class="st22" cx="474.9" cy="297.6" rx="2.4" ry="2.1"/>
				<path class="st23" d="M477,296.1c0.4,0.6,0.5,1.2,0.3,1.9c-0.2,0.6-0.6,1.1-1.1,1.5c-0.9,0.8-2.3,0.8-3.2-0.1
					c-0.8-0.9-0.8-2.3,0.1-3.2c0.1-0.1,0.2-0.2,0.3-0.3c0.5-0.4,1.1-0.6,1.7-0.6C475.9,295.3,476.6,295.6,477,296.1z M476.6,296.4
					c-0.7-0.9-2-1-3-0.3c-0.5,0.3-0.8,0.8-1,1.4c-0.1,0.6,0,1.2,0.3,1.7c0.4,0.5,0.9,0.7,1.5,0.7s1.1-0.2,1.6-0.6
					C477,298.6,477.3,297.3,476.6,296.4L476.6,296.4z"/>
			</g>
			<g>
				
					<ellipse transform="matrix(0.7965 -0.6046 0.6046 0.7965 -84.6985 349.3578)" class="st22" cx="476.7" cy="300.5" rx="2.4" ry="2.1"/>
				<path class="st23" d="M478.9,298.9c0.4,0.5,0.5,1.2,0.3,1.9c-0.2,0.6-0.6,1.1-1.1,1.5c-0.9,0.8-2.3,0.8-3.2-0.1
					c-0.8-0.9-0.8-2.3,0.1-3.2c0.1-0.1,0.2-0.2,0.3-0.3c0.5-0.4,1.1-0.6,1.7-0.6C477.8,298.1,478.4,298.4,478.9,298.9z M478.5,299.2
					c-0.7-0.9-2-1-3-0.3c-0.5,0.3-0.8,0.8-1,1.4s0,1.2,0.3,1.7c0.4,0.5,0.9,0.7,1.5,0.7s1.1-0.2,1.6-0.6
					C478.9,301.5,479.1,300.2,478.5,299.2z"/>
			</g>
			<g>
				
					<ellipse transform="matrix(0.7965 -0.6046 0.6046 0.7965 -86.0853 350.4168)" class="st22" cx="477.6" cy="303.1" rx="2.1" ry="1.9"/>
				<path class="st23" d="M479.5,301.7c0.3,0.5,0.4,1.1,0.3,1.7c-0.2,0.5-0.5,1-1,1.3c-0.7,0.8-2,0.9-2.8,0.2s-0.9-2-0.2-2.8
					c0.2-0.2,0.4-0.4,0.6-0.5c0.4-0.4,1-0.6,1.6-0.6C478.6,301,479.1,301.3,479.5,301.7z M479.1,302c-0.6-0.8-1.8-0.9-2.5-0.3
					c-0.4,0.3-0.7,0.7-0.9,1.2c-0.1,0.5,0,1,0.3,1.5c0.3,0.4,0.8,0.6,1.3,0.6s1-0.2,1.4-0.5C479.5,304,479.7,302.8,479.1,302
					L479.1,302z"/>
			</g>
			<g>
				
					<ellipse transform="matrix(0.7965 -0.6046 0.6046 0.7965 -87.4855 351.5024)" class="st22" cx="478.5" cy="305.7" rx="1.8" ry="1.5"/>
				<path class="st23" d="M480.2,304.5c0.3,0.4,0.4,1,0.2,1.4c-0.1,0.5-0.4,0.8-0.8,1.1c-0.7,0.6-1.7,0.6-2.3-0.1
					c-0.6-0.7-0.6-1.7,0.1-2.3c0.1-0.1,0.2-0.1,0.3-0.2C478.3,303.8,479.5,303.8,480.2,304.5z M479.8,304.9
					c-0.5-0.6-1.4-0.8-2.1-0.3c-0.4,0.2-0.6,0.6-0.7,1s0,0.9,0.2,1.2c0.3,0.3,0.7,0.5,1.1,0.5s0.8-0.2,1.1-0.4
					C480.1,306.4,480.2,305.5,479.8,304.9z"/>
			</g>
		</g>
		<circle class="st40" cx="670.5" cy="286" r="2"/>
		<g class="st0">
			<path class="st22" d="M442,303.5c0,0-4.6,2-9.7-3.1"/>
			<path class="st23" d="M442.1,303.6c-0.8,0.4-1.8,0.6-2.7,0.6c-0.9,0-1.9-0.1-2.8-0.4s-1.7-0.7-2.5-1.3c-0.4-0.3-0.7-0.6-1-0.9
				s-0.6-0.7-0.8-1.1c0-0.1,0-0.1,0-0.2h0.1l0,0c0.4,0.2,0.8,0.5,1.1,0.7c0.4,0.2,0.7,0.5,1.1,0.7c0.7,0.5,1.5,0.9,2.3,1.2
				c1.6,0.6,3.3,0.8,5,0.4l0,0c0.1,0,0.2,0,0.2,0.1C442.1,303.5,442.1,303.6,442.1,303.6z"/>
		</g>
		<path class="st53" d="M726.2,333.2c0,0,9.8-13.7,8.8-16.7c0,0-1-10-18-7c0,0-20,32,9,32C726.8,338.8,726.9,335.9,726.2,333.2z"/>
		<circle class="st54" cx="403.5" cy="379" r="1"/>
		<circle class="st54" cx="401" cy="379.5" r="0.5"/>
		<g class="st0">
			
				<image style="overflow:visible;opacity:0.8;enable-background:new    ;" width="29" height="29" xlink:href="97D57943.png"  transform="matrix(1 0 0 1 255.5 3)">
			</image>
			<circle class="st55" cx="269.8" cy="17.6" r="2"/>
		</g>
		<g class="st0">
			
				<image style="overflow:visible;opacity:0.8;enable-background:new    ;" width="30" height="30" xlink:href="97D57945.png"  transform="matrix(1 0 0 1 170.5 139)">
			</image>
			<circle class="st55" cx="185.4" cy="154.3" r="2.4"/>
		</g>
		<g class="st0">
			
				<image style="overflow:visible;opacity:0.8;enable-background:new    ;" width="31" height="31" xlink:href="97D57947.png"  transform="matrix(1 0 0 1 429.5 5)">
			</image>
			<circle class="st55" cx="444.7" cy="20.7" r="2.8"/>
		</g>
		<g class="st0">
			<path class="st56" d="M488.4,126.4V141h-1.7v-14.6c0-1.4-1.1-2.5-2.5-2.6h-18.8V141h-1.7v-18.9h20.5
				C486.5,122.2,488.4,124.1,488.4,126.4z"/>
			<path class="st56" d="M514.7,130.7v-4.3c0-1.4-1.1-2.5-2.5-2.6h-16.4c-1.4,0-2.5,1.2-2.5,2.6l0,0v10.3c0,1.4,1.1,2.5,2.5,2.6
				h20.6v1.8h-20.6c-2.3,0-4.2-1.9-4.2-4.3l0,0v-10.3c0-2.3,1.9-4.3,4.2-4.3h16.4c2.3,0,4.2,1.9,4.2,4.3v6h-20.2v-1.7h18.5V130.7z"
				/>
			<path class="st56" d="M544.4,126.4v10.3c0,2.3-1.9,4.3-4.2,4.3h-16.4c-2.3,0-4.2-1.9-4.2-4.2l0,0v-10.3c0-2.3,1.9-4.3,4.2-4.3
				h16.4C542.6,122.2,544.4,124.1,544.4,126.4z M542.7,126.4c0-1.4-1.1-2.5-2.5-2.6h-16.4c-1.4,0-2.5,1.2-2.5,2.6v10.3
				c0,1.4,1.1,2.5,2.5,2.6h16.4c1.4,0,2.5-1.2,2.5-2.6V126.4z"/>
			<path class="st56" d="M558.1,139.3v1.8h-6.3c-2.3,0-4.2-1.9-4.2-4.3l0,0v-17.1h1.7v2.5h7.1v1.7h-7.1v12.8c0,1.4,1.1,2.5,2.5,2.6
				H558.1z"/>
			<path class="st56" d="M585.3,126.4V141h-20.6c-2.3,0-4.2-1.9-4.2-4.2l0,0v-3.4c0-2.3,1.8-4.3,4.2-4.3l0,0h15.5v1.7h-15.5
				c-1.4,0-2.5,1.2-2.5,2.6v3.4c0,1.4,1.1,2.5,2.5,2.6h18.9v-12.9c0-1.4-1.1-2.5-2.5-2.6h-19.8v-1.7H581
				C583.4,122.2,585.3,124.1,585.3,126.4z"/>
			<path class="st56" d="M588.4,149.5v-1.7H609c1.4,0,2.5-1.2,2.5-2.6v-21.4h-18.9c-1.4,0-2.5,1.2-2.5,2.6v10.3
				c0,1.4,1.1,2.5,2.5,2.6h16v1.8h-16c-2.3,0-4.2-1.9-4.2-4.3l0,0v-10.3c0-2.3,1.9-4.3,4.2-4.3h20.6v23.1c0,2.3-1.9,4.3-4.2,4.3
				h-20.6V149.5z"/>
		</g>
		<g class="st0">
			<path class="st56" d="M304.3,500.4v-24.7h1.6v24.7H304.3z"/>
			<path class="st56" d="M335.4,487.2v13.1h-20.9c-2.1,0-3.9-1.7-3.9-3.8l0,0v-3.1c0-2.1,1.7-3.9,3.8-3.9l0,0h17.8v1.5h-17.8
				c-1.3,0-2.3,1-2.3,2.3l0,0v3.1c0,1.3,1,2.3,2.3,2.3h19.3v-11.6c0-1.3-1-2.3-2.3-2.3h-20.1v-1.6h20.1
				C333.7,483.4,335.4,485.1,335.4,487.2z"/>
			<path class="st56" d="M341.1,500.4v-1.6h20.1c1.3,0,2.3-1,2.3-2.3V495c0-1.3-1-2.3-2.3-2.3h-17c-2.1,0-3.9-1.7-3.9-3.8l0,0v-1.6
				c0-2.1,1.7-3.9,3.9-3.9h20.1v1.6h-20.1c-1.3,0-2.3,1-2.3,2.3v1.6c0,1.3,1,2.3,2.3,2.3h17c2.1,0,3.8,1.7,3.9,3.9v1.6
				c0,2.1-1.7,3.9-3.9,3.9L341.1,500.4z"/>
			<path class="st56" d="M393,491.1v-3.9c0-1.3-1-2.3-2.3-2.3h-17c-1.3,0-2.3,1-2.3,2.3v9.3c0,1.3,1,2.3,2.3,2.3h20.9v1.6h-20.9
				c-2.1,0-3.9-1.7-3.9-3.8l0,0v-9.3c0-2.1,1.7-3.9,3.9-3.9h17c2.1,0,3.8,1.7,3.9,3.9v5.4H373v-1.5L393,491.1z"/>
			<path class="st56" d="M399.5,500.4v-13.1c0-2.1,1.7-3.9,3.9-3.9H415v1.6h-11.6c-1.3,0-2.3,1-2.3,2.3v13.1H399.5z"/>
			<path class="st56" d="M445.2,498.8v1.6h-7.7c-2.1,0-3.9-1.7-3.9-3.8l0,0v-17h1.6v3.9h8.5v1.6h-8.5v11.6c0,1.3,1,2.3,2.3,2.3
				L445.2,498.8z"/>
			<path class="st56" d="M474,487.2v13.1h-20.9c-2.1,0-3.9-1.7-3.9-3.8l0,0v-3.1c0-2.1,1.7-3.9,3.8-3.9l0,0h17.8v1.5H453
				c-1.3,0-2.3,1-2.3,2.3l0,0v3.1c0,1.3,1,2.3,2.3,2.3h19.3v-11.6c0-1.3-1-2.3-2.3-2.3h-20v-1.6h20.1
				C472.2,483.4,474,485.1,474,487.2z"/>
			<path class="st56" d="M478.8,508.1v-1.5h20.9c1.3,0,2.3-1.1,2.3-2.3V485h-19.3c-1.3,0-2.3,1-2.3,2.3v9.3c0,1.3,1,2.3,2.3,2.3
				h17.8v1.6h-17.8c-2.1,0-3.9-1.7-3.9-3.8l0,0v-9.3c0-2.1,1.7-3.9,3.9-3.9h20.9v20.9c0,2.1-1.7,3.9-3.9,3.9h-20.9V508.1z"/>
			<path class="st56" d="M523,500.4v-13.1c0-2.1,1.7-3.9,3.9-3.9h11.6v1.6h-11.6c-1.3,0-2.3,1-2.3,2.3v13.1H523z"/>
			<path class="st56" d="M565.7,491.1v-3.9c0-1.3-1-2.3-2.3-2.3h-17c-1.3,0-2.3,1-2.3,2.3v9.3c0,1.3,1,2.3,2.3,2.3h20.9v1.6h-20.9
				c-2.1,0-3.9-1.7-3.9-3.8l0,0v-9.3c0-2.1,1.7-3.9,3.9-3.9h17c2.1,0,3.8,1.7,3.9,3.9v5.4h-21.6v-1.5L565.7,491.1z"/>
			<path class="st56" d="M573.7,478.7v1.6h-1.6v-1.6H573.7z M572.1,483.4h1.6v17h-1.6V483.4z"/>
			<path class="st56" d="M614.1,487.2v13.1h-1.5v-13.1c0-1.3-1.1-2.3-2.3-2.3l0,0h-10.8c-1.3,0-2.3,1-2.3,2.3l0,0v13.1h-1.5v-13.1
				c0-1.3-1.1-2.3-2.3-2.3l0,0h-13.1v15.5h-1.6v-17h14.7c1.2,0,2.4,0.6,3.1,1.6c0.7-1,1.9-1.6,3.1-1.6h10.8
				C612.4,483.4,614.1,485.1,614.1,487.2z"/>
			<path class="st56" d="M643.7,487.2v13.1h-20.9c-2.1,0-3.9-1.7-3.9-3.8l0,0v-3.1c0-2.1,1.7-3.9,3.8-3.9l0,0h17.8v1.5h-17.8
				c-1.3,0-2.3,1-2.3,2.3l0,0v3.1c0,1.3,1,2.3,2.3,2.3H642v-11.6c0-1.3-1-2.3-2.3-2.3h-20.1v-1.6h20.1
				C641.9,483.4,643.7,485.1,643.7,487.2z"/>
			<path class="st56" d="M648.5,508.1v-1.5h20.9c1.3,0,2.3-1.1,2.3-2.3V485h-19.3c-1.3,0-2.3,1-2.3,2.3v9.3c0,1.3,1,2.3,2.3,2.3
				h17.8v1.6h-17.8c-2.1,0-3.9-1.7-3.9-3.8l0,0v-9.3c0-2.1,1.7-3.9,3.9-3.9h20.9v20.9c0,2.1-1.7,3.9-3.9,3.9h-20.9V508.1z"/>
			<path class="st56" d="M679.7,478.7v1.6h-1.5v-1.6H679.7z M678.2,483.4h1.5v17h-1.5V483.4z"/>
			<path class="st56" d="M709.3,487.2v13.1h-1.6v-13.1c0-1.3-1-2.3-2.3-2.3h-19.3v15.5h-1.6v-17h20.9
				C707.6,483.4,709.3,485.1,709.3,487.2z"/>
			<path class="st56" d="M737.3,491.1v-3.9c0-1.3-1-2.3-2.3-2.3h-17c-1.3,0-2.3,1-2.3,2.3v9.3c0,1.3,1,2.3,2.3,2.3h20.9v1.6H718
				c-2.1,0-3.9-1.7-3.9-3.8l0,0v-9.3c0-2.1,1.7-3.9,3.9-3.9h17c2.1,0,3.8,1.7,3.9,3.9v5.4h-21.6v-1.5L737.3,491.1z"/>
			<path class="st56" d="M747.6,500.4c-2.1,0-3.9-1.7-3.9-3.8l0,0v-9.3c0-2.1,1.7-3.9,3.9-3.9h17.8v1.6h-17.8c-1.3,0-2.3,1-2.3,2.3
				v9.3c0,1.3,1,2.3,2.3,2.3h19.3v-23.2h1.6v24.7H747.6z"/>
		</g>
		<g class="st0">
			<path class="st56" d="M576.7,47.1h-14.9v40.1h-7.3c-1.9-0.1-3.6-1-4.7-2.5L518,47.2c-0.1,0-0.1,0-0.1-0.1H517v51.1
				c19.6,11.8,45,5.5,56.8-14.1c3.9-6.4,5.9-13.8,5.9-21.3C579.8,57.4,578.8,52.1,576.7,47.1z"/>
			<path class="st56" d="M522.7,42.5l31.8,37.6h0.9v-33H541c-0.4,0-0.8-0.3-0.8-0.8c0-0.1,0-0.2,0.1-0.3l2.2-5.5l0,0
				c0.1-0.3,0.4-0.6,0.7-0.6H573c-12.6-19-38.3-24.3-57.3-11.7S491.4,66.6,504,85.6c1.9,2.9,4.1,5.5,6.7,7.8V45.1
				c0-2.8,2.1-5.1,4.6-5.1h2.7C519.9,40.1,521.6,41,522.7,42.5z"/>
		</g>
	</g>
</g>
</svg>
