<?xml version="1.0" encoding="utf-8"?>
<!-- Generator: Adobe Illustrator 23.0.6, SVG Export Plug-In . SVG Version: 6.00 Build 0)  -->
<svg version="1.1" id="Layer_1" xmlns="http://www.w3.org/2000/svg" xmlns:xlink="http://www.w3.org/1999/xlink" x="0px" y="0px"
	 viewBox="0 0 700 263.9" style="enable-background:new 0 0 700 263.9;" xml:space="preserve">
<style type="text/css">
	.st0{fill:none;stroke:#00DE7E;stroke-miterlimit:10;}
	.st1{fill:#40403E;}
	.st2{fill:#264865;}
	.st3{fill:#065A81;}
	.st4{fill:#0F9159;}
	.st5{fill:#00AB61;}
	.st6{fill:#00DE7E;}
	.st7{fill:none;}
	.st8{fill:#00C46F;}
	.st9{fill:#232323;}
	.st10{fill:#121310;}
	.st11{fill:#EACF0F;}
	.st12{fill:#FFFF00;}
	.st13{fill:#FF0000;}
	.st14{fill:#F96E6E;}
	.st15{fill:#F7931E;}
	.st16{fill:#FCC57C;}
	.st17{fill:#C1272D;}
	.st18{fill:#F46640;}
</style>
<title>neotag_units</title>
<g>
	<g>
		<g>
			<g>
				<g>
					<path class="st0" d="M138.5,77.3"/>
					<path class="st1" d="M14.5,8.9L14.5,8.9z"/>
					<g>
						<path class="st2" d="M39.1,97.7l-14.9,5.5c-0.5,0.2-1.1-0.1-1.3-0.6l-1.4-3.7c-0.2-0.5,0.1-1.1,0.6-1.3L37,92.1
							c0.5-0.2,1.1,0.1,1.3,0.6l1.4,3.7C39.9,96.9,39.6,97.5,39.1,97.7z"/>
						<g>
							<path class="st3" d="M24.9,103.7L24.9,103.7c-0.3,0.1-0.5,0-0.6-0.3L22,97.3c-0.1-0.3,0-0.5,0.3-0.6h0c0.3-0.1,0.5,0,0.6,0.3
								l2.2,6.1C25.3,103.3,25.1,103.6,24.9,103.7z"/>
							<path class="st3" d="M26.3,103.1L26.3,103.1c-0.3,0.1-0.5,0-0.6-0.3l-2.2-6.1c-0.1-0.3,0-0.5,0.3-0.6h0
								c0.3-0.1,0.5,0,0.6,0.3l2.2,6.1C26.7,102.8,26.5,103,26.3,103.1z"/>
							<path class="st3" d="M27.7,102.6L27.7,102.6c-0.3,0.1-0.5,0-0.6-0.3l-2.2-6.1c-0.1-0.3,0-0.5,0.3-0.6h0
								c0.3-0.1,0.5,0,0.6,0.3L28,102C28.1,102.2,27.9,102.5,27.7,102.6z"/>
							<path class="st3" d="M29.1,102.1L29.1,102.1c-0.3,0.1-0.5,0-0.6-0.3l-2.2-6.1c-0.1-0.3,0-0.5,0.3-0.6h0
								c0.3-0.1,0.5,0,0.6,0.3l2.2,6.1C29.5,101.7,29.3,102,29.1,102.1z"/>
							<path class="st3" d="M30.5,101.6L30.5,101.6c-0.3,0.1-0.5,0-0.6-0.3l-2.2-6.1c-0.1-0.3,0-0.5,0.3-0.6l0,0
								c0.3-0.1,0.5,0,0.6,0.3l2.2,6.1C30.9,101.2,30.7,101.5,30.5,101.6z"/>
							<path class="st3" d="M31.9,101.1L31.9,101.1c-0.3,0.1-0.5,0-0.6-0.3L29,94.7c-0.1-0.3,0-0.5,0.3-0.6h0c0.3-0.1,0.5,0,0.6,0.3
								l2.2,6.1C32.3,100.7,32.1,101,31.9,101.1z"/>
							<path class="st3" d="M33.3,100.6L33.3,100.6c-0.3,0.1-0.5,0-0.6-0.3l-2.2-6.1c-0.1-0.3,0-0.5,0.3-0.6h0
								c0.3-0.1,0.5,0,0.6,0.3l2.2,6.1C33.7,100.2,33.5,100.5,33.3,100.6z"/>
							<path class="st3" d="M34.7,100.1L34.7,100.1c-0.3,0.1-0.5,0-0.6-0.3l-2.2-6.1c-0.1-0.3,0-0.5,0.3-0.6h0
								c0.3-0.1,0.5,0,0.6,0.3l2.2,6.1C35.1,99.7,34.9,100,34.7,100.1z"/>
							<path class="st3" d="M36.1,99.5L36.1,99.5c-0.3,0.1-0.5,0-0.6-0.3l-2.2-6.1c-0.1-0.3,0-0.5,0.3-0.6h0c0.3-0.1,0.5,0,0.6,0.3
								l2.2,6.1C36.5,99.2,36.3,99.5,36.1,99.5z"/>
							<path class="st3" d="M37.5,99L37.5,99c-0.3,0.1-0.5,0-0.6-0.3l-2.2-6.1c-0.1-0.3,0-0.5,0.3-0.6l0,0c0.3-0.1,0.5,0,0.6,0.3
								l2.2,6.1C37.9,98.7,37.7,98.9,37.5,99z"/>
							<path class="st3" d="M38.9,98.5L38.9,98.5c-0.3,0.1-0.5,0-0.6-0.3L36,92.2c-0.1-0.3,0-0.5,0.3-0.6l0,0c0.3-0.1,0.5,0,0.6,0.3
								l2.2,6.1C39.3,98.1,39.1,98.4,38.9,98.5z"/>
						</g>
					</g>
					<path class="st4" d="M39.3,94.2l2.8-1l-2.7-7.3c-0.1-0.3,0-0.5,0.3-0.6l-3.3,1.2c-0.3,0.1-0.4,0.4-0.3,0.6l2.8,7.7
						C38.9,94.6,39,94.3,39.3,94.2z"/>
					<path class="st4" d="M63.4,76.5l-3.3,1.2c0.3-0.1,0.5,0,0.6,0.3l2.7,7.3l2.8-1c0.3-0.1,0.5,0,0.6,0.3l-2.8-7.7
						C64,76.5,63.7,76.4,63.4,76.5z"/>
					<path class="st5" d="M66.3,84.2l-2.8,1l-4.3-11.7c-0.1-0.3-0.4-0.4-0.6-0.3l-20.5,7.5c-0.3,0.1-0.4,0.4-0.3,0.6l4.3,11.7
						l-2.8,1c-0.3,0.1-0.4,0.4-0.3,0.6l1,2.8l1.4,3.9c0.1,0.3,0.4,0.4,0.6,0.3l11.7-4.3l3.7-1.4l11.7-4.3c0.3-0.1,0.4-0.4,0.3-0.6
						L68,87.3l-1-2.8C66.8,84.3,66.5,84.2,66.3,84.2z"/>
					<g>
						<path class="st6" d="M69,16.1l-2.7-8.7c-0.1-0.3-0.4-0.5-0.8-0.4L43.4,14c-0.2,0.1-0.3,0.2-0.4,0.3l0,0l0,0c0,0,0,0,0,0
							l-5.2,12C46.4,23,56.7,19.5,69,16.1z"/>
						<g>
							<path class="st7" d="M49.8,57.1l0.5-2.1l-9.6,3.5c-0.2,0.7-0.4,1.4-0.6,2.2L49.8,57.1z"/>
							<path class="st7" d="M48.5,60.8l0.5-2.1l-9.3,3.4c-0.2,0.7-0.4,1.4-0.6,2.2L48.5,60.8z"/>
							<path class="st7" d="M52.2,47.8l0.5-2.1l-9.6,3.5c-0.2,0.7-0.4,1.4-0.5,2.2L52.2,47.8z"/>
							<path class="st7" d="M47.9,64.3l0.5-2.1l-9.5,3.5c-0.2,0.7-0.4,1.4-0.6,2.2L47.9,64.3z"/>
							<path class="st7" d="M52.9,44.3l0.5-2.1L44,45.6c-0.2,0.7-0.3,1.4-0.5,2.1L52.9,44.3z"/>
							<path class="st7" d="M54.1,40.6l0.5-2.1l-10.2,3.8c0.2,0.6,0.2,1.2,0,2L54.1,40.6z"/>
							<path class="st6" d="M56.9,64.2c0,0,11.8-31.7,8-34.8c-2.1-1.8-18.3-1.6-32.2-1.1c-9.4,3.8-16.2,7.2-20.6,9.6
								c13.5-1.2,30.6-1.6,32.2,4.2l10.2-3.8l-0.5,2.1l-9.7,3.6c-0.1,0.4-0.2,0.9-0.3,1.4l9.3-3.4l-0.5,2.1l-9.4,3.4
								c-0.1,0.5-0.2,0.9-0.4,1.4l9.6-3.5l-0.5,2.1l-9.6,3.5c-0.6,2.2-1.2,4.6-1.9,7.2l9.6-3.5l-0.5,2.1l-9.6,3.5
								c-0.1,0.5-0.3,1-0.4,1.4l9.3-3.4l-0.5,2.1l-9.3,3.4c-0.1,0.5-0.3,1-0.4,1.4l9.5-3.5l-0.5,2.1l-9.6,3.5
								c-1.3,5-2.7,10.1-3.9,14.8l36.5-13.4c0.5-2-0.2-3.5-1.3-4.5C55.7,68.7,56.9,64.2,56.9,64.2z"/>
							<path class="st8" d="M35.3,69l0.5-2.1l3.1-1.1c0.1-0.5,0.3-1,0.4-1.4l-3.3,1.2l0.5-2.1l3.4-1.2c0.1-0.5,0.3-1,0.4-1.4l-3,1.1
								l0.5-2.1l3.1-1.1c0.7-2.6,1.3-5,1.9-7.2l-3,1.1l0.5-2.1l3-1.1c0.1-0.5,0.2-1,0.4-1.4l-3.3,1.2l0.5-2.1l3.3-1.2
								c0.1-0.5,0.2-1,0.3-1.4l-2.9,1.1l0.5-2.1l2.4-0.9c-1.6-5.8-18.7-5.5-32.2-4.2C8,40.2,6,41.6,6,41.6c-9.9,17.3-5,37.6-5,37.6
								C13.2,85.9,27.8,85,27.8,85l6.5-2.4c1.3-4.7,2.6-9.8,3.9-14.8L35.3,69z M27.1,74.2c0,0-2.2,2.7-6.9,2.5
								c-3.3-0.1-4.2-4.3-4.2-6.2c-0.1-1.7,3-14.8,3-14.8s1.6-11.6,9.7-12.7c8.1-1,6.1,4.3,6.1,4.3L31.3,59L27.1,74.2z"/>
						</g>
						<path class="st9" d="M116.5,15.1c-0.5-1.6-0.9-2.7-0.9-2.7s-3.4-11.1-8-9.4c-4.6,1.7-5.8,5.4-5.8,5.4
							c-12.2,2.4-23.1,5-32.8,7.7C56.7,19.5,46.4,23,37.8,26.3c-1.8,0.7-3.4,1.3-5,2c13.9-0.5,30.1-0.6,32.2,1.1
							c0.9,0.7,0.9,3.1,0.4,6.2C83.9,23,108.1,16.9,116.5,15.1z"/>
						<path class="st10" d="M69.5,64.7C67.7,63,65,62.3,65,62.3s-1.2-13.9,7.2-17.6c8.4-3.7,10.8-7.9,10.8-7.9l25.6-10
							c0,0,2.8,2.2,7.4,0.6c3.3-1.2,1.7-8.2,0.6-12.2c-8.5,1.8-32.6,7.9-51.1,20.5c-1.6,10.1-8.5,28.6-8.5,28.6S55.7,68.7,69.5,64.7
							z"/>
					</g>
					<circle class="st11" cx="73.4" cy="22.6" r="3.3"/>
					<circle class="st12" cx="72.6" cy="22.2" r="2.3"/>
				</g>
				<g>
					<path class="st0" d="M304.4,75"/>
					<path class="st1" d="M180.4,6.6L180.4,6.6z"/>
					<g>
						<path class="st2" d="M205,95.4l-14.9,5.5c-0.5,0.2-1.1-0.1-1.3-0.6l-1.4-3.7c-0.2-0.5,0.1-1.1,0.6-1.3l14.9-5.5
							c0.5-0.2,1.1,0.1,1.3,0.6l1.4,3.7C205.7,94.6,205.5,95.2,205,95.4z"/>
						<g>
							<path class="st3" d="M190.8,101.4L190.8,101.4c-0.3,0.1-0.5,0-0.6-0.3l-2.2-6.1c-0.1-0.3,0-0.5,0.3-0.6v0
								c0.3-0.1,0.5,0,0.6,0.3l2.2,6.1C191.2,101,191,101.3,190.8,101.4z"/>
							<path class="st3" d="M192.2,100.8L192.2,100.8c-0.3,0.1-0.5,0-0.6-0.3l-2.2-6.1c-0.1-0.3,0-0.5,0.3-0.6l0,0
								c0.3-0.1,0.5,0,0.6,0.3l2.2,6.1C192.6,100.5,192.4,100.8,192.2,100.8z"/>
							<path class="st3" d="M193.6,100.3L193.6,100.3c-0.3,0.1-0.5,0-0.6-0.3l-2.2-6.1c-0.1-0.3,0-0.5,0.3-0.6l0,0
								c0.3-0.1,0.5,0,0.6,0.3l2.2,6.1C194,100,193.8,100.2,193.6,100.3z"/>
							<path class="st3" d="M195,99.8L195,99.8c-0.3,0.1-0.5,0-0.6-0.3l-2.2-6.1c-0.1-0.3,0-0.5,0.3-0.6l0,0c0.3-0.1,0.5,0,0.6,0.3
								l2.2,6.1C195.3,99.4,195.2,99.7,195,99.8z"/>
							<path class="st3" d="M196.4,99.3L196.4,99.3c-0.3,0.1-0.5,0-0.6-0.3l-2.2-6.1c-0.1-0.3,0-0.5,0.3-0.6l0,0
								c0.3-0.1,0.5,0,0.6,0.3l2.2,6.1C196.7,98.9,196.6,99.2,196.4,99.3z"/>
							<path class="st3" d="M197.8,98.8L197.8,98.8c-0.3,0.1-0.5,0-0.6-0.3l-2.2-6.1c-0.1-0.3,0-0.5,0.3-0.6l0,0
								c0.3-0.1,0.5,0,0.6,0.3l2.2,6.1C198.1,98.4,198,98.7,197.8,98.8z"/>
							<path class="st3" d="M199.2,98.3L199.2,98.3c-0.3,0.1-0.5,0-0.6-0.3l-2.2-6.1c-0.1-0.3,0-0.5,0.3-0.6l0,0
								c0.3-0.1,0.5,0,0.6,0.3l2.2,6.1C199.5,97.9,199.4,98.2,199.2,98.3z"/>
							<path class="st3" d="M200.6,97.8L200.6,97.8c-0.3,0.1-0.5,0-0.6-0.3l-2.2-6.1c-0.1-0.3,0-0.5,0.3-0.6l0,0
								c0.3-0.1,0.5,0,0.6,0.3l2.2,6.1C200.9,97.4,200.8,97.7,200.6,97.8z"/>
							<path class="st3" d="M202,97.3L202,97.3c-0.3,0.1-0.5,0-0.6-0.3l-2.2-6.1c-0.1-0.3,0-0.5,0.3-0.6l0,0c0.3-0.1,0.5,0,0.6,0.3
								l2.2,6.1C202.3,96.9,202.2,97.2,202,97.3z"/>
							<path class="st3" d="M203.3,96.7L203.3,96.7c-0.3,0.1-0.5,0-0.6-0.3l-2.2-6.1c-0.1-0.3,0-0.5,0.3-0.6l0,0
								c0.3-0.1,0.5,0,0.6,0.3l2.2,6.1C203.7,96.4,203.6,96.6,203.3,96.7z"/>
							<path class="st3" d="M204.7,96.2L204.7,96.2c-0.3,0.1-0.5,0-0.6-0.3l-2.2-6.1c-0.1-0.3,0-0.5,0.3-0.6l0,0
								c0.3-0.1,0.5,0,0.6,0.3l2.2,6.1C205.1,95.8,205,96.1,204.7,96.2z"/>
						</g>
					</g>
					<path class="st4" d="M205.1,91.9l2.8-1l-2.7-7.3c-0.1-0.3,0-0.5,0.3-0.6l-3.3,1.2c-0.3,0.1-0.4,0.4-0.3,0.6l2.8,7.7
						C204.7,92.3,204.9,92,205.1,91.9z"/>
					<path class="st4" d="M229.3,74.2l-3.3,1.2c0.3-0.1,0.5,0,0.6,0.3l2.7,7.3l2.8-1c0.3-0.1,0.5,0,0.6,0.3l-2.8-7.7
						C229.9,74.2,229.6,74.1,229.3,74.2z"/>
					<path class="st5" d="M232.2,82l-2.8,1l-4.3-11.7c-0.1-0.3-0.4-0.4-0.6-0.3l-20.5,7.5c-0.3,0.1-0.4,0.4-0.3,0.6l4.3,11.7l-2.8,1
						c-0.3,0.1-0.4,0.4-0.3,0.6l1,2.8l1.4,3.9c0.1,0.3,0.4,0.4,0.6,0.3l11.7-4.3l3.7-1.4l11.7-4.3c0.3-0.1,0.4-0.4,0.3-0.6l-1.4-3.9
						l-1-2.8C232.7,82,232.4,81.9,232.2,82z"/>
					<g>
						<path class="st6" d="M234.9,13.8l-2.7-8.7c-0.1-0.3-0.4-0.5-0.8-0.4l-22.1,6.9c-0.2,0.1-0.3,0.2-0.4,0.3l0,0l0,0c0,0,0,0,0,0
							l-5.2,12C212.2,20.7,222.6,17.2,234.9,13.8z"/>
						<g>
							<path class="st7" d="M215.6,54.8l0.5-2.1l-9.6,3.5c-0.2,0.7-0.4,1.4-0.6,2.2L215.6,54.8z"/>
							<path class="st7" d="M214.4,58.5l0.5-2.1l-9.3,3.4c-0.2,0.7-0.4,1.4-0.6,2.2L214.4,58.5z"/>
							<path class="st7" d="M218.1,45.5l0.5-2.1l-9.6,3.5c-0.2,0.7-0.4,1.4-0.5,2.2L218.1,45.5z"/>
							<path class="st7" d="M213.7,62l0.5-2.1l-9.5,3.5c-0.2,0.7-0.4,1.4-0.6,2.2L213.7,62z"/>
							<path class="st7" d="M218.7,42l0.5-2.1l-9.3,3.4c-0.2,0.7-0.3,1.4-0.5,2.1L218.7,42z"/>
							<path class="st7" d="M220,38.3l0.5-2.1l-10.2,3.8c0.2,0.6,0.2,1.2,0,2L220,38.3z"/>
							<path class="st6" d="M222.8,62c0,0,11.8-31.7,8-34.8c-2.1-1.8-18.3-1.6-32.2-1.1c-9.4,3.8-16.2,7.2-20.6,9.6
								c13.5-1.2,30.6-1.6,32.2,4.2l10.2-3.8l-0.5,2.1l-9.7,3.6c-0.1,0.4-0.2,0.9-0.3,1.4l9.3-3.4l-0.5,2.1l-9.4,3.4
								c-0.1,0.5-0.2,0.9-0.4,1.4l9.6-3.5l-0.5,2.1l-9.6,3.5c-0.6,2.2-1.2,4.6-1.9,7.2l9.6-3.5l-0.5,2.1l-9.6,3.5
								c-0.1,0.5-0.3,1-0.4,1.4l9.3-3.4l-0.5,2.1l-9.3,3.4c-0.1,0.5-0.3,1-0.4,1.4l9.5-3.5l-0.5,2.1l-9.6,3.5
								c-1.3,5-2.7,10.1-3.9,14.8l36.5-13.4c0.5-2-0.2-3.5-1.3-4.5C221.6,66.4,222.8,62,222.8,62z"/>
							<path class="st8" d="M201.1,66.7l0.5-2.1l3.1-1.1c0.1-0.5,0.3-1,0.4-1.4l-3.3,1.2l0.5-2.1l3.4-1.2c0.1-0.5,0.3-1,0.4-1.4
								l-3,1.1l0.5-2.1l3.1-1.1c0.7-2.6,1.3-5,1.9-7.2l-3,1.1L206,48l3-1.1c0.1-0.5,0.2-1,0.4-1.4l-3.3,1.2l0.5-2.1l3.3-1.2
								c0.1-0.5,0.2-1,0.3-1.4l-2.9,1.1l0.5-2.1l2.4-0.9c-1.6-5.8-18.7-5.5-32.2-4.2c-4.2,2.3-6.2,3.7-6.2,3.7
								c-9.9,17.3-5,37.6-5,37.6c12.2,6.6,26.8,5.8,26.8,5.8l6.5-2.4c1.3-4.7,2.6-9.8,3.9-14.8L201.1,66.7z M193,71.9
								c0,0-2.2,2.7-6.9,2.5c-3.3-0.1-4.2-4.3-4.2-6.2c-0.1-1.7,3-14.8,3-14.8s1.6-11.6,9.7-12.7c8.1-1,6.1,4.3,6.1,4.3l-3.5,11.7
								L193,71.9z"/>
						</g>
						<path class="st9" d="M282.4,12.8c-0.5-1.6-0.9-2.7-0.9-2.7s-3.4-11.1-8-9.4c-4.6,1.7-5.8,5.4-5.8,5.4
							c-12.2,2.4-23.1,5-32.8,7.7c-12.3,3.4-22.6,6.9-31.2,10.2c-1.8,0.7-3.4,1.3-5,2c13.9-0.5,30.1-0.6,32.2,1.1
							c0.9,0.7,0.9,3.1,0.4,6.2C249.8,20.7,273.9,14.6,282.4,12.8z"/>
						<path class="st10" d="M235.3,62.4c-1.8-1.7-4.5-2.4-4.5-2.4s-1.2-13.9,7.2-17.6c8.4-3.7,10.8-7.9,10.8-7.9l25.6-10
							c0,0,2.8,2.2,7.4,0.6c3.3-1.2,1.7-8.2,0.6-12.2c-8.5,1.8-32.6,7.9-51.1,20.5c-1.6,10.1-8.5,28.6-8.5,28.6
							S221.6,66.4,235.3,62.4z"/>
					</g>
					<circle class="st11" cx="239.3" cy="20.3" r="3.3"/>
					<circle class="st12" cx="238.4" cy="19.9" r="2.3"/>
				</g>
			</g>
			<g>
				<path class="st0" d="M211.5,197.3"/>
				<path class="st1" d="M87.5,128.9L87.5,128.9z"/>
				<g>
					<path class="st2" d="M112,217.7l-14.9,5.5c-0.5,0.2-1.1-0.1-1.3-0.6l-1.4-3.7c-0.2-0.5,0.1-1.1,0.6-1.3l14.9-5.5
						c0.5-0.2,1.1,0.1,1.3,0.6l1.4,3.7C112.8,216.9,112.5,217.5,112,217.7z"/>
					<g>
						<path class="st3" d="M97.8,223.7L97.8,223.7c-0.3,0.1-0.5,0-0.6-0.3l-2.2-6.1c-0.1-0.3,0-0.5,0.3-0.6l0,0
							c0.3-0.1,0.5,0,0.6,0.3l2.2,6.1C98.2,223.3,98.1,223.6,97.8,223.7z"/>
						<path class="st3" d="M99.2,223.1L99.2,223.1c-0.3,0.1-0.5,0-0.6-0.3l-2.2-6.1c-0.1-0.3,0-0.5,0.3-0.6l0,0
							c0.3-0.1,0.5,0,0.6,0.3l2.2,6.1C99.6,222.8,99.5,223.1,99.2,223.1z"/>
						<path class="st3" d="M100.6,222.6L100.6,222.6c-0.3,0.1-0.5,0-0.6-0.3l-2.2-6.1c-0.1-0.3,0-0.5,0.3-0.6l0,0
							c0.3-0.1,0.5,0,0.6,0.3l2.2,6.1C101,222.3,100.9,222.5,100.6,222.6z"/>
						<path class="st3" d="M102,222.1L102,222.1c-0.3,0.1-0.5,0-0.6-0.3l-2.2-6.1c-0.1-0.3,0-0.5,0.3-0.6l0,0c0.3-0.1,0.5,0,0.6,0.3
							l2.2,6.1C102.4,221.7,102.3,222,102,222.1z"/>
						<path class="st3" d="M103.4,221.6L103.4,221.6c-0.3,0.1-0.5,0-0.6-0.3l-2.2-6.1c-0.1-0.3,0-0.5,0.3-0.6l0,0
							c0.3-0.1,0.5,0,0.6,0.3l2.2,6.1C103.8,221.2,103.7,221.5,103.4,221.6z"/>
						<path class="st3" d="M104.8,221.1L104.8,221.1c-0.3,0.1-0.5,0-0.6-0.3l-2.2-6.1c-0.1-0.3,0-0.5,0.3-0.6l0,0
							c0.3-0.1,0.5,0,0.6,0.3l2.2,6.1C105.2,220.7,105.1,221,104.8,221.1z"/>
						<path class="st3" d="M106.2,220.6L106.2,220.6c-0.3,0.1-0.5,0-0.6-0.3l-2.2-6.1c-0.1-0.3,0-0.5,0.3-0.6h0
							c0.3-0.1,0.5,0,0.6,0.3l2.2,6.1C106.6,220.2,106.5,220.5,106.2,220.6z"/>
						<path class="st3" d="M107.6,220.1L107.6,220.1c-0.3,0.1-0.5,0-0.6-0.3l-2.2-6.1c-0.1-0.3,0-0.5,0.3-0.6l0,0
							c0.3-0.1,0.5,0,0.6,0.3l2.2,6.1C108,219.7,107.9,220,107.6,220.1z"/>
						<path class="st3" d="M109,219.6L109,219.6c-0.3,0.1-0.5,0-0.6-0.3l-2.2-6.1c-0.1-0.3,0-0.5,0.3-0.6l0,0c0.3-0.1,0.5,0,0.6,0.3
							l2.2,6.1C109.4,219.2,109.3,219.5,109,219.6z"/>
						<path class="st3" d="M110.4,219L110.4,219c-0.3,0.1-0.5,0-0.6-0.3l-2.2-6.1c-0.1-0.3,0-0.5,0.3-0.6v0c0.3-0.1,0.5,0,0.6,0.3
							l2.2,6.1C110.8,218.7,110.7,218.9,110.4,219z"/>
						<path class="st3" d="M111.8,218.5L111.8,218.5c-0.3,0.1-0.5,0-0.6-0.3l-2.2-6.1c-0.1-0.3,0-0.5,0.3-0.6l0,0
							c0.3-0.1,0.5,0,0.6,0.3l2.2,6.1C112.2,218.1,112.1,218.4,111.8,218.5z"/>
					</g>
				</g>
				<path class="st4" d="M112.2,214.2l2.8-1l-2.7-7.3c-0.1-0.3,0-0.5,0.3-0.6l-3.3,1.2c-0.3,0.1-0.4,0.4-0.3,0.6l2.8,7.7
					C111.8,214.6,111.9,214.3,112.2,214.2z"/>
				<path class="st4" d="M136.4,196.5l-3.3,1.2c0.3-0.1,0.5,0,0.6,0.3l2.7,7.3l2.8-1c0.3-0.1,0.5,0,0.6,0.3l-2.8-7.7
					C136.9,196.5,136.6,196.4,136.4,196.5z"/>
				<path class="st5" d="M139.2,204.3l-2.8,1l-4.3-11.7c-0.1-0.3-0.4-0.4-0.6-0.3l-20.5,7.5c-0.3,0.1-0.4,0.4-0.3,0.6l4.3,11.7
					l-2.8,1c-0.3,0.1-0.4,0.4-0.3,0.6l1,2.8l1.4,3.9c0.1,0.3,0.4,0.4,0.6,0.3l11.7-4.3l3.7-1.4l11.7-4.3c0.3-0.1,0.4-0.4,0.3-0.6
					l-1.4-3.9l-1-2.8C139.8,204.3,139.5,204.2,139.2,204.3z"/>
				<g>
					<path class="st6" d="M141.9,136.1l-2.7-8.7c-0.1-0.3-0.4-0.5-0.8-0.4l-22.1,6.9c-0.2,0.1-0.3,0.2-0.4,0.3l0,0l0,0c0,0,0,0,0,0
						l-5.2,12C119.3,143,129.6,139.5,141.9,136.1z"/>
					<g>
						<path class="st7" d="M122.7,177.1l0.5-2.1l-9.6,3.5c-0.2,0.7-0.4,1.4-0.6,2.2L122.7,177.1z"/>
						<path class="st7" d="M121.5,180.8l0.5-2.1l-9.3,3.4c-0.2,0.7-0.4,1.4-0.6,2.2L121.5,180.8z"/>
						<path class="st7" d="M125.1,167.8l0.5-2.1l-9.6,3.5c-0.2,0.7-0.4,1.4-0.5,2.2L125.1,167.8z"/>
						<path class="st7" d="M120.8,184.3l0.5-2.1l-9.5,3.5c-0.2,0.7-0.4,1.4-0.6,2.2L120.8,184.3z"/>
						<path class="st7" d="M125.8,164.3l0.5-2.1l-9.3,3.4c-0.2,0.7-0.3,1.4-0.5,2.1L125.8,164.3z"/>
						<path class="st7" d="M127,160.6l0.5-2.1l-10.2,3.8c0.2,0.6,0.2,1.2,0,2L127,160.6z"/>
						<path class="st6" d="M129.9,184.3c0,0,11.8-31.7,8-34.8c-2.1-1.8-18.3-1.6-32.2-1.1c-9.4,3.8-16.2,7.2-20.6,9.6
							c13.5-1.2,30.6-1.6,32.2,4.2l10.2-3.8l-0.5,2.1l-9.7,3.6c-0.1,0.4-0.2,0.9-0.3,1.4l9.3-3.4l-0.5,2.1l-9.4,3.4
							c-0.1,0.5-0.2,0.9-0.4,1.4l9.6-3.5l-0.5,2.1l-9.6,3.5c-0.6,2.2-1.2,4.6-1.9,7.2l9.6-3.5l-0.5,2.1l-9.6,3.5
							c-0.1,0.5-0.3,1-0.4,1.4l9.3-3.4l-0.5,2.1l-9.3,3.4c-0.1,0.5-0.3,1-0.4,1.4l9.5-3.5l-0.5,2.1l-9.6,3.5
							c-1.3,5-2.7,10.1-3.9,14.8l36.5-13.4c0.5-2-0.2-3.5-1.3-4.5C128.7,188.7,129.9,184.3,129.9,184.3z"/>
						<path class="st8" d="M108.2,189l0.5-2.1l3.1-1.1c0.1-0.5,0.3-1,0.4-1.4l-3.3,1.2l0.5-2.1l3.4-1.2c0.1-0.5,0.3-1,0.4-1.4
							l-3,1.1l0.5-2.1l3.1-1.1c0.7-2.6,1.3-5,1.9-7.2l-3,1.1l0.5-2.1l3-1.1c0.1-0.5,0.2-1,0.4-1.4l-3.3,1.2l0.5-2.1l3.3-1.2
							c0.1-0.5,0.2-1,0.3-1.4l-2.9,1.1l0.5-2.1l2.4-0.9c-1.6-5.8-18.7-5.5-32.2-4.2c-4.2,2.3-6.2,3.7-6.2,3.7
							c-9.9,17.3-5,37.6-5,37.6c12.2,6.6,26.8,5.8,26.8,5.8l6.5-2.4c1.3-4.7,2.6-9.8,3.9-14.8L108.2,189z M100,194.2
							c0,0-2.2,2.7-6.9,2.5c-3.3-0.1-4.2-4.3-4.2-6.2c-0.1-1.7,3-14.8,3-14.8s1.6-11.6,9.7-12.7c8.1-1,6.1,4.3,6.1,4.3l-3.5,11.7
							L100,194.2z"/>
					</g>
					<path class="st9" d="M189.5,135.1c-0.5-1.6-0.9-2.7-0.9-2.7s-3.4-11.1-8-9.4c-4.6,1.7-5.8,5.4-5.8,5.4
						c-12.2,2.4-23.1,5-32.8,7.7c-12.3,3.4-22.6,6.9-31.2,10.2c-1.8,0.7-3.4,1.3-5,2c13.9-0.5,30.1-0.6,32.2,1.1
						c0.9,0.7,0.9,3.1,0.4,6.2C156.9,143,181,137,189.5,135.1z"/>
					<path class="st10" d="M142.4,184.7c-1.8-1.7-4.5-2.4-4.5-2.4s-1.2-13.9,7.2-17.6c8.4-3.7,10.8-7.9,10.8-7.9l25.6-10
						c0,0,2.8,2.2,7.4,0.6c3.3-1.2,1.7-8.2,0.6-12.2c-8.5,1.8-32.6,7.9-51.1,20.5c-1.6,10.1-8.5,28.6-8.5,28.6
						S128.7,188.7,142.4,184.7z"/>
				</g>
				<circle class="st11" cx="146.3" cy="142.6" r="3.3"/>
				<circle class="st12" cx="145.5" cy="142.2" r="2.3"/>
			</g>
		</g>
		<g>
			<g>
				<g>
					<path class="st0" d="M561,77.3"/>
					<path class="st1" d="M685,8.9L685,8.9z"/>
					<g>
						<path class="st2" d="M660.5,97.7l14.9,5.5c0.5,0.2,1.1-0.1,1.3-0.6l1.4-3.7c0.2-0.5-0.1-1.1-0.6-1.3l-14.9-5.5
							c-0.5-0.2-1.1,0.1-1.3,0.6l-1.4,3.7C659.7,96.9,660,97.5,660.5,97.7z"/>
						<g>
							<path class="st3" d="M674.7,103.7L674.7,103.7c0.3,0.1,0.5,0,0.6-0.3l2.2-6.1c0.1-0.3,0-0.5-0.3-0.6l0,0
								c-0.3-0.1-0.5,0-0.6,0.3l-2.2,6.1C674.3,103.3,674.4,103.6,674.7,103.7z"/>
							<path class="st3" d="M673.3,103.1L673.3,103.1c0.3,0.1,0.5,0,0.6-0.3l2.2-6.1c0.1-0.3,0-0.5-0.3-0.6l0,0
								c-0.3-0.1-0.5,0-0.6,0.3l-2.2,6.1C672.9,102.8,673,103,673.3,103.1z"/>
							<path class="st3" d="M671.9,102.6L671.9,102.6c0.3,0.1,0.5,0,0.6-0.3l2.2-6.1c0.1-0.3,0-0.5-0.3-0.6l0,0
								c-0.3-0.1-0.5,0-0.6,0.3l-2.2,6.1C671.5,102.2,671.6,102.5,671.9,102.6z"/>
							<path class="st3" d="M670.5,102.1L670.5,102.1c0.3,0.1,0.5,0,0.6-0.3l2.2-6.1c0.1-0.3,0-0.5-0.3-0.6l0,0
								c-0.3-0.1-0.5,0-0.6,0.3l-2.2,6.1C670.1,101.7,670.2,102,670.5,102.1z"/>
							<path class="st3" d="M669.1,101.6L669.1,101.6c0.3,0.1,0.5,0,0.6-0.3l2.2-6.1c0.1-0.3,0-0.5-0.3-0.6l0,0
								c-0.3-0.1-0.5,0-0.6,0.3l-2.2,6.1C668.7,101.2,668.8,101.5,669.1,101.6z"/>
							<path class="st3" d="M667.7,101.1L667.7,101.1c0.3,0.1,0.5,0,0.6-0.3l2.2-6.1c0.1-0.3,0-0.5-0.3-0.6l0,0
								c-0.3-0.1-0.5,0-0.6,0.3l-2.2,6.1C667.3,100.7,667.4,101,667.7,101.1z"/>
							<path class="st3" d="M666.3,100.6L666.3,100.6c0.3,0.1,0.5,0,0.6-0.3l2.2-6.1c0.1-0.3,0-0.5-0.3-0.6l0,0
								c-0.3-0.1-0.5,0-0.6,0.3l-2.2,6.1C665.9,100.2,666,100.5,666.3,100.6z"/>
							<path class="st3" d="M664.9,100.1L664.9,100.1c0.3,0.1,0.5,0,0.6-0.3l2.2-6.1c0.1-0.3,0-0.5-0.3-0.6l0,0
								c-0.3-0.1-0.5,0-0.6,0.3l-2.2,6.1C664.5,99.7,664.6,100,664.9,100.1z"/>
							<path class="st3" d="M663.5,99.5L663.5,99.5c0.3,0.1,0.5,0,0.6-0.3l2.2-6.1c0.1-0.3,0-0.5-0.3-0.6l0,0
								c-0.3-0.1-0.5,0-0.6,0.3l-2.2,6.1C663.1,99.2,663.2,99.5,663.5,99.5z"/>
							<path class="st3" d="M662.1,99L662.1,99c0.3,0.1,0.5,0,0.6-0.3l2.2-6.1c0.1-0.3,0-0.5-0.3-0.6l0,0c-0.3-0.1-0.5,0-0.6,0.3
								l-2.2,6.1C661.7,98.7,661.8,98.9,662.1,99z"/>
							<path class="st3" d="M660.7,98.5L660.7,98.5c0.3,0.1,0.5,0,0.6-0.3l2.2-6.1c0.1-0.3,0-0.5-0.3-0.6h0c-0.3-0.1-0.5,0-0.6,0.3
								l-2.2,6.1C660.3,98.1,660.4,98.4,660.7,98.5z"/>
						</g>
					</g>
					<path class="st4" d="M660.3,94.2l-2.8-1l2.7-7.3c0.1-0.3,0-0.5-0.3-0.6l3.3,1.2c0.3,0.1,0.4,0.4,0.3,0.6l-2.8,7.7
						C660.7,94.6,660.5,94.3,660.3,94.2z"/>
					<path class="st4" d="M636.1,76.5l3.3,1.2c-0.3-0.1-0.5,0-0.6,0.3l-2.7,7.3l-2.8-1c-0.3-0.1-0.5,0-0.6,0.3l2.8-7.7
						C635.6,76.5,635.9,76.4,636.1,76.5z"/>
					<path class="st5" d="M633.3,84.2l2.8,1l4.3-11.7c0.1-0.3,0.4-0.4,0.6-0.3l20.5,7.5c0.3,0.1,0.4,0.4,0.3,0.6l-4.3,11.7l2.8,1
						c0.3,0.1,0.4,0.4,0.3,0.6l-1,2.8l-1.4,3.9c-0.1,0.3-0.4,0.4-0.6,0.3l-11.7-4.3l-3.7-1.4l-11.7-4.3c-0.3-0.1-0.4-0.4-0.3-0.6
						l1.4-3.9l1-2.8C632.7,84.3,633,84.2,633.3,84.2z"/>
					<g>
						<path class="st6" d="M630.6,16.1l2.7-8.7c0.1-0.3,0.4-0.5,0.8-0.4l22.1,6.9c0.2,0.1,0.3,0.2,0.4,0.3l0,0l0,0c0,0,0,0,0,0
							l5.2,12C653.2,23,642.8,19.5,630.6,16.1z"/>
						<g>
							<path class="st7" d="M649.8,57.1l-0.5-2.1l9.6,3.5c0.2,0.7,0.4,1.4,0.6,2.2L649.8,57.1z"/>
							<path class="st7" d="M651,60.8l-0.5-2.1l9.3,3.4c0.2,0.7,0.4,1.4,0.6,2.2L651,60.8z"/>
							<path class="st7" d="M647.4,47.8l-0.5-2.1l9.6,3.5c0.2,0.7,0.4,1.4,0.5,2.2L647.4,47.8z"/>
							<path class="st7" d="M651.7,64.3l-0.5-2.1l9.5,3.5c0.2,0.7,0.4,1.4,0.6,2.2L651.7,64.3z"/>
							<path class="st7" d="M646.7,44.3l-0.5-2.1l9.3,3.4c0.2,0.7,0.3,1.4,0.5,2.1L646.7,44.3z"/>
							<path class="st7" d="M645.4,40.6l-0.5-2.1l10.2,3.8c-0.2,0.6-0.2,1.2,0,2L645.4,40.6z"/>
							<path class="st6" d="M642.6,64.2c0,0-11.8-31.7-8-34.8c2.1-1.8,18.3-1.6,32.2-1.1c9.4,3.8,16.2,7.2,20.6,9.6
								c-13.5-1.2-30.6-1.6-32.2,4.2l-10.2-3.8l0.5,2.1l9.7,3.6c0.1,0.4,0.2,0.9,0.3,1.4l-9.3-3.4l0.5,2.1l9.4,3.4
								c0.1,0.5,0.2,0.9,0.4,1.4l-9.6-3.5l0.5,2.1l9.6,3.5c0.6,2.2,1.2,4.6,1.9,7.2l-9.6-3.5l0.5,2.1l9.6,3.5c0.1,0.5,0.3,1,0.4,1.4
								l-9.3-3.4l0.5,2.1l9.3,3.4c0.1,0.5,0.3,1,0.4,1.4l-9.5-3.5l0.5,2.1l9.6,3.5c1.3,5,2.7,10.1,3.9,14.8l-36.5-13.4
								c-0.5-2,0.2-3.5,1.3-4.5C643.8,68.7,642.6,64.2,642.6,64.2z"/>
							<path class="st8" d="M661.3,67.9c1.3,5,2.7,10.1,3.9,14.8l6.5,2.4c0,0,14.7,0.8,26.8-5.8c0,0,4.9-20.3-5-37.6
								c0,0-2-1.4-6.2-3.7c-13.5-1.2-30.6-1.6-32.2,4.2l2.4,0.9l0.5,2.1l-2.9-1.1c0.1,0.4,0.2,0.9,0.3,1.4l3.3,1.2l0.5,2.1l-3.3-1.2
								c0.1,0.5,0.2,0.9,0.4,1.4l3,1.1l0.5,2.1l-3-1.1c0.6,2.2,1.2,4.6,1.9,7.2l3.1,1.1l0.5,2.1l-3-1.1c0.1,0.5,0.3,1,0.4,1.4
								l3.4,1.2l0.5,2.1l-3.3-1.2c0.1,0.5,0.3,1,0.4,1.4l3.1,1.1l0.5,2.1L661.3,67.9z M668.3,59l-3.5-11.7c0,0-2-5.3,6.1-4.3
								c8.1,1,9.7,12.7,9.7,12.7s3.1,13.1,3,14.8c-0.1,1.9-1,6.2-4.2,6.2c-4.7,0.1-6.9-2.5-6.9-2.5L668.3,59z"/>
						</g>
						<path class="st9" d="M583,15.1c0.5-1.6,0.9-2.7,0.9-2.7s3.4-11.1,8-9.4c4.6,1.7,5.8,5.4,5.8,5.4c12.2,2.4,23.1,5,32.8,7.7
							c12.3,3.4,22.6,6.9,31.2,10.2c1.8,0.7,3.4,1.3,5,2c-13.9-0.5-30.1-0.6-32.2,1.1c-0.9,0.7-0.9,3.1-0.4,6.2
							C615.6,23,591.5,16.9,583,15.1z"/>
						<path class="st10" d="M630.1,64.7c1.8-1.7,4.5-2.4,4.5-2.4s1.2-13.9-7.2-17.6c-8.4-3.7-10.8-7.9-10.8-7.9l-25.6-10
							c0,0-2.8,2.2-7.4,0.6c-3.3-1.2-1.7-8.2-0.6-12.2c8.5,1.8,32.6,7.9,51.1,20.5c1.6,10.1,8.5,28.6,8.5,28.6
							S643.8,68.7,630.1,64.7z"/>
					</g>
					<circle class="st13" cx="626.1" cy="22.6" r="3.3"/>
					<circle class="st14" cx="627" cy="22.2" r="2.3"/>
				</g>
				<g>
					<path class="st0" d="M395.2,75"/>
					<path class="st1" d="M519.1,6.6L519.1,6.6z"/>
					<g>
						<path class="st2" d="M494.6,95.4l14.9,5.5c0.5,0.2,1.1-0.1,1.3-0.6l1.4-3.7c0.2-0.5-0.1-1.1-0.6-1.3l-14.9-5.5
							c-0.5-0.2-1.1,0.1-1.3,0.6l-1.4,3.7C493.8,94.6,494.1,95.2,494.6,95.4z"/>
						<g>
							<path class="st3" d="M508.8,101.4L508.8,101.4c0.3,0.1,0.5,0,0.6-0.3l2.2-6.1c0.1-0.3,0-0.5-0.3-0.6l0,0
								c-0.3-0.1-0.5,0-0.6,0.3l-2.2,6.1C508.4,101,508.5,101.3,508.8,101.4z"/>
							<path class="st3" d="M507.4,100.8L507.4,100.8c0.3,0.1,0.5,0,0.6-0.3l2.2-6.1c0.1-0.3,0-0.5-0.3-0.6l0,0
								c-0.3-0.1-0.5,0-0.6,0.3l-2.2,6.1C507,100.5,507.1,100.8,507.4,100.8z"/>
							<path class="st3" d="M506,100.3L506,100.3c0.3,0.1,0.5,0,0.6-0.3l2.2-6.1c0.1-0.3,0-0.5-0.3-0.6l0,0c-0.3-0.1-0.5,0-0.6,0.3
								l-2.2,6.1C505.6,100,505.7,100.2,506,100.3z"/>
							<path class="st3" d="M504.6,99.8L504.6,99.8c0.3,0.1,0.5,0,0.6-0.3l2.2-6.1c0.1-0.3,0-0.5-0.3-0.6l0,0
								c-0.3-0.1-0.5,0-0.6,0.3l-2.2,6.1C504.2,99.4,504.3,99.7,504.6,99.8z"/>
							<path class="st3" d="M503.2,99.3L503.2,99.3c0.3,0.1,0.5,0,0.6-0.3l2.2-6.1c0.1-0.3,0-0.5-0.3-0.6l0,0
								c-0.3-0.1-0.5,0-0.6,0.3l-2.2,6.1C502.8,98.9,502.9,99.2,503.2,99.3z"/>
							<path class="st3" d="M501.8,98.8L501.8,98.8c0.3,0.1,0.5,0,0.6-0.3l2.2-6.1c0.1-0.3,0-0.5-0.3-0.6l0,0
								c-0.3-0.1-0.5,0-0.6,0.3l-2.2,6.1C501.4,98.4,501.5,98.7,501.8,98.8z"/>
							<path class="st3" d="M500.4,98.3L500.4,98.3c0.3,0.1,0.5,0,0.6-0.3l2.2-6.1c0.1-0.3,0-0.5-0.3-0.6l0,0
								c-0.3-0.1-0.5,0-0.6,0.3l-2.2,6.1C500,97.9,500.1,98.2,500.4,98.3z"/>
							<path class="st3" d="M499,97.8L499,97.8c0.3,0.1,0.5,0,0.6-0.3l2.2-6.1c0.1-0.3,0-0.5-0.3-0.6l0,0c-0.3-0.1-0.5,0-0.6,0.3
								l-2.2,6.1C498.6,97.4,498.7,97.7,499,97.8z"/>
							<path class="st3" d="M497.6,97.3L497.6,97.3c0.3,0.1,0.5,0,0.6-0.3l2.2-6.1c0.1-0.3,0-0.5-0.3-0.6l0,0
								c-0.3-0.1-0.5,0-0.6,0.3l-2.2,6.1C497.2,96.9,497.3,97.2,497.6,97.3z"/>
							<path class="st3" d="M496.2,96.7L496.2,96.7c0.3,0.1,0.5,0,0.6-0.3l2.2-6.1c0.1-0.3,0-0.5-0.3-0.6l0,0
								c-0.3-0.1-0.5,0-0.6,0.3l-2.2,6.1C495.8,96.4,495.9,96.6,496.2,96.7z"/>
							<path class="st3" d="M494.8,96.2L494.8,96.2c0.3,0.1,0.5,0,0.6-0.3l2.2-6.1c0.1-0.3,0-0.5-0.3-0.6l0,0
								c-0.3-0.1-0.5,0-0.6,0.3l-2.2,6.1C494.4,95.8,494.6,96.1,494.8,96.2z"/>
						</g>
					</g>
					<path class="st4" d="M494.4,91.9l-2.8-1l2.7-7.3c0.1-0.3,0-0.5-0.3-0.6l3.3,1.2c0.3,0.1,0.4,0.4,0.3,0.6l-2.8,7.7
						C494.8,92.3,494.7,92,494.4,91.9z"/>
					<path class="st4" d="M470.2,74.2l3.3,1.2c-0.3-0.1-0.5,0-0.6,0.3l-2.7,7.3l-2.8-1c-0.3-0.1-0.5,0-0.6,0.3l2.8-7.7
						C469.7,74.2,470,74.1,470.2,74.2z"/>
					<path class="st5" d="M467.4,82l2.8,1l4.3-11.7c0.1-0.3,0.4-0.4,0.6-0.3l20.5,7.5c0.3,0.1,0.4,0.4,0.3,0.6l-4.3,11.7l2.8,1
						c0.3,0.1,0.4,0.4,0.3,0.6l-1,2.8l-1.4,3.9c-0.1,0.3-0.4,0.4-0.6,0.3L480,95.2l-3.7-1.4l-11.7-4.3c-0.3-0.1-0.4-0.4-0.3-0.6
						l1.4-3.9l1-2.8C466.8,82,467.1,81.9,467.4,82z"/>
					<g>
						<path class="st6" d="M464.7,13.8l2.7-8.7c0.1-0.3,0.4-0.5,0.8-0.4l22.1,6.9c0.2,0.1,0.3,0.2,0.4,0.3l0,0l0,0c0,0,0,0,0,0
							l5.2,12C487.3,20.7,477,17.2,464.7,13.8z"/>
						<g>
							<path class="st7" d="M483.9,54.8l-0.5-2.1l9.6,3.5c0.2,0.7,0.4,1.4,0.6,2.2L483.9,54.8z"/>
							<path class="st7" d="M485.1,58.5l-0.5-2.1l9.3,3.4c0.2,0.7,0.4,1.4,0.6,2.2L485.1,58.5z"/>
							<path class="st7" d="M481.5,45.5l-0.5-2.1l9.6,3.5c0.2,0.7,0.4,1.4,0.5,2.2L481.5,45.5z"/>
							<path class="st7" d="M485.8,62l-0.5-2.1l9.5,3.5c0.2,0.7,0.4,1.4,0.6,2.2L485.8,62z"/>
							<path class="st7" d="M480.8,42l-0.5-2.1l9.3,3.4c0.2,0.7,0.3,1.4,0.5,2.1L480.8,42z"/>
							<path class="st7" d="M479.6,38.3l-0.5-2.1l10.2,3.8c-0.2,0.6-0.2,1.2,0,2L479.6,38.3z"/>
							<path class="st6" d="M476.7,62c0,0-11.8-31.7-8-34.8c2.1-1.8,18.3-1.6,32.2-1.1c9.4,3.8,16.2,7.2,20.6,9.6
								c-13.5-1.2-30.6-1.6-32.2,4.2l-10.2-3.8l0.5,2.1l9.7,3.6c0.1,0.4,0.2,0.9,0.3,1.4l-9.3-3.4l0.5,2.1l9.4,3.4
								c0.1,0.5,0.2,0.9,0.4,1.4l-9.6-3.5l0.5,2.1l9.6,3.5c0.6,2.2,1.2,4.6,1.9,7.2l-9.6-3.5l0.5,2.1l9.6,3.5c0.1,0.5,0.3,1,0.4,1.4
								l-9.3-3.4l0.5,2.1l9.3,3.4c0.1,0.5,0.3,1,0.4,1.4l-9.5-3.5l0.5,2.1l9.6,3.5c1.3,5,2.7,10.1,3.9,14.8l-36.5-13.4
								c-0.5-2,0.2-3.5,1.3-4.5C478,66.4,476.7,62,476.7,62z"/>
							<path class="st8" d="M495.4,65.6c1.3,5,2.7,10.1,3.9,14.8l6.5,2.4c0,0,14.7,0.8,26.8-5.8c0,0,4.9-20.3-5-37.6
								c0,0-2-1.4-6.2-3.7c-13.5-1.2-30.6-1.6-32.2,4.2l2.4,0.9l0.5,2.1l-2.9-1.1c0.1,0.4,0.2,0.9,0.3,1.4l3.3,1.2l0.5,2.1l-3.3-1.2
								c0.1,0.5,0.2,0.9,0.4,1.4l3,1.1l0.5,2.1l-3-1.1c0.6,2.2,1.2,4.6,1.9,7.2l3.1,1.1l0.5,2.1l-3-1.1c0.1,0.5,0.3,1,0.4,1.4
								l3.4,1.2l0.5,2.1l-3.3-1.2c0.1,0.5,0.3,1,0.4,1.4l3.1,1.1l0.5,2.1L495.4,65.6z M502.4,56.7L498.9,45c0,0-2-5.3,6.1-4.3
								c8.1,1,9.7,12.7,9.7,12.7s3.1,13.1,3,14.8c-0.1,1.9-1,6.2-4.2,6.2c-4.6,0.1-6.9-2.5-6.9-2.5L502.4,56.7z"/>
						</g>
						<path class="st9" d="M417.1,12.8c0.5-1.6,0.9-2.7,0.9-2.7s3.4-11.1,8-9.4c4.6,1.7,5.8,5.4,5.8,5.4c12.2,2.4,23.1,5,32.8,7.7
							c12.3,3.4,22.6,6.9,31.2,10.2c1.8,0.7,3.4,1.3,5,2c-13.9-0.5-30.1-0.6-32.2,1.1c-0.9,0.7-0.9,3.1-0.4,6.2
							C449.8,20.7,425.6,14.6,417.1,12.8z"/>
						<path class="st10" d="M464.2,62.4c1.8-1.7,4.5-2.4,4.5-2.4s1.2-13.9-7.2-17.6c-8.4-3.7-10.8-7.9-10.8-7.9l-25.6-10
							c0,0-2.8,2.2-7.4,0.6c-3.3-1.2-1.7-8.2-0.6-12.2c8.5,1.8,32.6,7.9,51.1,20.5c1.6,10.1,8.5,28.6,8.5,28.6S478,66.4,464.2,62.4z
							"/>
					</g>
					<circle class="st13" cx="460.3" cy="20.3" r="3.3"/>
					<circle class="st14" cx="461.1" cy="19.9" r="2.3"/>
				</g>
			</g>
			<g>
				<path class="st0" d="M488.1,197.3"/>
				<path class="st1" d="M612.1,128.9L612.1,128.9z"/>
				<g>
					<path class="st2" d="M587.5,217.7l14.9,5.5c0.5,0.2,1.1-0.1,1.3-0.6l1.4-3.7c0.2-0.5-0.1-1.1-0.6-1.3l-14.9-5.5
						c-0.5-0.2-1.1,0.1-1.3,0.6l-1.4,3.7C586.8,216.9,587,217.5,587.5,217.7z"/>
					<g>
						<path class="st3" d="M601.7,223.7L601.7,223.7c0.3,0.1,0.5,0,0.6-0.3l2.2-6.1c0.1-0.3,0-0.5-0.3-0.6l0,0
							c-0.3-0.1-0.5,0-0.6,0.3l-2.2,6.1C601.3,223.3,601.5,223.6,601.7,223.7z"/>
						<path class="st3" d="M600.3,223.1L600.3,223.1c0.3,0.1,0.5,0,0.6-0.3l2.2-6.1c0.1-0.3,0-0.5-0.3-0.6l0,0
							c-0.3-0.1-0.5,0-0.6,0.3l-2.2,6.1C599.9,222.8,600.1,223.1,600.3,223.1z"/>
						<path class="st3" d="M598.9,222.6L598.9,222.6c0.3,0.1,0.5,0,0.6-0.3l2.2-6.1c0.1-0.3,0-0.5-0.3-0.6l0,0
							c-0.3-0.1-0.5,0-0.6,0.3l-2.2,6.1C598.5,222.3,598.7,222.5,598.9,222.6z"/>
						<path class="st3" d="M597.5,222.1L597.5,222.1c0.3,0.1,0.5,0,0.6-0.3l2.2-6.1c0.1-0.3,0-0.5-0.3-0.6l0,0
							c-0.3-0.1-0.5,0-0.6,0.3l-2.2,6.1C597.1,221.7,597.3,222,597.5,222.1z"/>
						<path class="st3" d="M596.1,221.6L596.1,221.6c0.3,0.1,0.5,0,0.6-0.3l2.2-6.1c0.1-0.3,0-0.5-0.3-0.6l0,0
							c-0.3-0.1-0.5,0-0.6,0.3l-2.2,6.1C595.7,221.2,595.9,221.5,596.1,221.6z"/>
						<path class="st3" d="M594.7,221.1L594.7,221.1c0.3,0.1,0.5,0,0.6-0.3l2.2-6.1c0.1-0.3,0-0.5-0.3-0.6l0,0
							c-0.3-0.1-0.5,0-0.6,0.3l-2.2,6.1C594.3,220.7,594.5,221,594.7,221.1z"/>
						<path class="st3" d="M593.3,220.6L593.3,220.6c0.3,0.1,0.5,0,0.6-0.3l2.2-6.1c0.1-0.3,0-0.5-0.3-0.6l0,0
							c-0.3-0.1-0.5,0-0.6,0.3l-2.2,6.1C592.9,220.2,593.1,220.5,593.3,220.6z"/>
						<path class="st3" d="M591.9,220.1L591.9,220.1c0.3,0.1,0.5,0,0.6-0.3l2.2-6.1c0.1-0.3,0-0.5-0.3-0.6l0,0
							c-0.3-0.1-0.5,0-0.6,0.3l-2.2,6.1C591.5,219.7,591.7,220,591.9,220.1z"/>
						<path class="st3" d="M590.5,219.6L590.5,219.6c0.3,0.1,0.5,0,0.6-0.3l2.2-6.1c0.1-0.3,0-0.5-0.3-0.6l0,0
							c-0.3-0.1-0.5,0-0.6,0.3l-2.2,6.1C590.2,219.2,590.3,219.5,590.5,219.6z"/>
						<path class="st3" d="M589.1,219L589.1,219c0.3,0.1,0.5,0,0.6-0.3l2.2-6.1c0.1-0.3,0-0.5-0.3-0.6v0c-0.3-0.1-0.5,0-0.6,0.3
							l-2.2,6.1C588.8,218.7,588.9,218.9,589.1,219z"/>
						<path class="st3" d="M587.7,218.5L587.7,218.5c0.3,0.1,0.5,0,0.6-0.3l2.2-6.1c0.1-0.3,0-0.5-0.3-0.6l0,0
							c-0.3-0.1-0.5,0-0.6,0.3l-2.2,6.1C587.4,218.1,587.5,218.4,587.7,218.5z"/>
					</g>
				</g>
				<path class="st4" d="M587.4,214.2l-2.8-1l2.7-7.3c0.1-0.3,0-0.5-0.3-0.6l3.3,1.2c0.3,0.1,0.4,0.4,0.3,0.6l-2.8,7.7
					C587.7,214.6,587.6,214.3,587.4,214.2z"/>
				<path class="st4" d="M563.2,196.5l3.3,1.2c-0.3-0.1-0.5,0-0.6,0.3l-2.7,7.3l-2.8-1c-0.3-0.1-0.5,0-0.6,0.3l2.8-7.7
					C562.6,196.5,562.9,196.4,563.2,196.5z"/>
				<path class="st5" d="M560.3,204.3l2.8,1l4.3-11.7c0.1-0.3,0.4-0.4,0.6-0.3l20.5,7.5c0.3,0.1,0.4,0.4,0.3,0.6l-4.3,11.7l2.8,1
					c0.3,0.1,0.4,0.4,0.3,0.6l-1,2.8l-1.4,3.9c-0.1,0.3-0.4,0.4-0.6,0.3l-11.7-4.3l-3.7-1.4l-11.7-4.3c-0.3-0.1-0.4-0.4-0.3-0.6
					l1.4-3.9l1-2.8C559.8,204.3,560.1,204.2,560.3,204.3z"/>
				<g>
					<path class="st6" d="M557.6,136.1l2.7-8.7c0.1-0.3,0.4-0.5,0.8-0.4l22.1,6.9c0.2,0.1,0.3,0.2,0.4,0.3l0,0l0,0c0,0,0,0,0,0
						l5.2,12C580.3,143,569.9,139.5,557.6,136.1z"/>
					<g>
						<path class="st7" d="M576.8,177.1l-0.5-2.1l9.6,3.5c0.2,0.7,0.4,1.4,0.6,2.2L576.8,177.1z"/>
						<path class="st7" d="M578.1,180.8l-0.5-2.1l9.3,3.4c0.2,0.7,0.4,1.4,0.6,2.2L578.1,180.8z"/>
						<path class="st7" d="M574.4,167.8l-0.5-2.1l9.6,3.5c0.2,0.7,0.4,1.4,0.5,2.2L574.4,167.8z"/>
						<path class="st7" d="M578.8,184.3l-0.5-2.1l9.5,3.5c0.2,0.7,0.4,1.4,0.6,2.2L578.8,184.3z"/>
						<path class="st7" d="M573.8,164.3l-0.5-2.1l9.3,3.4c0.2,0.7,0.3,1.4,0.5,2.1L573.8,164.3z"/>
						<path class="st7" d="M572.5,160.6l-0.5-2.1l10.2,3.8c-0.2,0.6-0.2,1.2,0,2L572.5,160.6z"/>
						<path class="st6" d="M569.7,184.3c0,0-11.8-31.7-8-34.8c2.1-1.8,18.3-1.6,32.2-1.1c9.4,3.8,16.2,7.2,20.6,9.6
							c-13.5-1.2-30.6-1.6-32.2,4.2l-10.2-3.8l0.5,2.1l9.7,3.6c0.1,0.4,0.2,0.9,0.3,1.4l-9.3-3.4l0.5,2.1l9.4,3.4
							c0.1,0.5,0.2,0.9,0.4,1.4l-9.6-3.5l0.5,2.1l9.6,3.5c0.6,2.2,1.2,4.6,1.9,7.2l-9.6-3.5l0.5,2.1l9.6,3.5c0.1,0.5,0.3,1,0.4,1.4
							l-9.3-3.4l0.5,2.1l9.3,3.4c0.1,0.5,0.3,1,0.4,1.4l-9.5-3.5l0.5,2.1l9.6,3.5c1.3,5,2.7,10.1,3.9,14.8l-36.5-13.4
							c-0.5-2,0.2-3.5,1.3-4.5C570.9,188.7,569.7,184.3,569.7,184.3z"/>
						<path class="st8" d="M588.3,187.9c1.3,5,2.7,10.1,3.9,14.8l6.5,2.4c0,0,14.7,0.8,26.8-5.8c0,0,4.9-20.3-5-37.6
							c0,0-2-1.4-6.2-3.7c-13.5-1.2-30.6-1.6-32.2,4.2l2.4,0.9l0.5,2.1l-2.9-1.1c0.1,0.4,0.2,0.9,0.3,1.4l3.3,1.2l0.5,2.1l-3.3-1.2
							c0.1,0.5,0.2,0.9,0.4,1.4l3,1.1l0.5,2.1l-3-1.1c0.6,2.2,1.2,4.6,1.9,7.2l3.1,1.1l0.5,2.1l-3-1.1c0.1,0.5,0.3,1,0.4,1.4
							l3.4,1.2l0.5,2.1l-3.3-1.2c0.1,0.5,0.3,1,0.4,1.4l3.1,1.1l0.5,2.1L588.3,187.9z M595.3,179l-3.5-11.7c0,0-2-5.3,6.1-4.3
							c8.1,1,9.7,12.7,9.7,12.7s3.1,13.1,3,14.8c-0.1,1.9-1,6.2-4.2,6.2c-4.7,0.1-6.9-2.5-6.9-2.5L595.3,179z"/>
					</g>
					<path class="st9" d="M510.1,135.1c0.5-1.6,0.9-2.7,0.9-2.7s3.4-11.1,8-9.4c4.6,1.7,5.8,5.4,5.8,5.4c12.2,2.4,23.1,5,32.8,7.7
						c12.3,3.4,22.6,6.9,31.2,10.2c1.8,0.7,3.4,1.3,5,2c-13.9-0.5-30.1-0.6-32.2,1.1c-0.9,0.7-0.9,3.1-0.4,6.2
						C542.7,143,518.5,137,510.1,135.1z"/>
					<path class="st10" d="M557.1,184.7c1.8-1.7,4.5-2.4,4.5-2.4s1.2-13.9-7.2-17.6c-8.4-3.7-10.8-7.9-10.8-7.9l-25.6-10
						c0,0-2.8,2.2-7.4,0.6c-3.3-1.2-1.7-8.2-0.6-12.2c8.5,1.8,32.6,7.9,51.1,20.5c1.6,10.1,8.5,28.6,8.5,28.6
						S570.9,188.7,557.1,184.7z"/>
				</g>
				<circle class="st13" cx="553.2" cy="142.6" r="3.3"/>
				<circle class="st14" cx="554.1" cy="142.2" r="2.3"/>
			</g>
		</g>
	</g>
	<g>
		<path class="st15" d="M167,245.9h-56c-0.5,0-1-0.4-1-1v-11c0-0.6,0.5-1,1-1h56c0.6,0,1,0.4,1,1v11
			C168,245.5,167.5,245.9,167,245.9z"/>
		<path class="st16" d="M138.5,244.7h-27c-0.3,0-0.5-0.2-0.5-0.5v-9.5c0-0.3,0.2-0.5,0.5-0.5h27c0.3,0,0.5,0.2,0.5,0.5v9.5
			C139,244.5,138.8,244.7,138.5,244.7z"/>
	</g>
	<g>
		<g>
			<path class="st4" d="M72,124.1H16c-0.6,0-1-0.5-1-1v-11c0-0.6,0.4-1,1-1h56c0.6,0,1,0.4,1,1v11C73,123.7,72.5,124.1,72,124.1z"/>
			<path class="st6" d="M71.5,122.9h-55c-0.3,0-0.5-0.2-0.5-0.5v-9.5c0-0.3,0.2-0.5,0.5-0.5h55c0.3,0,0.5,0.2,0.5,0.5v9.5
				C72,122.6,71.8,122.9,71.5,122.9z"/>
		</g>
		<g>
			<path class="st17" d="M262,124.1h-56c-0.6,0-1-0.5-1-1v-11c0-0.6,0.4-1,1-1h56c0.5,0,1,0.4,1,1v11
				C263,123.7,262.5,124.1,262,124.1z"/>
			<path class="st18" d="M219.5,122.9h-13c-0.3,0-0.5-0.2-0.5-0.5v-9.5c0-0.3,0.2-0.5,0.5-0.5h13c0.3,0,0.5,0.2,0.5,0.5v9.5
				C220,122.6,219.8,122.9,219.5,122.9z"/>
		</g>
	</g>
	<g>
		<path class="st4" d="M592.7,246.2h-56c-0.5,0-1-0.4-1-1v-11c0-0.6,0.5-1,1-1h56c0.5,0,1,0.4,1,1v11
			C593.7,245.7,593.3,246.2,592.7,246.2z"/>
		<path class="st6" d="M577.2,245h-40c-0.3,0-0.5-0.2-0.5-0.5v-9.5c0-0.3,0.2-0.5,0.5-0.5h40c0.3,0,0.5,0.2,0.5,0.5v9.5
			C577.7,244.7,577.5,245,577.2,245z"/>
	</g>
	<g>
		<g>
			<path class="st15" d="M498.2,124.1h-56c-0.6,0-1-0.5-1-1v-11c0-0.6,0.4-1,1-1h56c0.5,0,1,0.4,1,1v11
				C499.2,123.7,498.8,124.1,498.2,124.1z"/>
			<path class="st16" d="M466.7,122.9h-24c-0.3,0-0.5-0.2-0.5-0.5v-9.5c0-0.3,0.2-0.5,0.5-0.5h24c0.3,0,0.5,0.2,0.5,0.5v9.5
				C467.2,122.6,467,122.9,466.7,122.9z"/>
		</g>
		<g>
			<path class="st15" d="M687.2,124.1h-56c-0.5,0-1-0.5-1-1v-11c0-0.6,0.5-1,1-1h56c0.5,0,1,0.4,1,1v11
				C688.2,123.7,687.8,124.1,687.2,124.1z"/>
			<path class="st16" d="M644.7,122.9h-13c-0.3,0-0.5-0.2-0.5-0.5v-9.5c0-0.3,0.2-0.5,0.5-0.5h13c0.3,0,0.5,0.2,0.5,0.5v9.5
				C645.2,122.6,645,122.9,644.7,122.9z"/>
		</g>
	</g>
	<g>
		<path class="st6" d="M29.4,142.4v-6.8c0-0.6-0.5-1.2-1.1-1.2h-1.1v-0.6h1.1c0.9,0,1.7,0.8,1.7,1.7v6.8H29.4z"/>
		<path class="st6" d="M41.5,135.5v5.1c0,0.9-0.8,1.7-1.7,1.7h-6.3c-0.9,0-1.7-0.8-1.7-1.7v-5.1c0-0.9,0.8-1.7,1.7-1.7h6.3
			C40.7,133.8,41.5,134.6,41.5,135.5z M32.4,140.6c0,0.2,0.1,0.5,0.2,0.6l7.7-6.8c-0.2-0.1-0.3-0.1-0.5-0.1h-6.3
			c-0.6,0-1.1,0.5-1.1,1.2V140.6z M40.9,135.5c0-0.2-0.1-0.5-0.2-0.6l-7.8,6.8c0.2,0.1,0.3,0.1,0.5,0.1h6.3c0.6,0,1.1-0.5,1.1-1.1
			V135.5z"/>
		<path class="st6" d="M53,135.5v5.1c0,0.9-0.8,1.7-1.7,1.7H45c-0.9,0-1.7-0.8-1.7-1.7v-5.1c0-0.9,0.8-1.7,1.7-1.7h6.3
			C52.2,133.8,53,134.6,53,135.5z M43.9,140.6c0,0.2,0.1,0.5,0.2,0.6l7.7-6.8c-0.2-0.1-0.3-0.1-0.5-0.1H45c-0.6,0-1.1,0.5-1.1,1.2
			V140.6z M52.4,135.5c0-0.2-0.1-0.5-0.2-0.6l-7.8,6.8c0.2,0.1,0.3,0.1,0.5,0.1h6.3c0.6,0,1.1-0.5,1.1-1.1V135.5z"/>
		<path class="st6" d="M55.7,136.9c-0.5,0-0.9-0.4-0.9-0.9v-1.4c0-0.5,0.4-0.9,0.9-0.9h1.4c0.5,0,0.9,0.4,0.9,0.9v1.4
			c0,0.5-0.4,0.9-0.9,0.9H55.7z M55.7,136.4h1.4c0.2,0,0.3-0.1,0.3-0.3v-1.4c0-0.2-0.1-0.3-0.3-0.3h-1.4c-0.2,0-0.3,0.1-0.3,0.3v1.4
			C55.4,136.2,55.5,136.4,55.7,136.4z M61.5,133.8l-5.4,8.6h-0.7l5.4-8.6H61.5z M62.2,140.1v1.4c0,0.5-0.4,0.9-0.9,0.9h-1.4
			c-0.5,0-0.9-0.4-0.9-0.9v-1.4c0-0.5,0.4-0.9,0.9-0.9h1.4C61.8,139.2,62.2,139.6,62.2,140.1z M61.7,140.1c0-0.2-0.1-0.3-0.3-0.3
			h-1.4c-0.2,0-0.3,0.1-0.3,0.3v1.4c0,0.2,0.1,0.3,0.3,0.3h1.4c0.2,0,0.3-0.1,0.3-0.3V140.1z"/>
	</g>
	<g>
		<path class="st18" d="M218.8,142.4v-2.9c0-0.9,0.8-1.7,1.7-1.7h6.3c0.6,0,1.1-0.5,1.1-1.1v-1.1c0-0.6-0.5-1.2-1.1-1.2h-7.7v-0.6
			h7.7c0.9,0,1.7,0.8,1.7,1.7v1.1c0,0.9-0.8,1.7-1.7,1.7h-6.3c-0.6,0-1.1,0.5-1.1,1.1v2.3h8.9v0.6H218.8z"/>
		<path class="st18" d="M230.3,142.4v-0.6h8c0.6,0,1.1-0.5,1.1-1.1v-1.1c0-0.6-0.5-1.1-1.1-1.1h-8v-4.6h9.4v0.6h-8.9v3.4h7.4
			c0.9,0,1.7,0.8,1.7,1.7v1.1c0,0.9-0.8,1.7-1.7,1.7H230.3z"/>
		<path class="st18" d="M242.7,136.9c-0.5,0-0.9-0.4-0.9-0.9v-1.4c0-0.5,0.4-0.9,0.9-0.9h1.4c0.5,0,0.9,0.4,0.9,0.9v1.4
			c0,0.5-0.4,0.9-0.9,0.9H242.7z M242.7,136.4h1.4c0.2,0,0.3-0.1,0.3-0.3v-1.4c0-0.2-0.1-0.3-0.3-0.3h-1.4c-0.2,0-0.3,0.1-0.3,0.3
			v1.4C242.4,136.2,242.5,136.4,242.7,136.4z M248.5,133.8l-5.4,8.6h-0.7l5.4-8.6H248.5z M249.2,140.1v1.4c0,0.5-0.4,0.9-0.9,0.9
			H247c-0.5,0-0.9-0.4-0.9-0.9v-1.4c0-0.5,0.4-0.9,0.9-0.9h1.4C248.9,139.2,249.2,139.6,249.2,140.1z M248.7,140.1
			c0-0.2-0.1-0.3-0.3-0.3H247c-0.2,0-0.3,0.1-0.3,0.3v1.4c0,0.2,0.1,0.3,0.3,0.3h1.4c0.2,0,0.3-0.1,0.3-0.3V140.1z"/>
	</g>
	<g>
		<path class="st16" d="M122.3,263.9v-0.6h8c0.6,0,1.1-0.5,1.1-1.1V261c0-0.6-0.5-1.1-1.1-1.1h-8v-4.6h9.4v0.6h-8.9v3.4h7.4
			c0.9,0,1.7,0.8,1.7,1.7v1.1c0,0.9-0.8,1.7-1.7,1.7H122.3z"/>
		<path class="st16" d="M143.5,257v5.1c0,0.9-0.8,1.7-1.7,1.7h-6.3c-0.9,0-1.7-0.8-1.7-1.7V257c0-0.9,0.8-1.7,1.7-1.7h6.3
			C142.7,255.3,143.5,256.1,143.5,257z M134.4,262.1c0,0.2,0.1,0.5,0.2,0.6l7.7-6.8c-0.2-0.1-0.3-0.1-0.5-0.1h-6.3
			c-0.6,0-1.1,0.5-1.1,1.2V262.1z M142.9,257c0-0.2-0.1-0.5-0.2-0.6l-7.8,6.8c0.2,0.1,0.3,0.1,0.5,0.1h6.3c0.6,0,1.1-0.5,1.1-1.1
			V257z"/>
		<path class="st16" d="M146.2,258.4c-0.5,0-0.9-0.4-0.9-0.9v-1.4c0-0.5,0.4-0.9,0.9-0.9h1.4c0.5,0,0.9,0.4,0.9,0.9v1.4
			c0,0.5-0.4,0.9-0.9,0.9H146.2z M146.2,257.9h1.4c0.2,0,0.3-0.1,0.3-0.3v-1.4c0-0.2-0.1-0.3-0.3-0.3h-1.4c-0.2,0-0.3,0.1-0.3,0.3
			v1.4C145.9,257.7,146,257.9,146.2,257.9z M152,255.3l-5.4,8.6H146l5.4-8.6H152z M152.7,261.6v1.4c0,0.5-0.4,0.9-0.9,0.9h-1.4
			c-0.5,0-0.9-0.4-0.9-0.9v-1.4c0-0.5,0.4-0.9,0.9-0.9h1.4C152.4,260.7,152.7,261.1,152.7,261.6z M152.2,261.6
			c0-0.2-0.1-0.3-0.3-0.3h-1.4c-0.2,0-0.3,0.1-0.3,0.3v1.4c0,0.2,0.1,0.3,0.3,0.3h1.4c0.2,0,0.3-0.1,0.3-0.3V261.6z"/>
	</g>
	<g>
		<path class="st16" d="M464.2,133.8v8.6h-0.6v-4h-7.4c-0.9,0-1.7-0.8-1.7-1.7v-2.9h0.6v2.9c0,0.6,0.5,1.1,1.1,1.1h7.4v-4H464.2z"/>
		<path class="st16" d="M475.8,133.8v8.6h-0.6v-4h-7.4c-0.9,0-1.7-0.8-1.7-1.7v-2.9h0.6v2.9c0,0.6,0.5,1.1,1.1,1.1h7.4v-4H475.8z"/>
		<path class="st16" d="M478.4,136.9c-0.5,0-0.9-0.4-0.9-0.9v-1.4c0-0.5,0.4-0.9,0.9-0.9h1.4c0.5,0,0.9,0.4,0.9,0.9v1.4
			c0,0.5-0.4,0.9-0.9,0.9H478.4z M478.4,136.4h1.4c0.2,0,0.3-0.1,0.3-0.3v-1.4c0-0.2-0.1-0.3-0.3-0.3h-1.4c-0.2,0-0.3,0.1-0.3,0.3
			v1.4C478.1,136.2,478.3,136.4,478.4,136.4z M484.3,133.8l-5.4,8.6h-0.7l5.4-8.6H484.3z M485,140.1v1.4c0,0.5-0.4,0.9-0.9,0.9h-1.4
			c-0.5,0-0.9-0.4-0.9-0.9v-1.4c0-0.5,0.4-0.9,0.9-0.9h1.4C484.6,139.2,485,139.6,485,140.1z M484.4,140.1c0-0.2-0.1-0.3-0.3-0.3
			h-1.4c-0.2,0-0.3,0.1-0.3,0.3v1.4c0,0.2,0.1,0.3,0.3,0.3h1.4c0.2,0,0.3-0.1,0.3-0.3V140.1z"/>
	</g>
	<g>
		<path class="st16" d="M653,138.1c0.5,0.3,0.8,0.8,0.8,1.4v1.1c0,0.9-0.8,1.7-1.7,1.7h-8v-0.6h8c0.6,0,1.1-0.5,1.1-1.1v-1.1
			c0-0.6-0.5-1.1-1.1-1.1h-6.9v-0.6h6.9c0.6,0,1.1-0.5,1.1-1.1v-1.1c0-0.6-0.5-1.2-1.1-1.2h-8v-0.6h8c0.9,0,1.7,0.8,1.7,1.7v1.1
			C653.7,137.3,653.4,137.8,653,138.1z"/>
		<path class="st16" d="M664.5,138.1c0.5,0.3,0.8,0.8,0.8,1.4v1.1c0,0.9-0.8,1.7-1.7,1.7h-8v-0.6h8c0.6,0,1.1-0.5,1.1-1.1v-1.1
			c0-0.6-0.5-1.1-1.1-1.1h-6.9v-0.6h6.9c0.6,0,1.1-0.5,1.1-1.1v-1.1c0-0.6-0.5-1.2-1.1-1.2h-8v-0.6h8c0.9,0,1.7,0.8,1.7,1.7v1.1
			C665.3,137.3,665,137.8,664.5,138.1z"/>
		<path class="st16" d="M667.9,136.9c-0.5,0-0.9-0.4-0.9-0.9v-1.4c0-0.5,0.4-0.9,0.9-0.9h1.4c0.5,0,0.9,0.4,0.9,0.9v1.4
			c0,0.5-0.4,0.9-0.9,0.9H667.9z M667.9,136.4h1.4c0.2,0,0.3-0.1,0.3-0.3v-1.4c0-0.2-0.1-0.3-0.3-0.3h-1.4c-0.2,0-0.3,0.1-0.3,0.3
			v1.4C667.6,136.2,667.8,136.4,667.9,136.4z M673.8,133.8l-5.4,8.6h-0.7l5.4-8.6H673.8z M674.5,140.1v1.4c0,0.5-0.4,0.9-0.9,0.9
			h-1.4c-0.5,0-0.9-0.4-0.9-0.9v-1.4c0-0.5,0.4-0.9,0.9-0.9h1.4C674.1,139.2,674.5,139.6,674.5,140.1z M673.9,140.1
			c0-0.2-0.1-0.3-0.3-0.3h-1.4c-0.2,0-0.3,0.1-0.3,0.3v1.4c0,0.2,0.1,0.3,0.3,0.3h1.4c0.2,0,0.3-0.1,0.3-0.3V140.1z"/>
	</g>
	<g>
		<path class="st6" d="M559.3,257.3l-6,6.5h-0.8l6.3-6.9c0,0,0.1-0.1,0.1-0.2V256c0-0.1-0.1-0.2-0.2-0.2h-9v-0.6h9.1
			c0.3,0,0.6,0.3,0.6,0.6v1C559.5,257,559.4,257.2,559.3,257.3z"/>
		<path class="st6" d="M561.3,263.9v-0.6h8c0.6,0,1.1-0.5,1.1-1.1V261c0-0.6-0.5-1.1-1.1-1.1h-8v-4.6h9.4v0.6h-8.9v3.4h7.4
			c0.9,0,1.7,0.8,1.7,1.7v1.1c0,0.9-0.8,1.7-1.7,1.7H561.3z"/>
		<path class="st6" d="M573.7,258.4c-0.5,0-0.9-0.4-0.9-0.9v-1.4c0-0.5,0.4-0.9,0.9-0.9h1.4c0.5,0,0.9,0.4,0.9,0.9v1.4
			c0,0.5-0.4,0.9-0.9,0.9H573.7z M573.7,257.9h1.4c0.2,0,0.3-0.1,0.3-0.3v-1.4c0-0.2-0.1-0.3-0.3-0.3h-1.4c-0.2,0-0.3,0.1-0.3,0.3
			v1.4C573.4,257.7,573.5,257.9,573.7,257.9z M579.5,255.3l-5.4,8.6h-0.7l5.4-8.6H579.5z M580.2,261.6v1.4c0,0.5-0.4,0.9-0.9,0.9
			H578c-0.5,0-0.9-0.4-0.9-0.9v-1.4c0-0.5,0.4-0.9,0.9-0.9h1.4C579.9,260.7,580.2,261.1,580.2,261.6z M579.7,261.6
			c0-0.2-0.1-0.3-0.3-0.3H578c-0.2,0-0.3,0.1-0.3,0.3v1.4c0,0.2,0.1,0.3,0.3,0.3h1.4c0.2,0,0.3-0.1,0.3-0.3V261.6z"/>
	</g>
</g>
</svg>
