<svg id="Layer_1" data-name="Layer 1" xmlns="http://www.w3.org/2000/svg" xmlns:xlink="http://www.w3.org/1999/xlink" viewBox="0 0 576 410">
  <defs>
    <style>
      .cls-1 {
        fill: none;
      }

      .cls-2 {
        clip-path: url(#clip-path);
      }

      .cls-14, .cls-17, .cls-22, .cls-3 {
        fill: #29abe2;
      }

      .cls-17, .cls-22, .cls-3 {
        stroke: #2e3192;
      }

      .cls-17, .cls-20, .cls-22, .cls-3 {
        stroke-miterlimit: 10;
      }

      .cls-3 {
        stroke-width: 0.52px;
      }

      .cls-4 {
        fill: #264865;
      }

      .cls-5 {
        fill: #065a81;
      }

      .cls-6 {
        fill: #0f9159;
      }

      .cls-7 {
        fill: #00ab61;
      }

      .cls-8 {
        fill: #00de7e;
      }

      .cls-9 {
        fill: #00c46f;
      }

      .cls-10 {
        fill: #232323;
      }

      .cls-11 {
        fill: #121310;
      }

      .cls-12 {
        fill: #0ccfeb;
      }

      .cls-13 {
        fill: #00edff;
      }

      .cls-15 {
        fill: #2e3192;
      }

      .cls-16 {
        fill: #548ea8;
      }

      .cls-17 {
        stroke-width: 0.42px;
      }

      .cls-18 {
        fill: #aa68aa;
      }

      .cls-19 {
        fill: #662d91;
      }

      .cls-20 {
        fill: #998008;
        stroke: #66420c;
        stroke-width: 1.53px;
      }

      .cls-21 {
        fill: #66420c;
      }

      .cls-22 {
        stroke-width: 0.4px;
      }

      .cls-23 {
        fill: #c6bb6d;
      }

      .cls-24 {
        fill: #998328;
      }

      .cls-25 {
        fill: #e2a569;
      }

      .cls-26 {
        fill: #c98039;
      }
    </style>
    <clipPath id="clip-path">
      <rect class="cls-1" x="-32" y="-84" width="638" height="494"/>
    </clipPath>
  </defs>
  <title>neotag_holdingunit</title>
  <g class="cls-2">
    <g>
      <path class="cls-3" d="M264.06,243.41c3.64-.64,29.13-8.94,28.89,17.3s-21.31,6.52-21.31,6.52-16.61-12-12.06-16.87S264.06,243.41,264.06,243.41Z"/>
      <g>
        <g>
          <rect class="cls-4" x="338.09" y="234.04" width="39.62" height="13.21" rx="1" transform="translate(129.18 606.27) rotate(-91.89)"/>
          <g>
            <rect class="cls-5" x="357.35" y="248.88" width="2.2" height="16.51" rx="0.88" transform="translate(113.25 623.86) rotate(-91.89)"/>
            <rect class="cls-5" x="357.24" y="245.58" width="2.2" height="16.51" rx="0.88" transform="translate(116.44 620.34) rotate(-91.89)"/>
            <rect class="cls-5" x="357.13" y="242.28" width="2.2" height="16.51" rx="0.88" transform="translate(119.62 616.82) rotate(-91.89)"/>
            <rect class="cls-5" x="357.02" y="238.98" width="2.2" height="16.51" rx="0.88" transform="translate(122.81 613.31) rotate(-91.89)"/>
            <rect class="cls-5" x="356.91" y="235.68" width="2.2" height="16.51" rx="0.88" transform="translate(125.99 609.79) rotate(-91.89)"/>
            <rect class="cls-5" x="356.8" y="232.38" width="2.2" height="16.51" rx="0.88" transform="translate(129.18 606.27) rotate(-91.89)"/>
            <rect class="cls-5" x="356.69" y="229.08" width="2.2" height="16.51" rx="0.88" transform="translate(132.37 602.76) rotate(-91.89)"/>
            <rect class="cls-5" x="356.59" y="225.79" width="2.2" height="16.51" rx="0.88" transform="translate(135.55 599.24) rotate(-91.89)"/>
            <rect class="cls-5" x="356.48" y="222.49" width="2.2" height="16.51" rx="0.88" transform="translate(138.74 595.72) rotate(-91.89)"/>
            <rect class="cls-5" x="356.37" y="219.19" width="2.2" height="16.51" rx="0.88" transform="translate(141.92 592.21) rotate(-91.89)"/>
            <rect class="cls-5" x="356.26" y="215.89" width="2.2" height="16.51" rx="0.88" transform="translate(145.11 588.69) rotate(-91.89)"/>
          </g>
        </g>
        <path class="cls-6" d="M356.73,220l-.22-6.59-17.19.56a1.1,1.1,0,0,1-1.14-1.06l.26,7.7a1.1,1.1,0,0,0,1.13,1.06l18.3-.6A1.11,1.11,0,0,1,356.73,220Z"/>
        <path class="cls-6" d="M336.33,156.85l.26,7.69a1.1,1.1,0,0,1,1.06-1.13l17.2-.57-.22-6.6a1.1,1.1,0,0,1,1.06-1.13l-18.29.6A1.11,1.11,0,0,0,336.33,156.85Z"/>
        <path class="cls-7" d="M354.63,156.24l.22,6.6-27.58.91a1.11,1.11,0,0,0-1.07,1.14l1.6,48.39a1.1,1.1,0,0,0,1.13,1.06l27.58-.9.22,6.59a1.11,1.11,0,0,0,1.14,1.07l6.6-.22,9.13-.3a1.11,1.11,0,0,0,1.07-1.14L373.76,192l-.29-8.8-.9-27.5a1.11,1.11,0,0,0-1.14-1.06l-9.14.3-6.6.22A1.1,1.1,0,0,0,354.63,156.24Z"/>
        <g>
          <path class="cls-8" d="M213.07,103.21l-20.16-.31a1.36,1.36,0,0,0-1.38,1.34l-.77,51.44a1.34,1.34,0,0,0,.38,1h0l21.68,19.21C211.86,155.63,211.69,131.43,213.07,103.21Z"/>
          <g>
            <path class="cls-1" d="M286,172.15l-4.15-2.57.74,22.56,4.15,2.69Z"/>
            <path class="cls-1" d="M293,177.34l-4.15-2.57.72,21.85,4.16,2.7Z"/>
            <path class="cls-1" d="M268,160.56,263.88,158l.74,22.59,4.15,2.65Z"/>
            <path class="cls-1" d="M299.88,181.18l-4.16-2.57.75,22.51,4.15,2.7Z"/>
            <path class="cls-1" d="M261.12,156.72,257,154.15l.73,22,4.15,2.62Z"/>
            <path class="cls-1" d="M254.18,151.53,250,149l.79,24.14a8.61,8.61,0,0,1,4.11,1.37Z"/>
            <path class="cls-8" d="M306,162s-58.46-46.84-67.76-41.11c-5.19,3.19-16.11,37.38-24.75,67a439.94,439.94,0,0,0,6,50c6.78-29.27,17.91-65.51,31.32-64.81L250,149l4.15,2.57.75,22.94,2.77,1.72-.73-22,4.15,2.57.73,22.09,2.77,1.76L263.88,158l4.15,2.58.74,22.66c4.21,2.7,8.89,5.71,13.85,8.92l-.74-22.56,4.15,2.57.74,22.68,2.77,1.79-.72-21.85,4.15,2.57.73,22,2.77,1.8-.75-22.51,4.16,2.57.74,22.64c9.58,6.24,19.39,12.65,28.39,18.55l-2.83-86.08a9.74,9.74,0,0,0-10.52-.33C314.55,167.69,306,162,306,162Z"/>
            <path class="cls-9" d="M300.86,211l-4.15-2.57-.24-7.26-2.77-1.8.25,7.8-4.15-2.58-.26-7.92-2.77-1.79.24,7.1-4.15-2.58-.24-7.21c-5-3.21-9.64-6.22-13.85-8.92l.24,7.11-4.15-2.58-.24-7.18-2.77-1.76.26,7.68L258,183.92l-.26-7.73-2.77-1.72.23,6.83L251,178.73l-.19-5.63c-13.41-.7-24.54,35.54-31.32,64.81,1.93,10.39,3.48,15.57,3.48,15.57,29.54,32.9,75.75,36.79,75.75,36.79,22.34-21,30.79-52.49,30.79-52.49L329,222.37c-9-5.9-18.81-12.31-28.39-18.55Zm5.43,20.82s4,6.55.53,16.24c-2.48,6.86-12,5.81-16.11,4.6-3.67-1.1-29-16.66-29-16.66s-23.41-11.42-19.93-29.15S255,196.88,255,196.88l22.2,15.53Z"/>
          </g>
          <path class="cls-10" d="M244,2.43c-3.67-.14-6.25-.05-6.25-.05S212,1.87,212.34,12.7s7.3,16,7.3,16c-3.41,27.36-5.47,52.18-6.57,74.5-1.38,28.22-1.21,52.42-.24,72.65q.28,6.25.68,12c8.64-29.59,19.56-63.78,24.75-67,2.2-1.36,7.14.23,13.4,3.43C237.91,76.56,242,21.52,244,2.43Z"/>
          <path class="cls-11" d="M315.66,136c-4.84,2.55-8.21,7.72-8.21,7.72s-30.05-7.14-32.07-27.39-9.06-28.15-9.06-28.15L263,27.28s6.63-4.28,6.28-15.1C269,4.46,253.09,2.76,244,2.43c-2,19.09-6.08,74.13,7.67,121.9C271.92,134.69,306,162,306,162S314.55,167.69,315.66,136Z"/>
        </g>
        <circle class="cls-12" cx="229.69" cy="98.38" r="7.42" transform="translate(-3.12 7.62) rotate(-1.89)"/>
        <circle class="cls-13" cx="228.25" cy="99.91" r="5.2" transform="translate(-3.17 7.57) rotate(-1.89)"/>
      </g>
      <g>
        <path class="cls-14" d="M259.64,295.7s-32.56-19-28.24-35c5.71-21.08,25.12-25.45,21.57-15.65s-7.38,14.45-7.38,14.45,31.35-5.2,35.81,18.22Z"/>
        <path class="cls-15" d="M259.65,295.76A99,99,0,0,1,249,289a78.33,78.33,0,0,1-9.64-8.12,38.62,38.62,0,0,1-7.63-10.22,17.37,17.37,0,0,1-1.73-6.36,12.05,12.05,0,0,1,.28-3.38,14.58,14.58,0,0,1,.41-1.58c.14-.51.3-1,.48-1.53a34.15,34.15,0,0,1,6.22-11.27,26.53,26.53,0,0,1,4.76-4.46,17.37,17.37,0,0,1,6-2.91,6.91,6.91,0,0,1,3.72,0,3.8,3.8,0,0,1,1.83,1.26,3.86,3.86,0,0,1,.76,2.06,7.45,7.45,0,0,1-.75,3.52c-.39,1-.81,2-1.25,2.92a51,51,0,0,1-3,5.59,29.86,29.86,0,0,1-3.86,5h0l-.07-.11a52.75,52.75,0,0,1,11.16-.34,38.44,38.44,0,0,1,10.91,2.32,26.81,26.81,0,0,1,5,2.55,20.46,20.46,0,0,1,8.85,13.74v0l0,0Zm0-.13,21.72-18,0,.07a21.56,21.56,0,0,0-4.65-10,21.09,21.09,0,0,0-4.15-3.68,26.25,26.25,0,0,0-5-2.53,38.1,38.1,0,0,0-10.87-2.32,52.34,52.34,0,0,0-11.12.34l-.17,0,.1-.13h0a78.06,78.06,0,0,0,5.15-11.3c.35-1,.72-1.93,1-2.91a12.55,12.55,0,0,0,.41-1.36l.1-.63c0-.19,0-.39,0-.57a1.34,1.34,0,0,0-1.05-1.28,4.77,4.77,0,0,0-2.46,0,15.2,15.2,0,0,0-5.19,2.51,24.38,24.38,0,0,0-4.38,4.06,33,33,0,0,0-6,10.48c-.18.47-.33.95-.48,1.44s-.33,1-.4,1.44a10.43,10.43,0,0,0-.29,2.84,15.37,15.37,0,0,0,1.38,5.69,37,37,0,0,0,7,10A110.37,110.37,0,0,0,259.64,295.63Z"/>
      </g>
      <g>
        <g>
          <ellipse class="cls-14" cx="259.49" cy="231.46" rx="9.93" ry="8.72" transform="translate(-34.81 416.66) rotate(-73.91)"/>
          <path class="cls-15" d="M262.52,220.93a9,9,0,0,1,5.66,5.46,11.31,11.31,0,0,1,.11,7.61,11.13,11.13,0,0,1-4.48,5.88,8.28,8.28,0,0,1-12.43-3.6,11.18,11.18,0,0,1-.65-7.33,11.37,11.37,0,0,1,4.11-6.37A9.18,9.18,0,0,1,262.52,220.93Zm-.57,2a7.39,7.39,0,0,0-6.28.88,10.3,10.3,0,0,0-4,12.37,8,8,0,0,0,5.12,4.77,7.65,7.65,0,0,0,3.59.12,8.7,8.7,0,0,0,3.27-1.46,10.38,10.38,0,0,0,3.82-5.85,10.22,10.22,0,0,0-.68-6.74A7.53,7.53,0,0,0,262,222.92Z"/>
        </g>
        <g>
          <ellipse class="cls-14" cx="272.56" cy="236.44" rx="9.93" ry="8.72" transform="translate(-30.14 432.82) rotate(-73.91)"/>
          <path class="cls-15" d="M275.59,225.91a9,9,0,0,1,5.66,5.46,11.45,11.45,0,0,1-4.36,13.48,8.29,8.29,0,0,1-12.44-3.59,11.14,11.14,0,0,1-.64-7.34,11.26,11.26,0,0,1,4.11-6.36A9.13,9.13,0,0,1,275.59,225.91Zm-.57,2a7.37,7.37,0,0,0-6.27.88,10.2,10.2,0,0,0-4.19,5.37,10.36,10.36,0,0,0,.15,7,8,8,0,0,0,5.13,4.76,7.65,7.65,0,0,0,3.59.13,8.57,8.57,0,0,0,3.27-1.47,10.37,10.37,0,0,0,3.82-5.84,10.2,10.2,0,0,0-.69-6.75A7.53,7.53,0,0,0,275,227.89Z"/>
        </g>
        <g>
          <ellipse class="cls-14" cx="281.94" cy="242.91" rx="8.7" ry="7.64" transform="matrix(0.28, -0.96, 0.96, 0.28, -29.58, 446.51)"/>
          <path class="cls-15" d="M284.63,233.55a8,8,0,0,1,5,4.88,10,10,0,0,1,.06,6.72,9.77,9.77,0,0,1-4,5.15,7.29,7.29,0,0,1-10.93-3.16,10.15,10.15,0,0,1,3-12.09A8.15,8.15,0,0,1,284.63,233.55Zm-.57,2a6.35,6.35,0,0,0-5.41.73A8.92,8.92,0,0,0,275.08,247a7,7,0,0,0,4.48,4.18,6.8,6.8,0,0,0,3.14.11,7.88,7.88,0,0,0,2.86-1.29,9.08,9.08,0,0,0,3.3-5.13,8.83,8.83,0,0,0-.63-5.86A6.52,6.52,0,0,0,284.06,235.54Z"/>
        </g>
        <g>
          <ellipse class="cls-14" cx="291.43" cy="249.18" rx="7.27" ry="6.39" transform="translate(-28.74 460.16) rotate(-73.91)"/>
          <path class="cls-15" d="M293.73,241.2a6.82,6.82,0,0,1,4.26,4.19,8.57,8.57,0,0,1-3.36,10,6.15,6.15,0,0,1-9.18-2.65,8.52,8.52,0,0,1-.53-5.42,8.34,8.34,0,0,1,3-4.79A6.93,6.93,0,0,1,293.73,241.2Zm-.57,2a5.15,5.15,0,0,0-4.41.54,7.37,7.37,0,0,0-3,8.89,5.57,5.57,0,0,0,8.72,2.49,7.4,7.4,0,0,0,2.13-9.11A5.33,5.33,0,0,0,293.16,243.19Z"/>
        </g>
      </g>
      <g>
        <path class="cls-16" d="M330.06,363.06a287.86,287.86,0,0,0,.06-37.84,145.56,145.56,0,0,0-2.38-18.59,78.16,78.16,0,0,0-2.33-8.94,48.23,48.23,0,0,0-3.52-8.3,22.35,22.35,0,0,0-5.38-6.62,13.82,13.82,0,0,0-3.51-2.06,12.74,12.74,0,0,0-1.93-.61l-.51-.11-.57-.09-1.14-.2a66.55,66.55,0,0,0-18.54-.6,71.16,71.16,0,0,0-26.72,8.49,57.46,57.46,0,0,0-7.86,5.15l.07,121.83,68.27-2.25c.71-3.82,1.37-7.64,1.95-11.49C327.92,388.31,329.34,375.7,330.06,363.06Z"/>
        <path class="cls-15" d="M289.83,275.58a69,69,0,0,0-18.59,5.93,61.59,61.59,0,0,0-16,10.91h0l-.08.08v.11l.12,122h.24l-.1-122S277.3,272,311,277.7c28.42,4.81,26.11,83.64,16.13,134.52l3.05-.1q1.05-5.14,1.94-10.3c1.12-6.34,2-12.73,2.72-19.12s1.31-12.81,1.73-19.24.6-12.88.6-19.34-.23-12.92-.76-19.39a145.19,145.19,0,0,0-2.91-19.34c-1.49-6.38-3.44-12.8-7-18.69a27.39,27.39,0,0,0-7-7.88,19.23,19.23,0,0,0-4.84-2.58,18.65,18.65,0,0,0-2.66-.72l-.67-.11-.62-.08-1.22-.15A70.42,70.42,0,0,0,289.83,275.58Z"/>
        <path class="cls-15" d="M255.73,292.74l-.08.06h0l.08-.19v.13a57.46,57.46,0,0,1,7.86-5.15,71.16,71.16,0,0,1,26.72-8.49,66.55,66.55,0,0,1,18.54.6l1.14.2.57.09.51.11a12.74,12.74,0,0,1,1.93.61,13.82,13.82,0,0,1,3.51,2.06,22.35,22.35,0,0,1,5.38,6.62,48.23,48.23,0,0,1,3.52,8.3,78.16,78.16,0,0,1,2.33,8.94,145.56,145.56,0,0,1,2.38,18.59,287.86,287.86,0,0,1-.06,37.84c-.72,12.64-2.14,25.25-4,37.77-.58,3.85-1.24,7.67-1.95,11.49l3-.1c10-50.88,12.29-129.71-16.13-134.52-33.68-5.69-55.51,14.91-55.51,14.91l.1,122h.23Z"/>
        <path class="cls-15" d="M255.65,292.8h0l.08-.06v-.13Z"/>
      </g>
    </g>
    <g>
      <path class="cls-17" d="M504,303.29c-2.86-.77-22.61-9.22-24.3,11.74s16.54,6.73,16.54,6.73,14.12-8.39,10.84-12.6S504,303.29,504,303.29Z"/>
      <g>
        <g>
          <rect class="cls-4" x="413.46" y="289.06" width="31.75" height="10.59" rx="1" transform="translate(84.72 684.5) rotate(-82.98)"/>
          <g>
            <rect class="cls-5" x="426.83" y="300.87" width="1.76" height="13.23" rx="0.88" transform="translate(70.27 694.42) rotate(-82.98)"/>
            <rect class="cls-5" x="427.16" y="298.24" width="1.76" height="13.23" rx="0.88" transform="translate(73.16 692.43) rotate(-82.98)"/>
            <rect class="cls-5" x="427.48" y="295.61" width="1.76" height="13.23" rx="0.88" transform="translate(76.05 690.45) rotate(-82.98)"/>
            <rect class="cls-5" x="427.8" y="292.99" width="1.76" height="13.23" rx="0.88" transform="translate(78.94 688.46) rotate(-82.98)"/>
            <rect class="cls-5" x="428.13" y="290.36" width="1.76" height="13.23" rx="0.88" transform="translate(81.83 686.48) rotate(-82.98)"/>
            <rect class="cls-5" x="428.45" y="287.74" width="1.76" height="13.23" rx="0.88" transform="translate(84.72 684.5) rotate(-82.98)"/>
            <rect class="cls-5" x="428.77" y="285.11" width="1.76" height="13.23" rx="0.88" transform="translate(87.61 682.51) rotate(-82.98)"/>
            <rect class="cls-5" x="429.1" y="282.48" width="1.76" height="13.23" rx="0.88" transform="translate(90.5 680.53) rotate(-82.98)"/>
            <rect class="cls-5" x="429.42" y="279.86" width="1.76" height="13.23" rx="0.88" transform="translate(93.39 678.54) rotate(-82.98)"/>
            <rect class="cls-5" x="429.74" y="277.23" width="1.76" height="13.23" rx="0.88" transform="translate(96.28 676.56) rotate(-82.98)"/>
            <rect class="cls-5" x="430.07" y="274.61" width="1.76" height="13.23" rx="0.88" transform="translate(99.17 674.58) rotate(-82.98)"/>
          </g>
        </g>
        <path class="cls-6" d="M431.75,278l.64-5.25,13.69,1.68a.88.88,0,0,0,1-.77l-.75,6.13a.89.89,0,0,1-1,.77l-14.56-1.79A.89.89,0,0,0,431.75,278Z"/>
        <path class="cls-6" d="M452.56,229l-.76,6.13a.88.88,0,0,0-.77-1l-13.68-1.69.65-5.25a.89.89,0,0,0-.77-1L451.79,228A.89.89,0,0,1,452.56,229Z"/>
        <path class="cls-7" d="M438,227.22l-.65,5.25,21.95,2.71a.89.89,0,0,1,.77,1l-4.74,38.51a.89.89,0,0,1-1,.77l-21.95-2.7-.64,5.25a.89.89,0,0,1-1,.77l-5.25-.65-7.27-.9a.88.88,0,0,1-.77-1l2.69-21.88.87-7,2.69-21.89a.88.88,0,0,1,1-.76l7.27.89,5.26.65A.89.89,0,0,1,438,227.22Z"/>
        <g>
          <path class="cls-8" d="M554.79,195l16.12,1.21a1.09,1.09,0,0,1,1,1.16l-3.07,41.12a1.1,1.1,0,0,1-.37.74h0L549.78,253C552,237,553.87,217.66,554.79,195Z"/>
          <g>
            <path class="cls-1" d="M491.61,244.84l3.5-1.76L492.9,261l-3.51,1.85Z"/>
            <path class="cls-1" d="M485.7,248.48l3.49-1.75-2.14,17.39L483.54,266Z"/>
            <path class="cls-1" d="M506.81,236.87l3.5-1.75-2.21,18-3.51,1.82Z"/>
            <path class="cls-1" d="M479.91,251.05l3.5-1.75-2.21,17.91-3.51,1.86Z"/>
            <path class="cls-1" d="M512.6,234.3l3.49-1.75-2.16,17.54-3.5,1.8Z"/>
            <path class="cls-1" d="M518.51,230.66l3.5-1.76-2.36,19.22a6.86,6.86,0,0,0-3.38.8Z"/>
            <path class="cls-8" d="M476.38,235.31s50-33.2,57-28c3.92,2.92,10.18,31,15,55.23A352.16,352.16,0,0,1,540,302.09c-3.31-23.84-9.6-53.57-20.35-54L522,228.9l-3.5,1.76-2.24,18.26-2.34,1.17,2.16-17.54-3.49,1.75-2.17,17.59-2.33,1.2,2.21-18-3.5,1.75-2.22,18L492.9,261l2.21-17.95-3.5,1.76-2.22,18-2.34,1.24,2.14-17.39-3.49,1.75L483.54,266l-2.34,1.24,2.21-17.91-3.5,1.75-2.22,18c-8.09,4.29-16.38,8.71-24,12.77l8.44-68.51a7.78,7.78,0,0,1,8.41.5C469.16,239.23,476.38,235.31,476.38,235.31Z"/>
            <path class="cls-9" d="M477.69,269.07c-8.09,4.29-16.38,8.71-24,12.77l-1.51,12.26s4.49,25.7,20.82,44.11c0,0,37.16.2,63.1-23.93,0,0,1.6-4,3.89-12.19-3.31-23.84-9.6-53.57-20.35-54l-.56,4.48-3.49,1.75.67-5.43-2.34,1.17-.75,6.15-3.5,1.76.75-6.11-2.33,1.2-.71,5.72-3.49,1.76.69-5.66L492.9,261l-.71,5.75-3.49,1.75.69-5.65-2.34,1.24-.77,6.3-3.5,1.76.76-6.21-2.34,1.24-.71,5.78L477,274.75Zm18.09,8.54,18.83-10.81s8.34-5.53,9.85,8.87-18,21.84-18,21.84-21.34,10.6-24.35,11.21c-3.37.68-11,.83-12.53-4.82-2.11-8,1.59-12.93,1.59-12.93Z"/>
          </g>
          <path class="cls-11" d="M537.34,112.38c2.94.15,5,.4,5,.4s20.61,1.45,19.54,10.06-7,12.26-7,12.26c.76,22.09.63,42-.1,59.93-.92,22.63-2.79,41.94-5,58q-.69,5-1.41,9.54c-4.78-24.24-11-52.31-15-55.23-1.65-1.24-5.71-.33-10.94,1.78C536.87,172,537.58,127.76,537.34,112.38Z"/>
          <path class="cls-10" d="M470.55,213.83a20.78,20.78,0,0,1,6,6.74S501.05,217,504.12,201s9.25-21.82,9.25-21.82l7-48.33s-5-3.9-3.93-12.51c.76-6.14,13.57-6.36,20.86-6,.24,15.38-.47,59.61-14.87,96.75-16.91,6.82-46.09,26.18-46.09,26.18S469.16,239.23,470.55,213.83Z"/>
        </g>
        <circle class="cls-12" cx="541.87" cy="189.99" r="5.95" transform="translate(287.08 704.58) rotate(-82.98)"/>
        <circle class="cls-13" cx="542.91" cy="191.32" r="4.16" transform="translate(286.68 706.77) rotate(-82.98)"/>
      </g>
      <g>
        <path class="cls-18" d="M503.82,345.35s27.36-12.86,25.05-25.92c-3-17.23-18.23-22.11-16.09-14s4.85,12.07,4.85,12.07-24.65-6.4-29.89,12Z"/>
        <path class="cls-19" d="M503.82,345.29a87.74,87.74,0,0,0,16.45-11.23,30.6,30.6,0,0,0,6.29-7.47,12.29,12.29,0,0,0,1.51-4.42,10.16,10.16,0,0,0-.25-3.45c-.08-.4-.16-.8-.27-1.19a26.34,26.34,0,0,0-4-8.76,19.64,19.64,0,0,0-3.19-3.55,12,12,0,0,0-3.94-2.36,3.87,3.87,0,0,0-1.94-.2,1,1,0,0,0-.89.9,5.06,5.06,0,0,0,.22,2.06c.18.81.4,1.6.62,2.4a64.53,64.53,0,0,0,3.25,9.4h0l.07.11-.13,0a41.92,41.92,0,0,0-8.86-1.07,30.35,30.35,0,0,0-8.84,1.07,21.1,21.1,0,0,0-4.13,1.66,16.31,16.31,0,0,0-8,10.28v-.06Zm0,.11L487.7,329.47l0,0v0a17.38,17.38,0,0,1,4.45-7.68,17.07,17.07,0,0,1,3.6-2.65,21.61,21.61,0,0,1,4.15-1.68,30.55,30.55,0,0,1,8.87-1.07,42.28,42.28,0,0,1,8.89,1.07l-.06.09h0a23.4,23.4,0,0,1-2.74-4.28,40.18,40.18,0,0,1-2-4.67c-.28-.8-.55-1.61-.79-2.42a5.9,5.9,0,0,1-.35-2.89,3,3,0,0,1,2.35-2.5,5.61,5.61,0,0,1,3,.24,14.13,14.13,0,0,1,4.61,2.78,21.57,21.57,0,0,1,3.49,3.91,27.48,27.48,0,0,1,4.16,9.45c.11.42.19.84.27,1.27a12.37,12.37,0,0,1,.22,1.29,10,10,0,0,1,0,2.73,14,14,0,0,1-1.84,5,30.44,30.44,0,0,1-6.84,7.62,64.45,64.45,0,0,1-8.3,5.77A77.46,77.46,0,0,1,503.81,345.4Z"/>
      </g>
      <g>
        <g>
          <ellipse class="cls-18" cx="508.55" cy="294.08" rx="6.99" ry="7.95" transform="translate(-46.61 101.99) rotate(-10.95)"/>
          <path class="cls-19" d="M507.23,287.25a5.91,5.91,0,0,0-4.06,2.82,8.12,8.12,0,0,0-1.07,5.26,8.29,8.29,0,0,0,2.58,4.93,7,7,0,0,0,2.49,1.41,6.19,6.19,0,0,0,2.87.16,6.35,6.35,0,0,0,4.41-3.44,8.18,8.18,0,0,0,.58-5.56,8,8,0,0,0-3-4.5A5.75,5.75,0,0,0,507.23,287.25Zm-.38-2a7.48,7.48,0,0,1,6.12,1.95,9.14,9.14,0,0,1,2.81,5.45,9,9,0,0,1-1.09,5.83,6.68,6.68,0,0,1-10.22,2,9.31,9.31,0,0,1-2.61-11.16A7.37,7.37,0,0,1,506.85,285.29Z"/>
        </g>
        <g>
          <ellipse class="cls-18" cx="497.75" cy="297.12" rx="6.99" ry="7.95" transform="translate(-47.39 99.99) rotate(-10.95)"/>
          <path class="cls-19" d="M496.43,290.28a5.91,5.91,0,0,0-4.05,2.82,8.06,8.06,0,0,0-1.07,5.26,8.2,8.2,0,0,0,2.58,4.93,7,7,0,0,0,2.49,1.41,6.05,6.05,0,0,0,2.87.16,6.34,6.34,0,0,0,4.41-3.43,8.18,8.18,0,0,0,.58-5.56,8,8,0,0,0-3-4.51A5.8,5.8,0,0,0,496.43,290.28Zm-.37-1.95a7.46,7.46,0,0,1,6.11,1.94,9.33,9.33,0,0,1,1.73,11.29,6.69,6.69,0,0,1-10.22,2,9,9,0,0,1-3.21-5,9.12,9.12,0,0,1,.6-6.13A7.3,7.3,0,0,1,496.06,288.33Z"/>
        </g>
        <g>
          <ellipse class="cls-18" cx="489.8" cy="301.61" rx="6.13" ry="6.97" transform="translate(-48.39 98.56) rotate(-10.95)"/>
          <path class="cls-19" d="M488.67,295.74a5.11,5.11,0,0,0-3.5,2.39,7.09,7.09,0,0,0,1.25,8.88,5.36,5.36,0,0,0,8.55-1.63,7.1,7.1,0,0,0-2.14-8.75A5,5,0,0,0,488.67,295.74Zm-.38-2a6.66,6.66,0,0,1,5.44,1.76,8.06,8.06,0,0,1,2.46,4.84,8.18,8.18,0,0,1-1,5.13,5.89,5.89,0,0,1-9,1.75,8.21,8.21,0,0,1-2.36-9.84A6.56,6.56,0,0,1,488.29,293.78Z"/>
        </g>
        <g>
          <ellipse class="cls-18" cx="481.78" cy="305.94" rx="5.12" ry="5.83" transform="translate(-49.35 97.12) rotate(-10.95)"/>
          <path class="cls-19" d="M480.86,301.19a4.12,4.12,0,0,0-2.84,1.9,5.83,5.83,0,0,0,1,7.34,4.57,4.57,0,0,0,3.9,1.16,4.52,4.52,0,0,0,3.2-2.51,5.81,5.81,0,0,0-1.84-7.21A4,4,0,0,0,480.86,301.19Zm-.37-1.95a5.72,5.72,0,0,1,4.65,1.53,7,7,0,0,1,1.17,8.44,5,5,0,0,1-7.54,1.47,6.92,6.92,0,0,1-2.06-8.3A5.53,5.53,0,0,1,480.49,299.24Z"/>
        </g>
      </g>
      <g>
        <path class="cls-20" d="M442.78,394.07a230.34,230.34,0,0,1,2.67-30.21,114.38,114.38,0,0,1,3.23-14.67,63.38,63.38,0,0,1,2.5-7,38,38,0,0,1,3.41-6.37,17.84,17.84,0,0,1,4.76-4.91,11.37,11.37,0,0,1,2.95-1.39,10.71,10.71,0,0,1,1.59-.34l.41,0,.46,0,.93-.07a53.25,53.25,0,0,1,14.84.85,54.72,54.72,0,0,1,14.18,4.86,55.6,55.6,0,0,1,6.54,3.83,45.85,45.85,0,0,1,5.9,4.67l-8.79,97.24L444,433.81c-.3-3.09-.54-6.2-.73-9.3C442.68,414.38,442.45,404.21,442.78,394.07Z"/>
        <path class="cls-21" d="M481.16,327.12a55.09,55.09,0,0,1,14.42,6.07A49.31,49.31,0,0,1,507.52,343h0l.06.07v.09l-8.85,97.35-.18,0,8.82-97.35a54.77,54.77,0,0,0-43.24-15.88c-23,1.8-26.84,64.89-22.52,106.21l-2.43-.29c-.31-2.79-.58-5.57-.81-8.36-.43-5.15-.66-10.3-.8-15.46s-.13-10.32,0-15.48.45-10.33.91-15.48,1.11-10.3,2-15.43a114.41,114.41,0,0,1,3.71-15.22,50.29,50.29,0,0,1,6.93-14.42,22.14,22.14,0,0,1,6.12-5.79,15.27,15.27,0,0,1,4.05-1.71,13.32,13.32,0,0,1,2.17-.38l.55-.05.49,0,1,0A56.9,56.9,0,0,1,481.16,327.12Z"/>
        <path class="cls-21" d="M507.15,343.26l.06.06h0l0-.16v.1a45.85,45.85,0,0,0-5.9-4.67,55.6,55.6,0,0,0-6.54-3.83,54.72,54.72,0,0,0-14.18-4.86,53.25,53.25,0,0,0-14.84-.85l-.93.07-.46,0-.41,0a10.71,10.71,0,0,0-1.59.34,11.37,11.37,0,0,0-2.95,1.39,17.84,17.84,0,0,0-4.76,4.91,38,38,0,0,0-3.41,6.37,63.38,63.38,0,0,0-2.5,7,114.38,114.38,0,0,0-3.23,14.67,230.34,230.34,0,0,0-2.67,30.21c-.33,10.14-.1,20.31.52,30.44.19,3.1.43,6.21.73,9.3l-2.42-.3c-4.32-41.32-.51-104.41,22.52-106.21a54.77,54.77,0,0,1,43.24,15.88l-8.82,97.35-.19,0Z"/>
        <path class="cls-15" d="M507.21,343.32h0l-.06-.06v-.1Z"/>
      </g>
    </g>
    <g>
      <path class="cls-22" d="M70.6,308.24c2.72-.77,21.45-9,23.25,10.94s-15.68,6.57-15.68,6.57-13.53-7.86-10.44-11.89S70.6,308.24,70.6,308.24Z"/>
      <g>
        <g>
          <rect class="cls-4" x="126.53" y="293.97" width="30.24" height="10.08" rx="1" transform="translate(-136.02 478.93) rotate(-97.59)"/>
          <g>
            <rect class="cls-5" x="142.48" y="305.2" width="1.68" height="12.6" rx="0.82" transform="matrix(-0.13, -0.99, 0.99, -0.13, -146.52, 494.72)"/>
            <rect class="cls-5" x="142.15" y="302.7" width="1.68" height="12.6" rx="0.82" transform="translate(-144.42 491.56) rotate(-97.59)"/>
            <rect class="cls-5" x="141.81" y="300.21" width="1.68" height="12.6" rx="0.82" transform="translate(-142.32 488.41) rotate(-97.59)"/>
            <rect class="cls-5" x="141.48" y="297.71" width="1.68" height="12.6" rx="0.82" transform="translate(-140.22 485.25) rotate(-97.59)"/>
            <rect class="cls-5" x="141.15" y="295.21" width="1.68" height="12.6" rx="0.82" transform="translate(-138.12 482.09) rotate(-97.59)"/>
            <rect class="cls-5" x="140.81" y="292.71" width="1.68" height="12.6" rx="0.82" transform="translate(-136.02 478.93) rotate(-97.59)"/>
            <rect class="cls-5" x="140.48" y="290.21" width="1.68" height="12.6" rx="0.82" transform="translate(-133.92 475.77) rotate(-97.59)"/>
            <rect class="cls-5" x="140.15" y="287.72" width="1.68" height="12.6" rx="0.82" transform="translate(-131.82 472.62) rotate(-97.59)"/>
            <rect class="cls-5" x="139.81" y="285.22" width="1.68" height="12.6" rx="0.82" transform="translate(-129.72 469.46) rotate(-97.59)"/>
            <rect class="cls-5" x="139.48" y="282.72" width="1.68" height="12.6" rx="0.82" transform="translate(-127.62 466.3) rotate(-97.59)"/>
            <rect class="cls-5" x="139.15" y="280.22" width="1.68" height="12.6" rx="0.82" transform="translate(-125.52 463.14) rotate(-97.59)"/>
          </g>
        </g>
        <path class="cls-6" d="M139.2,283.45l-.67-5-13,1.74a.84.84,0,0,1-.94-.72l.77,5.83a.85.85,0,0,0,1,.72l13.84-1.85A.84.84,0,0,1,139.2,283.45Z"/>
        <path class="cls-6" d="M118.92,237l.77,5.83a.84.84,0,0,1,.72-.94l13-1.74-.67-5a.85.85,0,0,1,.72-.95l-13.84,1.85A.83.83,0,0,0,118.92,237Z"/>
        <path class="cls-7" d="M132.76,235.16l.67,5-20.88,2.78a.86.86,0,0,0-.72.95l4.89,36.63a.84.84,0,0,0,.94.73l20.87-2.79.67,5a.84.84,0,0,0,.94.72l5-.66,6.91-.93a.84.84,0,0,0,.72-.94L150,260.82l-.89-6.66-2.77-20.81a.85.85,0,0,0-1-.73l-6.91.93-5,.66A.85.85,0,0,0,132.76,235.16Z"/>
        <g>
          <path class="cls-8" d="M21.25,205.61l-15.33,1.3A1,1,0,0,0,5,208l3.32,39.13a1,1,0,0,0,.36.7h0l17.92,12.95C24.31,245.52,22.35,227.15,21.25,205.61Z"/>
          <g>
            <path class="cls-1" d="M81.88,252.45l-3.35-1.64,2.28,17.07,3.36,1.73Z"/>
            <path class="cls-1" d="M87.55,255.86l-3.35-1.64,2.21,16.54,3.35,1.74Z"/>
            <path class="cls-1" d="M67.33,245,64,243.36l2.28,17.1,3.36,1.7Z"/>
            <path class="cls-1" d="M93.08,258.25l-3.35-1.64,2.27,17,3.36,1.74Z"/>
            <path class="cls-1" d="M61.8,242.61,58.45,241l2.23,16.69L64,259.34Z"/>
            <path class="cls-1" d="M56.13,239.19l-3.35-1.63,2.44,18.27a6.58,6.58,0,0,1,3.23.73Z"/>
            <path class="cls-8" d="M96.29,243.23s-47.94-31.15-54.57-26.1C38,220,32.33,246.75,28,269.88a333.8,333.8,0,0,0,8.35,37.55c2.92-22.74,8.62-51.11,18.86-51.6l-2.44-18.27,3.35,1.63,2.32,17.37,2.23,1.1L58.45,241l3.35,1.64L64,259.34l2.23,1.12L64,243.36,67.33,245l2.29,17.16c3.4,1.73,7.18,3.66,11.19,5.72l-2.28-17.07,3.35,1.64,2.29,17.16c.74.38,1.48.77,2.24,1.15L84.2,254.22l3.35,1.64,2.21,16.64L92,273.65l-2.27-17,3.35,1.64,2.28,17.14c7.75,4,15.69,8.14,23,11.93l-8.69-65.16a7.41,7.41,0,0,0-8,.55C103.2,246.89,96.29,243.23,96.29,243.23Z"/>
            <path class="cls-9" d="M96.08,280.79l-3.34-1.64-.74-5.5-2.24-1.15.79,5.9-3.34-1.64-.8-6c-.76-.38-1.5-.77-2.24-1.15l.71,5.37-3.34-1.64-.73-5.46c-4-2.06-7.79-4-11.19-5.72l.72,5.38L67,265.9l-.73-5.44L64,259.34l.77,5.81-3.34-1.64-.78-5.85-2.23-1.1.68,5.17-3.34-1.64-.57-4.26c-10.24.49-15.94,28.86-18.86,51.6,2.25,7.76,3.82,11.57,3.82,11.57,24.93,22.75,60.31,22.2,60.31,22.2,15.36-17.69,19.4-42.21,19.4-42.21l-1.56-11.67c-7.28-3.79-15.22-7.92-23-11.93Zm5.71,15.4s3.57,4.66,1.64,12.29c-1.37,5.4-8.68,5.33-11.89,4.72-2.87-.55-23.29-10.45-23.29-10.45s-18.64-6.9-17.35-20.63,9.29-8.54,9.29-8.54l18,10.11Z"/>
          </g>
          <path class="cls-10" d="M37.07,126.72c-2.79.17-4.74.43-4.74.43s-19.6,1.57-18.51,9.77a16.38,16.38,0,0,0,6.76,11.61c-.51,21-.19,40,.67,57.08,1.1,21.54,3.06,39.91,5.33,55.2.47,3.15.94,6.18,1.43,9.07,4.32-23.13,10-49.93,13.71-52.75,1.57-1.19,5.44-.36,10.44,1.6C38.09,183.48,37,141.37,37.07,126.72Z"/>
          <path class="cls-11" d="M101.63,222.71A19.71,19.71,0,0,0,96,229.19s-23.35-3.14-26.43-18.37-9-20.7-9-20.7l-7.17-46s4.71-3.76,3.62-11.95c-.78-5.85-13-5.93-19.92-5.49-.08,14.65,1,56.76,15.09,92,16.16,6.33,44.13,24.5,44.13,24.5S103.2,246.89,101.63,222.71Z"/>
        </g>
        <circle class="cls-12" cx="33.5" cy="200.68" r="5.66"/>
        <circle class="cls-13" cx="32.53" cy="201.95" r="3.96"/>
      </g>
      <g>
        <path class="cls-23" d="M71.22,348.29s-26.17-12-24.1-24.45c2.74-16.44,17.15-21.23,15.19-13.52s-4.51,11.54-4.51,11.54S81.21,315.53,86.38,333Z"/>
        <path class="cls-24" d="M71.23,348.33A77.3,77.3,0,0,1,62.68,344a60.83,60.83,0,0,1-7.92-5.45,29.46,29.46,0,0,1-6.53-7.18,12.91,12.91,0,0,1-1.78-4.67,9.15,9.15,0,0,1-.05-2.56,11.32,11.32,0,0,1,.19-1.23c.08-.4.15-.8.25-1.2a26.19,26.19,0,0,1,3.86-9A20.63,20.63,0,0,1,54,308.94a13.24,13.24,0,0,1,4.32-2.65,5.09,5.09,0,0,1,2.77-.26,2.74,2.74,0,0,1,1.43.78,3,3,0,0,1,.72,1.46,5.69,5.69,0,0,1-.3,2.69q-.33,1.16-.72,2.31a31.12,31.12,0,0,1-4.34,8.61h0l-.05-.07a40.1,40.1,0,0,1,8.45-1.1,29,29,0,0,1,8.45.93,20.86,20.86,0,0,1,4,1.56A15.71,15.71,0,0,1,86.42,333v0l0,0Zm0-.09,15.13-15.3V333a15.59,15.59,0,0,0-7.72-9.71,20.25,20.25,0,0,0-4-1.55,28.88,28.88,0,0,0-8.43-.93,39.27,39.27,0,0,0-8.43,1.1l-.1,0,0-.09h0a57.93,57.93,0,0,0,3.13-8.95c.2-.77.4-1.53.58-2.3a4.91,4.91,0,0,0,.19-2,1.12,1.12,0,0,0-1-1,3.8,3.8,0,0,0-1.93.21A11.85,11.85,0,0,0,55,310.11a18.78,18.78,0,0,0-3,3.44A25,25,0,0,0,48.23,322a21.17,21.17,0,0,0-.45,2.27,8.1,8.1,0,0,0,0,2.2,12,12,0,0,0,1.5,4.25,28.24,28.24,0,0,0,6.1,7.06A83.44,83.44,0,0,0,71.22,348.24Z"/>
      </g>
      <g>
        <path class="cls-25" d="M80.19,469.08,61.35,350.73s21.48-21.77,47.49-20S136,416.5,128.48,450.92,80.19,469.08,80.19,469.08Z"/>
        <path class="cls-26" d="M80,469.27c-2-9.54-3.86-19.26-5.71-29s-3.62-19.62-5.38-29.5S65.41,390.94,63.8,381l-1.22-7.46c-.4-2.49-.84-5-1.16-7.48a64.78,64.78,0,0,1-.37-15.26l0-.23.05,0h0a75.28,75.28,0,0,1,11.71-9.66,76.08,76.08,0,0,1,13.4-7.28,54.83,54.83,0,0,1,14.85-3.87,50,50,0,0,1,7.74-.24,13.85,13.85,0,0,1,7.67,2.88,23.38,23.38,0,0,1,5.37,5.92,41.16,41.16,0,0,1,3.63,6.92A88.28,88.28,0,0,1,130,359.88a191.55,191.55,0,0,1,3.82,30.21,293,293,0,0,1-.06,30.37c-.3,5.06-.71,10.11-1.31,15.14a145.61,145.61,0,0,1-2.46,15,32.1,32.1,0,0,1-6.58,14.13,24,24,0,0,1-6.05,5.09,27.51,27.51,0,0,1-7.27,2.93,42.16,42.16,0,0,1-15.34.47,65.13,65.13,0,0,1-7.48-1.5c-1.22-.33-2.44-.69-3.64-1.09l-1.8-.63-.89-.33-.44-.18-.22-.09-.12-.05A1,1,0,0,1,80,469.27Zm.47-.38c9.2,2.81,19.75,4.54,29.17,1.92a25.14,25.14,0,0,0,6.61-2.87,21.36,21.36,0,0,0,5.33-4.74,29.5,29.5,0,0,0,5.67-13.15,209.67,209.67,0,0,0,3.25-29.76,294.7,294.7,0,0,0-.08-30,195.24,195.24,0,0,0-3.58-29.69,85.67,85.67,0,0,0-4.13-14.22,44.87,44.87,0,0,0-3.24-6.51,20.78,20.78,0,0,0-4.56-5.36,11.18,11.18,0,0,0-6.19-2.52,47.33,47.33,0,0,0-7.34,0,56.47,56.47,0,0,0-14.39,3.34A74,74,0,0,0,73.56,342a83.93,83.93,0,0,0-12,9h0l.08-.26A63.25,63.25,0,0,1,66,365c.46,2.43.81,4.88,1.19,7.32l1.13,7.33c1.54,9.76,2.94,19.57,4.37,29.4s2.75,19.72,4,29.68S79.28,458.71,80.42,468.89Z"/>
      </g>
      <g>
        <g>
          <ellipse class="cls-23" cx="66.23" cy="299.51" rx="7.58" ry="6.65" transform="translate(-240.3 310.92) rotate(-79.66)"/>
          <path class="cls-24" d="M67.73,291.27A6.91,6.91,0,0,1,72.45,295a8.64,8.64,0,0,1,.66,5.77,8.49,8.49,0,0,1-3,4.81,6.32,6.32,0,0,1-9.71-1.79,8.52,8.52,0,0,1-1-5.52A8.62,8.62,0,0,1,62,293.11,7,7,0,0,1,67.73,291.27Zm-.28,1.57a5.64,5.64,0,0,0-4.7,1.14A7.73,7.73,0,0,0,60,298.37a7.83,7.83,0,0,0,.65,5.31A5.88,5.88,0,0,0,70,305.37a8,8,0,0,0,2.45-4.73,7.81,7.81,0,0,0-1-5.06A5.75,5.75,0,0,0,67.45,292.84Z"/>
        </g>
        <g>
          <ellipse class="cls-23" cx="76.54" cy="302.29" rx="7.58" ry="6.65" transform="translate(-234.59 323.35) rotate(-79.66)"/>
          <path class="cls-24" d="M78,294.06a6.87,6.87,0,0,1,4.71,3.72,8.57,8.57,0,0,1,.66,5.77,8.46,8.46,0,0,1-3,4.81,6.33,6.33,0,0,1-9.72-1.79,8.78,8.78,0,0,1,1.59-10.67A7,7,0,0,1,78,294.06Zm-.29,1.56a5.59,5.59,0,0,0-4.69,1.15,7.73,7.73,0,0,0-2.77,4.39,7.86,7.86,0,0,0,.64,5.3,5.88,5.88,0,0,0,9.36,1.7,7.94,7.94,0,0,0,2.46-4.73,7.78,7.78,0,0,0-1-5.07A5.73,5.73,0,0,0,77.75,295.62Z"/>
        </g>
        <g>
          <ellipse class="cls-23" cx="84.15" cy="306.5" rx="6.64" ry="5.83" transform="translate(-232.48 334.29) rotate(-79.66)"/>
          <path class="cls-24" d="M85.48,299.18a6.09,6.09,0,0,1,4.18,3.33,7.73,7.73,0,0,1-2.06,9.32,5.57,5.57,0,0,1-8.54-1.57,7.53,7.53,0,0,1-1-4.86,7.63,7.63,0,0,1,2.31-4.56A6.19,6.19,0,0,1,85.48,299.18Zm-.28,1.57a4.83,4.83,0,0,0-4,.95,6.76,6.76,0,0,0-2.44,3.81,6.86,6.86,0,0,0,.54,4.64,5.13,5.13,0,0,0,8.18,1.48,6.89,6.89,0,0,0,2.12-4.15,6.78,6.78,0,0,0-.93-4.39A4.93,4.93,0,0,0,85.2,300.75Z"/>
        </g>
        <g>
          <ellipse class="cls-23" cx="91.83" cy="310.54" rx="5.55" ry="4.87" transform="translate(-230.15 345.17) rotate(-79.66)"/>
          <path class="cls-24" d="M93,304.3a5.17,5.17,0,0,1,3.55,2.86,6.37,6.37,0,0,1,.44,4.32A6.27,6.27,0,0,1,94.73,315a4.91,4.91,0,0,1-3.91,1.05,4.85,4.85,0,0,1-3.26-2.37,6.3,6.3,0,0,1-.82-4.07,6.43,6.43,0,0,1,1.91-3.88A5.33,5.33,0,0,1,93,304.3Zm-.29,1.57a3.9,3.9,0,0,0-3.3.74,5.56,5.56,0,0,0-2,3.11,5.67,5.67,0,0,0,.42,3.86,4.25,4.25,0,0,0,6.81,1.23,5.75,5.75,0,0,0,1.73-3.45,5.57,5.57,0,0,0-.81-3.62A4,4,0,0,0,92.68,305.87Z"/>
        </g>
      </g>
    </g>
  </g>
</svg>
