<?xml version="1.0" encoding="utf-8"?>
<!-- Generator: Adobe Illustrator 23.0.6, SVG Export Plug-In . SVG Version: 6.00 Build 0)  -->
<svg version="1.1" id="Layer_1" xmlns="http://www.w3.org/2000/svg" xmlns:xlink="http://www.w3.org/1999/xlink" x="0px" y="0px"
	 viewBox="0 0 400 500" style="enable-background:new 0 0 400 500;" xml:space="preserve">
<style type="text/css">
	.st0{clip-path:url(#SVGID_2_);}
	.st1{clip-path:url(#SVGID_4_);}
	.st2{clip-path:url(#SVGID_4_);fill:url(#SVGID_5_);}
	.st3{clip-path:url(#SVGID_4_);fill:url(#SVGID_6_);}
	.st4{opacity:0.99;clip-path:url(#SVGID_4_);fill:url(#SVGID_7_);enable-background:new    ;}
	.st5{fill:#F7F2DA;}
	.st6{opacity:0.23;clip-path:url(#SVGID_4_);enable-background:new    ;}
	.st7{fill:#00DE7E;}
	.st8{fill:#333333;}
	.st9{fill:#FFFFFF;}
	.st10{fill:#4D4D4D;}
	.st11{fill:#1A1A1A;}
	.st12{fill:none;stroke:#00DE7E;stroke-miterlimit:10;}
	.st13{fill:none;}
	.st14{fill:#00AB61;}
	.st15{fill:#0CCFEB;}
	.st16{fill:#00EDFF;}
	.st17{clip-path:url(#SVGID_4_);fill:none;}
	.st18{fill:#29ABE2;}
	.st19{fill:#2E3192;}
	.st20{clip-path:url(#SVGID_4_);fill:#548EA8;stroke:#2E3192;stroke-width:1.5;stroke-miterlimit:10;}
	.st21{fill:#544D47;}
	.st22{fill:#808080;}
	.st23{fill:#0071BC;}
	.st24{fill:#548EA8;}
	.st25{fill:#1B1464;}
	.st26{clip-path:url(#SVGID_4_);fill:#2E3192;}
	.st27{clip-path:url(#SVGID_4_);fill:#AA68AA;}
	.st28{clip-path:url(#SVGID_4_);fill:#998008;stroke:#665334;stroke-width:0.23;stroke-miterlimit:10;}
	.st29{fill:#C67A00;}
	.st30{fill:#AA5304;}
	.st31{fill:#72655A;}
	.st32{fill:#534741;}
	.st33{fill:#C6BB6D;}
	.st34{fill:#998328;}
	.st35{clip-path:url(#SVGID_4_);fill:#451172;stroke:#2C0259;stroke-width:0.23;stroke-miterlimit:10;}
	.st36{fill:#998008;}
	.st37{fill:#665334;}
	.st38{fill:#AA68AA;}
	.st39{fill:#662D91;}
	.st40{clip-path:url(#SVGID_4_);fill:#451172;}
	.st41{fill:#66420C;}
	.st42{fill:#AF6282;}
	.st43{fill:#FF7BAC;}
	.st44{fill:#E2A569;}
	.st45{fill:#C98039;}
	.st46{clip-path:url(#SVGID_4_);fill:#AA5304;}
	.st47{clip-path:url(#SVGID_4_);fill:#C67A00;stroke:#AA5304;stroke-width:0.23;stroke-miterlimit:10;}
	.st48{clip-path:url(#SVGID_4_);fill:#808080;}
	.st49{fill:#FFFAF3;}
	.st50{fill:#00DD7E;}
	.st51{clip-path:url(#SVGID_4_);fill:#E2A569;stroke:#C98039;stroke-width:0.75;stroke-miterlimit:10;}
</style>
<title>neotag_station_withtextandkids_mobile</title>
<g>
	<g>
		<defs>
			<rect id="SVGID_1_" width="400" height="500"/>
		</defs>
		<clipPath id="SVGID_2_">
			<use xlink:href="#SVGID_1_"  style="overflow:visible;"/>
		</clipPath>
		<g class="st0">
			<g>
				<g>
					<defs>
						<rect id="SVGID_3_" x="-336.4" y="-113.1" width="1074" height="789"/>
					</defs>
					<clipPath id="SVGID_4_">
						<use xlink:href="#SVGID_3_"  style="overflow:visible;"/>
					</clipPath>
					<rect x="-338.4" y="-107.1" class="st1" width="1076" height="800"/>
					
						<linearGradient id="SVGID_5_" gradientUnits="userSpaceOnUse" x1="199.0999" y1="394.1" x2="199.0999" y2="33.4" gradientTransform="matrix(1 0 0 1 0 -98)">
						<stop  offset="0" style="stop-color:#0071BC"/>
						<stop  offset="0.39" style="stop-color:#004299"/>
						<stop  offset="0.79" style="stop-color:#001879"/>
						<stop  offset="1" style="stop-color:#00086D"/>
					</linearGradient>
					<path class="st2" d="M-325.3,226.7c0.2-4.9,3.4-9.1,8-10.7c0,0-2.7-5.3,5.3-8c0,0,0-8,8-5.3c0,0,2.7-10.7,10.6-5.3
						c0,0,2.7-5.3,8-2.7c0,0,2.7-2.7,8,0c0,0,5.3-2.7,10.6,2.7c0,0,8-5.3,10.7,5.3c0,0,8,0,8,10.7c0,0,8,2.7,2.7,8
						c0,0,0,5.3-2.7,5.3c0,0,5.3,2.7,0,5.3c1.4,0,2.6,1.1,2.7,2.6v0.1c0,0,5.3,0,2.7,5.3c0,0,8-2.7,5.3,5.3c0,0,5.3,0,8,2.7
						c0,0,5.3-8,10.7,0c0,0,5.3-2.7,10.6,0c0,0,5.3-10.7,13.3-8c0,0,8-10.7,13.3-2.7c0,0,10.7,2.7,10.7,10.7c0,0,10.6,5.3,8,10.7
						c0,0,10.6,0,10.6,10.7c0,0,5.3-2.7,5.3,0c0,0-2.7-13.3,0-16c0,0-5.3-2.7-2.7-10.7c0,0-2.7-8,0-13.3c0,0,5.3-5.3,10.7,2.7
						c0,0,0-8,5.3-10.7c0,0,5.3-10.7,16-5.3c0,0,8-8,10.7,5.3c0,0,10.7,0,2.7,16c0,0,5.3-2.7,8,0c0,0,0-13.3,2.7-13.3
						c0,0,5.3-5.3,8,2.7c0,0,2.7,10.7,0,21.3c0,0,10.7,0,5.3,16c0,0,13.3,2.7,16,16c0,0,10.7,5.3,8,16c0,0,2.7-2.7,10.7,0
						c0,0,0-16,16-16c0,0-2.7-21.3,10.7-18.7c0,0,8-5.3,16,0c0,0-2.3-4.5-0.5-7.3c0.2-0.2,0.3-0.5,0.5-0.7c2.7-2.7,5.3,0,5.3,0
						S-3,240,7.7,234.7c0,0,2.7-2.7,8,0c0,0,5.3-8,13.3,0c0,0,13.3,0,13.3,13.3c0,0,8,5.3,2.7,18.7c0,0,2.7,2.7,5.3,10.7
						c0,0,0-10.7,2.7-13.3c0,0,5.3-5.3,10.6,5.3c0,0,10.7-5.3,10.7,10.7c0,0,8-8,13.3,2.7c0,0,0-13.3,8-18.7c0,0-2.7-8,8-8
						c0,0,2.7-13.3,13.3-8c0,0,8-8,16,5.3c0,0,16-2.7,13.3,13.3c0,0,10.6,0,8,16c0,0,8-8,16-2.7c0,0,0-13.3,10.6-16
						c0,0,2.7-21.3,10.6-24c0,0,8-2.7,13.3,13.3c0,0,5.3-10.7,10.6-10.7c0,0,5.3,0,5.3,10.7c0,0,5.3,2.7,2.7,13.3
						c0,0,10.7,2.7,5.3,13.3c0,0,2.7,5.3,0,10.7c0,0,8,0,10.6,5.3c0,0-2.7-13.3,2.7-16c0,0,0-21.3,8-18.7c0,0,2.7-16,13.3-13.3
						c0,0,5.3-10.7,13.3,2.7c0,0,5.3-16,13.3,0c0,0,5.3-5.3,13.3,2.7c0,0,18.6-8,29.3,0c0,0,8,0,13.3,5.3c0,0,13.3-5.3,26.6,0
						c0,0,10.7-8,26.6,0c0,0,16-5.3,26.6-2.7c0,0,8-10.7,21.3-2.7c0,0,5.3-2.7,13.3,2.7c0,0,5.3-16,13.3-18.7
						c0,0,10.6-2.7,18.6,13.3c0,0,10.7,5.3,10.7,13.3c0,0,0-16,5.3-21.3c0,0-2.7-18.7,5.3-21.3c0,0,8,0,10.7,18.7c0,0,5.3-8,8-2.7
						c0,0,0-13.3,5.3-13.3c0,0,0-10.7,8-10.7c0,0,13.3,2.7,18.7,16c0,0,8-8,16,0c0,0,10.7-18.7,18.6-2.7c0,0,16,0,16,16
						c0,0,16-8,24,2.7c0,0,21.3-13.3,34.6-2.7c0,0,0.6-0.4,1.7-0.9c-6.5-1.8-17.9-6.4-1.7-12.4c0,0-8-16,18.7-10.7
						c0,0,13.3-8,26.6,0c0,0,6.9-4.6,18.6,1.2V-64.6h-1076v9.5c18.5-1.9,56.1-4.7,71.9,1.2c21.3,8,13.3,18.7,13.3,18.7
						c18.6,18.7-8,16-8,16C-250.7-3.3-280-8.6-280-8.6c8,8-2.7,18.7-2.7,18.7c0,10.7-18.6,8-18.6,8c8,2.7,5.3,8,5.3,8
						c13.3,2.7,13.3,10.7,13.3,10.7c18.6,2.7,16,16,16,16c24,0,18.7,5.3,18.7,5.3c16-8,21.3,0,21.3,0c0-8,13.3-10.7,13.3-10.7
						c13.3-16,16,0,16,0c13.3,13.3-2.7,16-2.7,16c5.3,18.7-16,21.3-16,21.3c-10.7,18.7-24,5.3-24,5.3c0,8-8,8-8,8
						c13.3,29.3-16,5.3-16,5.3c-5.3,10.7-16,2.7-16,2.7c-5.3,8-21.3,2.7-21.3,2.7c4.6,2.9,7.6,7.9,8,13.3
						c13.3-5.3,18.6,2.7,18.6,2.7c13.3,5.3,2.7,16,2.7,16c10.7,21.3-13.3,13.3-13.3,13.3c8,13.3-8,13.3-8,13.3
						c2.7,16-21.3-2.7-21.3-2.7c2.7,5.3,0,10.7,0,10.7C-301.4,186-312,152-312,152c2.7,8-10.7,8-10.7,8c8,5.3-2.7,13.3-5.3,13.3
						l-10.7-3.6V236l16,4C-322.6,240-327.9,232-325.3,226.7z"/>
					
						<linearGradient id="SVGID_6_" gradientUnits="userSpaceOnUse" x1="170.25" y1="485.4" x2="170.25" y2="291.4" gradientTransform="matrix(1 0 0 1 0 -98)">
						<stop  offset="0" style="stop-color:#001F45"/>
						<stop  offset="1" style="stop-color:#005845"/>
					</linearGradient>
					<path class="st3" d="M591.3,387.4c-0.2-1.1-0.3-2.3-0.3-3.4c0,0-40-5.3,16-18.7c0,0,29.3-5.3,45.3-5.3h2.7
						c0,0-2.7-5.3,13.3-13.3c0,0-50.6,8-26.6-5.3c0,0-34.6,2.7-10.7-10.7c0,0-5.3-8,2.7-16c0,0-63.9,10.7-10.7-8c0,0,0-5.3,10.7-8
						c0,0-42.6-5.3-8-13.3c0,0,5.3-8,21.3-2.7c0,0,18.6-5.3,29.3,0c0,0-5.3-8,0-13.3c0,0-5.3-8,2.7-16c0,0-24,2.7,0-10.7
						c0,0-1.6-0.3-3.6-0.9c-1.1,0.5-1.7,0.9-1.7,0.9c-13.3-10.7-34.6,2.7-34.6,2.7c-8-10.7-24-2.7-24-2.7c0-16-16-16-16-16
						c-8-16-18.6,2.7-18.6,2.7c-8-8-16,0-16,0c-5.3-13.3-18.7-16-18.7-16c-8,0-8,10.7-8,10.7c-5.3,0-5.3,13.3-5.3,13.3
						c-2.7-5.3-8,2.7-8,2.7c-2.7-18.7-10.7-18.7-10.7-18.7c-8,2.7-5.3,21.3-5.3,21.3C503,248,503,264,503,264
						c0-8-10.7-13.3-10.7-13.3c-8-16-18.6-13.3-18.6-13.3c-8,2.7-13.3,18.7-13.3,18.7c-8-5.3-13.3-2.7-13.3-2.7
						c-13.3-8-21.3,2.7-21.3,2.7c-10.6-2.7-26.6,2.7-26.6,2.7c-16-8-26.6,0-26.6,0c-13.3-5.3-26.6,0-26.6,0
						c-5.3-5.3-13.3-5.3-13.3-5.3c-10.6-8-29.3,0-29.3,0c-8-8-13.3-2.7-13.3-2.7c-8-16-13.3,0-13.3,0c-8-13.3-13.3-2.7-13.3-2.7
						c-10.6-2.7-13.3,13.3-13.3,13.3c-8-2.7-8,18.7-8,18.7c-5.3,2.7-2.7,16-2.7,16c-2.7-5.3-10.6-5.3-10.6-5.3
						c2.7-5.3,0-10.7,0-10.7c5.3-10.7-5.3-13.3-5.3-13.3c2.7-10.7-2.7-13.3-2.7-13.3c0-10.7-5.3-10.7-5.3-10.7
						c-5.3,0-10.6,10.7-10.6,10.7c-5.3-16-13.3-13.3-13.3-13.3c-8,2.7-10.6,24-10.6,24c-10.6,2.7-10.6,16-10.6,16
						c-8-5.3-16,2.7-16,2.7c2.7-16-8-16-8-16c2.7-16-13.3-13.3-13.3-13.3c-8-13.3-16-5.3-16-5.3c-10.7-5.3-13.3,8-13.3,8
						c-10.7,0-8,8-8,8c-8,5.3-8,18.7-8,18.7c-5.7-11-13.6-3-13.6-3c0-16-10.7-10.7-10.7-10.7c-5.3-10.7-10.7-5.3-10.7-5.3
						c-2.7,2.7-2.7,13.3-2.7,13.3c-2.7-8-5.3-10.7-5.3-10.7c5.3-13.3-2.7-18.7-2.7-18.7c0-13.3-13.3-13.3-13.3-13.3
						c-8-8-13.3,0-13.3,0c-5.3-2.7-8,0-8,0C-3,240,2.3,253.3,2.3,253.3s-2.7-2.7-5.3,0c-0.2,0.2-0.4,0.4-0.5,0.7
						c-1.7,2.8,0.5,7.3,0.5,7.3c-8-5.3-16,0-16,0c-13.3-2.7-10.6,18.7-10.6,18.7c-16,0-16,16-16,16c-8-2.7-10.7,0-10.7,0
						c2.7-10.7-8-16-8-16c-2.7-13.3-16-16-16-16c5.3-16-5.3-16-5.3-16c2.7-10.7,0-21.3,0-21.3c-2.7-8-8-2.7-8-2.7
						c-2.7,0-2.7,13.3-2.7,13.3c-2.7-2.7-8,0-8,0c8-16-2.7-16-2.7-16c-2.6-13.3-10.6-5.3-10.6-5.3c-10.7-5.3-16,5.3-16,5.3
						c-5.3,2.7-5.3,10.7-5.3,10.7c-5.3-8-10.7-2.7-10.7-2.7c-2.7,5.3,0,13.3,0,13.3c-2.7,8,2.7,10.7,2.7,10.7c-2.7,2.7,0,16,0,16
						c0-2.7-5.3,0-5.3,0c0-10.7-10.6-10.7-10.6-10.7c2.7-5.3-8-10.7-8-10.7c0-8-10.7-10.7-10.7-10.7c-5.3-8-13.3,2.7-13.3,2.7
						c-8-2.7-13.3,8-13.3,8c-5.3-2.7-10.6,0-10.6,0c-5.3-8-10.7,0-10.7,0c-2.7-2.7-8-2.7-8-2.7c2.7-8-5.3-5.3-5.3-5.3
						c2.7-5.3-2.7-5.3-2.7-5.3c0-1.4-1.1-2.6-2.5-2.7c0,0,0,0-0.1,0c5.3-2.7,0-5.3,0-5.3c2.7,0,2.7-5.3,2.7-5.3c5.3-5.3-2.7-8-2.7-8
						c0-10.7-8-10.7-8-10.7c-2.7-10.7-10.7-5.3-10.7-5.3c-5.3-5.3-10.6-2.7-10.6-2.7c-5.3-2.7-8,0-8,0c-5.3-2.7-8,2.7-8,2.7
						c-8-5.3-10.6,5.3-10.6,5.3c-8-2.7-8,5.3-8,5.3c-8,2.7-5.3,8-5.3,8c-4.6,1.5-7.8,5.8-8,10.7c-2.6,5.3,2.7,13.3,2.7,13.3l-16-4
						v149.6C-260.9,380.6,94.1,361.2,591.3,387.4z"/>
					
						<linearGradient id="SVGID_7_" gradientUnits="userSpaceOnUse" x1="199.5" y1="833.4" x2="199.5" y2="472.1591" gradientTransform="matrix(1 0 0 1 0 -98)">
						<stop  offset="0" style="stop-color:#003923"/>
						<stop  offset="0.97" style="stop-color:#008744"/>
						<stop  offset="1" style="stop-color:#009245"/>
					</linearGradient>
					<path class="st4" d="M673.5,599.3c-13.3-5.3-10.7-5.3-10.7-5.3c5.3-5.3,32-5.3,32-5.3c8.8-1.3,17.7-2.1,26.7-2.3
						c0-0.1,0-0.2,0-0.4s1.6-99.9,1.1-130.7c-12.3-1.4-26.5,2.9-38.4-1.9c0,0-8,10.7-21.3,13.3c0,0-8,8-18.6,10.7
						c0,0-10.7,10.7-18.7,10.7c3.2-4.7,6.7-9.2,10.7-13.3c0,0,5.3-10.7,10.7-16c0,0-5.3,5.3-16,5.3c0,0-16,5.3-24,2.7
						c0,0-10.7,0-13.3-5.3c0,0-13.3,8-18.6,5.3c0,0,2.7-8,13.3-13.3c0,0,6.9-13.8,25-20c-9.5,2.7-30,7-9-12c0,0-48,8-10.7-10.7
						c0,0-50.6,5.3,5.3-13.3c-4.1-1.7-7-5.5-7.7-9.9c-497.1-26.2-852.1-6.9-929.8-1.9v349.7h1076v-133
						C719.3,602.8,683.3,603.2,673.5,599.3z"/>
					<g class="st1">
						
							<image style="overflow:visible;opacity:0.86;enable-background:new    ;" width="125" height="126" xlink:href="906419B6.png"  transform="matrix(1 0 0 1 273 -15)">
						</image>
						<ellipse class="st5" cx="335.5" cy="47.9" rx="23.4" ry="23.4"/>
					</g>
					<path class="st6" d="M266,431.6c-1.6-3-8.1-4.7-8.1-4.7c-3,0.3-6,1-8.9,2.1l-3.5,2.7l0.7-0.5l2.2-1.7l-4.6-0.7l-0.4,0.5
						l-4.5-0.7l-0.1,0.8l-3.5-0.3v-10.5h-1.6c-0.1-10.5,0.6-21.1,2.1-31.5h2.3c1.1,0,2-0.4,2-0.8V386c0-0.5-0.9-0.8-2-0.8h-77.4
						c-1.1,0-2,0.4-2,0.8v0.3c0,0.5,0.9,0.8,2,0.8h2.3c1,7,1.7,14,1.9,21.1c0.1,3.6,0.2,7.1,0.2,10.4h-2.4V429l-3.5,0.3l-0.1-0.8
						l-4.5,0.7l-0.4-0.5l-4.6,0.7l2.2,1.7l0.7,0.5l-3.4-2.6c-2.9-1.1-5.9-1.8-8.9-2.1c-1.4,0.4-2.7,0.9-4,1.5c0-0.1,0-0.2-0.1-0.3
						c2.6-0.8,5-1.8,6.1-2.9c0,0-14-9.6-15-10.1c-0.7-0.4-8.2-0.8-15.6,0.1c0.1-0.5,0.2-1,0.3-1.6c1.2-7.9,2.8-10.9,2.8-10.9
						c-1-0.4-2-0.8-3.1-1c1.7-5.2,4.8-16.7,2-19.6c0,0-0.1-0.4-1.1-0.8c6-1.7,13-4.4,3-4.9c-7.2-0.4-14.3,0.1-21.4,1.3
						c3.5-1.5,4.7-2.9-2.5-3.2c-16.2-0.8-33.1,2.5-28.9,5.1c-2.9,1.3,8.6,4.9,6,19.8c-0.9-0.3-1.4,0.3-1.7,1.1l-2.5,0.2l-1.7-14.2
						c0-0.3-0.3-0.5-0.6-0.4l-12.5,1.5c-0.3,0-0.5,0.3-0.4,0.6l1.3,11.1c-0.9-0.2-1.2,1.9-0.2,3.8c-0.3,0.1-0.5,0.2-0.5,0.3
						c-0.1,1,12,22,21.9,22.4c0.2,0,0.4,0,0.6,0c3.4,1.2,9.8,1.6,15.8,1.8c0.2,0.3,0.4,0.7,0.7,1.1c-2.3,0.4-4.6,0.9-6.8,1.7
						c-1.8-0.1-3.5-0.1-5.3,0.1c-3.3,0.3-3.1,3.4-7.2,5.4s-0.6,2.3-2.7,4.4c-2.1,2.2,5.6,5.8,5.9,7s10.8,2.3,15.2,3.5
						c4.4,1.2,12.8-0.9,18.7-0.8c5.9,0.1,11-3,14.1-3.8c2.9-0.7,1.6-2,0-5.2c0.6-0.8,1-1.8,1-2.8c0-5.4-10.2-9.8-23-10.1
						c0-0.2,0-0.3-0.1-0.5c1.9,0,3.1-0.1,3.1-0.1c1.4-0.1,2.7-0.6,3.8-1.4c4.3-0.8,8.6-2,12.7-3.5c0,0-2,1.5,1,2c0,0,4,6.1,7,5.6
						l1.1-0.2c-0.3,1.1-0.3,2.3,1.1,2.8c1.7,0.7,3.5,1,5.4,0.9c0.6,0.6,1.3,1.3,2.3,2.1c0.3,0.2,0.6,0.5,0.9,0.7l-1.6,1.9
						c0,0,0,0,0,0.1l4.4,3c0.1,0,0.2,0,0.3,0l2.9-0.7c1.6,1,3.4,2.1,5.5,3.3h-2.7c-1.1,0-1.9,0.3-1.9,0.8v0.9c0,0.4,0.9,0.8,1.9,0.8
						H163h0.5c-0.2,1.7-0.3,2.6-0.3,2.6h-2.5c-1.1,0-2,0.4-2,0.8v0.3c0,0.4,0.9,0.8,2,0.8h30.6V465h2.9v1.6h-2.9v1.3l4.1,3.9h3.3
						v2.1h1.2v-2.1h3.3l4.1-3.9v-1.3h-2.9V465h2.9v-13.8h30.6c1.1,0,2-0.4,2-0.8v-0.3c0-0.4-0.9-0.8-2-0.8h-2.4c0,0-0.1-0.9-0.3-2.7
						h16.9c1.1,0,2-0.4,2-0.8V445c0-0.4-0.9-0.8-2-0.8h-2.8c2.1-1.2,3.9-2.3,5.5-3.3l2.9,0.7c0.1,0,0.2,0,0.3,0l4.4-3c0,0,0,0,0-0.1
						l-1.6-1.9l0.9-0.7C263.5,434.7,264.9,433.3,266,431.6z M94,399.7L94,399.7c-1.9,0-4-0.1-6.2-0.1c1.2-4.2,2.8-10.2,2.8-14.5
						C92.7,387.8,95.3,392.2,94,399.7z M131.3,431.9l0.7-0.2l0.3,0.4C131.7,432,131.4,432,131.3,431.9z M143.3,432.3l-2,1.7
						c-0.3,0.3-0.8,0.4-1.2,0.3c0.2-0.2,0.2-0.6,0-0.9l0,0c0.6,0,1.1-0.1,1.6-0.4c0.3-0.1,0.5-0.5,0.3-0.9c-0.1-0.1-0.1-0.2-0.3-0.3
						c0.2-0.1,0.4-0.1,0.6-0.2c0.5-0.3,0.4-0.8-0.1-1.2c0.3,0,0.5-0.1,0.8-0.3c0.4-0.3,0.4-0.7-0.1-1c0.6-0.2,1.2-0.2,1.8,0
						c1.3,0.5,1.3,1,1.3,1L143.3,432.3z M158.4,444.2c-0.6-0.3-1.2-0.4-1.8-0.5L152,440c0,0,0.4-0.7-1-2s2.5-2.7,2.5-2.7
						c0.6,0.1,1.2,0.2,1.8,0.2c0.5,0,1.1-0.1,1.5-0.4l-0.8-0.6l1.7-0.4l-0.4-0.5l2.3-0.2l-0.6-4l0.6,3.6h2.9v11.3L158.4,444.2
						L158.4,444.2z M246.9,438.1c-1.4,1.3-1,2-1,2l-4.6,3.7c-0.6,0-1.2,0.2-1.8,0.5h-4.3V433h2.9l0.6-3.6l-0.6,4l2.3,0.2l-0.4,0.5
						l1.7,0.4l-0.7,0.6c0.5,0.3,1,0.4,1.5,0.4c0.6,0,1.2-0.1,1.9-0.2C244.4,435.4,248.3,436.8,246.9,438.1z M259.3,433.8
						L259.3,433.8c-1.9,0.9-2.7,0.1-2.7,0.1l-2-1.7l-2.7-2.1c0,0,0-0.5,1.3-1c0.9-0.2,1.9-0.1,2.8,0.3c0.5,0.2,2.9,2,2.9,2
						S261.3,432.8,259.3,433.8z"/>
					<g class="st1">
						<path d="M235.7,380.5c-1.6-27-2.1-54.1-2.1-78c0.1-32,1.1-58.1,1.6-69.7c0.2-4.3,0.3-6.6,0.3-6.6H163c0,0,0.1,2.3,0.3,6.6
							c0.6,11.6,1.6,37.7,1.6,69.7c0,8.3,0,16.9-0.2,25.8c-0.3,16.8-0.8,34.6-1.9,52.2H235.7z"/>
						<rect x="191.3" y="187.1" width="16.1" height="34.4"/>
						<g>
							<g>
								<path class="st7" d="M200.1,315.1H197v-0.4h3.2c0.3,0,0.6-0.2,0.6-0.5v-4.6H197v-0.4h4.1v5
									C201.1,314.6,200.7,315.1,200.1,315.1C200.2,315.1,200.1,315.1,200.1,315.1z"/>
								<path class="st7" d="M199.2,321.8h0.9c0.3,0,0.6-0.3,0.6-0.6v-4.1c0-0.3-0.2-0.6-0.6-0.6h-2.2c-0.3,0-0.6,0.3-0.6,0.6v5H197
									v-5c0-0.5,0.4-0.9,0.9-0.9l0,0h2.2c0.5,0,0.9,0.4,0.9,0.9v4.1c0,0.5-0.4,0.9-0.9,0.9h-1.3V317h0.4L199.2,321.8z"/>
								<path class="st7" d="M200.1,329.3h-2.2c-0.5,0-0.9-0.4-0.9-0.9v-4.1c0-0.5,0.4-0.9,0.9-0.9l0,0h2.2c0.5,0,0.9,0.4,0.9,0.9
									v4.1C201.1,328.9,200.6,329.3,200.1,329.3z M200.1,328.9c0.3,0,0.6-0.3,0.6-0.6v-4.1c0-0.3-0.2-0.5-0.6-0.5h-2.2
									c-0.3,0-0.6,0.2-0.6,0.5v4.1c0,0.3,0.3,0.6,0.6,0.6H200.1z"/>
								<path class="st7" d="M197.3,333.3H197v-1.9c0-0.5,0.4-0.9,0.9-0.9h4.1v0.4h-0.9v2h-0.4v-2h-2.8c-0.3,0-0.6,0.2-0.6,0.5
									V333.3z"/>
								<path class="st7" d="M200.1,340.2H197v-5c0-0.5,0.4-0.9,0.9-0.9l0,0h0.7c0.5,0,0.9,0.4,0.9,0.9l0,0v4.3h-0.4v-4.3
									c0-0.3-0.3-0.6-0.6-0.6h-0.7c-0.3,0-0.6,0.3-0.6,0.6v4.6h2.8c0.3,0,0.6-0.2,0.6-0.5v-4.8h0.4v4.8
									C201.1,339.8,200.6,340.2,200.1,340.2L200.1,340.2z"/>
								<path class="st7" d="M195.1,341.4h0.4v5c0,0.3,0.3,0.6,0.6,0.6h4.6v-4.6c0-0.3-0.2-0.6-0.6-0.6h-2.2c-0.3,0-0.6,0.3-0.6,0.6
									v4.3H197v-4.3c0-0.5,0.4-0.9,0.9-0.9l0,0h2.2c0.5,0,0.9,0.4,0.9,0.9v5h-5c-0.5,0-0.9-0.4-0.9-0.9L195.1,341.4z"/>
								<path class="st7" d="M197.6,348.7v0.2c0,0.1-0.1,0.2-0.2,0.2l0,0h-0.2c-0.1,0-0.2-0.1-0.2-0.2l0,0v-0.2
									c0-0.1,0.1-0.2,0.2-0.2l0,0h0.2C197.5,348.5,197.6,348.6,197.6,348.7L197.6,348.7z"/>
								<path class="st7" d="M201.1,350.3v0.4H197v-0.4H201.1z M202.2,350.7h-0.4v-0.4h0.4V350.7z"/>
								<path class="st7" d="M200.1,357.8h-2.2c-0.5,0-0.9-0.4-0.9-0.9v-4.1c0-0.5,0.4-0.9,0.9-0.9h2.2c0.5,0,0.9,0.4,0.9,0.9v4.1
									C201,357.4,200.6,357.8,200.1,357.8z M200.1,357.4c0.3,0,0.6-0.2,0.6-0.5v-4.1c0-0.3-0.2-0.5-0.6-0.5h-2.2
									c-0.3,0-0.6,0.2-0.6,0.5v4.1c0,0.3,0.3,0.6,0.6,0.5H200.1z"/>
							</g>
							<g>
								<path class="st7" d="M205.1,198.1h-2.2v6h-1.1c-0.3,0-0.5-0.2-0.7-0.4l-4.8-5.6l0,0h-0.1v7.7c1,0.6,2.1,0.9,3.2,0.9
									c3.4,0,6.2-2.8,6.2-6.2l0,0C205.6,199.6,205.5,198.8,205.1,198.1z"/>
								<path class="st7" d="M197.1,197.4l4.8,5.6h0.2v-5h-2.2c-0.1,0-0.1,0-0.1-0.1l0,0l0,0l0.3-0.8l0,0l0.1-0.1h4.5
									c-1.9-2.9-5.7-3.7-8.6-1.9c-2.9,1.9-3.7,5.7-1.9,8.6c0.3,0.5,0.7,0.9,1.1,1.3v-7.3c0-0.4,0.3-0.7,0.7-0.8l0,0h0.4
									C196.6,197,196.9,197.1,197.1,197.4z"/>
							</g>
						</g>
						<path class="st8" d="M163.4,232.7h-0.8v69.7h2.4C165,270.5,164,244.4,163.4,232.7z"/>
						<g>
							
								<image style="overflow:visible;opacity:0.87;enable-background:new    ;" width="47" height="44" xlink:href="906419BA.png"  transform="matrix(1 0 0 1 176 155)">
							</image>
							<polygon class="st9" points="203.3,170.3 195.5,170.3 191.3,180.1 191.3,183.2 196.7,183.2 202.1,183.2 207.4,183.2 
								207.4,180.1 							"/>
						</g>
						<rect x="194.3" y="183.2" class="st8" width="10.2" height="3.9"/>
						<path d="M160.7,221.5H238c1.1,0,2,0.9,2,2v0.6c0,1.1-0.9,2-2,2h-77.3c-1.1,0-2-0.9-2-2v-0.6
							C158.7,222.4,159.6,221.5,160.7,221.5z"/>
						<path d="M160.7,380.5H238c1.1,0,2,0.9,2,2v0.6c0,1.1-0.9,2-2,2h-77.3c-1.1,0-2-0.9-2-2v-0.6
							C158.7,381.4,159.6,380.5,160.7,380.5z"/>
						<rect x="198.8" y="165.2" class="st10" width="1.2" height="5.1"/>
						<path class="st11" d="M203.2,238.7l-0.2,8.9v1.6h1.3c1.1,0,1.9,0.9,1.9,1.9v22.4c0,1.1-0.9,1.9-1.9,2h-2.2v0.5
							c0,1.1-0.9,1.9-1.9,2h-2c-1.1,0-1.9-0.9-1.9-2v-0.5H194c-1.1,0-2-0.9-2-2v-22.4c0-1.1,0.9-2,2-1.9h1.3v-0.8V248l-0.3-9.2h-5.2
							v63.7h19v-63.7h-5.6V238.7z"/>
						<path class="st12" d="M196.2,275.6v0.5c0,1.1,0.9,1.9,1.9,2h2c1.1,0,1.9-0.9,1.9-2v-0.5"/>
						<polyline class="st12" points="203.1,249.2 202.9,249.2 202.9,249.6 						"/>
						<polyline class="st12" points="203.1,249.2 202.9,249.2 202.9,249.6 						"/>
						<g>
							<path class="st7" d="M195.5,254.6V253l-0.1-3.8H194c-1.1,0-2,0.9-2,1.9v22.4c0,1.1,0.9,2,2,2h2.2L195.5,254.6z"/>
							<path class="st7" d="M204.2,249.2h-1.3v0.4l-0.1,2.4l-0.1,3l-0.6,20.6h2.2c1.1,0,1.9-0.9,1.9-2v-22.5
								C206.2,250.1,205.3,249.2,204.2,249.2z"/>
						</g>
						<path class="st8" d="M210,232.6h-21.3c-0.4,0-0.7,0.3-0.7,0.7v4.8c0,0.4,0.3,0.7,0.7,0.7H210c0.4,0,0.7-0.3,0.7-0.7v-4.8
							C210.7,232.9,210.4,232.6,210,232.6z"/>
						<g>
							<path class="st8" d="M202,276c0,1.1-0.9,1.9-1.9,2h-2c-1.1,0-1.9-0.9-1.9-2v-0.5h-0.5v26.9h6.9v-26.9H202l0,0V276z"/>
							<path class="st13" d="M195.1,238.7l0.3,9.2v0.4v0.8l0.1,3.8v1.6l0.7,20.9v0.5c0,1.1,0.9,1.9,1.9,2h2c1.1,0,1.9-0.9,1.9-2
								v-0.5l0,0l0.6-20.6l0.1-3l0.1-2.4V249v-1.6l0.2-8.9L195.1,238.7z"/>
						</g>
						<path class="st12" d="M200.6,254.8h-3.8v6.4c0,0.2,0.2,0.4,0.4,0.4l0,0h3.7c0.2,0,0.4-0.2,0.4-0.4l0,0v-6.4L200.6,254.8
							L200.6,254.8z"/>
						<path class="st7" d="M201,245.8h-3.7c-0.2,0-0.4,0.2-0.4,0.4v8.5h4.5v-8.5C201.4,246,201.2,245.8,201,245.8z"/>
						<path class="st8" d="M235.4,232.7h0.8v69.7h-2.4C233.8,270.5,234.9,244.4,235.4,232.7z"/>
						<g>
							<path class="st8" d="M162.9,232.7l-17.2-0.1c-1.1,0-1.9,0.9-1.9,1.9l0,0v2.2c0,1.1,0.9,2,1.9,2h10.9l6,0.1v-6.1L162.9,232.7z
								"/>
							<path class="st12" d="M149.5,275.4l2.2-4.2L149.5,275.4z"/>
						</g>
						<path class="st12" d="M149.6,262.9c0.2,0.1,0.2,0.4,0.1,0.5l0,0l-4,4.9c-0.1,0.2-0.4,0.2-0.5,0.1l0,0
							c-0.2-0.1-0.2-0.3-0.1-0.5l0,0l4-4.9C149.3,262.8,149.5,262.7,149.6,262.9z M148,260.8c0.1-0.2,0.4-0.2,0.5,0
							c0.2,0.1,0.2,0.4,0.1,0.5l0,0l-4,4.9c-0.1,0.2-0.3,0.2-0.5,0.1l0,0c-0.2-0.1-0.2-0.4-0.1-0.5L148,260.8z M147.2,258.5
							c0.2,0.1,0.2,0.4,0.1,0.5l-4,4.9c-0.1,0.2-0.3,0.2-0.5,0.1s-0.2-0.3-0.1-0.5c0,0,0-0.1,0.1-0.1l4-4.9
							C146.8,258.3,147.1,258.3,147.2,258.5C147.2,258.4,147.3,258.4,147.2,258.5L147.2,258.5z"/>
						<g>
							<path class="st12" d="M151.7,263.4c0,0-4.7-11.8-6.6-11.7c-1,0-5.5,4.2-9.2,7.8c-1.7,3.4-3.1,6.9-4.1,10.5
								c1.6,7.3,8.1,11.7,8.1,11.7c3.3-1,6.4-2.8,8.9-5.2l7.9-15.3c-0.3-0.6-0.9-0.9-1.5-0.9C152.5,264.9,151.7,263.4,151.7,263.4z
								 M146,273.7c0,1-0.5,1.8-1.3,2.4c-0.9,0.8-2.3-0.1-2.8-0.7s-2.9-4.9-2.9-4.9s-2.5-3.6-0.5-6s2.8-0.4,2.8-0.4l2,4.1L146,273.7
								z"/>
							<path class="st12" d="M142.9,247l-2.9-1.8c-0.1-0.1-0.2,0-0.3,0.1l-4.4,7.5c0,0.1,0,0.1,0,0.2l0,0l1.6,4.6
								C138.4,254.6,140.4,251,142.9,247z"/>
						</g>
						<path class="st7" d="M142.9,247l-2.9-1.8c-0.1-0.1-0.2,0-0.3,0.1l-4.4,7.5c0,0.1,0,0.1,0,0.2l0,0l1.6,4.6
							C138.4,254.6,140.4,251,142.9,247z"/>
						<g>
							<polygon class="st10" points="159.1,275.6 159.1,275.6 162.7,276.4 162.7,266.7 159.7,266.7 							"/>
							<polygon class="st14" points="157.4,265 157.8,263.7 156.1,262.6 151.7,271.2 149.5,275.4 154.1,277.1 154.8,274.8 							
								"/>
							<polygon class="st10" points="159.7,265.6 157.4,265 154.8,274.8 154.5,275.8 159,277.6 159.1,275.6 159.1,275.6 							"/>
							<path d="M148.4,238.7c-2.1,2.9-3.9,5.7-5.5,8.2c-2.6,4.1-4.5,7.6-6.1,10.7c-0.3,0.6-0.6,1.2-0.9,1.8c3.7-3.6,8.2-7.8,9.2-7.8
								c1.9-0.1,6.6,11.7,6.6,11.7s0.8,1.5,3.6-3c-0.6,0-1.3,0.2-1.9,0.5c0,0-3.8-3.5-2.4-6.7s1-4.9,1-4.9l4.6-9.3
								c0.7-0.1,1.4-0.5,1.8-1.1h-1.8L148.4,238.7z"/>
						</g>
						<path class="st7" d="M151.7,263.4c0,0-4.7-11.8-6.6-11.7c-1,0-5.5,4.2-9.2,7.8c-1.7,3.4-3.1,6.9-4.1,10.5
							c1.6,7.3,8.1,11.7,8.1,11.7c3.3-1,6.4-2.8,8.9-5.2l7.9-15.3c-0.3-0.6-0.9-0.9-1.5-0.9C152.5,264.9,151.7,263.4,151.7,263.4z
							 M146,273.7c0,1-0.5,1.8-1.3,2.4c-0.9,0.8-2.3-0.1-2.8-0.7s-2.9-4.9-2.9-4.9s-2.5-3.6-0.5-6s2.8-0.4,2.8-0.4l2,4.1L146,273.7z
							"/>
						<g>
							<path class="st8" d="M235.9,232.7l17.2-0.1c1.1,0,2,0.9,2,1.9v2.2c0,1.1-0.9,2-2,2h-10.9l-6.1,0.1v-6.1L235.9,232.7z"/>
							<path class="st12" d="M249.4,275.4l-2.2-4.2L249.4,275.4z"/>
						</g>
						<path class="st12" d="M249.7,262.9l4,4.9c0.1,0.2,0,0.4-0.1,0.5s-0.3,0.1-0.4,0l-4-4.9c-0.1-0.1-0.2-0.4,0-0.5
							C249.3,262.7,249.5,262.7,249.7,262.9L249.7,262.9z M254.8,265.7c0.1,0.2,0.1,0.4-0.1,0.5c-0.2,0.1-0.4,0.1-0.5-0.1l-4-4.9
							c-0.1-0.2,0-0.4,0.1-0.5s0.3-0.1,0.4,0L254.8,265.7z M252.1,258.5l4,4.9c0.1,0.1,0.2,0.4,0,0.5c-0.1,0.1-0.4,0.2-0.5,0
							c0,0,0-0.1-0.1-0.1l-4-4.9c-0.1-0.2-0.1-0.4,0.1-0.5l0,0C251.7,258.3,252,258.3,252.1,258.5L252.1,258.5L252.1,258.5z"/>
						<g>
							<path class="st12" d="M243.5,260.3c-0.6,0-1.2,0.3-1.5,0.9l7.9,15.3c2.5,2.4,5.5,4.2,8.9,5.2c0,0,6.5-4.4,8.1-11.7
								c-1-3.6-2.4-7.1-4-10.5c-3.7-3.6-8.2-7.8-9.2-7.8c-1.8-0.1-6.6,11.7-6.6,11.7S246.3,264.9,243.5,260.3z M255.5,268.4l2-4.1
								c0,0,0.8-2,2.8,0.4s-0.5,6-0.5,6s-2.4,4.4-2.9,4.9s-1.8,1.5-2.8,0.7c-0.8-0.6-1.2-1.5-1.3-2.4L255.5,268.4z"/>
							<path class="st12" d="M255.9,247l3-1.7c0.1-0.1,0.2,0,0.3,0.1l4.4,7.5c0,0.1,0,0.1,0,0.2l0,0l-1.6,4.6
								C260.5,254.6,258.5,251,255.9,247z"/>
						</g>
						<path class="st7" d="M255.9,247l3-1.7c0.1-0.1,0.2,0,0.3,0.1l4.4,7.5c0,0.1,0,0.1,0,0.2l0,0l-1.6,4.6
							C260.5,254.6,258.5,251,255.9,247z"/>
						<g>
							<polygon class="st10" points="239.7,275.6 239.7,275.6 236.2,276.4 236.2,266.7 239.1,266.7 							"/>
							<polygon class="st14" points="241.4,265 241.1,263.7 242.8,262.6 247.2,271.2 249.4,275.4 244.7,277.1 244.1,274.8 							
								"/>
							<polygon class="st10" points="239.1,265.6 241.4,265 244.1,274.8 244.4,275.8 239.8,277.6 239.7,275.6 239.7,275.6 							
								"/>
							<path d="M250.4,238.7c2.1,2.9,3.9,5.7,5.5,8.2c2.5,4.1,4.5,7.6,6.1,10.7c0.3,0.6,0.6,1.2,0.9,1.8c-3.7-3.6-8.2-7.8-9.2-7.8
								c-1.8-0.1-6.6,11.7-6.6,11.7s-0.8,1.5-3.6-3c0.6,0,1.3,0.2,1.9,0.5c0,0,3.8-3.5,2.4-6.7s-1-4.9-1-4.9l-4.6-9.3
								c-0.7-0.1-1.4-0.5-1.8-1.1h1.8L250.4,238.7z"/>
						</g>
						<path class="st7" d="M255.5,268.4l2-4.1c0,0,0.8-2,2.8,0.4s-0.5,6-0.5,6s-2.4,4.4-2.9,4.9s-1.8,1.5-2.8,0.7
							c-0.8-0.6-1.2-1.5-1.3-2.4L255.5,268.4z M243.5,260.3c-0.6,0-1.2,0.3-1.5,0.9l7.9,15.3c2.5,2.4,5.5,4.2,8.9,5.2
							c0,0,6.5-4.4,8.1-11.7c-1-3.6-2.4-7.1-4-10.5c-3.7-3.6-8.2-7.8-9.2-7.8c-1.8-0.1-6.6,11.7-6.6,11.7S246.3,264.9,243.5,260.3
							L243.5,260.3z"/>
						<g>
							<g>
								<circle class="st15" cx="147" cy="247.2" r="1.8"/>
								<circle class="st16" cx="146.7" cy="246.9" r="1.3"/>
							</g>
							<g>
								<circle class="st15" cx="251.8" cy="247.2" r="1.8"/>
								<circle class="st16" cx="251.5" cy="246.9" r="1.3"/>
							</g>
						</g>
						<path d="M149.6,262.9c0.2,0.1,0.2,0.4,0.1,0.5l0,0l-4,4.9c-0.1,0.2-0.4,0.2-0.5,0.1l0,0c-0.2-0.1-0.2-0.3-0.1-0.5l0,0l4-4.9
							C149.3,262.8,149.5,262.7,149.6,262.9z M148,260.8c0.1-0.2,0.4-0.2,0.5,0c0.2,0.1,0.2,0.4,0.1,0.5l0,0l-4,4.9
							c-0.1,0.2-0.3,0.2-0.5,0.1l0,0c-0.2-0.1-0.2-0.4-0.1-0.5L148,260.8z M147.2,258.5c0.2,0.1,0.2,0.4,0.1,0.5l-4,4.9
							c-0.1,0.2-0.3,0.2-0.5,0.1s-0.2-0.3-0.1-0.5c0,0,0-0.1,0.1-0.1l4-4.9C146.8,258.3,147.1,258.3,147.2,258.5
							C147.2,258.4,147.3,258.4,147.2,258.5L147.2,258.5z"/>
						<path d="M249.7,262.9l4,4.9c0.1,0.2,0,0.4-0.1,0.5s-0.3,0.1-0.4,0l-4-4.9c-0.1-0.1-0.2-0.4,0-0.5
							C249.3,262.7,249.5,262.7,249.7,262.9L249.7,262.9z M254.8,265.7c0.1,0.2,0.1,0.4-0.1,0.5c-0.2,0.1-0.4,0.1-0.5-0.1l-4-4.9
							c-0.1-0.2,0-0.4,0.1-0.5s0.3-0.1,0.4,0L254.8,265.7z M252.1,258.5l4,4.9c0.1,0.1,0.2,0.4,0,0.5c-0.1,0.1-0.4,0.2-0.5,0
							c0,0,0-0.1-0.1-0.1l-4-4.9c-0.1-0.2-0.1-0.4,0.1-0.5l0,0C251.7,258.3,252,258.3,252.1,258.5L252.1,258.5L252.1,258.5z"/>
					</g>
					<rect x="-337.4" y="361" class="st17" width="631" height="374.4"/>
					<g class="st1">
						<path class="st18" d="M128.7,280.1c0,0-3.6-8.4-0.4-10.9c4.2-3.3,8.6-1.3,6.5,0.1c-1.1,0.8-2.3,1.4-3.5,1.8
							c0,0,6.9,3.5,4.3,8.8L128.7,280.1z"/>
						<path class="st19" d="M128.7,280.1c-0.8-1.9-1.4-3.8-1.8-5.9c-0.2-1-0.2-2.1,0-3.1c0.1-0.5,0.3-1,0.6-1.5
							c0.2-0.2,0.3-0.4,0.5-0.6c0.2-0.2,0.4-0.3,0.6-0.5c0.9-0.6,1.8-1,2.8-1.3s2.2-0.2,3.2,0.1c0.1,0.1,0.3,0.1,0.4,0.2
							c0.1,0.1,0.3,0.2,0.3,0.3c0.1,0.1,0.2,0.3,0.2,0.5s-0.1,0.4-0.2,0.5c-0.4,0.4-0.8,0.8-1.3,1c-0.9,0.5-1.9,0.9-2.9,1.1l0,0l0,0
							c0.8,0.4,1.5,1,2.2,1.6s1.3,1.2,1.8,2s0.8,1.6,0.9,2.5c0,0.9-0.2,1.8-0.6,2.6l0,0L128.7,280.1z M128.7,280.1l6.8-0.3l0,0
							c0.4-0.8,0.6-1.7,0.5-2.6s-0.4-1.8-0.9-2.5s-1.1-1.4-1.8-2s-1.4-1.1-2.2-1.5l0,0l0,0c0.9-0.4,1.8-0.9,2.6-1.5
							c0.4-0.2,0.8-0.5,1.1-0.8c0.2-0.3-0.1-0.6-0.5-0.8c-0.9-0.3-1.9-0.4-2.8-0.1c-0.9,0.2-1.8,0.6-2.6,1.1
							c-0.4,0.2-0.8,0.6-1.1,0.9c-0.3,0.4-0.5,0.8-0.6,1.3c-0.2,1-0.2,2-0.1,3C127.5,276.3,128,278.2,128.7,280.1L128.7,280.1z"/>
					</g>
					<path class="st20" d="M126.1,274.4c1.9,0.6,13,4,16,10c0,0-6.5,11.5-12.5,14.5c-1.3,0.6-16.5,7.5-25.5,2.5s-9.5-20.5-9.5-20.5
						s11-2,24,4c0,0,0-2,3-3C121.6,281.9,123.1,273.4,126.1,274.4z"/>
					<path class="st1" d="M160.6,384.9c0,0,40,5,77,0C237.6,384.9,175.6,378.9,160.6,384.9z"/>
					<g class="st1">
						<path class="st21" d="M106.5,368c2.9,1.1,5.8,2.5,8.5,4.1c1.4,0.8,2.7,1.7,3.9,2.8c0.7,0.5,1.2,1.2,1.7,1.9
							c0.2,0.4,0.4,0.8,0.5,1.3c0,0.3,0,0.6-0.1,0.9s-0.2,0.5-0.4,0.7c-0.6,0.7-1.5,1.1-2.4,1.3c-0.8,0.2-1.6,0.3-2.4,0.4
							c-1.6,0.2-3.2,0.2-4.7,0.2c-3.2,0-6.3-0.3-9.4-0.8s-6.2-1.4-9.1-2.7c-1.5-0.6-2.8-1.5-4-2.6c-0.6-0.6-1.1-1.4-1.2-2.3
							s0.3-1.8,1-2.5c1.2-1.1,2.6-2,4.2-2.3c1.5-0.4,3.1-0.6,4.7-0.8C100.3,367.4,103.4,367.5,106.5,368z M106.5,368.1
							c-3.1-0.3-6.2-0.2-9.3,0.1c-1.5,0.2-3,0.5-4.5,0.9c-1.4,0.4-2.8,1.1-3.8,2.2c-0.5,0.4-0.7,1-0.7,1.7c0.2,0.7,0.5,1.3,1,1.7
							c1.1,1,2.4,1.8,3.8,2.4c2.8,1.2,5.8,2,8.8,2.5s6.1,0.7,9.2,0.7c1.5,0,3.1-0.1,4.6-0.3c0.7-0.1,1.5-0.2,2.2-0.4
							c0.6-0.1,1.2-0.4,1.7-0.9c0.1-0.2,0.2-0.4,0.2-0.6c0-0.1,0-0.2-0.1-0.4c-0.1-0.1-0.1-0.3-0.2-0.4c-0.4-0.6-0.9-1.1-1.4-1.6
							c-1.1-1-2.3-2-3.6-2.8C111.8,371.3,109.1,369.6,106.5,368.1L106.5,368.1z"/>
						<path class="st22" d="M106.5,368c0,0,24,11.2,8.9,12.7s-31-4.6-27-9.5S106.5,368,106.5,368z"/>
					</g>
					<g class="st1">
						<path class="st19" d="M110.6,325.5c0.8,3.6,1.5,7.3,2.2,10.9s1.2,7.3,1.7,11s0.8,7.4,1,11.1c0.1,1.9,0.1,3.8,0,5.6
							c0,2-0.4,4-1.1,5.9l0.1-0.3c0,0.2-0.1,0.3-0.1,0.5c-0.1,0.1-0.1,0.3-0.2,0.4c-0.1,0.2-0.3,0.4-0.4,0.6
							c-0.3,0.3-0.6,0.6-0.9,0.9c-0.7,0.5-1.4,0.9-2.1,1.1c-1.4,0.5-2.9,0.8-4.3,1c-2.8,0.3-5.7,0.3-8.6,0c-1.4-0.1-2.8-0.3-4.2-0.5
							l-2.1-0.3c-0.7-0.1-1.4-0.2-2.2-0.4c-0.4-0.1-0.8-0.3-1.2-0.5c-1.1-0.5-1.8-1.8-1.4-3c0.1-0.4,0.2-0.8,0.4-1.2
							c0.6-1.4,1.2-2.6,1.8-3.8c2.3-5,3.7-10.3,4.3-15.7c0.6-5.5,0.7-11,0.4-16.5l0,0l0,0l0,0l17.5-6.9v0.1l-17.5,6.9l0,0l0,0
							c1,5.5,1.3,11.1,1,16.7c-0.2,5.6-1.5,11.1-3.6,16.3c-0.6,1.3-1.2,2.6-1.7,3.8c-0.1,0.3-0.2,0.5-0.2,0.8c-0.1,0.2,0,0.3,0,0.3
							c0.3,0.2,0.6,0.3,1,0.4c0.6,0.2,1.3,0.3,1.9,0.4c0.7,0.1,1.3,0.2,2,0.3c1.4,0.2,2.7,0.3,4.1,0.5c2.7,0.3,5.4,0.3,8.1,0.1
							c1.3-0.1,2.6-0.4,3.8-0.8c0.5-0.2,1.1-0.5,1.6-0.8c0.2-0.1,0.4-0.3,0.6-0.5c0.1-0.1,0.1-0.2,0.2-0.3l0.1-0.1c0,0,0-0.1,0,0
							l0.1-0.3c0.6-1.6,0.9-3.3,1-5c0.1-1.8,0.1-3.6,0.1-5.5c0-3.7-0.3-7.4-0.6-11s-0.7-7.4-1.1-11s-0.9-7.4-1.3-11L110.6,325.5z"/>
						<path class="st23" d="M110.6,325.5l0.2,1c1,5.9,6,36.2,2.7,43.1c0,0-0.9,6.1-22.4,2.5c-9.6-1.6,6.6-5.4,2.8-39.8l17.5-6.9"/>
					</g>
					<g class="st1">
						<path class="st21" d="M81.9,370.9c3.1,1.2,6.1,2.7,9,4.4c1.5,0.9,2.9,1.8,4.2,2.9c0.7,0.6,1.3,1.3,1.8,2
							c0.3,0.4,0.5,0.9,0.5,1.4c0,0.3,0,0.6-0.1,0.9c0,0.1-0.1,0.3-0.2,0.4s-0.2,0.2-0.3,0.4c-0.7,0.7-1.6,1.2-2.5,1.4
							c-0.8,0.2-1.7,0.4-2.6,0.5c-1.7,0.2-3.4,0.2-5,0.3c-3.4,0-6.7-0.3-10-0.9c-3.3-0.5-6.6-1.5-9.7-2.9c-1.6-0.7-3.1-1.6-4.3-2.8
							c-0.7-0.6-1.1-1.5-1.3-2.4c-0.1-1,0.3-1.9,1-2.6c1.3-1.2,2.8-2.1,4.5-2.5c1.6-0.4,3.3-0.7,5-0.8
							C75.3,370.3,78.6,370.4,81.9,370.9z M81.9,371c-3.3-0.3-6.6-0.3-9.9,0c-1.6,0.2-3.2,0.5-4.8,1c-1.5,0.4-3,1.2-4.1,2.4
							c-0.5,0.5-0.8,1.2-0.7,1.9c0.2,0.7,0.5,1.4,1.1,1.9c1.2,1.1,2.6,1.9,4.1,2.5c3,1.2,6.2,2.1,9.4,2.6c3.2,0.5,6.5,0.8,9.8,0.8
							c1.6,0,3.3-0.1,4.9-0.3c0.8-0.1,1.6-0.2,2.3-0.4c0.7-0.1,1.3-0.5,1.8-0.9c0.2-0.2,0.2-0.4,0.2-0.6c0-0.1-0.1-0.3-0.1-0.4
							c-0.1-0.2-0.1-0.3-0.2-0.5c-0.4-0.6-0.9-1.2-1.5-1.7c-1.2-1.1-2.5-2.1-3.9-3C87.6,374.3,84.8,372.6,81.9,371L81.9,371z"/>
						<path class="st22" d="M81.9,370.9c0,0,25.7,12,9.5,13.5s-33.1-4.9-28.9-10.2S81.9,370.9,81.9,370.9z"/>
					</g>
					<g class="st1">
						<path class="st19" d="M86.3,325.5c0.9,3.9,1.6,7.8,2.3,11.7s1.3,7.8,1.8,11.8s0.9,7.9,1.1,11.9c0.1,2,0.1,4,0,6
							c0,1-0.1,2.1-0.3,3.1c-0.1,1.1-0.4,2.2-0.9,3.2l0.1-0.4c0,0.2-0.1,0.4-0.2,0.5c0,0.1-0.1,0.3-0.2,0.4
							c-0.1,0.2-0.3,0.4-0.4,0.6c-0.3,0.4-0.6,0.7-1,1c-0.7,0.5-1.4,0.9-2.2,1.2c-1.5,0.5-3,0.9-4.6,1c-3,0.3-6.1,0.3-9.1,0
							c-1.5-0.1-3-0.3-4.5-0.5l-2.2-0.4c-0.8-0.1-1.5-0.3-2.3-0.5c-0.4-0.1-0.9-0.3-1.3-0.5c-0.6-0.3-1.1-0.7-1.3-1.3
							c-0.2-0.6-0.3-1.2-0.2-1.8c0.1-0.4,0.2-0.9,0.4-1.3c0.6-1.5,1.3-2.7,1.9-4.1c2.4-5.3,4-11,4.6-16.8c0.6-5.9,0.8-11.8,0.4-17.7
							l0,0l0,0l0,0l18.8-7.4v0.1l-18.7,7.3v-0.1l0,0c1,5.9,1.4,11.9,1.1,17.8c-0.3,6-1.7,12-4.1,17.5c-0.6,1.4-1.3,2.8-1.8,4
							c-0.1,0.3-0.2,0.6-0.3,0.9c0,0.1,0,0.2,0,0.4c0.3,0.2,0.7,0.4,1.1,0.5c0.6,0.2,1.3,0.3,2.1,0.4l2.2,0.3
							c1.4,0.2,2.9,0.4,4.3,0.5c2.9,0.3,5.8,0.3,8.6,0.1c1.4-0.1,2.7-0.4,4-0.9c0.6-0.2,1.2-0.5,1.7-0.9c0.2-0.2,0.4-0.3,0.6-0.5
							c0.1-0.1,0.2-0.2,0.2-0.3l0.1-0.1c0,0,0-0.1,0,0l0.1-0.3c0.7-1.7,1-3.5,1.1-5.4s0.2-3.9,0.1-5.8c0-3.9-0.3-7.9-0.7-11.8
							s-0.7-7.9-1.2-11.8s-0.9-7.9-1.4-11.8L86.3,325.5z"/>
						<path class="st23" d="M86.3,325.5c0,0,0.1,0.4,0.2,1.1c1.1,6.3,6.5,38.6,2.9,46c0,0-0.9,6.6-24,2.6c-10.2-1.7,7-5.8,3-42.5
							l18.7-7.3"/>
					</g>
					<g class="st1">
						<path class="st24" d="M62.7,332.3c0,0,7.7-34.5,7-44.9s31.8-7.7,31.8-7.7s8.1,0,10.2,27.6c1.2,15.7,2.8,21.6,2.8,21.6
							S103.1,339.7,62.7,332.3z"/>
						<path class="st19" d="M62.7,332.3c1.4-6.6,2.7-13.2,3.9-19.8s2.3-13.3,2.8-20c0.1-1.7,0.2-3.3,0.1-5c-0.1-0.9,0.1-1.8,0.5-2.6
							c0.4-0.8,1-1.5,1.7-2c1.4-1,3-1.7,4.7-2.2c1.6-0.5,3.3-0.8,5-1.1c3.3-0.4,6.7-0.7,10.1-0.6c3.4,0,6.7,0,10.1,0.3l0,0
							c0.6,0.1,1.2,0.3,1.8,0.6c0.5,0.3,1,0.7,1.4,1.1c0.8,0.8,1.5,1.7,2.1,2.7c1.1,1.9,2,4,2.6,6.1c1.2,4.2,2.1,8.6,2.6,13
							s0.8,8.7,1.3,13.1c0.4,4.3,1.1,8.6,2,12.9l0,0l0.1,0.5l-0.3,0.3c-0.9,0.7-1.9,1.4-3,1.9c-1,0.5-2.1,0.9-3.1,1.3
							c-2.1,0.7-4.3,1.3-6.5,1.7c-4.4,0.7-8.9,1.1-13.3,1c-4.4,0-8.9-0.3-13.3-0.9C71.4,333.9,67.1,333.2,62.7,332.3z M62.7,332.3
							c8.7,1.6,17.5,2.3,26.4,2.2c4.4-0.1,8.8-0.5,13.1-1.4c2.1-0.4,4.2-1,6.3-1.8c1-0.4,2-0.8,3-1.3c0.9-0.5,1.8-1.1,2.6-1.7
							l-0.2,0.7l0,0c-0.9-4.3-1.5-8.7-1.9-13c-0.5-4.4-0.7-8.8-1.2-13.1c-0.4-4.3-1.2-8.6-2.4-12.8c-0.6-2.1-1.4-4.1-2.5-5.9
							c-0.5-0.9-1.2-1.8-1.9-2.5c-0.4-0.4-0.8-0.7-1.2-1c-0.4-0.3-0.8-0.4-1.3-0.5l0,0c-3.3-0.3-6.7-0.4-10-0.4s-6.7,0.2-10,0.6
							c-1.7,0.2-3.3,0.6-4.9,1s-3.1,1.1-4.5,2c-3.1,1.9-1.6,5.9-2.2,9.1c-0.6,6.7-1.8,13.4-3,20S64.2,325.7,62.7,332.3L62.7,332.3z"
							/>
					</g>
					<g class="st1">
						<path class="st18" d="M98.5,276.7c0,0,0.7,6.1-3.2,8.6c-2.8,1.8-7.4-5.3-7.4-5.3s0.8-2.7,1.4-4.4S98.5,276.7,98.5,276.7z"/>
						<path class="st19" d="M98.5,276.6c0.3,1.7,0.3,3.4-0.1,5c-0.2,0.8-0.6,1.6-1.1,2.4c-0.5,0.7-1.2,1.3-1.9,1.8
							c-0.5,0.3-1,0.4-1.5,0.3s-0.9-0.2-1.3-0.4c-0.7-0.4-1.4-1-2-1.6c-1.1-1.2-2.1-2.5-2.9-4l0,0l0,0l0,0l1.1-3.4l0.3-0.9
							c0.1-0.3,0.3-0.6,0.6-0.6c0.6-0.1,1.2-0.2,1.8-0.1c1.2,0.1,2.4,0.4,3.5,0.6C96.2,276,97.3,276.2,98.5,276.6z M98.4,276.7
							c-1.1-0.3-2.3-0.7-3.4-1c-1.2-0.3-2.3-0.5-3.5-0.6c-0.6-0.1-1.2-0.1-1.8,0.1c-0.6,0.1-0.6,0.9-0.8,1.4l-1.1,3.4l0,0l0,0
							c1,1.2,2.1,2.4,3.3,3.5c0.6,0.5,1.2,1,1.9,1.3c0.6,0.4,1.2,0.4,1.8,0.1c1.3-0.8,2.2-2.1,2.7-3.5
							C98.1,279.9,98.4,278.3,98.4,276.7L98.4,276.7z"/>
					</g>
					<g class="st1">
						<path class="st19" d="M120.2,254.4c1.8-7.3,3.4-10.1,0.3-11.7s-8.2-7.8-14.1-7.6s-14.2-3.9-18.7-1.6s-14.9,4.4-15.2,6.9
							s-8,9.6-5.9,13.9c2.1,4.3-1.4,4.8,2.7,8.8s3.9,10.1,7.2,10.7c2.2,0.3,4.4,0.3,6.6,0L120.2,254.4z"/>
						<path class="st25" d="M120.2,254.4c0.4-2.2,1-4.5,1.5-6.7c0.1-0.5,0.2-1.1,0.2-1.7c0.1-0.5,0-1.1-0.2-1.6s-0.5-0.8-0.9-1.1
							c-0.4-0.2-1-0.5-1.5-0.8c-2-1.3-3.7-2.8-5.6-4c-0.9-0.6-1.9-1.2-2.9-1.6c-1-0.5-2-0.8-3.1-0.9c-0.3,0-0.5-0.1-0.8-0.1h-0.8
							c-0.6,0-1.2,0-1.8,0c-1.2-0.1-2.3-0.3-3.5-0.5c-2.3-0.4-4.5-1-6.7-1.3s-4.4-0.5-6.2,0.4c-2.1,1-4.3,1.8-6.5,2.5
							c-2.1,0.7-4.3,1.5-6.3,2.4c-0.5,0.2-0.9,0.5-1.3,0.8c-0.2,0.1-0.3,0.2-0.4,0.4v0.1l0,0v0.1l-0.1,0.3c-0.2,0.6-0.5,1.2-0.9,1.8
							c-0.3,0.5-0.7,1-1,1.4c-1.4,1.8-2.6,3.7-3.6,5.6c-0.5,0.9-0.7,1.9-0.7,2.9c0,0.2,0,0.5,0.1,0.7s0.1,0.4,0.2,0.7
							c0.2,0.6,0.4,1.2,0.5,1.8c0.3,1.3-0.1,2.6-0.1,3.5c0.1,1,0.6,1.9,1.3,2.6l1.2,1.3c0.4,0.5,0.7,0.9,1.1,1.5
							c0.6,1,1.2,2,1.6,3.1s0.8,2.2,1.3,3.2c0.3,1,1,1.8,2,2.3c1.1,0.3,2.2,0.4,3.3,0.4c1.1,0.1,2.3,0,3.4-0.1l0,0L120.2,254.4z
							 M120.2,254.4l-37.1,19.5l0,0c-2.3,0.5-4.6,0.5-6.9,0.2c-0.6-0.2-1.2-0.5-1.6-1s-0.7-1-1-1.5c-0.6-1-1-2.1-1.5-3.1
							s-1-2-1.6-2.9c-0.3-0.5-0.6-0.9-1-1.3l-1.2-1.2c-0.4-0.5-0.8-0.9-1.2-1.5c-0.3-0.6-0.6-1.2-0.6-1.9c0-0.6,0-1.2,0.1-1.8
							c0-0.5,0-1-0.1-1.5s-0.3-1-0.5-1.4c-0.1-0.2-0.2-0.6-0.3-0.9c-0.1-0.3-0.2-0.7-0.2-1c0-1.3,0.3-2.6,0.8-3.7
							c1-2.1,2.3-4.1,3.7-6c0.3-0.5,0.6-0.9,0.9-1.4c0.3-0.4,0.5-0.8,0.7-1.3v-0.1v-0.1v-0.2c0.1-0.3,0.2-0.5,0.3-0.7
							c0.2-0.3,0.5-0.6,0.8-0.8c0.5-0.4,1.1-0.7,1.6-1c2.1-1,4.3-1.8,6.5-2.5c2.1-0.7,4.2-1.5,6.3-2.4c1.2-0.6,2.4-0.9,3.7-0.9
							c1.2,0,2.4,0.1,3.6,0.3c2.3,0.4,4.5,1,6.8,1.5c1.1,0.2,2.2,0.4,3.3,0.6c0.5,0.1,1.1,0.1,1.6,0.1c0.6,0,1.2,0,1.8,0.1
							c1.2,0.2,2.4,0.6,3.4,1.1c1.1,0.5,2.1,1.1,3,1.9c1.9,1.4,3.6,2.9,5.4,4.3c0.4,0.3,0.9,0.6,1.4,0.9c0.5,0.4,0.9,0.9,1.2,1.6
							c0.2,0.6,0.2,1.2,0.1,1.9c-0.1,0.6-0.2,1.2-0.4,1.7C121.6,250,120.8,252.1,120.2,254.4L120.2,254.4z"/>
					</g>
					<g class="st1">
						<path class="st8" d="M51.8,330.9l14.9-1.8c0.3,0,0.5,0.2,0.6,0.4l2.6,21.8c0,0.3-0.2,0.5-0.4,0.6l-14.9,1.8
							c-0.3,0-0.5-0.2-0.6-0.4l-2.6-21.8C51.3,331.2,51.5,330.9,51.8,330.9z"/>
						<path class="st11" d="M69.5,352.5l-9.6,1.3l-4.8,0.6h-0.3h-0.1h-0.2c-0.5,0-0.9-0.3-1.1-0.8c0-0.1-0.1-0.2-0.1-0.3v-0.1v-0.3
							l-0.1-0.6l-0.3-2.4l-1-9.6l-0.5-4.8l-0.3-2.4l-0.1-1.2v-0.3c0-0.1,0-0.3,0-0.5c0.1-0.4,0.4-0.6,0.8-0.7l9.6-1l4.8-0.5
							c0.2,0,0.4,0,0.6-0.1c0.3,0,0.6,0.2,0.7,0.5c0.1,0.5,0.1,0.8,0.2,1.3L68,333c0.4,3.2,0.8,6.4,1.3,9.6l0.7,4.8l0.3,2.4l0.2,1.2
							v0.3c0,0.2,0,0.3,0,0.5C70.3,352.1,69.9,352.4,69.5,352.5z M69.4,351.5l-0.9-8.8c-0.3-3.2-0.7-6.4-1-9.6l-0.3-2.4
							c-0.1-0.4-0.1-0.9-0.1-1.1c0-0.1-0.1-0.2-0.2-0.1l-0.6,0.1l-4.8,0.5l-9.6,1.3c-0.1,0-0.1,0,0,0.5L52,333l0.3,2.4l0.6,4.8
							l1.3,9.6l0.3,2.4l0.1,1c0-0.1-0.1-0.1-0.2-0.1h0.5l4.8-0.5L69.4,351.5z"/>
					</g>
					<g class="st1">
						<path class="st18" d="M60.9,317.8c-4.7-0.2-8.6,2.5-8.8,6l0,0l0,0c-3,3.6-3,12.3-1.7,11.7s3.2-5,3-3.9s-1.2,10.3,0.5,9.8
							s3.6-8.1,3.6-8.1s-0.8,9.6,1.5,8.3c1.8-1.1,2.9-8,3.1-11.2c1.4-0.1,2.7-0.5,3.9-1.2c0.6,2.8,1,7,2.5,6
							c1.8-1.1,1.3-6.7,0.3-9.2c0.2-0.5,0.3-0.9,0.3-1.4C69.3,321,65.6,318,60.9,317.8z"/>
						<path class="st19" d="M60.9,317.8c-2-0.1-3.9,0.3-5.6,1.3c-0.9,0.5-1.6,1.1-2.2,1.9c-0.6,0.8-0.9,1.7-1,2.7l0,0
							c-0.9,1.3-1.6,2.7-1.9,4.2c-0.3,1.5-0.5,3-0.5,4.6c0,0.8,0.1,1.5,0.2,2.3c0,0.2,0.1,0.3,0.2,0.5c0.1,0.1,0.1,0.1,0.3,0
							c0.3-0.2,0.5-0.5,0.8-0.8c0.5-0.6,0.9-1.3,1.2-1.9l0.6-1l0.1-0.1v-0.1l0,0l0,0h0.1c0.1,0,0.1,0,0.2,0.1v0.1v0.1v0.1v0.1
							l-0.1,0.6c-0.2,1.5-0.3,3.1-0.3,4.6c0,0.8,0,1.5,0,2.3c0,0.4,0.1,0.8,0.2,1.1c0.1,0.3,0.2,0.8,0.4,0.9s0.2,0,0.3-0.1
							s0.3-0.2,0.4-0.3c0.2-0.3,0.4-0.6,0.6-0.9c0.4-0.7,0.7-1.4,0.9-2.1c0.6-1.4,1.1-2.9,1.6-4.4l0,0v-0.1v0.1
							c-0.1,1.7-0.1,3.5,0,5.3c0,0.9,0.2,1.7,0.5,2.5c0.2,0.4,0.5,0.6,0.8,0.4s0.6-0.6,0.8-0.9c0.8-1.6,1.3-3.2,1.6-4.9
							c0.4-1.7,0.6-3.5,0.8-5.2l0,0c1.5-0.1,2.9-0.6,4.2-1.4l0,0c0.4,1.4,0.7,2.7,1,4.1c0.1,0.3,0.2,0.7,0.3,1
							c0.1,0.3,0.3,0.6,0.5,0.8c0.2,0.1,0.4,0.1,0.6-0.1c0.3-0.2,0.5-0.5,0.6-0.8c0.4-1.3,0.6-2.6,0.5-4s-0.3-2.8-0.6-4.1l0,0
							c0.4-1,0.4-2.2,0-3.2s-1-1.9-1.8-2.6C65.3,318.6,63.1,317.8,60.9,317.8z M60.9,317.8c2.2,0.1,4.4,0.8,6.1,2.2
							c0.8,0.7,1.5,1.6,1.9,2.7c0.4,1,0.4,2.2,0,3.2l0,0c0.5,1.3,0.9,2.7,1,4.1c0.1,0.7,0.1,1.4,0.1,2.1s-0.2,1.5-0.4,2.1
							c-0.1,0.4-0.4,0.7-0.7,1c-0.2,0.1-0.4,0.3-0.6,0.3s-0.5,0-0.7-0.2c-0.3-0.3-0.5-0.6-0.6-1c-0.1-0.3-0.2-0.7-0.3-1
							c-0.3-1.4-0.4-2.8-0.6-4.2l0,0c-1.2,0.7-2.6,1.1-3.9,1.3l0,0c0,1.8-0.2,3.5-0.5,5.2s-0.8,3.4-1.5,5c-0.2,0.4-0.5,0.7-0.9,1
							c-0.2,0.2-0.5,0.2-0.8,0c-0.2-0.1-0.4-0.3-0.5-0.6c-0.3-0.8-0.5-1.7-0.5-2.6c-0.1-1.8,0-3.5,0.2-5.3l0,0
							c-0.3,1.5-0.7,3-1.2,4.5c-0.3,0.7-0.6,1.5-0.9,2.2c-0.2,0.4-0.4,0.7-0.7,1c-0.1,0.2-0.3,0.3-0.5,0.4c-0.1,0.1-0.2,0.1-0.3,0.2
							c-0.2,0-0.3,0-0.5-0.1s-0.4-0.3-0.4-0.6c-0.1-0.2-0.1-0.4-0.2-0.6c-0.1-0.4-0.1-0.8-0.2-1.2c0-0.8,0-1.6,0-2.4
							c0-1.5,0.2-3.1,0.4-4.6l0.1-0.6v-0.1l0,0l0,0v0.1c0,0.1,0.1,0.1,0.2,0.1c0.1,0,0.1,0,0.1,0l0,0l0,0l-0.1,0.1l-0.6,1
							c-0.4,0.7-0.8,1.4-1.3,2c-0.2,0.3-0.5,0.6-0.9,0.9c-0.1,0.1-0.2,0.1-0.3,0.1c-0.2,0-0.3,0-0.4-0.2c-0.1-0.2-0.2-0.4-0.3-0.6
							c-0.2-0.8-0.2-1.6-0.2-2.4c0-1.6,0.3-3.1,0.7-4.6s1-2.9,2-4.2l0,0c0.1-1,0.4-1.9,1-2.7c0.6-0.8,1.3-1.5,2.2-1.9
							C57,318.1,59,317.6,60.9,317.8L60.9,317.8z"/>
					</g>
					<g class="st1">
						<path class="st24" d="M71.6,282.9c-9.9,0.8-22,42.4-21.9,44.3s13.2,5.3,22.6,2.5C72.3,329.7,81.8,282.1,71.6,282.9z"/>
						<path class="st19" d="M71.7,283.4c-1.4,0.3-2.7,1-3.6,2.1c-1,1.1-2,2.3-2.8,3.6c-1.6,2.6-3.1,5.3-4.3,8.1
							c-2.5,5.6-4.6,11.4-6.6,17.2c-1,2.9-1.9,5.9-2.7,8.8l-0.6,2.2l-0.3,1.1c0,0.2-0.1,0.4-0.1,0.5v0.1c0-0.1,0-0.1,0-0.1
							c0.2,0.2,0.3,0.3,0.5,0.4c0.3,0.2,0.6,0.3,0.9,0.5c0.7,0.3,1.4,0.5,2.1,0.8c2.9,0.8,5.9,1.4,8.9,1.6c3.1,0.2,6.1,0.1,9.1-0.5
							l0,0l0,0c0.7-4,1.4-8.1,1.9-12.1s1-8.1,1.3-12.2c0.4-4.1,0.5-8.2,0.3-12.2c-0.1-2-0.4-4-0.8-6c-0.2-0.9-0.6-1.8-1.2-2.6
							C73.4,283.7,72.5,283.3,71.7,283.4z M71.6,282.4c0.6,0,1.2,0.1,1.8,0.4c0.5,0.3,1,0.7,1.3,1.2c0.6,0.9,1,1.9,1.3,3
							c0.5,2,0.7,4.1,0.8,6.2c0.1,4.1-0.1,8.2-0.6,12.3c-0.4,4.1-1,8.1-1.6,12.2s-1.3,8.1-2.2,12.1l0,0l0,0c-1.5,0.6-3,1-4.5,1.2
							c-1.6,0.3-3.1,0.4-4.7,0.4c-3.2,0.1-6.3-0.3-9.4-1c-0.8-0.2-1.6-0.4-2.3-0.7c-0.4-0.2-0.8-0.3-1.2-0.5c-0.5-0.3-1-0.6-1.3-1.1
							c-0.1-0.2-0.2-0.4-0.3-0.7c0-0.1,0-0.2,0-0.3v-0.2c0-0.2,0.1-0.4,0.1-0.6l0.3-1.2c0.2-0.8,0.4-1.5,0.6-2.3
							c0.8-3,1.8-6,2.8-8.9s2.1-5.9,3.3-8.7s2.4-5.7,3.8-8.5c1.4-2.8,2.9-5.5,4.7-8.1c0.9-1.3,1.9-2.5,3-3.7
							C68.3,283.5,69.9,282.7,71.6,282.4L71.6,282.4z"/>
					</g>
					<g class="st1">
						<ellipse class="st18" cx="97.3" cy="258.6" rx="24.2" ry="20"/>
						<path class="st19" d="M121.9,258.6c0,3-0.7,6-2.2,8.6s-3.4,4.9-5.8,6.7c-9.9,7.3-23.4,7.3-33.3,0c-2.4-1.8-4.4-4.1-5.9-6.7
							s-2.2-5.6-2.2-8.6s0.8-6,2.3-8.6s3.5-4.8,5.9-6.6c4.8-3.4,10.6-5.3,16.5-5.2c5.9,0,11.7,1.8,16.5,5.3c2.4,1.7,4.4,4,5.9,6.5
							C121.1,252.7,121.9,255.6,121.9,258.6z M121,258.6c0-2.8-0.7-5.6-2.1-8.1s-3.3-4.7-5.6-6.4c-4.7-3.4-10.3-5.3-16.1-5.2
							c-5.8,0-11.4,1.8-16,5.3c-2.3,1.7-4.2,3.9-5.5,6.4c-1.4,2.5-2.1,5.3-2.1,8.1c0,2.8,0.8,5.6,2.2,8c1.4,2.4,3.3,4.5,5.6,6.2
							c9.5,6.7,22.2,6.7,31.8,0c2.3-1.7,4.2-3.8,5.6-6.2C120.2,264.2,121,261.4,121,258.6L121,258.6z"/>
					</g>
					<path class="st26" d="M120.2,252.1c-0.1-0.3-0.1-0.6-2-1.4s1.2-2.7-4.1-3.6s-3.9,1.4-10.7,2.1s-6.1-3.7-9.3-1.9s-7,0.7-8.9,3.3
						s-4.6-2.2-5.8,0.9s4.6,6.6-0.6,11.3s-3.6,5.5-3.6,5.5l-5.3-15l7.5-10.5c0,0,11.1-4.7,11.8-4.9s13.7,0,13.7,0l7.7,1.6l8.6,8.1
						c0.3,0.3,0.6,0.7,0.6,1.2l0.8,4.1"/>
					<g class="st1">
						<circle cx="98.6" cy="261.9" r="2.8"/>
						
							<ellipse transform="matrix(0.8005 -0.5993 0.5993 0.8005 -136.4797 111.792)" class="st9" cx="99.7" cy="260.9" rx="0.7" ry="1.4"/>
					</g>
					<path class="st26" d="M102.2,257.9c-0.9-0.5-1.8-0.8-2.8-1c-0.9-0.2-1.9-0.4-2.9-0.4c-0.5,0-1,0-1.5,0l-1.5,0.1l-1.6,0.2
						c-0.5,0.1-1,0.2-1.6,0.2l0,0c0.9-0.6,1.9-1,2.9-1.4c0.5-0.2,1.1-0.3,1.6-0.4c0.5-0.1,1.1-0.2,1.7-0.2c0.6-0.1,1.1-0.1,1.7,0
						c0.6,0,1.1,0.2,1.7,0.4C101,255.8,101.9,256.7,102.2,257.9L102.2,257.9z"/>
					<g class="st1">
						<circle cx="115" cy="261.4" r="2.5"/>
						
							<ellipse transform="matrix(0.8085 -0.5885 0.5885 0.8085 -131.094 118.1445)" class="st9" cx="116" cy="260.5" rx="0.6" ry="1.2"/>
					</g>
					<path class="st26" d="M117.8,258.3c-0.2-0.6-0.5-1.2-1.1-1.5c-0.5-0.4-1.1-0.7-1.7-0.8c-0.3-0.1-0.7-0.2-1-0.3
						s-0.7-0.2-1.1-0.2c-0.7-0.2-1.5-0.3-2.3-0.5v-0.1c0.8-0.2,1.5-0.4,2.3-0.5s1.6,0,2.4,0.1c0.4,0.1,0.8,0.2,1.2,0.4
						c0.4,0.2,0.8,0.4,1.2,0.8c0.4,0.4,0.6,0.8,0.6,1.4C118.4,257.5,118.2,258,117.8,258.3L117.8,258.3z"/>
					<path class="st27" d="M342.4,246.2c0,0.1,0.1,0.2,0.1,0.2c0.4,0.8,2.3,2.5,7,3.6c5.8,1.3-5.5,3.9-5.5,3.9l-3.6-4.5"/>
					<path class="st27" d="M321.4,246.2c0,0.1,0.1,0.2,0.1,0.2c0.4,0.8,1.1,1.7,5.9,2.9c5.8,1.4-1.4,3.7-1.4,3.7l-5-4.6"/>
					<path class="st28" d="M376.9,305c-0.6-3.2-2.9-5.8-5.9-6.9"/>
					<path class="st28" d="M381.1,300c0,0-3.3-5.1-8.6-4.1"/>
					<path class="st28" d="M325.2,298.7c0,0,0.7-2,4.7-2.3"/>
					<path class="st28" d="M329.4,294.1c0,0-3.7-0.5-5.1,1.3"/>
					<g class="st1">
						<path class="st29" d="M387.8,248.2c0,0-9.5,0.7-17.3,18.3c0,0,3.3-9,18.3-12.2S387.8,248.2,387.8,248.2z"/>
						<path class="st30" d="M387.8,248.6c-1,0.2-2.1,0.5-3,0.9c-0.5,0.2-0.9,0.5-1.4,0.7s-0.9,0.6-1.4,0.9c-1.7,1.3-3.3,2.7-4.7,4.4
							c-1.4,1.7-2.6,3.4-3.8,5.3c-0.5,1-1.1,1.9-1.6,2.8l-1.4,2.9l-0.2-0.1l0,0c0.5-1.5,1.4-3,2.5-4.2c1.1-1.3,2.3-2.4,3.6-3.3
							c2.7-1.9,5.6-3.3,8.8-4.2c0.8-0.3,1.6-0.4,2.4-0.6s1.6-0.4,2.4-0.5c1.5-0.3,3-0.8,4.4-1.5c0.3-0.2,0.5-0.4,0.5-0.6
							s-0.2-0.4-0.5-0.6c-0.6-0.4-1.3-0.8-2-1C390.8,249.3,389.3,248.9,387.8,248.6z M387.8,247.9c1.6,0.3,3.2,0.7,4.8,1.2
							c0.8,0.2,1.6,0.6,2.3,1.1c0.5,0.3,0.8,0.8,0.8,1.3c-0.1,0.5-0.4,1-0.9,1.2c-1.4,0.8-3,1.4-4.6,1.8c-0.8,0.2-1.6,0.4-2.3,0.6
							s-1.5,0.4-2.3,0.6c-3,0.9-5.9,2.3-8.5,4.1c-2.6,1.8-4.8,4.1-6.4,6.8l0,0l-0.2-0.1l1.4-3c0.5-1,1-1.9,1.5-2.9
							c1.1-1.9,2.3-3.7,3.7-5.4c1.4-1.7,2.9-3.3,4.7-4.6c0.4-0.3,0.9-0.6,1.4-0.9s1-0.6,1.5-0.8
							C385.6,248.4,386.7,248.1,387.8,247.9L387.8,247.9z"/>
					</g>
					<g class="st1">
						<g>
							
								<ellipse transform="matrix(0.7965 -0.6046 0.6046 0.7965 -133.7118 137.8955)" class="st18" cx="138" cy="267.6" rx="2.4" ry="2.1"/>
							<path class="st19" d="M140.1,266c0.4,0.5,0.5,1.2,0.3,1.9c-0.2,0.6-0.6,1.1-1.1,1.5c-0.9,0.8-2.3,0.8-3.2-0.1
								c-0.8-0.9-0.8-2.3,0.1-3.2c0.1-0.1,0.2-0.2,0.3-0.3c0.5-0.4,1.1-0.6,1.7-0.6C139.1,265.2,139.7,265.5,140.1,266z
								 M139.7,266.3c-0.7-0.9-2-1-2.9-0.3c-0.5,0.3-0.8,0.8-1,1.4c-0.3,1,0.2,2,1.2,2.3c0.2,0.1,0.4,0.1,0.6,0.1
								c0.6,0,1.1-0.2,1.6-0.6C140.1,268.5,140.4,267.2,139.7,266.3L139.7,266.3z"/>
						</g>
						<g>
							
								<ellipse transform="matrix(0.7965 -0.6046 0.6046 0.7965 -135.0977 139.5854)" class="st18" cx="139.8" cy="270.5" rx="2.4" ry="2.1"/>
							<path class="st19" d="M142,268.9c0.4,0.5,0.5,1.2,0.3,1.9c-0.2,0.6-0.6,1.1-1.1,1.5c-0.9,0.8-2.3,0.7-3.1-0.2
								c-0.8-0.9-0.7-2.3,0.2-3.1c0.1-0.1,0.2-0.1,0.3-0.2c0.5-0.4,1.1-0.6,1.7-0.6C140.9,268.1,141.6,268.3,142,268.9z
								 M141.6,269.2c-0.7-0.9-2-1-2.9-0.3c-0.5,0.3-0.8,0.8-1,1.4c-0.3,1,0.2,2,1.2,2.3c0.2,0.1,0.4,0.1,0.6,0.1
								c0.6,0,1.2-0.2,1.6-0.6C142,271.4,142.2,270.1,141.6,269.2L141.6,269.2z"/>
						</g>
						<g>
							
								<ellipse transform="matrix(0.7965 -0.6046 0.6046 0.7965 -136.489 140.6508)" class="st18" cx="140.7" cy="273.1" rx="2.1" ry="1.9"/>
							<path class="st19" d="M142.6,271.7c0.3,0.5,0.4,1.1,0.3,1.7c-0.2,0.5-0.5,1-1,1.3c-0.7,0.8-2,0.9-2.8,0.2s-0.9-2-0.2-2.8
								c0.2-0.2,0.4-0.4,0.6-0.5c0.4-0.4,1-0.6,1.5-0.6C141.6,270.9,142.2,271.2,142.6,271.7z M142.2,272c-0.6-0.8-1.8-0.9-2.6-0.3
								c-0.4,0.3-0.7,0.7-0.9,1.2c-0.3,0.9,0.2,1.8,1.1,2c0.2,0.1,0.4,0.1,0.5,0.1c0.5,0,1-0.2,1.4-0.5
								C142.6,273.9,142.7,272.8,142.2,272L142.2,272z"/>
						</g>
						<g>
							
								<ellipse transform="matrix(0.7965 -0.6046 0.6046 0.7965 -137.836 141.7647)" class="st18" cx="141.7" cy="275.7" rx="1.8" ry="1.5"/>
							<path class="st19" d="M143.3,274.5c0.3,0.4,0.4,1,0.2,1.4c-0.1,0.5-0.4,0.8-0.8,1.1c-0.7,0.6-1.7,0.5-2.3-0.2
								s-0.5-1.7,0.2-2.3c0.1-0.1,0.1-0.1,0.2-0.1C141.4,273.7,142.6,273.7,143.3,274.5z M142.9,274.8c-0.5-0.6-1.4-0.7-2.1-0.2
								c-0.4,0.2-0.6,0.6-0.7,1c-0.1,0.4,0,0.9,0.2,1.2c0.3,0.3,0.7,0.5,1.1,0.5c0.4,0,0.8-0.2,1.1-0.4
								C143.2,276.4,143.3,275.5,142.9,274.8z"/>
						</g>
					</g>
					<g class="st1">
						<path class="st18" d="M105.1,273.4c0,0-4.6,2-9.7-3.1"/>
						<path class="st19" d="M105.2,273.5c-0.8,0.4-1.8,0.6-2.7,0.6c-0.9,0-1.9-0.1-2.8-0.4s-1.7-0.7-2.5-1.3c-0.4-0.3-0.7-0.6-1-0.9
							s-0.6-0.7-0.8-1.1c0-0.1,0-0.2,0.1-0.2h0.1l0,0c0.4,0.2,0.8,0.5,1.1,0.7c0.4,0.2,0.7,0.5,1.1,0.7c0.7,0.5,1.5,0.9,2.3,1.2
							c1.6,0.6,3.3,0.8,5,0.4l0,0c0.1,0,0.2,0,0.2,0.1C105.2,273.4,105.2,273.5,105.2,273.5z"/>
					</g>
					<g class="st1">
						<path class="st31" d="M299.9,308.8c-1.1,6.4-3.7,54.1-0.1,61.6c0,0,2.7,3.4,15.8,2.4c10.5-0.8,1.4-20.5,5.5-57.8"/>
						<path class="st32" d="M300,308.8c-0.5,5.1-0.6,10.3-0.8,15.4s-0.3,10.3-0.3,15.5s0,10.3,0.2,15.4c0.1,2.6,0.2,5.1,0.5,7.7
							c0.1,1.3,0.3,2.5,0.5,3.8c0.2,1.2,0.5,2.3,0.9,3.4l-0.1-0.2l0,0h0.1l0.2,0.1c0.1,0.1,0.3,0.2,0.4,0.3c0.3,0.2,0.6,0.3,0.9,0.4
							c0.7,0.3,1.4,0.5,2.1,0.6c1.5,0.3,3,0.5,4.5,0.5c1.5,0.1,3.1,0,4.7,0l1.2-0.1l1.1-0.1c0.6-0.1,1.2-0.3,1.7-0.6
							c1-0.9,1.6-2.1,1.7-3.4c0.3-1.5,0.4-3,0.4-4.6c0-3.1-0.1-6.3-0.3-9.5c-0.3-6.4-0.4-12.8-0.2-19.3c0.2-6.4,0.8-12.8,1.7-19.2
							h0.1c-0.4,6.4-0.6,12.8-0.5,19.2s0.5,12.8,0.9,19.1c0.2,3.2,0.4,6.4,0.5,9.7c0,1.7-0.1,3.3-0.4,5c-0.2,0.9-0.4,1.8-0.8,2.6
							c-0.4,0.9-1.1,1.7-1.9,2.3c-0.8,0.6-1.8,0.9-2.8,1.1c-0.5,0.1-0.9,0.1-1.3,0.1l-1.2,0.1c-1.6,0.1-3.3,0.1-4.9,0
							c-1.7-0.1-3.4-0.3-5-0.6c-0.8-0.2-1.7-0.4-2.5-0.8c-0.4-0.2-0.8-0.4-1.2-0.6c-0.2-0.1-0.4-0.3-0.6-0.4
							c-0.1-0.1-0.2-0.2-0.3-0.2l-0.2-0.1c-0.1-0.1-0.1-0.1-0.2-0.2l-0.1-0.1V371c-0.5-1.3-0.8-2.7-1-4.1c-0.2-1.3-0.3-2.6-0.4-3.9
							c-0.2-2.6-0.3-5.2-0.3-7.8c0-5.2,0-10.4,0.3-15.5s0.5-10.3,0.9-15.5c0.2-2.6,0.4-5.1,0.7-7.7S299.4,311.4,300,308.8L300,308.8
							z"/>
					</g>
					<g class="st1">
						<path class="st31" d="M319.9,311.6c-1.1,6.4-3.7,54.1-0.1,61.6c0,0,2.7,3.4,15.8,2.4c10.5-0.8,1.4-20.5,5.5-57.8"/>
						<path class="st32" d="M319.9,311.6c-0.5,5.1-0.6,10.3-0.8,15.4s-0.3,10.3-0.3,15.5s0,10.3,0.2,15.4c0.1,2.6,0.2,5.1,0.5,7.7
							c0.1,1.3,0.3,2.5,0.5,3.8c0.1,1.2,0.5,2.3,0.9,3.4l-0.1-0.2l0,0h0.1l0.2,0.1c0.1,0.1,0.3,0.2,0.4,0.3c0.3,0.2,0.6,0.3,0.9,0.4
							c0.7,0.3,1.4,0.5,2.1,0.6c1.5,0.3,3,0.5,4.5,0.5c1.5,0.1,3.1,0,4.7,0l1.2-0.1c0.4,0,0.8,0,1.1-0.1c0.6-0.1,1.2-0.3,1.7-0.6
							c1-0.9,1.6-2.1,1.7-3.4c0.3-1.5,0.4-3,0.4-4.6c0-3.1-0.1-6.3-0.3-9.5c-0.3-6.4-0.4-12.8-0.2-19.3c0.2-6.4,0.8-12.8,1.8-19.2
							h0.1c-0.4,6.4-0.6,12.8-0.5,19.2s0.5,12.8,0.9,19.1c0.2,3.2,0.4,6.4,0.5,9.7c0,1.7-0.1,3.3-0.4,5c-0.2,0.9-0.4,1.8-0.8,2.6
							c-0.4,0.9-1.1,1.7-1.9,2.3c-0.8,0.6-1.8,0.9-2.8,1.1c-0.5,0.1-0.9,0.1-1.3,0.1l-1.2,0.1c-1.6,0.1-3.3,0.1-4.9,0
							c-1.7-0.1-3.4-0.3-5-0.7c-0.8-0.2-1.7-0.4-2.5-0.8c-0.4-0.2-0.8-0.4-1.2-0.6c-0.2-0.1-0.4-0.3-0.6-0.4
							c-0.1-0.1-0.2-0.2-0.3-0.3L319,374c-0.1-0.1-0.1-0.1-0.2-0.2l-0.1-0.1v-0.1c-0.5-1.3-0.9-2.7-1-4.1c-0.2-1.3-0.3-2.6-0.4-3.9
							c-0.2-2.6-0.3-5.2-0.3-7.8c0-5.2,0-10.3,0.3-15.5c0.2-5.2,0.5-10.3,0.9-15.5c0.2-2.6,0.4-5.1,0.7-7.7S319.4,314.1,319.9,311.6
							L319.9,311.6z"/>
					</g>
					<path class="st6" d="M409.5,391.7l-1.1-0.1l-1.1-0.1l-2.2-0.3L404,391l-1.1-0.1c-1.8-0.2-3.7-0.4-5.5-0.6
						c0-0.3,0.1-0.5,0.1-0.8c0.1-0.5,0.2-0.9,0.3-1.4c0.1-0.5,0.2-0.9,0.3-1.4c0-0.2,0-0.5,0-0.8c0-0.1-0.1-0.3-0.1-0.4
						c-0.1-0.2-0.2-0.3-0.3-0.4c0.5-0.1,1-0.2,1.4-0.4c0.3-0.1,0.5-0.2,0.7-0.4c0.2-0.1,0.2-0.3,0.2-0.5c-0.1-0.2-0.2-0.4-0.4-0.5
						c-0.2-0.2-0.5-0.3-0.7-0.4c-0.6-0.2-1.2-0.4-1.8-0.6c-0.6-0.2-1.3-0.3-2-0.5c-1.4-0.3-2.8-0.5-4.2-0.7s-2.9-0.4-4.4-0.5
						s-2.9-0.3-4.4-0.3s-3-0.1-4.5-0.2s-3-0.1-4.5,0c-0.8,0-1.5,0-2.3,0.1c-0.4,0-0.8,0.1-1.2,0.1h-0.3l-0.3,0.1l-0.3,0.1l-0.3,0.1
						l-0.1,0.1c0,0-0.1,0-0.1,0.1c-0.1,0-0.1,0.1-0.2,0.1l-0.1,0.1v0.1c0,0,0,0,0,0.1v0.1c0,0.1,0,0.1,0.1,0.1l0.1,0.1l0.1,0.1
						l0.2,0.1c0.4,0.2,0.8,0.4,1.2,0.5h-0.3c-1.2-0.2-2.4-0.3-3.7-0.4s-2.5-0.2-3.7-0.3s-2.5-0.1-3.8-0.2s-2.5,0-3.8,0
						c-0.6,0-1.3,0-1.9,0.1c-0.3,0-0.7,0.1-1,0.1s-0.7,0.1-1,0.2l-0.2,0.1c-0.1,0-0.1,0.1-0.2,0.1v0.1v0.1c0,0,0,0,0,0.1v0.1
						c0,0,0,0.1,0.1,0.1l0.1,0.1l0.1,0.1l0.1,0.1c0.4,0.2,0.9,0.4,1.4,0.6c1,0.3,2,0.6,3.1,0.9s2.2,0.5,3.3,0.7l1.7,0.3l0.6,0.1l0,0
						l0,0c-0.2,0.1-0.4,0.3-0.5,0.5c-0.2,0.2-0.4,0.4-0.5,0.5c-0.3,0.4-0.6,0.7-0.8,1s-0.5,0.8-0.8,1.2h-0.6c-1.5,0.1-3,0.2-4.5,0.3
						h-0.6h-0.5l-1.1,0.1c-0.7,0.1-1.4,0.2-2.2,0.3c-1.4,0.2-2.8,0.4-4.1,0.7c-0.6,0.1-1.3,0.3-1.9,0.5l-0.9,0.3
						c-0.1,0-0.3,0.1-0.4,0.1l-0.2,0.1h-0.1h-0.1l-0.2,0.1l0.1,0.1l0,0c1.1,1.2,2.1,2.5,3.1,3.7s1.9,2.5,2.8,3.7l1.2,1.7
						c0,0.2-0.1,0.3-0.1,0.5c0,0.3,0,0.5,0,0.8v0.1l-0.4-0.3l-0.4-0.2c-0.1-0.1-0.3-0.1-0.5-0.2h-0.2h-0.7c-0.1,0-0.2,0-0.3,0.1
						c-0.1,0-0.2,0.1-0.3,0.1c-0.1,0-0.1,0.1-0.1,0.1c-0.1,0.1-0.2,0.2-0.2,0.4c0,0.1-0.1,0.3-0.1,0.4v0.1c-0.2,0-0.5,0.1-0.7,0.1
						c-0.1,0-0.2,0-0.3,0.1c-0.1,0-0.2,0.1-0.3,0.1l-0.1,0.1c0,0,0,0,0,0.1l0,0l0,0v0.1c0,0.1,0.1,0.3,0.2,0.4l0.2,0.4
						c0.1,0.3,0.3,0.5,0.5,0.8c0.7,1.1,1.4,2.1,2.1,3.1l0.3,0.4c-0.6-0.1-1.2-0.3-1.9-0.4c-0.8-0.2-1.7-0.3-2.5-0.5
						s-1.7-0.3-2.6-0.4l-0.5-0.1c0-0.2,0.1-0.4,0.1-0.5l1-4.6l-1.8-0.1c0-0.5,0-1.1,0.1-1.7s0.1-1.2,0.2-1.8c0-0.3,0.1-0.6,0.1-0.9
						s0.1-0.6,0.1-0.9c0.2-1.2,0.5-2.4,0.7-3.6c0.1-0.6,0.3-1.2,0.4-1.8c0.1-0.6,0.2-1.2,0.2-1.8c0-0.3,0-0.6,0-0.9s-0.1-0.7-0.3-1
						c-0.2-0.4-0.5-0.7-0.8-1c-0.2-0.2-0.5-0.4-0.8-0.5l-0.5-0.2c0.3-0.1,0.6-0.2,0.9-0.3c0.3-0.1,0.6-0.2,0.8-0.4
						c0.2-0.1,0.3-0.3,0.3-0.5c-0.1-0.2-0.3-0.4-0.5-0.5c-0.3-0.2-0.6-0.3-0.9-0.4c-0.7-0.3-1.4-0.5-2.2-0.7
						c-0.8-0.2-1.6-0.4-2.4-0.5c-1.6-0.3-3.3-0.6-5-0.8s-3.5-0.4-5.2-0.6s-3.5-0.3-5.3-0.4s-3.5-0.2-5.3-0.2s-3.6-0.1-5.4,0
						c-0.9,0-1.8,0-2.7,0.1c-0.5,0-0.9,0.1-1.4,0.1c-0.2,0-0.5,0.1-0.7,0.1s-0.4,0.1-0.6,0.2s-0.3,0.2-0.5,0.3
						c-0.1,0.1-0.1,0.2-0.1,0.3c-1.4-0.1-2.8-0.2-4.2-0.3c-1.8-0.1-3.6-0.2-5.3-0.2s-3.6-0.1-5.4,0c-0.9,0-1.8,0-2.7,0.1
						c-0.5,0-0.9,0.1-1.4,0.1l-0.7,0.1c-0.2,0-0.4,0.1-0.6,0.2s-0.3,0.2-0.5,0.3c-0.1,0.1-0.1,0.2-0.1,0.3c0,0.1,0.1,0.2,0.2,0.3
						c0.1,0.1,0.2,0.2,0.4,0.3c0.6,0.3,1.2,0.6,1.9,0.8c0.7,0.2,1.4,0.5,2.1,0.7s1.5,0.4,2.2,0.6c1.5,0.4,3.1,0.7,4.7,1l2.4,0.5
						l0.4,0.1l0,0c-0.2,0.1-0.3,0.2-0.4,0.4c-0.1,0.1-0.2,0.2-0.3,0.4c-0.2,0.2-0.3,0.5-0.4,0.7c-0.2,0.5-0.4,1-0.5,1.5
						c-0.3,1-0.5,2-0.6,3.1c-0.1,1-0.1,2,0,3c0,0.5,0,1,0,1.5s0.1,1,0.1,1.5c0.1,0.9,0.2,1.8,0.3,2.8c-0.4,0-0.7,0-1.1,0.1
						c-0.5,0-1.1,0.1-1.6,0.2l-0.2,0l-0.4,0.1h-0.2h-0.1h-0.1l0,0l0,0l-0.2,0.1v0.1l0,0c0.1,0.9,0.3,1.8,0.4,2.7l-2.7,1.5l-0.1,0.1
						h0.1l0,0l1,0.5c-0.3,0-0.5,0.1-0.8,0.1c-0.6,0.1-1.1,0.3-1.7,0.5c-0.5,0.2-1,0.3-1.4,0.6l-0.2,0.1l-0.2,0.1l-0.3,0.1l-0.3,0.2
						l-0.3,0.2l-0.3,0.2c-0.1,0-0.2,0.1-0.2,0.2l-0.2,0.2l-0.1,0.1l-0.1,0.1c-0.5,0.4-0.9,0.9-1.1,1.5c-0.2,0.5-0.3,1-0.3,1.6v0.4
						v0.1v0.1v0.2v0.2v0.1v0.1l0.1,0.4c0,0.1,0.1,0.3,0.1,0.4l0.1,0.4c0,0.1,0.1,0.3,0.1,0.4l0.1,0.4c0.1,0.3,0.2,0.5,0.3,0.8
						l0.2,0.4c0.1,0.1,0.1,0.3,0.2,0.4c0.6,1.1,1.3,2.1,2.2,3c1.1,1.1,2.3,2.1,3.6,2.9c1.6,1,3.4,1.9,5.2,2.6c1,0.4,2.1,0.8,3.2,1.1
						c0.6,0.2,1.2,0.3,1.8,0.5l0.9,0.2l0.5,0.1h0.2l0,0l0.7,0.2c0.3,0.1,0.7,0.2,1.1,0.3l0.6,0.1h0.3h0.4l1.5,0.1
						c-2.1,0-4.2,0.1-6.3,0.3c-2.8,0.2-5.6,0.7-8.4,1.4c-2.2,0.5-4.3,1.3-6.2,2.4c-0.7,0.4-1.3,0.9-1.8,1.5
						c-0.2,0.2-0.3,0.5-0.5,0.8c-2,0.1-3.2,0.4-3.6,0.8c-0.8,0.7,1.2,1.7,1.6,1.8c-1.4,0.7-2,1.3-1.7,1.9s1.6,1,2,1.1
						c-0.6,0.6-0.6,1,0,1.4c0.9,0.4,1.9,0.6,2.8,0.6c-0.3,0.5-0.2,0.9,0.4,1.1c1,0.3,2,0.4,3,0.4c-0.2,0.5,0,0.9,0.7,1.2
						c1.6,0.8,5.2,1,5.8,1c0.6,0.6,1.3,0.9,2.1,1c2,0.3,4.1,0.4,6.1,0.2c2,0.8,4.2,1.1,6.3,1c0.8,0,1.7-0.2,2.5-0.4
						c2.2,0.7,4.5,1.1,6.8,1c1.9,0,3.8-0.6,5.5-1.6c1.4,0.3,2.8,0.3,4.2,0.1c2.1-0.4,2.6-1.5,2.7-1.8c1.2,0.3,2.5,0.3,3.7,0.1
						c1.5-0.3,1.5-1.3,1.5-1.5c1.3,0.1,2.6,0,3.8-0.5c0.7-0.5-0.1-1.1-0.4-1.3c1.7-0.3,2.7-0.6,2.8-1s-1.3-1.1-1.7-1.2
						c1.7-0.6,2.4-1.2,2.1-1.8c-0.4-0.8-2.4-1.3-3-1.4c1-0.4,1.5-0.8,1.5-1.1c1.3,0.5,2.7,0.9,4.2,1.3c4.2,1.1,8.5,1.9,12.8,2.4
						c5.4,0.6,10.8,1,16.2,0.9c2.4-0.1,4.6-0.2,6.7-0.3c-1.6,1.2-3.5,2.1-5.4,2.6c-1.7,0.5-3.4,0.8-5.1,1v0.1
						c4.7-0.1,9.4-1,13.8-2.7c1.2-0.5,2.3-1,3.3-1.6c1.9-0.3,3.6-0.6,5.1-1c0.4,0.8,0.4,1.7,0,2.5c-0.4,0.7-0.9,1.2-1.5,1.7
						l-0.4,0.2l0.6-0.2c4.3-1.4,5.6-3.2,6-4.5c0.1-0.4,0.2-0.9,0.1-1.3c0.8-0.4,1.6-0.8,2.3-1.3c0.6-0.1,1.3-0.1,2-0.3
						c3.2-0.5,6.2-1.5,9-3.1l0.4-0.2l-0.6,0.2c-2.9,0.8-6,1.3-9,1.6c0.6-0.9,0.8-1.9,0.7-3c-0.3-2.9-3.2-5-5.6-6.2
						c-1.6-0.7-3.2-1.3-4.8-1.7l-0.2-0.1l0.1,0.1c0.4,0.8,0.6,1.7,0.6,2.6c-1-0.5-2.1-0.8-3.1-1.2c-0.8-0.7-1.7-1.3-2.6-1.8
						l-0.5-0.3l0.3,0.3c0.3,0.3,0.6,0.7,0.9,1.2c-2.2-0.6-4.4-1-6.6-1.3l0.4-0.4h0.8c1.1,0,2.2,0,3.3-0.1c1.1-0.1,2.2-0.2,3.3-0.4
						c0.5-0.1,1-0.2,1.5-0.3c0.4-0.1,0.8-0.3,1.1-0.4c0.3,0,0.5-0.1,0.8-0.1c0.6-0.1,1.2-0.3,1.8-0.5c0.5-0.2,1-0.4,1.5-0.6
						s0.9-0.4,1.3-0.6c0.9-0.4,1.6-0.9,2.4-1.3s1.4-0.9,2.1-1.4c1.3-0.9,2.6-1.8,3.7-2.8c0.6-0.5,1.1-1,1.7-1.4l0.8-0.7l0.8-0.7
						c1-1,1.9-2,2.8-2.9l0.6-0.8l0.3-0.4c0.1-0.1,0.2-0.3,0.3-0.4v-0.1l0,0c0,0,0,0,0-0.1l-0.1-0.1c-0.1-0.1-0.2-0.1-0.3-0.1
						c-0.1,0-0.2-0.1-0.3-0.1c-0.2-0.1-0.4-0.1-0.6-0.2v-0.1c0-0.1,0-0.3,0-0.4s-0.1-0.3-0.1-0.4l-0.1-0.1c-0.1-0.1-0.1-0.1-0.2-0.1
						s-0.2-0.1-0.3-0.1h-0.2h-0.5H406c-0.2,0-0.3,0.1-0.5,0.1l-0.4,0.1l-0.5,0.2v-0.1c0.1-0.3,0.1-0.5,0.1-0.8s0-0.5,0-0.8
						c0-0.1-0.1-0.3-0.1-0.4s-0.1-0.2-0.2-0.2c-0.1-0.1-0.1-0.1-0.2-0.1c-0.1-0.1-0.3-0.1-0.4-0.2c-0.1,0-0.2,0-0.4,0H403l0.3-0.4
						c1.4-1.5,2.8-2.9,4.2-4.4l2.1-2.2l1-1.1l0.5-0.6l0.3-0.3l0.1-0.1l0.1-0.1l0,0l0,0L409.5,391.7z M344.6,432.1
						c1.4,1.3,3.1,2.2,4.9,2.8c-5.1-1-10.1-2.4-14.9-4.3l-0.6-0.2l0.4,0.3c4.4,3.1,10.5,4.6,12.7,5.1c-4.2-0.6-8.3-1.7-12.3-3.1
						c-0.3-0.3-0.6-0.5-1-0.6s-0.9-0.2-1.3-0.3l-0.6-0.2l-0.6-0.3l0.4,0.3l0.2,0.1c-0.4,0-0.8-0.1-1.2-0.1c-0.6,0-1.2,0-1.8,0
						c-1.4-0.7-2.8-1.2-4.2-1.6c-2.7-0.8-5.4-1.4-8.2-1.8c0.1-0.1,0.3-0.3,0.4-0.4c1.6,0,3.2,0,4.8,0c2.1,0,4.2-0.1,6.3-0.2
						c1-0.1,2.1-0.1,3.1-0.3c0.5,0,1-0.1,1.4-0.2h0.6h0.2h0.3l0.6-0.1l0.5-0.1c3,2.1,6.3,3.6,9.8,4.6l1.1,0.3
						c0.5,0.3,1.1,0.6,1.7,0.8s1.1,0.5,1.8,0.7c-1.4-0.3-2.7-0.8-4-1.3l-0.4-0.2L344.6,432.1z M337.6,415.7l-0.3,0.2v-0.2H337.6z
						 M344.4,424.7c-0.7,0.4-1.3,0.9-1.8,1.5c-0.4,0.5-0.6,1.1-0.6,1.7c0,0.3,0.1,0.7,0.2,1c-2-0.4-4-1-6-1.7l-0.9-0.4l0,0
						c0.8-0.1,1.6-0.3,2.4-0.5s1.5-0.3,2.3-0.5l1.1-0.3l1-0.3c1.1-0.3,2.2-0.7,3.3-1.2C345,424.3,344.7,424.5,344.4,424.7
						L344.4,424.7z M359,420.9c-2.8,0.2-5.6,0.7-8.4,1.3c-1.3,0.3-2.5,0.7-3.7,1.2c0.2-0.1,0.4-0.2,0.6-0.3l0.7-0.4l0.3-0.2l0.3-0.2
						c0.8-0.6,1.6-1.1,2.4-1.7s1.5-1.2,2.2-1.8c0.6-0.6,1.2-1.2,1.8-1.9v-0.1l0.5,0.3c0.4,0.2,0.8,0.5,1.2,0.7s0.9,0.5,1.4,0.7
						s1.1,0.4,1.7,0.6h0.1c0.2,0.1,0.5,0.2,0.7,0.3c0.8,0.3,1.5,0.5,2.3,0.6c0.4,0.1,0.9,0.2,1.4,0.2l0.7,0.1h0.4h0.3l1,0.1
						c0,0,0,0.1,0,0.2C364.2,420.5,361.6,420.7,359,420.9z M377.8,384.5l2,0.4l0.5,0.1c-0.2,0.1-0.3,0.2-0.5,0.3l-0.2,0.2l-0.1,0.1
						l0,0l0,0l0,0c-0.4,0.3-0.8,0.6-1.1,1c-0.3,0.3-0.5,0.7-0.8,1.1c-0.2,0.3-0.4,0.7-0.6,1l0,0h-1.1h-0.1c0.2-0.4,0.4-0.8,0.5-1.3
						c0.1-0.2,0.1-0.5,0.1-0.7c0-0.3-0.2-0.6-0.4-0.8c-0.1-0.1-0.3-0.2-0.4-0.3c0.3-0.1,0.7-0.2,1-0.3c0.2-0.1,0.4-0.2,0.6-0.3
						c0.1-0.1,0.2-0.3,0.2-0.4s-0.1-0.1-0.1-0.2L377.8,384.5z"/>
					<g class="st1">
						<path class="st33" d="M371.5,278.6c0,0-0.3,9.9,3.7,12.5c2.8,1.8,7.1-9.1,7.1-9.1s-0.8-2.8-1.4-4.5S371.5,278.6,371.5,278.6z"
							/>
						<path class="st34" d="M371.6,278.6c0.2,2.1,0.5,4.2,0.9,6.3c0.2,1,0.6,2,1,3c0.4,0.9,1,1.8,1.7,2.4c0.4,0.4,0.6,0.5,1,0.4
							c0.4-0.2,0.8-0.4,1.1-0.7c0.7-0.8,1.4-1.6,1.9-2.5c0.6-0.9,1.1-1.8,1.6-2.8s1-1.9,1.5-2.9l0,0l0,0c-0.3-1.2-0.7-2.3-1-3.5
							l-0.3-0.9c-0.1-0.3-0.3-0.5-0.6-0.6c-0.6-0.1-1.2-0.1-1.8-0.1c-1.2,0.1-2.4,0.3-3.6,0.6C373.9,277.9,372.7,278.3,371.6,278.6z
							 M371.5,278.5c1.2-0.4,2.3-0.7,3.5-1s2.4-0.5,3.6-0.7c0.6-0.1,1.2-0.1,1.8,0.1c0.3,0.1,0.6,0.3,0.7,0.6l0.3,0.9
							c0.4,1.1,0.7,2.3,1,3.5l0,0l0,0c-0.6,2.1-1.5,4.1-2.5,6c-0.5,1-1.2,1.9-1.9,2.7c-0.4,0.5-1,0.8-1.5,1c-0.4,0.1-0.7,0.1-1.1,0
							c-0.3-0.1-0.6-0.3-0.8-0.5c-0.9-0.8-1.5-1.8-1.9-2.8s-0.7-2.1-0.9-3.2C371.3,282.9,371.3,280.7,371.5,278.5z"/>
					</g>
					<g class="st1">
						<ellipse class="st33" cx="372.8" cy="260.2" rx="24.6" ry="20.3"/>
						<path class="st34" d="M348.6,260.2c0.1,2.9,0.8,5.7,2.3,8.2c1.4,2.5,3.4,4.6,5.7,6.3c9.7,6.8,22.6,6.8,32.2,0
							c2.3-1.7,4.2-3.8,5.7-6.3c2.9-5,3-11.2,0.1-16.3c-1.4-2.5-3.3-4.7-5.6-6.5c-4.7-3.5-10.4-5.3-16.3-5.3
							c-5.9-0.1-11.6,1.8-16.3,5.3c-2.3,1.7-4.2,4-5.7,6.5C349.4,254.5,348.6,257.3,348.6,260.2z M347.7,260.2c0-3,0.9-6,2.4-8.6
							s3.6-4.9,6-6.6c4.9-3.5,10.7-5.4,16.7-5.4c6-0.1,11.9,1.8,16.8,5.3c2.4,1.8,4.5,4,6,6.6s2.3,5.6,2.4,8.7
							c0,3.1-0.8,6.1-2.3,8.8c-1.5,2.7-3.5,5-6,6.8c-10.1,7.4-23.8,7.4-33.9,0c-2.4-1.8-4.4-4.1-5.9-6.8
							C348.5,266.3,347.7,263.3,347.7,260.2z"/>
					</g>
					<g class="st1">
						<path class="st18" d="M300.8,370.3c0,0-26,12.2-9.6,13.8s33.6-5,29.3-10.3S300.8,370.3,300.8,370.3z"/>
						<path class="st19" d="M300.8,370.3c-2.9,1.7-5.8,3.4-8.6,5.3c-1.4,0.9-2.7,1.9-3.9,3c-0.6,0.5-1.1,1.1-1.5,1.8
							c-0.1,0.1-0.2,0.3-0.2,0.5c-0.1,0.1-0.1,0.3-0.1,0.4c0,0.2,0.1,0.5,0.2,0.6c0.5,0.5,1.2,0.8,1.9,0.9c0.8,0.2,1.6,0.4,2.4,0.4
							c1.6,0.2,3.3,0.3,5,0.3c3.3,0,6.7-0.2,10-0.8c3.3-0.5,6.5-1.4,9.6-2.7c1.5-0.6,2.9-1.5,4.1-2.5c0.6-0.5,0.9-1.1,1.1-1.9
							c0-0.7-0.2-1.4-0.7-1.9c-1.1-1.1-2.6-2-4.1-2.4c-1.6-0.5-3.2-0.8-4.9-1C307.6,370,304.2,370,300.8,370.3z M300.8,370.2
							c3.4-0.5,6.8-0.6,10.1-0.4c1.7,0.1,3.4,0.4,5,0.8c1.7,0.4,3.3,1.3,4.6,2.5c0.7,0.7,1.1,1.7,1,2.6c-0.2,0.9-0.6,1.8-1.3,2.5
							c-1.3,1.2-2.8,2.2-4.4,2.9c-3.1,1.4-6.4,2.3-9.8,2.9s-6.8,0.9-10.2,0.9c-1.7,0-3.4-0.1-5.1-0.3c-0.9-0.1-1.7-0.2-2.6-0.5
							c-1-0.2-1.9-0.7-2.6-1.4c-0.1-0.1-0.2-0.2-0.3-0.4c-0.1-0.1-0.1-0.3-0.2-0.4c-0.1-0.3-0.1-0.6-0.1-0.9c0.1-0.5,0.3-1,0.5-1.5
							c0.5-0.8,1.1-1.4,1.8-2c1.3-1.1,2.7-2.1,4.2-3C294.5,372.9,297.6,371.4,300.8,370.2L300.8,370.2z"/>
					</g>
					<path class="st35" d="M332.3,253c0.6,0.2,6.5,1.2,5.8-4.3c0,0,6.3-2,2-6.8c0,0,6.1-2.9,0.9-8.5c0,0,4.4-3.3-1-6
						c0,0,2.9-4.6-3.2-4.9c0,0,0.5-6.4-4.9-3.9c0,0-0.7-7.2-6.5-5c0,0-4.1-8.7-11.7-2.5c0,0-3.6-3.6-8.5,0.9c0,0-6.4-2.4-7.8,2.5
						c0,0-7.3,0.2-6.3,5.5c0,0-4.4-0.7-3.3,3.7c0,0-4.6,0.2-2.8,5.1c0,0-4.3,2.6-0.3,7.9c0,0-6.3,6.5,4.4,7.3
						C297.2,244.8,332.3,253,332.3,253z"/>
					<g class="st1">
						<path class="st18" d="M320.8,373.1c0,0-26,12.2-9.6,13.7s33.6-4.9,29.3-10.3S320.8,373.1,320.8,373.1z"/>
						<path class="st19" d="M320.8,373.1c-2.9,1.7-5.8,3.4-8.6,5.3c-1.4,0.9-2.7,1.9-3.9,3c-0.6,0.5-1.1,1.1-1.5,1.8
							c-0.1,0.1-0.2,0.3-0.2,0.5c0,0.1-0.1,0.3-0.1,0.4c0,0.2,0.1,0.5,0.2,0.6c0.5,0.5,1.2,0.8,1.9,0.9c0.8,0.2,1.6,0.3,2.4,0.4
							c1.6,0.2,3.3,0.3,5,0.3c3.3,0,6.7-0.2,10-0.8c3.3-0.5,6.5-1.4,9.6-2.7c1.5-0.6,2.9-1.5,4.1-2.5c0.6-0.5,1-1.1,1.1-1.9
							c0-0.7-0.2-1.4-0.7-1.9c-1.1-1.2-2.6-2-4.1-2.4c-1.6-0.5-3.2-0.8-4.9-1C327.5,372.8,324.1,372.8,320.8,373.1z M320.8,373
							c3.4-0.5,6.8-0.6,10.1-0.4c1.7,0.1,3.4,0.4,5,0.8c1.7,0.4,3.3,1.3,4.6,2.5c0.7,0.7,1.1,1.7,1,2.6c-0.2,0.9-0.6,1.8-1.3,2.5
							c-1.3,1.2-2.8,2.2-4.4,2.9c-3.1,1.4-6.4,2.4-9.8,2.9c-3.4,0.6-6.8,0.9-10.2,0.9c-1.7,0-3.4-0.1-5.1-0.3
							c-0.9-0.1-1.7-0.2-2.6-0.5c-1-0.2-1.9-0.7-2.6-1.4c-0.1-0.1-0.2-0.2-0.3-0.4c-0.1-0.1-0.1-0.3-0.2-0.4
							c-0.1-0.3-0.1-0.6-0.1-0.9c0.1-0.5,0.3-1,0.6-1.5c0.5-0.8,1.1-1.4,1.8-2c1.3-1.1,2.7-2.1,4.2-3
							C314.5,375.7,317.6,374.2,320.8,373L320.8,373z"/>
					</g>
					<g class="st1">
						<path class="st36" d="M342.4,332.5c0,0-3.8-51.1-3.2-61.7s-32.3-7.8-32.3-7.8s-8.2,0-10.4,28c-1.2,15.9-2.5,39.2-2.5,39.2
							S298.8,336,342.4,332.5z"/>
						<path class="st37" d="M342.4,332.5c-0.6-8.1-1.2-16.2-1.8-24.3s-1.1-16.2-1.4-24.4c-0.2-4.1-0.3-8.1-0.2-12.2c0-0.5,0-1,0-1.5
							s-0.2-0.9-0.4-1.4c-0.4-0.9-1.1-1.6-1.9-2.1c-1.7-1.1-3.6-1.8-5.5-2.2c-3.9-0.8-8-1.3-12-1.3c-4.1-0.1-8.1,0-12.1,0.4l0,0
							c-0.6,0.1-1.2,0.4-1.7,0.8s-1,0.9-1.5,1.5c-0.9,1.1-1.6,2.4-2.2,3.7c-1.2,2.7-2,5.4-2.6,8.3c-1.1,5.7-1.9,11.5-2.1,17.4
							c-0.8,11.7-1.5,23.4-2.1,35.2l0,0l-0.2-0.5c0.1,0.1,0.3,0.2,0.4,0.3c0.2,0.1,0.4,0.2,0.6,0.3c0.4,0.2,0.9,0.4,1.3,0.5
							c0.9,0.3,1.9,0.5,2.9,0.8c2,0.4,4,0.7,6,0.9c2,0.3,4,0.4,6,0.5s4.1,0.2,6.1,0.2s4.1,0.1,6.1,0s4.1,0,6.1-0.1
							C334.3,333,338.2,332.7,342.4,332.5z M342.4,332.5c-4,0.3-8.1,0.7-12.2,1c-2,0.2-4.1,0.2-6.1,0.3S320,334,318,334
							s-4.1,0-6.1,0s-4.1-0.1-6.1-0.3c-2.1-0.1-4.1-0.4-6.1-0.8c-1-0.2-2-0.4-3-0.7c-0.5-0.1-1-0.4-1.5-0.5
							c-0.3-0.1-0.5-0.2-0.8-0.4c-0.3-0.2-0.6-0.4-0.8-0.6l-0.2-0.2v-0.3l0,0c0.7-11.7,1.4-23.4,2.3-35.2c0.3-5.9,1.1-11.8,2.3-17.5
							c0.6-2.9,1.5-5.8,2.8-8.5c0.6-1.4,1.4-2.7,2.4-3.9c0.5-0.6,1-1.1,1.7-1.6s1.4-0.9,2.3-1l0,0c4.1-0.3,8.2-0.4,12.3-0.2
							c4.1,0.1,8.2,0.6,12.2,1.5c2,0.4,4,1.2,5.7,2.4c0.9,0.6,1.6,1.4,2.1,2.4c0.2,0.5,0.4,1,0.4,1.6c0,0.5,0,1.1,0,1.6
							c-0.1,4,0,8.1,0.1,12.2c0.3,8.1,0.7,16.3,1.2,24.4S341.8,324.4,342.4,332.5L342.4,332.5z"/>
					</g>
					<g class="st1">
						<path class="st38" d="M310,259.9c0,0-0.8,6.2,3.3,8.8c2.8,1.8,7.6-5.4,7.6-5.4s-0.8-2.8-1.4-4.5S310,259.9,310,259.9z"/>
						<path class="st39" d="M310.1,259.9c0,1.6,0.3,3.2,0.8,4.7s1.4,2.7,2.7,3.6c0.6,0.3,1.3,0.2,1.9-0.1c0.7-0.4,1.3-0.8,1.9-1.4
							c1.2-1.1,2.3-2.3,3.4-3.5l0,0l0,0l-1.1-3.5c-0.2-0.5-0.2-1.3-0.9-1.4c-0.6-0.1-1.2-0.1-1.8-0.1c-1.2,0.1-2.4,0.4-3.6,0.7
							C312.4,259.3,311.2,259.6,310.1,259.9z M310,259.9c1.2-0.4,2.3-0.7,3.5-1s2.4-0.5,3.6-0.7c0.6-0.1,1.2-0.1,1.8,0.1
							c0.3,0.1,0.6,0.3,0.6,0.6l0.3,0.9l1.1,3.5l0,0l0,0l0,0c-0.8,1.5-1.8,2.9-2.9,4.1c-0.6,0.6-1.3,1.2-2,1.6
							c-0.4,0.2-0.9,0.4-1.3,0.5c-0.5,0.1-1.1,0-1.5-0.3c-0.8-0.5-1.4-1.1-1.9-1.9c-0.5-0.7-0.8-1.5-1.1-2.4
							C309.7,263.2,309.7,261.5,310,259.9L310,259.9z"/>
					</g>
					<g class="st1">
						<ellipse class="st38" cx="311.3" cy="241.5" rx="24.6" ry="20.3"/>
						<path class="st39" d="M287.1,241.5c0.1,2.9,0.8,5.7,2.3,8.2c1.4,2.5,3.4,4.6,5.7,6.3c9.7,6.8,22.6,6.8,32.2,0
							c2.3-1.7,4.2-3.8,5.7-6.3c2.9-5,3-11.2,0.1-16.3c-1.4-2.5-3.3-4.7-5.6-6.5c-4.7-3.5-10.4-5.4-16.3-5.3
							c-5.9-0.1-11.6,1.8-16.3,5.3c-2.3,1.7-4.3,4-5.7,6.5C287.9,235.8,287.1,238.7,287.1,241.5z M286.2,241.5c0-3,0.9-6,2.4-8.6
							s3.6-4.9,6-6.6c4.9-3.5,10.7-5.4,16.7-5.4c6-0.1,11.8,1.8,16.7,5.3c2.4,1.8,4.5,4,6,6.6s2.3,5.6,2.4,8.7
							c0,3.1-0.8,6.1-2.3,8.8s-3.5,5-6,6.8c-10.1,7.3-23.8,7.3-33.9,0c-2.4-1.8-4.4-4.2-5.9-6.8
							C286.9,247.6,286.2,244.6,286.2,241.5z"/>
					</g>
					<g class="st1">
						<circle cx="309.9" cy="244.9" r="2.9"/>
						
							<ellipse transform="matrix(0.9223 -0.3866 0.3866 0.9223 -70.1984 139.3316)" class="st9" cx="311.3" cy="244.2" rx="0.7" ry="1.4"/>
					</g>
					<g class="st1">
						<circle cx="293.3" cy="244.3" r="2.5"/>
						
							<ellipse transform="matrix(0.9223 -0.3866 0.3866 0.9223 -71.3422 132.8063)" class="st9" cx="294.5" cy="243.8" rx="0.6" ry="1.2"/>
					</g>
					<path class="st40" d="M309.8,238.6c0.6-0.9,1.6-1.5,2.7-1.4c1,0,2,0.4,2.9,0.9c0.4,0.3,0.8,0.5,1.2,0.8c0.3,0.3,0.7,0.7,1,1
						c0.6,0.7,1.2,1.5,1.6,2.4l0,0c-0.4-0.3-0.8-0.5-1.1-0.8l-1.1-0.8l-1.1-0.7c-0.4-0.2-0.7-0.4-1.1-0.6c-0.7-0.4-1.5-0.6-2.3-0.7
						C311.5,238.5,310.7,238.5,309.8,238.6L309.8,238.6z"/>
					<path class="st40" d="M296.2,237.6l-2,0.6c-0.6,0.1-1.2,0.4-1.8,0.7c-0.6,0.3-1.2,0.7-1.8,1.1c-0.3,0.2-0.6,0.4-0.9,0.7
						s-0.6,0.5-0.9,0.7l0,0c0.1-0.4,0.3-0.7,0.5-1.1c0.2-0.3,0.4-0.6,0.6-1c0.5-0.6,1.1-1.2,1.7-1.6c0.7-0.5,1.5-0.8,2.3-0.9
						C294.8,236.5,295.7,236.9,296.2,237.6L296.2,237.6z"/>
					<path class="st40" d="M334,252.5c0,0-5.1-0.3-3.7-3.8c0,0-3.8-2-1.1-4.9c0,0-3.7-2.7-1-5.1c0,0-4.1-1.2-3.4-3.6
						c-2.2,0.4-4.4-0.6-5.6-2.5c0,0-3.3,2-6,0c0,0-0.1,1.4-4.7-0.6c0,0-1.6,1.7-6.2-0.6c0,0-1.9,1.8-5.8,0c0,0-1.4,2.8-3.7,1.1
						c0,0-1.1,3.3-4.3,3.6c0,0-0.6,5.1-2.6,6l-0.2-8.4l7.7-9.8l15.7-5.3l16.8,0.7l9.4,7.6l2.3,14.6L334,252.5z"/>
					<g class="st1">
						<path class="st36" d="M304.2,264c0,0-15.5,5.7-17.9,33.8c-2.7,17.4,8.9,20.7,8.9,20.7s7.9-14.8,8.2-20.4c0,0-3.4-1.7-5.5-1.6
							c0,0,1.1-1.8-0.5-2.4C297.5,294.1,295.1,286.1,304.2,264z"/>
						<path class="st41" d="M304.1,264.1c0,0.1,0,0.1-0.1,0.1l-0.2,0.1c-0.2,0.1-0.3,0.2-0.4,0.2c-0.3,0.2-0.6,0.3-0.9,0.5
							c-0.6,0.4-1.1,0.8-1.6,1.1s-1,0.9-1.5,1.3l-1.4,1.4c-1.8,2-3.4,4.1-4.7,6.4c-2.5,4.7-4.3,9.8-5.3,15c-0.6,2.6-0.8,5.3-1.1,7.9
							c-0.4,2.6-0.4,5.3-0.1,7.9s1.2,5.1,2.6,7.3c1.4,2.2,3.5,3.9,5.9,5h-0.1l0,0c1.7-3.3,3.3-6.6,4.8-10c0.7-1.7,1.4-3.4,2.1-5.1
							s1.1-3.5,1.4-5.3l0.1,0.1c-0.9-0.4-1.8-0.8-2.7-1.1c-0.9-0.3-1.8-0.5-2.8-0.5c-0.1,0-0.1,0-0.1-0.1c0,0,0,0,0-0.1
							c0.2-0.4,0.4-0.8,0.4-1.3c0-0.2-0.1-0.4-0.2-0.6s-0.3-0.3-0.5-0.4l0,0c0,0,0,0,0-0.1c-0.4-2.6-0.4-5.2,0.1-7.8
							c0.4-2.6,0.9-5.1,1.6-7.6c0.3-1.3,0.7-2.5,1.1-3.7s0.8-2.5,1.2-3.7s0.9-2.5,1.4-3.6S303.6,265.3,304.1,264.1z M304.3,264
							c-0.5,1.2-0.9,2.5-1.4,3.7l-1.4,3.7c-0.4,1.2-0.8,2.5-1.2,3.7s-0.8,2.5-1.1,3.7c-0.7,2.5-1.2,5-1.6,7.6
							c-0.4,2.5-0.5,5.1-0.1,7.7l-0.1-0.1c0.2,0.1,0.5,0.2,0.6,0.4c0.2,0.2,0.3,0.4,0.3,0.7c0,0.5-0.1,1-0.4,1.4l-0.1-0.2
							c1,0,2,0.2,2.9,0.5s1.8,0.7,2.7,1.1l0.1,0.1c-0.2,1.8-0.7,3.6-1.4,5.4c-0.6,1.7-1.3,3.5-2.1,5.1c-1.5,3.4-3.1,6.7-4.8,10l0,0
							l-0.1,0.1l0,0c-2.7-0.8-5-2.4-6.6-4.7c-1.6-2.3-2.7-4.9-3-7.6s-0.3-5.5,0.2-8.2c0.4-2.7,0.6-5.4,1.2-8
							c1-5.3,2.9-10.5,5.7-15.2c1.4-2.3,3.1-4.5,5-6.4l1.5-1.4c0.5-0.4,1.1-0.9,1.6-1.2c0.6-0.4,1.1-0.8,1.7-1.1
							c0.3-0.2,0.6-0.3,0.9-0.5c0.1-0.1,0.3-0.2,0.5-0.2l0.2-0.1C304.1,264,304.2,264,304.3,264L304.3,264z"/>
					</g>
					<g class="st1">
						<path class="st36" d="M308.4,297.4c0,0-1.6,18.8-13.9,25.3l-3.1-4c0,0,10.1-10.8,11.4-22.2
							C302.8,296.5,304.3,296.6,308.4,297.4z"/>
						<path class="st41" d="M308.6,297.2c0,0.1,0,0.3,0,0.4v0.2v0.5l-0.1,0.9c-0.1,0.6-0.2,1.2-0.3,1.9c-0.2,1.2-0.5,2.5-0.8,3.7
							c-0.6,2.4-1.5,4.8-2.5,7.1c-1.1,2.3-2.4,4.5-4,6.5c-1.7,2-3.7,3.6-5.9,4.9l-0.6,0.4l-0.4-0.6l-2.6-4.4l-0.1-0.2l0.1-0.1l0,0
							c1.4-1.6,2.7-3.2,3.9-4.9c1.2-1.7,2.3-3.5,3.4-5.3c1-1.8,1.9-3.7,2.6-5.7s1.2-4,1.5-6.1v-0.2h0.2
							C304.8,296.5,306.7,296.9,308.6,297.2z M308.3,297.5c-1.9-0.3-3.7-0.5-5.5-0.8l0.2-0.2c-0.3,2.1-0.8,4.2-1.5,6.2
							s-1.6,3.9-2.6,5.8s-2.1,3.7-3.4,5.4c-1.2,1.7-2.5,3.4-4,5l0,0v-0.3l3.6,3.6l-1-0.2c2.1-1.1,4-2.6,5.7-4.4
							c1.6-1.8,3-3.9,4.1-6.1s2-4.5,2.7-6.9c0.4-1.2,0.7-2.4,0.9-3.6c0.1-0.6,0.2-1.2,0.4-1.8l0.1-0.9l0.1-0.5v-0.2
							C308.2,297.5,308.2,297.5,308.3,297.5L308.3,297.5z"/>
					</g>
					<g class="st1">
						<path class="st42" d="M365.6,372.9c0,0-18.3,8.5-6.8,9.6s23.6-3.5,20.5-7.2S365.6,372.9,365.6,372.9z"/>
						<path class="st43" d="M365.7,373c-2,1.2-4,2.5-5.9,3.8c-1,0.6-1.9,1.3-2.7,2.1c-0.4,0.4-0.7,0.8-1,1.2
							c-0.1,0.2-0.2,0.3-0.2,0.5c0,0.1,0,0.2,0.1,0.3c0.3,0.3,0.7,0.5,1.2,0.6s1.1,0.2,1.6,0.3c1.2,0.1,2.3,0.2,3.5,0.2
							c2.3,0,4.7-0.1,7-0.5s4.5-1,6.7-1.9c1-0.4,2-1,2.9-1.7c0.4-0.3,0.6-0.7,0.8-1.2c0-0.5-0.1-0.9-0.5-1.2
							c-0.8-0.8-1.8-1.4-2.8-1.7c-1.1-0.4-2.2-0.6-3.4-0.7C370.4,372.8,368,372.8,365.7,373z M365.7,372.9c2.4-0.4,4.7-0.5,7.1-0.3
							c1.2,0.1,2.4,0.2,3.6,0.5s2.4,0.9,3.3,1.8c0.6,0.5,0.8,1.3,0.8,2c-0.1,0.7-0.5,1.3-1,1.8c-0.9,0.9-2,1.6-3.1,2.1
							c-2.2,1-4.5,1.7-6.9,2.1s-4.8,0.6-7.2,0.6c-1.2,0-2.4,0-3.6-0.2c-0.6-0.1-1.2-0.2-1.9-0.3c-0.7-0.1-1.4-0.5-1.9-1
							c-0.3-0.4-0.5-0.9-0.4-1.3s0.2-0.8,0.4-1.1c0.4-0.6,0.8-1,1.3-1.5c0.9-0.8,1.9-1.5,3-2.1C361.2,374.7,363.4,373.7,365.7,372.9
							L365.7,372.9z"/>
					</g>
					<g class="st1">
						<path class="st8" d="M359.3,328.2l-0.2,1c-1,6,3.1,36.6,6.5,43.7c0,0,0.3,3.4,8.5,2.3c9.8-1.4-1-9.8,2.8-44.7l-18.3-2.3"/>
						<path class="st11" d="M359.3,328.2c-0.2,1.9-0.3,3.8,0,5.6c0.1,1.9,0.4,3.8,0.6,5.6c0.5,3.8,1,7.5,1.6,11.2s1.3,7.4,2.1,11.1
							c0.4,1.8,0.8,3.7,1.3,5.5c0.4,1.8,1,3.5,1.7,5.1l0.1,0.4c0-0.1,0,0,0,0s0,0,0,0.1s0.1,0.1,0.1,0.2c0.1,0.1,0.2,0.3,0.4,0.4
							c0.4,0.3,0.8,0.4,1.2,0.5c1,0.2,2.1,0.3,3.1,0.2c0.5,0,1.1-0.1,1.7-0.1c0.5,0,1.1-0.1,1.6-0.3c0.4-0.1,0.9-0.3,1.2-0.5
							c0.3-0.2,0.5-0.5,0.6-0.8c0.3-1,0.3-2,0.2-3c-0.1-1.1-0.2-2.3-0.4-3.5c-0.3-2.3-0.7-4.7-0.9-7.1c-0.5-4.8-0.6-9.5-0.4-14.3
							s0.7-9.5,1.5-14.2l0,0v0.1l-18.3-2.3V328l18.3,2.3l0,0l0,0l0,0c-0.2,4.7-0.4,9.5-0.2,14.2c0.1,4.7,0.5,9.4,1.1,14
							c0.3,2.3,0.7,4.6,1.1,7c0.2,1.2,0.4,2.4,0.5,3.6c0.2,1.4,0.1,2.7-0.3,4.1c-0.3,0.8-0.8,1.5-1.5,1.9c-0.6,0.4-1.3,0.7-2,0.9
							c-0.6,0.2-1.3,0.3-1.9,0.3c-0.6,0.1-1.2,0.1-1.9,0.2c-1.3,0.1-2.6-0.1-3.9-0.4c-0.7-0.2-1.4-0.5-2-0.9
							c-0.3-0.2-0.6-0.5-0.9-0.9c-0.1-0.2-0.2-0.4-0.3-0.6c0-0.1-0.1-0.2-0.1-0.3c-0.1-0.2-0.1-0.3-0.1-0.5l0.1,0.4
							c-0.8-1.8-1.4-3.7-1.8-5.6c-0.5-1.9-0.9-3.7-1.2-5.6c-0.7-3.8-1.3-7.5-1.7-11.3s-0.8-7.5-1-11.3c-0.1-1.9-0.2-3.8-0.2-5.7
							c-0.1-1.9,0.1-3.8,0.5-5.7L359.3,328.2z"/>
					</g>
					<g class="st1">
						<path class="st42" d="M384.8,375.4c0,0-21.7,10.2-8,11.5s28.1-4.1,24.5-8.6S384.8,375.4,384.8,375.4z"/>
						<path class="st43" d="M384.8,375.5c-2.4,1.4-4.8,2.9-7.1,4.5c-1.1,0.8-2.2,1.6-3.2,2.5c-0.5,0.4-0.9,0.9-1.3,1.4
							c-0.1,0.2-0.2,0.4-0.3,0.7c0,0.2,0,0.3,0.2,0.5c0.4,0.4,0.9,0.6,1.5,0.7c0.7,0.2,1.3,0.3,2,0.4c1.4,0.1,2.8,0.2,4.1,0.3
							c2.8,0,5.6-0.2,8.3-0.6c2.7-0.4,5.4-1.2,8-2.2c1.3-0.5,2.4-1.2,3.4-2.1c0.5-0.4,0.8-0.9,0.9-1.5s-0.2-1.1-0.6-1.5
							c-0.9-1-2.1-1.7-3.4-2c-1.3-0.4-2.7-0.7-4.1-0.8C390.4,375.2,387.6,375.2,384.8,375.5z M384.8,375.3c2.8-0.4,5.6-0.5,8.5-0.4
							c1.4,0.1,2.9,0.3,4.2,0.7c1.5,0.3,2.8,1.1,3.8,2.1c0.6,0.6,1,1.4,0.9,2.3c-0.1,0.8-0.5,1.5-1.1,2.1c-1.1,1-2.3,1.8-3.7,2.4
							c-2.6,1.2-5.4,2-8.2,2.4c-2.8,0.5-5.7,0.7-8.5,0.7c-1.4,0-2.9-0.1-4.3-0.2c-0.7-0.1-1.5-0.2-2.2-0.4c-0.8-0.2-1.6-0.6-2.2-1.2
							c-0.3-0.4-0.5-1-0.5-1.5c0.1-0.5,0.2-0.9,0.5-1.3c0.4-0.6,0.9-1.2,1.5-1.7c1.1-0.9,2.3-1.8,3.5-2.5
							C379.5,377.6,382.1,376.3,384.8,375.3L384.8,375.3z"/>
					</g>
					<g class="st1">
						<path class="st8" d="M378.7,327.6c0,0-0.1,0.4-0.2,1.1c-1.1,6.4,1.4,37.6,5,45.1c0,0,2.3,7.3,11.5,5c8.5-2.2,0.7-5.9,4.8-43.2
							l-21.9-8"/>
						<path class="st11" d="M378.8,327.6c-0.3,1.9-0.3,3.9-0.2,5.8c0.1,1.9,0.2,3.9,0.4,5.8c0.3,3.9,0.7,7.7,1.2,11.6
							s1,7.7,1.7,11.5c0.3,1.9,0.7,3.8,1.1,5.6c0.4,1.8,1,3.6,1.7,5.3l0,0v0.1c0.2,0.5,0.4,0.9,0.7,1.3c0.3,0.4,0.6,0.9,1,1.2
							c0.8,0.7,1.7,1.3,2.7,1.6c2.2,0.5,4.4,0.4,6.5-0.3c0.5-0.1,0.9-0.3,1.4-0.6c0.3-0.2,0.6-0.5,0.7-0.9c0.3-1,0.4-2.1,0.3-3.2
							c0-2.4-0.2-4.9-0.3-7.4c-0.3-10,0.4-19.9,2.1-29.7l0,0v0.1l-21.9-8v-0.1l21.9,8l0,0l0,0l0,0c-0.6,9.9-0.6,19.7-0.1,29.6
							c0.2,2.5,0.4,4.9,0.5,7.4c0.1,1.4,0,2.8-0.5,4.2c-0.3,0.8-0.9,1.5-1.6,2c-0.6,0.4-1.3,0.7-2,0.9c-2.6,1-5.4,1.1-8.1,0.3
							c-2-0.7-3.8-2-4.9-3.9c-0.4-0.6-0.7-1.3-0.9-2l0.1,0.2c-0.8-1.9-1.4-3.8-1.8-5.8c-0.4-1.9-0.7-3.9-1-5.8
							c-0.6-3.9-1-7.8-1.3-11.7c-0.3-3.9-0.5-7.8-0.5-11.7c0-2,0-3.9,0.1-5.9c0-2,0.3-3.9,0.7-5.8L378.8,327.6z"/>
					</g>
					<g class="st1">
						<path class="st44" d="M413.6,359.8c0,0-22.3-60.4-21.7-71s-21.4-6.1-21.4-6.1s-10.2-1-12.4,27c-1.2,15.9-11.7,46.3-11.7,46.3
							S359.2,374.4,413.6,359.8z"/>
						<path class="st45" d="M413.6,359.8c-1.6-3.8-3.1-7.7-4.6-11.6s-2.9-7.8-4.3-11.7c-2.8-7.8-5.4-15.7-7.9-23.7
							c-1.2-4-2.4-8-3.5-12c-0.5-2-1-4-1.4-6.1c-0.2-1-0.4-2.1-0.5-3.1c-0.1-0.5-0.1-1.1-0.2-1.6c0-0.3,0-0.5,0-0.8v-0.8
							c0-0.9-0.2-1.8-0.7-2.6c-0.5-0.8-1.2-1.4-2-1.8c-1.8-0.8-3.7-1.3-5.7-1.4c-4.1-0.2-8.2,0.1-12.2,0.9h-0.1h-0.1
							c-0.3,0-0.6,0-0.9,0.1s-0.7,0.2-1,0.4c-0.7,0.3-1.3,0.8-1.8,1.3c-1.1,1.1-2.1,2.3-2.8,3.7c-1.5,2.9-2.6,6-3.2,9.1
							c-0.7,3.2-1.2,6.5-1.5,9.7c-0.1,1.6-0.3,3.3-0.5,5s-0.5,3.3-0.8,5c-1.2,6.6-2.9,13-4.7,19.4s-3.8,12.7-6,19l0,0l-0.1-0.7
							c0.9,1.1,1.9,2,3,2.8c1.2,0.8,2.4,1.5,3.7,2.2c2.6,1.2,5.3,2.2,8.1,2.8c5.7,1.3,11.5,1.8,17.3,1.6c5.8-0.1,11.6-0.7,17.4-1.6
							C402.2,362.4,407.9,361.2,413.6,359.8z M413.6,359.8c-5.6,1.6-11.3,3-17.1,4c-5.8,1.1-11.6,1.8-17.4,2
							c-5.9,0.3-11.8-0.1-17.6-1.3c-2.9-0.6-5.7-1.5-8.5-2.8c-1.4-0.6-2.7-1.4-3.9-2.2c-1.3-0.8-2.5-1.9-3.5-3.1l-0.2-0.3l0.1-0.4
							l0,0c2.1-6.3,4.1-12.6,5.9-19s3.5-12.8,4.6-19.3c0.3-1.6,0.5-3.3,0.8-4.9s0.4-3.2,0.5-4.9c0.3-3.3,0.8-6.7,1.5-10
							s1.8-6.6,3.4-9.6c0.8-1.5,1.9-3,3.2-4.2c0.7-0.6,1.4-1.1,2.2-1.5c0.4-0.2,0.9-0.3,1.3-0.4c0.5-0.1,1-0.2,1.5-0.2h-0.3
							c2.1-0.4,4.2-0.7,6.3-0.8c2.1-0.2,4.2-0.2,6.4,0c2.2,0.1,4.3,0.7,6.3,1.6c1,0.5,1.9,1.4,2.6,2.3c0.6,1,0.9,2.2,0.9,3.4
							c0,2,0.2,4,0.6,6s0.9,4,1.4,6c1,4,2.2,8,3.4,12c2.4,7.9,5,15.8,7.7,23.7c1.3,3.9,2.6,7.9,3.9,11.8S412.4,355.8,413.6,359.8
							L413.6,359.8z"/>
					</g>
					<g class="st1">
						<circle cx="371.4" cy="263.5" r="2.9"/>
						
							<ellipse transform="matrix(0.9223 -0.3866 0.3866 0.9223 -72.6453 164.5621)" class="st9" cx="372.8" cy="262.9" rx="0.7" ry="1.4"/>
					</g>
					<g class="st1">
						<path class="st29" d="M398.1,245.5c0,0,2.5-11.2-5.3-18.6c2.3,4.7,2.3,10.3,0,15C389,249.9,398.1,245.5,398.1,245.5z"/>
						<path class="st30" d="M398,245.5c0.2-1.6,0.3-3.3,0.2-4.9c-0.1-1.7-0.3-3.3-0.7-4.9c-0.4-1.6-1-3.2-1.8-4.6
							c-0.8-1.5-1.8-2.8-3-4l0.2-0.1l0,0c1,2,1.5,4.2,1.7,6.4s-0.1,4.4-0.8,6.5c-0.2,0.5-0.3,1-0.6,1.6l-0.6,1.5
							c-0.2,0.5-0.4,1-0.5,1.5s-0.1,1,0.1,1.5c0.3,0.5,0.7,0.7,1.3,0.8c0.5,0,1.1,0,1.6-0.1C396,246.2,397,245.9,398,245.5z
							 M398.2,245.6c-1,0.5-2.1,0.9-3.2,1.1c-0.5,0.1-1.1,0.2-1.7,0.1c-0.6,0-1.1-0.3-1.3-0.8c-0.2-0.5-0.2-1.1-0.1-1.7
							c0.1-0.5,0.3-1.1,0.5-1.6l0.6-1.5c0.2-0.5,0.4-1,0.6-1.5c0.7-2.1,0.9-4.3,0.8-6.4c-0.1-2.2-0.7-4.3-1.6-6.3l0,0l-0.4-0.7
							l0.6,0.6c1.2,1.2,2.3,2.5,3.2,3.9c0.9,1.5,1.5,3.1,1.9,4.7c0.4,1.6,0.7,3.3,0.7,5C398.8,242.2,398.6,243.9,398.2,245.6
							L398.2,245.6z"/>
					</g>
					<path class="st46" d="M367.9,257.2c0.4-0.9,1.2-1.5,2.1-1.6s1.9,0,2.7,0.4c0.4,0.2,0.8,0.4,1.2,0.6c0.4,0.3,0.8,0.5,1.1,0.7
						c0.7,0.5,1.3,1.1,1.9,1.8l0,0c-0.4-0.2-0.7-0.4-1.1-0.7s-0.8-0.4-1.1-0.6c-0.7-0.4-1.5-0.7-2.3-1c-0.7-0.3-1.5-0.4-2.3-0.3
						C369.5,256.5,368.7,256.7,367.9,257.2L367.9,257.2z"/>
					<path class="st46" d="M358.8,257.4c-0.7-0.3-1.5-0.4-2.3-0.3s-1.5,0.3-2.2,0.7c-0.7,0.4-1.4,0.9-2,1.4c-0.3,0.3-0.6,0.5-1,0.8
						s-0.6,0.6-1,0.9l0,0c0.4-0.7,0.9-1.4,1.5-2.1c0.3-0.3,0.6-0.6,0.9-0.9s0.7-0.5,1.1-0.8c0.8-0.5,1.7-0.8,2.6-0.9
						C357.4,256.1,358.3,256.6,358.8,257.4L358.8,257.4z"/>
					<g class="st1">
						<path class="st29" d="M390,236.8c0,0-5.2-12.2-17.1-14.4c0,0,9.4,2.9,11.3,14.4S390,236.8,390,236.8z"/>
						<path class="st30" d="M389.9,236.9c-1-1.7-2-3.2-3.2-4.7s-2.5-2.9-3.9-4.2s-3-2.4-4.6-3.3l-1.3-0.7l-1.3-0.5l-0.7-0.3
							l-0.7-0.2l-1.4-0.4v-0.2l0,0c2.5,0.9,4.7,2.5,6.5,4.4s3.2,4.3,4,6.8c0.4,1.3,0.7,2.5,0.9,3.8c0.2,1.3,0.6,2.5,1.1,3.7
							c0.2,0.3,0.4,0.5,0.6,0.7c0.3,0.1,0.6,0.1,0.8,0c0.5-0.3,1-0.8,1.3-1.4C388.9,239.2,389.4,238.1,389.9,236.9z M390.1,236.9
							c-0.4,1.3-1,2.5-1.7,3.6c-0.3,0.6-0.8,1.1-1.4,1.5c-0.3,0.2-0.7,0.2-1,0s-0.5-0.4-0.7-0.8c-0.6-1.2-1-2.5-1.2-3.8
							s-0.5-2.6-0.9-3.8c-0.8-2.5-2.2-4.8-4-6.7s-4-3.4-6.4-4.4l0,0l0.1-0.2c1.9,0.3,3.8,0.8,5.6,1.7c1.8,0.9,3.4,2,4.9,3.3
							s2.8,2.8,4,4.4C388.5,233.3,389.4,235,390.1,236.9L390.1,236.9z"/>
					</g>
					<path class="st47" d="M398.5,245.5c0,0,6.9,0.3,12.6,10c0,0-6.2-5.5-11.7-5.1S398.5,245.5,398.5,245.5z"/>
					<g class="st1">
						<circle cx="354.8" cy="263" r="2.5"/>
						
							<ellipse transform="matrix(0.9223 -0.3866 0.3866 0.9223 -73.789 158.0369)" class="st9" cx="356" cy="262.5" rx="0.6" ry="1.2"/>
					</g>
					<g class="st1">
						<path class="st29" d="M376.4,231.4c-1.6-0.2-26.9-2.6-38.4,18.3c0,0,8.8-9.1,15.7-10.3c0,0-7.7,3.2-13.1,12.9
							c0,0,7-7.2,15.2-10.5c-2.5,1.9-4.4,4.6-5.4,7.6c2-2.2,4.5-3.9,7.3-4.9c-1.4,2.7-1.4,5.9,0,8.6c1.1-3.6,3.6-6.6,7-8.3
							c-1.3,2.4-1.7,5.2-1.1,7.9c1.6-2.1,3.3-4.1,5.2-5.9c0,0-0.9,5.2-0.4,7.9c0,0,2.3-2.9,6-6.9c0.8,1.8,1.4,3.7,1.9,5.6
							c0,0,2.2-2.7,2.3-4.6c0,0,3.1,4.2,1.4,13.2c0,0,3.6-4.6,3.7-9.7c0,0,0,12.9-1.7,17.7c2.3-2.9,4.2-6.1,5.8-9.5
							c0,0,2.3,12.2-0.5,19.5c0,0,5.6-7.7,5.5-17.3c0,0,0.9,11.5-0.4,16.6c0,0,9.6-5.6,10.4-20.5S394.8,234,376.4,231.4z"/>
						<path class="st30" d="M376.3,231.9c-3.7-0.4-7.4-0.3-11.1,0.3c-3.7,0.5-7.3,1.5-10.7,3c-1.7,0.7-3.4,1.6-4.9,2.6
							c-1.6,1-3.1,2.1-4.5,3.3c-2.8,2.5-5.2,5.4-7,8.7l0,0l-0.2-0.1c1.1-1.1,2.3-2.2,3.5-3.3s2.4-2,3.7-3c1.3-0.9,2.6-1.8,4-2.5
							c1.4-0.8,2.9-1.3,4.5-1.6l0.9-0.2l-0.8,0.4c-1.4,0.7-2.7,1.5-4,2.4c-1.2,0.9-2.4,1.9-3.5,3s-2.1,2.3-3,3.5s-1.8,2.5-2.5,3.9
							l-0.2-0.1c2.2-2.2,4.6-4.2,7.2-6c2.5-1.8,5.2-3.3,8.1-4.6l0.9-0.4l-0.8,0.6c-1.2,0.9-2.3,2.1-3.2,3.4c-0.4,0.6-0.8,1.3-1.2,2
							c-0.4,0.7-0.7,1.4-1,2.1l-0.2-0.1c1-1.1,2.1-2.1,3.4-2.9c1.2-0.8,2.6-1.5,4-2l0,0l0.3-0.1l-0.1,0.3c-0.7,1.3-1,2.8-1.1,4.2
							c0,1.5,0.3,3,1,4.3l0,0l0,0c0.6-1.8,1.5-3.4,2.7-4.9c0.6-0.7,1.3-1.4,2-2s1.5-1.1,2.3-1.6l0,0l0.4-0.2l-0.2,0.4
							c-0.7,1.2-1.1,2.5-1.3,3.8c-0.1,0.7-0.1,1.3-0.1,2s0.1,1.3,0.2,2l-0.2-0.1c1.6-2.1,3.3-4.1,5.3-5.9l0.2-0.2l-0.1,0.3
							c-0.2,1.3-0.4,2.6-0.5,3.9c-0.1,1.3-0.1,2.6,0.1,3.9h-0.2c1.9-2.4,4-4.6,6-6.9l0.1-0.1l0.1,0.2c0.8,1.8,1.4,3.7,1.9,5.6h-0.2
							c0.5-0.7,1-1.4,1.4-2.1c0.4-0.7,0.7-1.6,0.9-2.4v-0.3l0.2,0.3c0.6,1,1,2,1.3,3.1s0.5,2.2,0.5,3.4c0.1,1.1,0.1,2.3,0,3.4
							c0,0.6-0.1,1.1-0.2,1.7l-0.3,1.7l-0.2-0.1c1-1.4,1.9-3,2.5-4.6c0.7-1.6,1.1-3.3,1.1-5.1h0.3c0,3-0.1,5.9-0.3,8.9
							c-0.1,1.5-0.3,3-0.4,4.4c-0.2,1.5-0.5,2.9-0.9,4.4l-0.2-0.1c1.1-1.5,2.2-3,3.1-4.6c1-1.6,1.8-3.2,2.6-4.9l0.1-0.3l0.1,0.4
							c0.3,1.6,0.5,3.3,0.6,4.9s0.2,3.3,0.2,4.9c0.1,3.3-0.4,6.6-1.4,9.7l-0.2-0.1c1.7-2.5,3.1-5.3,4-8.2c0.5-1.4,0.8-2.9,1.1-4.4
							c0.2-1.5,0.4-3,0.4-4.6h0.2c0.2,2.8,0.3,5.5,0.3,8.3c0,1.4,0,2.8-0.1,4.2c-0.1,1.4-0.3,2.8-0.6,4.1l0,0l-0.2-0.1
							c4.3-3.4,7.3-8.2,8.6-13.5c0.7-2.6,1-5.3,1-8c0-1.3,0-2.7-0.2-4s-0.4-2.6-0.8-3.9c-0.8-2.6-2-5-3.6-7.1
							c-1.7-2.1-3.7-3.9-5.9-5.4c-1.1-0.7-2.3-1.4-3.5-2c-1.3-0.5-2.5-1.1-3.8-1.5C381.7,232.9,379,232.3,376.3,231.9z M376.5,230.9
							c2.8,0.4,5.5,1,8.2,1.8c1.4,0.4,2.7,0.9,4,1.4c1.3,0.6,2.6,1.3,3.8,2c2.5,1.5,4.6,3.3,6.4,5.6s3.1,4.9,3.9,7.6
							c0.4,1.4,0.7,2.8,0.9,4.2c0.1,1.4,0.2,2.8,0.2,4.3c-0.1,2.8-0.5,5.7-1.3,8.4c-1.6,5.4-5,10.4-9.8,13.3l-0.2,0.1v-0.3l0,0
							c0.3-1.3,0.5-2.7,0.5-4.1c0.1-1.4,0.1-2.8,0.1-4.1c0-2.8-0.1-5.5-0.3-8.3h0.2c0,1.5-0.1,3.1-0.4,4.6s-0.6,3-1.1,4.5
							c-0.9,2.9-2.3,5.7-4,8.3l-0.5,0.7l0.3-0.8c1-3.1,1.5-6.4,1.4-9.6c0-1.6-0.1-3.3-0.3-4.9s-0.4-3.3-0.6-4.9h0.2
							c-0.8,1.7-1.6,3.3-2.6,4.9s-2,3.1-3.2,4.6l-0.4,0.5l0.2-0.6c0.4-1.4,0.7-2.9,0.9-4.3c0.2-1.5,0.3-2.9,0.4-4.4
							c0.2-3,0.3-5.9,0.3-8.9h0.2c-0.1,1.8-0.5,3.5-1.2,5.2c-0.7,1.6-1.5,3.2-2.6,4.6l-0.3,0.4l0.1-0.5l0.3-1.7
							c0-0.6,0.1-1.1,0.2-1.7c0.1-1.1,0.1-2.2,0-3.4c-0.1-1.1-0.2-2.3-0.5-3.4c-0.3-1.1-0.7-2.1-1.3-3.1l0.2-0.1
							c-0.1,0.9-0.4,1.7-0.9,2.5c-0.4,0.8-0.9,1.5-1.5,2.2l-0.1,0.2l-0.1-0.2c-0.5-1.9-1.2-3.8-1.9-5.6h0.2c-2.1,2.2-4.1,4.5-6,6.9
							l-0.2,0.2v-0.2c-0.2-1.3-0.2-2.7-0.1-4s0.3-2.6,0.5-3.9l0.2,0.1c-1.9,1.8-3.7,3.8-5.2,5.9l-0.2,0.2v-0.3
							c-0.1-0.7-0.2-1.3-0.2-2s0-1.4,0.1-2.1c0.2-1.4,0.6-2.7,1.3-3.9l0.1,0.2l0,0c-0.9,0.4-1.7,0.8-2.4,1.4c-0.7,0.6-1.4,1.2-2,1.9
							c-1.2,1.4-2.1,3.1-2.7,4.9l0,0l0,0c-0.7-1.3-1.1-2.8-1.1-4.3s0.3-3,1-4.3l0.1,0.2l0,0c-1.4,0.5-2.7,1.2-3.9,2
							c-1.2,0.8-2.3,1.8-3.3,2.9l-0.4,0.5l0.2-0.6c0.3-0.7,0.6-1.4,1-2.1c0.4-0.7,0.8-1.4,1.2-2c0.9-1.3,2-2.5,3.2-3.4l0.1,0.2
							c-2.9,1.2-5.6,2.7-8.1,4.5s-4.9,3.8-7.1,5.9l-0.6,0.6l0.4-0.7c0.8-1.4,1.6-2.7,2.5-3.9c0.9-1.3,1.9-2.4,3-3.6
							c1.1-1.1,2.3-2.1,3.5-3.1c1.2-0.9,2.6-1.8,4-2.4l0.1,0.2c-1.5,0.3-3,0.9-4.4,1.6c-1.4,0.7-2.7,1.6-4,2.5s-2.5,1.9-3.7,2.9
							s-2.4,2.1-3.5,3.2l-0.6,0.6l0.5-0.8l0,0c1.8-3.3,4.1-6.3,6.9-8.9c1.4-1.3,2.9-2.4,4.5-3.5c1.6-1,3.3-1.9,5-2.7
							c3.5-1.5,7.1-2.6,10.9-3.2C369,230.8,372.8,230.6,376.5,230.9z"/>
					</g>
					<g class="st1">
						<path class="st33" d="M399.7,314c4.1-0.2,7.5,2.1,7.6,5.2l0,0l0,0c2.6,3.1,2.6,10.7,1.5,10.2s-2.8-4.4-2.6-3.4s1,9-0.5,8.6
							s-3.1-7-3.1-7s0.7,8.4-1.3,7.2c-1.6-1-2.5-6.9-2.7-9.7c-1.2-0.1-2.4-0.5-3.4-1.1c-0.5,2.4-0.8,6.1-2.2,5.2
							c-1.6-1-1.1-5.9-0.3-8c-0.1-0.4-0.2-0.8-0.2-1.2C392.5,316.8,395.6,314.2,399.7,314z"/>
						<path class="st34" d="M399.7,314c1.7-0.1,3.4,0.3,4.9,1.1c0.7,0.4,1.4,1,1.9,1.7s0.8,1.5,0.9,2.4l0,0c0.9,1,1.6,2.3,1.9,3.6
							c0.4,1.3,0.6,2.7,0.7,4.1c0,0.7,0,1.4-0.2,2.1c-0.1,0.2-0.2,0.5-0.3,0.6c-0.1,0.1-0.1,0.1-0.2,0.2s-0.2,0.1-0.4,0.1
							c-0.2,0-0.3-0.1-0.4-0.2c-0.3-0.2-0.6-0.5-0.8-0.8c-0.4-0.6-0.8-1.1-1.2-1.7l-0.5-0.9v-0.1l0,0l0,0h0.1l0,0
							c0.1,0.1,0.2,0.1,0.3,0.1c0.1,0,0.2-0.1,0.3-0.2l0.1-0.1c0-0.1,0.1-0.1,0.1-0.2v-0.1l0,0v0.1l0.1,0.5c0.2,1.4,0.3,2.7,0.4,4.1
							c0,0.7,0,1.4,0,2.1c0,0.4-0.1,0.7-0.1,1.1c0,0.2-0.1,0.4-0.2,0.6c-0.1,0.3-0.3,0.6-0.6,0.7c-0.2,0.1-0.5,0.1-0.7,0.1
							c-0.1,0-0.3-0.1-0.4-0.2c-0.2-0.1-0.4-0.3-0.5-0.5c-0.2-0.3-0.4-0.6-0.6-1c-0.3-0.6-0.5-1.3-0.7-2c-0.4-1.3-0.6-2.7-0.7-4l0,0
							c0.3,1.5,0.5,3.1,0.5,4.6c0,0.8-0.1,1.6-0.4,2.4c-0.1,0.3-0.3,0.5-0.5,0.6c-0.3,0.2-0.7,0.2-1,0c-0.4-0.3-0.7-0.6-0.9-1
							c-0.7-1.4-1.1-2.9-1.3-4.5c-0.2-1.5-0.3-3.1-0.3-4.6l0,0l0,0c-1.2-0.1-2.4-0.5-3.4-1.1l0,0c0.1,1.3,0.1,2.5-0.1,3.8
							c-0.1,0.3-0.1,0.7-0.3,1c-0.1,0.4-0.4,0.8-0.7,1.1c-0.3,0.2-0.6,0.3-1,0.3c-0.3-0.1-0.5-0.2-0.7-0.4c-0.3-0.3-0.6-0.6-0.7-1
							c-0.2-0.6-0.4-1.3-0.4-2c0-0.6,0-1.3,0.1-1.9c0.2-1.3,0.6-2.5,1.3-3.5l0,0c-0.3-0.9-0.3-1.9,0-2.8s0.9-1.7,1.6-2.3
							C395.8,314.7,397.8,314,399.7,314z M399.7,314c-1.9,0-3.8,0.7-5.3,2c-0.7,0.6-1.3,1.4-1.6,2.3c-0.3,0.9-0.3,1.9,0,2.8l0,0
							c-0.1,1.2-0.2,2.4-0.2,3.6c0,1.1,0.1,2.2,0.5,3.3c0.1,0.2,0.2,0.3,0.3,0.5c0.1,0.1,0.1,0,0,0.1c-0.1,0-0.1,0-0.2,0
							c0,0,0.2-0.2,0.3-0.4c0.1-0.3,0.2-0.5,0.3-0.8c0.4-1.2,0.8-2.3,1.3-3.4l0,0l0,0c1.1,0.6,2.2,1,3.4,1.1l0,0
							c0.2,1.5,0.5,3,0.9,4.5c0.3,1.5,0.8,2.9,1.4,4.2c0.1,0.3,0.3,0.5,0.6,0.7c0.1,0.1,0.1,0,0.1,0c0.1-0.1,0.1-0.1,0.2-0.2
							c0.2-0.7,0.4-1.4,0.4-2.1c0.1-1.5,0.2-3,0.3-4.6v-0.1v0.1l0,0c0.6,1.2,1.1,2.5,1.7,3.7c0.3,0.6,0.6,1.2,0.9,1.7
							c0.1,0.3,0.3,0.5,0.5,0.7c0.1,0.1,0.2,0.2,0.2,0.2l0,0c-0.1,0-0.1,0-0.2,0c-0.1,0.1,0,0,0-0.1s0.1-0.2,0.1-0.4
							c0.1-0.3,0.1-0.6,0.1-0.9c0-0.6,0-1.3,0-2c0-1.3-0.1-2.7-0.3-4l-0.1-0.5v-0.1v-0.1v-0.1c0-0.1,0-0.2,0.1-0.2l0.1-0.1
							c0.1-0.1,0.2-0.2,0.4-0.2c0.1,0,0.2,0,0.3,0.1l0,0l0.1,0.1l0.1,0.1l0.1,0.1l0.1,0.1l0.5,0.9c0.3,0.6,0.6,1.1,1,1.7
							c0.2,0.2,0.4,0.5,0.6,0.6c0,0,0.1,0,0,0s-0.2,0-0.2,0.1c0.1-0.1,0.1-0.2,0.1-0.3c0.2-0.6,0.2-1.2,0.2-1.9c0-1.3-0.1-2.6-0.4-4
							c-0.2-1.3-0.7-2.6-1.5-3.7l0,0c0-0.9-0.3-1.7-0.8-2.4c-0.5-0.7-1.1-1.3-1.9-1.7C403,314.2,401.4,313.9,399.7,314L399.7,314z"
							/>
					</g>
					<g class="st1">
						<path class="st44" d="M390.3,284.9c8.6,0.7,20.4,38.5,20.2,40.2s-11.5,4.6-19.7,2.1C390.9,327.2,381.5,284.1,390.3,284.9z"/>
						<path class="st45" d="M390.4,284.5c1.5,0.3,2.8,1,3.8,2.1c1,1,1.9,2.1,2.7,3.3c1.6,2.3,3,4.8,4.2,7.3c2.5,5,4.6,10.1,6.5,15.4
							c0.9,2.6,1.8,5.3,2.6,7.9c0.4,1.4,0.8,2.7,1.1,4.1c0,0.1,0,0.2,0,0.3c0,0.2,0,0.4-0.1,0.6c-0.1,0.3-0.3,0.5-0.5,0.6
							c-0.3,0.2-0.6,0.5-1,0.6c-0.7,0.3-1.4,0.5-2.1,0.7c-2.7,0.7-5.6,1.1-8.4,1c-2.8,0-5.6-0.4-8.3-1.3l0,0l0,0
							c-1.6-7.2-2.9-14.5-3.8-21.9c-0.5-3.7-0.8-7.4-0.8-11.1c0-1.9,0.1-3.8,0.5-5.6c0.2-1,0.5-1.9,1-2.7c0.3-0.4,0.7-0.8,1.1-1.1
							C389.3,284.6,389.8,284.4,390.4,284.5z M390.3,285.3c-0.8-0.1-1.6,0.4-2,1.1c-0.5,0.8-0.8,1.6-0.9,2.5
							c-0.4,1.8-0.5,3.6-0.5,5.5c0,3.7,0.2,7.4,0.6,11.1c0.8,7.4,2,14.7,3.5,21.9l0,0l0,0c2.7,0.6,5.5,0.7,8.2,0.5s5.4-0.7,8-1.5
							c0.6-0.2,1.2-0.4,1.8-0.7c0.3-0.1,0.5-0.3,0.7-0.5c0.1,0,0.1-0.1,0.1-0.1v0.1V325c-0.3-1.3-0.7-2.6-1.1-3.9
							c-0.8-2.7-1.7-5.3-2.6-7.9c-1.8-5.2-3.8-10.4-6.1-15.4c-1.1-2.5-2.5-4.9-3.9-7.3c-0.7-1.1-1.6-2.2-2.5-3.2
							C392.7,286.2,391.6,285.5,390.3,285.3z"/>
					</g>
					<circle class="st40" cx="301.6" cy="255.9" r="2"/>
					<circle class="st48" cx="66.6" cy="348.9" r="1"/>
					<circle class="st48" cx="64.1" cy="349.4" r="0.5"/>
					<g class="st1">
						
							<image style="overflow:visible;opacity:0.8;enable-background:new    ;" width="29" height="29" xlink:href="906419BD.png"  transform="matrix(1 0 0 1 33 41)">
						</image>
						<circle class="st49" cx="47.9" cy="55.5" r="2"/>
					</g>
					<g class="st1">
						
							<image style="overflow:visible;opacity:0.8;enable-background:new    ;" width="29" height="30" xlink:href="906419BE.png"  transform="matrix(1 0 0 1 25 125)">
						</image>
						<circle class="st49" cx="39.5" cy="140.2" r="2.4"/>
					</g>
					<g class="st1">
						
							<image style="overflow:visible;opacity:0.8;enable-background:new    ;" width="30" height="31" xlink:href="906419BC.png"  transform="matrix(1 0 0 1 113 17)">
						</image>
						<circle class="st49" cx="127.8" cy="32.6" r="2.8"/>
					</g>
					<g class="st1">
						<path class="st50" d="M151.5,138.3v14.6h-1.7v-14.6c0-1.4-1.1-2.5-2.5-2.6h-18.8v17.1h-1.7V134h20.5
							C149.6,134.1,151.5,136,151.5,138.3z"/>
						<path class="st50" d="M177.8,142.6v-4.3c0-1.4-1.1-2.5-2.5-2.6h-16.4c-1.4,0-2.5,1.2-2.5,2.6v10.3c0,1.4,1.1,2.5,2.5,2.6h20.6
							v1.7h-20.6c-2.3,0-4.2-1.9-4.2-4.3l0,0v-10.3c0-2.3,1.9-4.3,4.2-4.3h16.4c2.3,0,4.2,1.9,4.2,4.3v6h-20.2v-1.7H177.8z"/>
						<path class="st50" d="M207.5,138.3v10.3c0,2.3-1.9,4.3-4.2,4.3h-16.4c-2.3,0-4.2-1.9-4.2-4.3l0,0v-10.3c0-2.3,1.9-4.3,4.2-4.3
							h16.4C205.7,134.1,207.5,136,207.5,138.3z M205.8,138.3c0-1.4-1.1-2.5-2.5-2.6h-16.4c-1.4,0-2.5,1.2-2.5,2.6v10.3
							c0,1.4,1.1,2.5,2.5,2.6h16.4c1.4,0,2.5-1.2,2.5-2.6V138.3z"/>
						<path class="st50" d="M221.2,151.2v1.7h-6.3c-2.3,0-4.2-1.9-4.2-4.2l0,0v-17.1h1.7v2.5h7.1v1.7h-7.1v12.8
							c0,1.4,1.1,2.5,2.5,2.6H221.2z"/>
						<path class="st50" d="M248.4,138.3v14.6h-20.6c-2.3,0-4.2-1.9-4.2-4.3l0,0v-3.4c0-2.3,1.8-4.3,4.2-4.3l0,0h15.5v1.7h-15.5
							c-1.4,0-2.5,1.2-2.5,2.6v3.4c0,1.4,1.1,2.5,2.5,2.6h18.9v-12.8c0-1.4-1.1-2.5-2.5-2.6h-19.8v-1.7h19.8
							C246.5,134.1,248.4,136,248.4,138.3z"/>
						<path class="st50" d="M251.5,161.5v-1.7h20.6c1.4,0,2.5-1.2,2.5-2.6v-21.4h-18.9c-1.4,0-2.5,1.2-2.5,2.6v10.3
							c0,1.4,1.1,2.5,2.5,2.6h16v1.7h-16c-2.3,0-4.2-1.9-4.2-4.3l0,0v-10.3c0-2.3,1.9-4.3,4.2-4.3h20.6v23.1c0,2.3-1.9,4.3-4.2,4.3
							L251.5,161.5z"/>
					</g>
					<g class="st1">
						<path class="st50" d="M239.8,59h-14.9v40.1h-7.3c-1.9-0.1-3.6-1-4.7-2.5l-31.8-37.5c-0.1,0-0.1,0-0.1-0.1h-0.9v51.1
							c19.6,11.8,45,5.5,56.8-14.1c3.9-6.4,5.9-13.8,5.9-21.3C243,69.3,241.9,64,239.8,59z"/>
						<path class="st50" d="M185.8,54.4L217.6,92h0.9V59h-14.4c-0.4,0-0.8-0.3-0.8-0.8l0,0c0-0.1,0-0.2,0-0.3l2.2-5.5l0,0
							c0.1-0.3,0.4-0.6,0.7-0.6H236c-12.6-19.1-38.2-24.3-57.3-11.8S154.4,78.4,167,97.4c1.9,2.9,4.2,5.6,6.8,7.9V57
							c0-2.8,2.1-5.1,4.6-5.1h2.7C182.9,52,184.6,52.9,185.8,54.4z"/>
					</g>
					<g class="st1">
						<path class="st50" d="M106.3,434.3v-22.6h1.4v22.6H106.3z"/>
						<path class="st50" d="M134.7,422.3v12h-19c-1.9,0-3.5-1.6-3.5-3.5l0,0V428c0-1.9,1.6-3.5,3.5-3.5l0,0H132v1.4h-16.3
							c-1.2,0-2.1,1-2.1,2.1l0,0v2.8c0,1.2,0.9,2.1,2.1,2.1h17.6v-10.6c0-1.2-0.9-2.1-2.1-2.1h-18.3v-1.4h18.4
							C133.2,418.8,134.7,420.4,134.7,422.3z"/>
						<path class="st50" d="M139.9,434.3v-1.4h18.3c1.2,0,2.1-0.9,2.1-2.1v-1.4c0-1.2-0.9-2.1-2.1-2.1h-15.5c-1.9,0-3.5-1.6-3.5-3.5
							l0,0v-1.4c0-1.9,1.6-3.5,3.5-3.5H161v1.4h-18.3c-1.2,0-2.1,0.9-2.1,2.1v1.4c0,1.2,0.9,2.1,2.1,2.1h15.5c1.9,0,3.5,1.6,3.5,3.5
							v1.4c0,1.9-1.6,3.5-3.5,3.5H139.9z"/>
						<path class="st50" d="M187.4,425.9v-3.5c0-1.2-0.9-2.1-2.1-2.1h-15.5c-1.2,0-2.1,0.9-2.1,2.1v8.5c0,1.2,0.9,2.1,2.1,2.1h19.1
							v1.4h-19.1c-1.9,0-3.5-1.6-3.5-3.5l0,0v-8.5c0-1.9,1.6-3.5,3.5-3.5h15.5c1.9,0,3.5,1.6,3.5,3.5v5H169V426h18.4V425.9z"/>
						<path class="st50" d="M193.2,434.3v-12c0-1.9,1.6-3.5,3.5-3.5h10.6v1.4h-10.6c-1.2,0-2.1,0.9-2.1,2.1v12H193.2z"/>
						<path class="st50" d="M235,432.9v1.4h-7.1c-1.9,0-3.5-1.6-3.5-3.5l0,0v-15.5h1.4v3.5h7.7v1.4h-7.8v10.6c0,1.2,0.9,2.1,2.1,2.1
							H235z"/>
						<path class="st50" d="M261.3,422.3v12h-19.1c-1.9,0-3.5-1.6-3.5-3.5l0,0V428c0-1.9,1.6-3.5,3.5-3.5l0,0h16.2v1.4h-16.2
							c-1.2,0-2.1,1-2.1,2.1l0,0v2.8c0,1.2,0.9,2.1,2.1,2.1h17.6v-10.6c0-1.2-0.9-2.1-2.1-2.1h-18.3v-1.4h18.3
							C259.7,418.8,261.2,420.4,261.3,422.3z"/>
						<path class="st50" d="M265.7,441.4V440h19.1c1.2,0,2.1-1,2.1-2.1v-17.7h-17.6c-1.2,0-2.1,0.9-2.1,2.1v8.5
							c0,1.2,0.9,2.1,2.1,2.1h16.2v1.4h-16.2c-1.9,0-3.5-1.6-3.5-3.5l0,0v-8.5c0-1.9,1.6-3.5,3.5-3.5h19v19.1c0,1.9-1.6,3.5-3.5,3.5
							H265.7z"/>
						<path class="st50" d="M91.9,469.9v-12c0-1.9,1.6-3.5,3.5-3.5H106v1.4H95.4c-1.2,0-2.1,0.9-2.1,2.1v12H91.9z"/>
						<path class="st50" d="M130.8,461.4v-3.5c0-1.2-0.9-2.1-2.1-2.1h-15.5c-1.2,0-2.1,0.9-2.1,2.1v8.5c0,1.2,0.9,2.1,2.1,2.1h19
							v1.4h-19c-1.9,0-3.5-1.6-3.5-3.5l0,0v-8.5c0-1.9,1.6-3.5,3.5-3.5h15.5c1.9,0,3.5,1.6,3.5,3.5v5h-19.8v-1.4L130.8,461.4z"/>
						<path class="st50" d="M138.1,450.1v1.4h-1.4v-1.4H138.1z M136.7,454.4h1.4v15.5h-1.4V454.4z"/>
						<path class="st50" d="M175,457.9v12h-1.4v-12c0-1.2-1-2.1-2.1-2.1h-9.9c-1.2,0-2.1,0.9-2.1,2.1l0,0v12h-1.4v-12
							c0-1.2-1-2.1-2.1-2.1h-12v14.1h-1.4v-15.5H156c1.1,0,2.2,0.5,2.8,1.4c0.7-0.9,1.7-1.4,2.8-1.4h9.9
							C173.5,454.4,175,456,175,457.9z"/>
						<path class="st50" d="M202.1,457.9v12H183c-1.9,0-3.5-1.6-3.5-3.5l0,0v-2.8c0-1.9,1.5-3.5,3.5-3.5c0,0,0,0,0.1,0h16.2v1.4H183
							c-1.2,0-2.1,1-2.1,2.1l0,0v2.8c0,1.2,0.9,2.1,2.1,2.1h17.6v-10.6c0-1.2-0.9-2.1-2.1-2.1h-18.3v-1.4h18.3
							C200.5,454.4,202,455.9,202.1,457.9z"/>
						<path class="st50" d="M206.5,476.9v-1.4h19.1c1.2,0,2.1-1,2.1-2.1v-17.6H210c-1.2,0-2.1,0.9-2.1,2.1v8.5
							c0,1.2,0.9,2.1,2.1,2.1h16.2v1.4H210c-1.9,0-3.5-1.6-3.5-3.5l0,0v-8.5c0-1.9,1.6-3.5,3.5-3.5h19.1v19c0,1.9-1.6,3.5-3.5,3.5
							H206.5z"/>
						<path class="st50" d="M235,450.1v1.4h-1.4v-1.4H235z M233.6,454.4h1.4v15.5h-1.4V454.4z"/>
						<path class="st50" d="M262,457.9v12h-1.4v-12c0-1.2-0.9-2.1-2.1-2.1h-17.7v14.1h-1.4v-15.5h19.1
							C260.4,454.4,262,455.9,262,457.9z"/>
						<path class="st50" d="M287.6,461.4v-3.5c0-1.2-0.9-2.1-2.1-2.1H270c-1.2,0-2.1,0.9-2.1,2.1v8.5c0,1.2,0.9,2.1,2.1,2.1h19v1.4
							h-19c-1.9,0-3.5-1.6-3.5-3.5l0,0v-8.5c0-1.9,1.6-3.5,3.5-3.5h15.5c1.9,0,3.5,1.6,3.5,3.5v5h-19.8v-1.4L287.6,461.4z"/>
						<path class="st50" d="M297,469.9c-1.9,0-3.5-1.6-3.5-3.5l0,0v-8.5c0-1.9,1.6-3.5,3.5-3.5h16.2v1.4H297c-1.2,0-2.1,0.9-2.1,2.1
							v8.5c0,1.2,0.9,2.1,2.1,2.1h17.6v-21.2h1.4v22.6H297z"/>
					</g>
					<g class="st1">
						<g>
							<path class="st36" d="M335.3,265.8c0,0,10,4.1,14.6,13.9c8.7,18.5,15.7,35.7-23.9,42.1c0,0-9.4-12.4-8.6-22.2
								c0,0,13.8-1.4,21.1-1.4c0,0-1.1-1.1,1.5-2.3C340,296,322.6,266,335.3,265.8z"/>
							<path class="st41" d="M335.4,265.3c0.1,0,0.1,0,0.2,0.1h0.1l0.2,0.1l0.3,0.1l0.6,0.3c0.4,0.2,0.8,0.4,1.2,0.6
								c0.8,0.4,1.5,0.9,2.3,1.4c1.5,1,2.9,2.1,4.2,3.2c2.7,2.4,4.9,5.3,6.4,8.5c1.5,3.1,3,6.3,4.3,9.6c1.4,3.3,2.2,6.8,2.5,10.4
								c0.1,1.8,0,3.7-0.5,5.5s-1.2,3.5-2.3,5c-2.2,2.9-5.1,5.2-8.4,6.7c-3.2,1.5-6.5,2.7-10,3.4c-3.4,0.8-6.9,1.4-10.4,1.7H326l0,0
								c-1.2-1.6-2.3-3.3-3.3-5.1c-1-1.8-1.9-3.6-2.8-5.4c-0.8-1.9-1.5-3.8-2-5.8s-0.7-4-0.6-6v-0.1h0.1c3.5-0.3,7-0.6,10.5-0.9
								c3.5-0.2,7-0.5,10.6-0.5l-0.1,0.2c-0.2-0.2-0.3-0.5-0.3-0.8c0.1-0.3,0.2-0.5,0.4-0.7c0.4-0.4,0.9-0.7,1.4-0.9v0.1
								c-1.5-2.5-2.8-5.1-4.1-7.7s-2.4-5.3-3.5-8s-1.7-5.6-2-8.5c-0.2-1.5,0.1-3.1,0.9-4.4c0.4-0.7,1.1-1.2,1.8-1.5
								c0.4-0.2,0.7-0.3,1.1-0.4l0.6-0.1L335.4,265.3z M335.2,266.2h-0.4l-0.5,0.1c-0.3,0.1-0.7,0.1-1,0.3c-0.6,0.2-1.1,0.7-1.5,1.2
								c-0.7,1.2-1,2.6-0.8,4c0.2,2.9,0.8,5.7,1.8,8.4c0.9,2.7,2,5.4,3.3,8c1.2,2.6,2.5,5.2,3.9,7.8v0.1h-0.1
								c-0.5,0.2-0.9,0.5-1.3,0.8c-0.2,0.2-0.3,0.4-0.3,0.6s0,0.5,0.2,0.6l0.2,0.2h-0.2c-3.5,0-7,0.2-10.5,0.5s-7,0.5-10.5,0.9
								l0.1-0.1c-0.1,2,0.1,4,0.6,6s1.2,3.9,2,5.7c1.6,3.7,3.6,7.2,6,10.5h-0.1l0,0c6.8-1.6,13.5-3.3,19.6-6.5
								c3-1.5,5.6-3.6,7.7-6.3c1.9-2.7,2.7-6,2.4-9.3c-0.3-3.4-1.1-6.7-2.3-9.9c-1.2-3.2-2.6-6.4-4-9.5s-3.4-5.9-5.8-8.2
								c-1.2-1.2-2.5-2.3-3.9-3.3c-0.7-0.5-1.4-1-2.2-1.4c-0.4-0.2-0.7-0.4-1.1-0.6l-0.6-0.3l-0.3-0.1L335.2,266.2L335.2,266.2
								C335.2,266.3,335.2,266.2,335.2,266.2z"/>
						</g>
						<g>
							<path class="st36" d="M313.2,297.1c0,0-1.6,20.4,10.5,29.4l6.2-3.7c0,0-9.7-15.4-8.3-25.7C321.5,297.1,317.7,297,313.2,297.1
								z"/>
							<path class="st41" d="M313.3,297.2c0,0.1,0,0.1,0,0.1v1.8c0,0.7,0,1.4,0.1,2c0.1,1.3,0.2,2.7,0.4,4c0.3,2.7,0.9,5.3,1.7,7.8
								s1.9,4.9,3.3,7.2c1.4,2.2,3.2,4.1,5.3,5.6l0,0h-1l6.5-3.1v0.2l0,0c-1.2-2-2.3-4-3.3-6c-1-2.1-1.9-4.2-2.7-6.3
								c-0.8-2.1-1.5-4.3-1.9-6.6c-0.5-2.3-0.6-4.6-0.4-6.9l0.2,0.2L313.3,297.2z M313.1,296.9h8.4h0.2v0.2
								c-0.2,2.3-0.1,4.5,0.4,6.8c0.5,2.2,1.1,4.4,1.9,6.5c0.8,2.1,1.7,4.2,2.7,6.3c1,2,2.1,4,3.3,6l0,0l0.1,0.1l-0.1,0.1l-5.8,4.4
								l-0.5,0.3l-0.6-0.4l0,0c-2.2-1.8-4-3.9-5.5-6.3c-1.3-2.4-2.4-5-3.2-7.6c-0.7-2.6-1.2-5.3-1.4-8c-0.1-1.4-0.2-2.7-0.2-4.1
								c0-0.7,0-1.4,0-2v-1v-0.5v-0.3C312.9,297.3,313,297.1,313.1,296.9z"/>
						</g>
					</g>
					<g class="st1">
						<path class="st33" d="M354.6,294.2c-3.8-1.4-6.1-4.9-5-7.8l0,0c-1.2-3.9,1.8-10.9,2.6-9.9s0.9,5.1,1,4.2s2.6-8.7,3.8-7.7
							s0.1,7.7,0.1,7.7s2.7-8,4-6.1c1.1,1.5-0.4,7.4-1.4,10c1.1,0.6,2,1.4,2.7,2.4c1.4-2,3.1-5.3,4-4c1.1,1.5-1.3,5.8-2.9,7.5
							c0,0.4-0.1,0.8-0.3,1.2C362.4,294.5,358.4,295.7,354.6,294.2z"/>
						<path class="st34" d="M354.6,294.3c-1.6-0.6-3-1.6-4.1-3c-0.5-0.7-0.9-1.5-1.1-2.3s-0.1-1.7,0.1-2.5l0,0
							c-0.4-1.3-0.5-2.7-0.3-4.1s0.5-2.7,1-4c0.2-0.7,0.6-1.3,1-1.9c0.1-0.2,0.3-0.4,0.5-0.5c0.1,0,0.2-0.1,0.3-0.1
							c0.1,0,0.2,0,0.4,0.1c0.1,0.1,0.2,0.2,0.3,0.3c0.2,0.3,0.4,0.7,0.5,1.1c0.2,0.7,0.3,1.4,0.4,2.1l0.1,1v0.1l0,0l0,0
							c0,0,0,0,0-0.1l0,0c-0.2-0.2-0.4-0.2-0.6-0.1l-0.1,0.1c-0.1,0-0.1,0.1-0.1,0.2v0.1l0,0v-0.1l0.1-0.5c0.4-1.3,0.8-2.6,1.3-3.9
							c0.3-0.6,0.5-1.3,0.8-1.9c0.2-0.3,0.3-0.7,0.5-1c0.1-0.2,0.3-0.3,0.4-0.5c0.2-0.2,0.5-0.4,0.8-0.4c0.2,0,0.5,0,0.7,0.2
							c0.1,0.1,0.2,0.2,0.3,0.4c0.1,0.2,0.2,0.4,0.3,0.6c0.1,0.4,0.1,0.7,0.2,1.1c0,0.7,0,1.4-0.1,2.1c-0.2,1.4-0.5,2.7-0.9,4l0,0
							c0.3-1.5,0.8-3,1.4-4.4c0.3-0.8,0.8-1.5,1.3-2.1c0.2-0.2,0.5-0.3,0.8-0.4c0.4,0,0.7,0.1,0.9,0.4c0.2,0.4,0.4,0.8,0.4,1.3
							c0.1,1.6-0.1,3.2-0.6,4.7c-0.4,1.5-0.9,3-1.6,4.4l0,0l0,0c1.1,0.6,2,1.4,2.7,2.4l0,0c0.4-1.2,0.9-2.3,1.6-3.4
							c0.2-0.3,0.4-0.6,0.6-0.8c0.3-0.4,0.6-0.6,1.1-0.7c0.3-0.1,0.7,0,1,0.1c0.2,0.2,0.4,0.4,0.5,0.6c0.2,0.4,0.3,0.8,0.3,1.2
							c0,0.7-0.2,1.4-0.5,2c-0.2,0.6-0.5,1.2-0.9,1.7c-0.7,1.1-1.5,2-2.5,2.8l0,0c-0.1,1-0.4,1.9-1.1,2.6s-1.5,1.2-2.4,1.5
							C358.5,295.1,356.4,295,354.6,294.3z M354.6,294.3c1.8,0.7,3.8,0.8,5.6,0.3c0.9-0.3,1.7-0.8,2.4-1.5c0.6-0.7,1-1.6,1.1-2.6
							l0,0c0.6-1,1.1-2.1,1.6-3.3c0.5-1,0.7-2.1,0.8-3.2c0-0.2,0-0.4-0.1-0.5c0-0.1-0.1-0.1,0-0.1s0.1,0,0.2,0
							c-0.2,0.1-0.3,0.2-0.4,0.3c-0.2,0.2-0.4,0.4-0.6,0.6c-0.8,0.9-1.7,1.8-2.6,2.6l0,0l0,0l0,0c-0.7-1-1.7-1.8-2.7-2.3l0,0l0,0
							l0,0c0.4-1.5,0.7-3,1-4.5c0.3-1.4,0.4-2.9,0.3-4.4c0-0.3-0.1-0.6-0.3-0.9c-0.1-0.1-0.1-0.1-0.1-0.1c-0.1,0-0.2,0.1-0.2,0.1
							c-0.5,0.5-0.9,1.1-1.2,1.8c-0.7,1.3-1.4,2.7-2.1,4.1v0.1v-0.1l0,0c-0.1-1.4-0.1-2.7-0.1-4c0-0.7,0-1.3-0.1-2
							c0-0.3-0.1-0.6-0.2-0.9c0-0.1-0.1-0.2-0.1-0.3l0,0c0.1,0,0.1,0.1,0.2,0c0.1,0,0,0,0,0.1c-0.1,0.1-0.2,0.2-0.3,0.3
							c-0.2,0.2-0.3,0.5-0.5,0.8c-0.3,0.6-0.5,1.2-0.8,1.8c-0.5,1.2-0.9,2.5-1.3,3.8l-0.1,0.5v0.1v0.1c0,0,0,0.1-0.1,0.1
							c0,0.1-0.1,0.1-0.2,0.2s-0.4,0.2-0.5,0.1c-0.1,0-0.2-0.1-0.3-0.2l0,0l-0.1-0.1V281v-0.1v-0.2l-0.1-1c-0.1-0.7-0.1-1.3-0.3-1.9
							c-0.1-0.3-0.1-0.6-0.3-0.8c0,0-0.1-0.1,0,0s0.2,0,0.2,0c-0.1,0-0.2,0.1-0.2,0.2c-0.4,0.5-0.7,1-1,1.6
							c-0.5,1.2-0.9,2.5-1.2,3.8c-0.3,1.3-0.3,2.7-0.1,4l0,0c-0.3,0.8-0.4,1.7-0.2,2.5c0.2,0.8,0.6,1.6,1.1,2.3
							C351.8,292.7,353.1,293.6,354.6,294.3L354.6,294.3z"/>
					</g>
					<path class="st51" d="M357.3,303.2c0,0,9.8-13.7,8.8-16.7c0,0-1-10-18-7c0,0-20,32,9,32C357.9,308.7,358,305.9,357.3,303.2z"/>
				</g>
			</g>
		</g>
	</g>
</g>
</svg>
