<svg width="143" height="55" viewBox="0 0 143 55" fill="none" xmlns="http://www.w3.org/2000/svg">
<path d="M16.3836 19C15.5196 19 14.7836 18.696 14.1756 18.088C13.5676 17.48 13.2636 16.744 13.2636 15.88V0.519999H15.8556V15.52C15.8556 15.872 15.9116 16.112 16.0236 16.24C16.1516 16.352 16.3916 16.408 16.7436 16.408H18.9756V19H16.3836ZM23.9071 19C23.0431 19 22.3071 18.696 21.6991 18.088C21.0911 17.48 20.7871 16.744 20.7871 15.88V10.744H32.3311V8.56C32.3311 8.208 32.2751 7.976 32.1631 7.864C32.0511 7.736 31.8191 7.672 31.4671 7.672H20.7871V5.08H31.8271C32.6911 5.08 33.4271 5.384 34.0351 5.992C34.6431 6.6 34.9471 7.336 34.9471 8.2V19H23.9071ZM24.2671 16.408H32.3311V13.168H23.3791V15.52C23.3791 15.872 23.4351 16.112 23.5471 16.24C23.6751 16.352 23.9151 16.408 24.2671 16.408ZM39.9595 19C39.0955 19 38.3595 18.696 37.7515 18.088C37.1435 17.48 36.8395 16.744 36.8395 15.88V15.52H39.4315V15.664C39.4315 15.92 39.4875 16.112 39.5995 16.24C39.7275 16.352 39.9195 16.408 40.1755 16.408H47.6635C47.9195 16.408 48.1035 16.352 48.2155 16.24C48.3275 16.112 48.3835 15.92 48.3835 15.664V14.08C48.3835 13.824 48.3275 13.64 48.2155 13.528C48.1035 13.4 47.9195 13.336 47.6635 13.336H39.9595C39.0955 13.336 38.3595 13.032 37.7515 12.424C37.1435 11.816 36.8395 11.08 36.8395 10.216V8.2C36.8395 7.336 37.1435 6.6 37.7515 5.992C38.3595 5.384 39.0955 5.08 39.9595 5.08H47.8795C48.7435 5.08 49.4795 5.384 50.0875 5.992C50.6955 6.6 50.9995 7.336 50.9995 8.2V8.56H48.3835V8.416C48.3835 8.16 48.3275 7.976 48.2155 7.864C48.1035 7.736 47.9195 7.672 47.6635 7.672H40.1755C39.9195 7.672 39.7275 7.736 39.5995 7.864C39.4875 7.976 39.4315 8.16 39.4315 8.416V10C39.4315 10.256 39.4875 10.448 39.5995 10.576C39.7275 10.688 39.9195 10.744 40.1755 10.744H47.8795C48.7435 10.744 49.4795 11.048 50.0875 11.656C50.6955 12.264 50.9995 13 50.9995 13.864V15.88C50.9995 16.744 50.6955 17.48 50.0875 18.088C49.4795 18.696 48.7435 19 47.8795 19H39.9595ZM56.0862 19C55.2222 19 54.4862 18.696 53.8782 18.088C53.2702 17.48 52.9662 16.744 52.9662 15.88V8.2C52.9662 7.336 53.2702 6.6 53.8782 5.992C54.4862 5.384 55.2222 5.08 56.0862 5.08H64.0062C64.8702 5.08 65.6062 5.384 66.2142 5.992C66.8222 6.6 67.1262 7.336 67.1262 8.2V13.336H55.5582V15.52C55.5582 15.872 55.6142 16.112 55.7262 16.24C55.8542 16.352 56.0942 16.408 56.4462 16.408H67.1262V19H56.0862ZM55.5582 10.912H64.5102V8.56C64.5102 8.208 64.4542 7.976 64.3422 7.864C64.2302 7.736 63.9982 7.672 63.6462 7.672H56.4462C56.0942 7.672 55.8542 7.736 55.7262 7.864C55.6142 7.976 55.5582 8.208 55.5582 8.56V10.912ZM69.4668 19V8.2C69.4668 7.336 69.7708 6.6 70.3788 5.992C70.9868 5.384 71.7228 5.08 72.5868 5.08H80.3628V7.672H72.9468C72.5948 7.672 72.3548 7.736 72.2268 7.864C72.1148 7.976 72.0588 8.208 72.0588 8.56V19H69.4668ZM91.9701 19C91.1061 19 90.3701 18.696 89.7621 18.088C89.1541 17.48 88.8501 16.744 88.8501 15.88V0.688H91.4421V5.08H97.1541V7.672H91.4421V15.52C91.4421 15.872 91.4981 16.112 91.6101 16.24C91.7381 16.352 91.9781 16.408 92.3301 16.408H97.1541V19H91.9701ZM102.399 19C101.535 19 100.799 18.696 100.191 18.088C99.5833 17.48 99.2793 16.744 99.2793 15.88V10.744H110.823V8.56C110.823 8.208 110.767 7.976 110.655 7.864C110.543 7.736 110.311 7.672 109.959 7.672H99.2793V5.08H110.319C111.183 5.08 111.919 5.384 112.527 5.992C113.135 6.6 113.439 7.336 113.439 8.2V19H102.399ZM102.759 16.408H110.823V13.168H101.871V15.52C101.871 15.872 101.927 16.112 102.039 16.24C102.167 16.352 102.407 16.408 102.759 16.408ZM118.034 24.496V21.88H126.266C126.618 21.88 126.85 21.816 126.962 21.688C127.09 21.576 127.154 21.344 127.154 20.992V19H118.706C117.842 19 117.106 18.696 116.498 18.088C115.89 17.48 115.586 16.744 115.586 15.88V8.2C115.586 7.336 115.89 6.6 116.498 5.992C117.106 5.384 117.842 5.08 118.706 5.08H126.626C127.49 5.08 128.226 5.384 128.834 5.992C129.442 6.6 129.746 7.336 129.746 8.2V21.376C129.746 22.24 129.442 22.976 128.834 23.584C128.226 24.192 127.49 24.496 126.626 24.496H118.034ZM119.066 16.408H126.266C126.618 16.408 126.85 16.352 126.962 16.24C127.09 16.112 127.154 15.872 127.154 15.52V8.56C127.154 8.208 127.09 7.976 126.962 7.864C126.85 7.736 126.618 7.672 126.266 7.672H119.066C118.714 7.672 118.474 7.736 118.346 7.864C118.234 7.976 118.178 8.208 118.178 8.56V15.52C118.178 15.872 118.234 16.112 118.346 16.24C118.474 16.352 118.714 16.408 119.066 16.408ZM0.337844 49V38.2C0.337844 37.336 0.641844 36.6 1.24984 35.992C1.85784 35.384 2.59384 35.08 3.45784 35.08H11.2338V37.672H3.81784C3.46584 37.672 3.22584 37.736 3.09784 37.864C2.98584 37.976 2.92984 38.208 2.92984 38.56V49H0.337844ZM15.926 49C15.062 49 14.326 48.696 13.718 48.088C13.11 47.48 12.806 46.744 12.806 45.88V38.2C12.806 37.336 13.11 36.6 13.718 35.992C14.326 35.384 15.062 35.08 15.926 35.08H23.846C24.71 35.08 25.446 35.384 26.054 35.992C26.662 36.6 26.966 37.336 26.966 38.2V43.336H15.398V45.52C15.398 45.872 15.454 46.112 15.566 46.24C15.694 46.352 15.934 46.408 16.286 46.408H26.966V49H15.926ZM15.398 40.912H24.35V38.56C24.35 38.208 24.294 37.976 24.182 37.864C24.07 37.736 23.838 37.672 23.486 37.672H16.286C15.934 37.672 15.694 37.736 15.566 37.864C15.454 37.976 15.398 38.208 15.398 38.56V40.912ZM29.4472 49V35.08H32.0392V49H29.4472ZM29.4472 33.112V30.52H32.0392V33.112H29.4472ZM34.6749 49V35.08H52.4589C53.3229 35.08 54.0589 35.384 54.6669 35.992C55.2749 36.6 55.5789 37.336 55.5789 38.2V49H53.0109V38.56C53.0109 38.208 52.9469 37.976 52.8189 37.864C52.7069 37.736 52.4749 37.672 52.1229 37.672H47.3469C46.9789 37.672 46.7389 37.736 46.6269 37.864C46.5149 37.976 46.4589 38.208 46.4589 38.56V49H43.8429V38.56C43.8429 38.208 43.7789 37.976 43.6509 37.864C43.5389 37.736 43.3069 37.672 42.9549 37.672H38.1549C37.8029 37.672 37.5709 37.736 37.4589 37.864C37.3469 37.976 37.2909 38.208 37.2909 38.56V49H34.6749ZM60.95 49C60.086 49 59.35 48.696 58.742 48.088C58.134 47.48 57.83 46.744 57.83 45.88V40.744H69.374V38.56C69.374 38.208 69.318 37.976 69.206 37.864C69.094 37.736 68.862 37.672 68.51 37.672H57.83V35.08H68.87C69.734 35.08 70.47 35.384 71.078 35.992C71.686 36.6 71.99 37.336 71.99 38.2V49H60.95ZM61.31 46.408H69.374V43.168H60.422V45.52C60.422 45.872 60.478 46.112 60.59 46.24C60.718 46.352 60.958 46.408 61.31 46.408ZM76.5843 54.496V51.88H84.8163C85.1683 51.88 85.4003 51.816 85.5123 51.688C85.6403 51.576 85.7043 51.344 85.7043 50.992V49H77.2563C76.3923 49 75.6563 48.696 75.0483 48.088C74.4403 47.48 74.1363 46.744 74.1363 45.88V38.2C74.1363 37.336 74.4403 36.6 75.0483 35.992C75.6563 35.384 76.3923 35.08 77.2563 35.08H85.1763C86.0403 35.08 86.7763 35.384 87.3843 35.992C87.9923 36.6 88.2963 37.336 88.2963 38.2V51.376C88.2963 52.24 87.9923 52.976 87.3843 53.584C86.7763 54.192 86.0403 54.496 85.1763 54.496H76.5843ZM77.6163 46.408H84.8163C85.1683 46.408 85.4003 46.352 85.5123 46.24C85.6403 46.112 85.7043 45.872 85.7043 45.52V38.56C85.7043 38.208 85.6403 37.976 85.5123 37.864C85.4003 37.736 85.1683 37.672 84.8163 37.672H77.6163C77.2643 37.672 77.0243 37.736 76.8963 37.864C76.7843 37.976 76.7283 38.208 76.7283 38.56V45.52C76.7283 45.872 76.7843 46.112 76.8963 46.24C77.0243 46.352 77.2643 46.408 77.6163 46.408ZM90.7832 49V35.08H93.3752V49H90.7832ZM90.7832 33.112V30.52H93.3752V33.112H90.7832ZM96.128 49V35.08H107.168C108.032 35.08 108.768 35.384 109.376 35.992C109.984 36.6 110.288 37.336 110.288 38.2V49H107.696V38.56C107.696 38.208 107.632 37.976 107.504 37.864C107.392 37.736 107.16 37.672 106.808 37.672H99.608C99.256 37.672 99.016 37.736 98.888 37.864C98.776 37.976 98.72 38.208 98.72 38.56V49H96.128ZM115.629 49C114.765 49 114.029 48.696 113.421 48.088C112.813 47.48 112.509 46.744 112.509 45.88V38.2C112.509 37.336 112.813 36.6 113.421 35.992C114.029 35.384 114.765 35.08 115.629 35.08H123.549C124.413 35.08 125.149 35.384 125.757 35.992C126.365 36.6 126.669 37.336 126.669 38.2V43.336H115.101V45.52C115.101 45.872 115.157 46.112 115.269 46.24C115.397 46.352 115.637 46.408 115.989 46.408H126.669V49H115.629ZM115.101 40.912H124.053V38.56C124.053 38.208 123.997 37.976 123.885 37.864C123.773 37.736 123.541 37.672 123.189 37.672H115.989C115.637 37.672 115.397 37.736 115.269 37.864C115.157 37.976 115.101 38.208 115.101 38.56V40.912ZM131.574 49C130.71 49 129.974 48.696 129.366 48.088C128.758 47.48 128.454 46.744 128.454 45.88V38.2C128.454 37.336 128.758 36.6 129.366 35.992C129.974 35.384 130.71 35.08 131.574 35.08H140.022V30.52H142.614V49H131.574ZM131.958 46.408H139.158C139.51 46.408 139.742 46.352 139.854 46.24C139.966 46.112 140.022 45.872 140.022 45.52V38.56C140.022 38.208 139.966 37.976 139.854 37.864C139.742 37.736 139.51 37.672 139.158 37.672H131.958C131.606 37.672 131.366 37.736 131.238 37.864C131.126 37.976 131.07 38.208 131.07 38.56V45.52C131.07 45.872 131.126 46.112 131.238 46.24C131.366 46.352 131.606 46.408 131.958 46.408Z" fill="#51EA9C"/>
</svg>
