<?xml version="1.0" encoding="utf-8"?>
<!-- Generator: Adobe Illustrator 25.4.1, SVG Export Plug-In . SVG Version: 6.00 Build 0)  -->
<svg version="1.1" id="Layer_1" xmlns="http://www.w3.org/2000/svg" xmlns:xlink="http://www.w3.org/1999/xlink" x="0px" y="0px"
	 viewBox="0 0 800 274" style="enable-background:new 0 0 800 274;" xml:space="preserve">
<style type="text/css">
	.st0{fill:#FFFFFF;}
	.st1{opacity:0.71;}
	.st2{fill:#A7A9AC;}
</style>
<g>
	<path class="st0" d="M194.6,83.3c8.5,0,17,0,25.5,0c-0.2-17.6,1.9-23.7,3.2-25.6L6.5,58.2v25.3C10.6,83.3,35.7,83.1,194.6,83.3z"/>
	<path class="st0" d="M382.5,84.6c-9.7,0-362.5-0.7-376,0v21.2h401.3L382.5,84.6z"/>
	<path class="st0" d="M221.1,83.3c4.5,0,9.1,0,13.6,0c-0.3-7,1.2-10.7,1.7-11.7l-12-13.7C223.5,59.1,220.9,64.3,221.1,83.3z"/>
	<path class="st0" d="M235.7,83.3c71.8,0.1,135.6,0.2,145.6,0.2l-20-16.8c-0.2-0.1-0.2-0.4-0.1-0.6s0.3-0.3,0.5-0.3h409
		c0.1,0,10.2-0.8,12.6-9.8c-3.3-2.3-7.7-5-13.7-8.3c-0.4-0.2-36.2-18.5-64.7-25c-0.2-0.1-0.4-0.3-0.4-0.5v-5.7H670
		c-0.3,0-0.5-0.2-0.5-0.5l-0.2-14h-9.9l-0.2,0.9c0,0.2-0.3,0.4-0.5,0.4h-3v6.8c0,0.1-0.1,0.3-0.1,0.4l-2.1,2.1
		c-0.2,0.2-0.5,0.2-0.7,0l-0.7-0.7h-6.5l-0.6,1.2c-0.1,0.2-0.3,0.3-0.4,0.3h-3l-0.8,2c0,0,0,0,0,0.1c-0.1,0.2-0.2,0.4-0.5,0.4h-1.4
		c-0.3,0-0.5-0.2-0.5-0.5L638,12h-6.6l-0.3,1.1c-0.1,0.2-0.3,0.4-0.5,0.4h-3.1l-0.5,2.1c-0.1,0.2-0.3,0.4-0.5,0.4h-0.3H625h-0.1
		c-0.3,0-0.5-0.2-0.5-0.5l-0.2-3.4h-6.6l-0.3,1.1c-0.1,0.2-0.3,0.4-0.5,0.4h-3.1l-0.5,2.1c-0.1,0.2-0.3,0.4-0.5,0.4h-0.3h-1.3H611
		c-0.3,0-0.5-0.2-0.5-0.5l-0.2-3.4h-6.6l-0.3,1.1c-0.1,0.2-0.3,0.4-0.5,0.4h-3.1l-0.5,2.1c-0.1,0.2-0.3,0.4-0.5,0.4h-0.3h-1.3h-0.1
		c-0.3,0-0.5-0.2-0.5-0.5l-0.2-3.4H590l-0.3,1.1c-0.1,0.2-0.3,0.4-0.5,0.4h-3.1l-0.5,2.1c-0.1,0.2-0.3,0.4-0.5,0.4h-0.8h-0.8H583
		c-0.3,0-0.5-0.2-0.5-0.5l-0.2-3.4h-6.6l-0.3,1.1c-0.1,0.2-0.3,0.4-0.5,0.4h-3.1l-0.5,2.1c-0.1,0.2-0.3,0.4-0.5,0.4h-0.3h-1.3h-0.1
		c-0.3,0-0.5-0.2-0.5-0.5l-0.2-3.4h-6.6l-0.3,1.1c-0.1,0.2-0.3,0.4-0.5,0.4h-3l-0.5,2.1c-0.1,0.2-0.3,0.4-0.5,0.4h-0.3h-1.3h-0.1
		c-0.3,0-0.5-0.2-0.5-0.5l-0.2-3.4H548l-0.3,1.1c-0.1,0.2-0.3,0.4-0.5,0.4h-3.1l-0.5,2.1c-0.1,0.2-0.3,0.4-0.5,0.4h-0.3h-1.3h-0.1
		c-0.3,0-0.5-0.2-0.5-0.5l-0.2-3.4h-6.6l-0.3,1.1c-0.1,0.2-0.3,0.4-0.5,0.4h-3.1l-0.5,2.1c-0.1,0.2-0.3,0.4-0.5,0.4H529h-1.4l0,0
		c-0.3,0-0.5-0.2-0.5-0.5c0-0.1,0-0.1,0-0.2l-0.2-3.2h-6.6l-0.3,1.1c-0.1,0.2-0.3,0.4-0.5,0.4h-3.1l-0.5,2.1
		c-0.1,0.2-0.3,0.4-0.5,0.4h-0.3h-1.3h0.2c-0.3,0-0.5-0.2-0.5-0.5l-0.2-3.4h-6.6l-0.3,1.1c-0.1,0.2-0.3,0.4-0.5,0.4h-3.1l-0.5,2.1
		c-0.1,0.2-0.3,0.4-0.5,0.4h-0.3h-1.3h-0.1c-0.3,0-0.5-0.2-0.5-0.5l-0.2-3.4h-6.6l-0.3,1.1c-0.1,0.2-0.3,0.4-0.5,0.4h-3l-0.5,2.1
		c-0.1,0.2-0.3,0.4-0.5,0.4h-0.3h-1.3h-0.1c-0.3,0-0.5-0.2-0.5-0.5l-0.2-3.4H479l-0.3,1.1c-0.1,0.2-0.3,0.4-0.5,0.4h-3.1l-0.5,2.1
		c-0.1,0.2-0.3,0.4-0.5,0.4h-1h-0.6h-0.8c-0.3,0-0.5-0.2-0.5-0.5l-0.2-3.4h-6.6l-0.3,1.1c-0.1,0.2-0.3,0.4-0.5,0.4h-3.5
		c-0.1,0-0.2,0-0.3-0.1h-0.1c-0.3,0-0.5-0.2-0.5-0.5v-10H423v9.3c0,0.2-0.1,0.4-0.3,0.5c-0.2,0.1-0.4,0-0.5-0.1L415,5.6l-5,4.5
		c-0.1,0.1-0.2,0.1-0.4,0.1c-0.1,0-0.3-0.1-0.4-0.2l-1.9-2.5l-62.4,54l1.9,2.1c0.1,0.1,0.1,0.2,0.1,0.4c0,0.1-0.1,0.3-0.2,0.3
		l-5,4.3l1.7,2.5c0.1,0.2,0.1,0.4,0,0.5c-0.1,0.2-0.3,0.3-0.4,0.3H237.3C236.8,72.9,235.4,76.5,235.7,83.3z M445.4,24.7
		c0.1-0.1,0.2-0.2,0.4-0.2h212.8c0.1,0,0.3,0.1,0.4,0.2s0.1,0.3,0.1,0.4c-0.1,0.5-2.6,13.4-30.5,22.5c-0.1,0-0.1,0-0.2,0H453.3
		c-0.2,0-0.4-0.1-0.5-0.3l-7.5-22.1C445.3,25,445.3,24.8,445.4,24.7z"/>
	<path class="st0" d="M418.7,112.9h237.6c64.3-0.7,110.5-27,114.1-29.1V66.9H362.9l55.3,46.3C418.3,113,418.5,112.9,418.7,112.9z
		 M456.4,88.2l-21.7,13.4c-0.1,0.1-0.2,0.1-0.3,0.1c-0.2,0-0.3-0.1-0.4-0.2c-0.1-0.2-0.1-0.5,0.2-0.7l21.7-13.4
		c0.2-0.1,0.5-0.1,0.7,0.2C456.7,87.7,456.6,88,456.4,88.2z M428.7,92.1l21.7-13.4c0.2-0.1,0.5-0.1,0.7,0.2c0.1,0.2,0.1,0.5-0.2,0.7
		L429.2,93c-0.1,0-0.2,0-0.2,0c-0.2,0-0.3-0.1-0.4-0.2C428.4,92.5,428.5,92.2,428.7,92.1z M424.3,100.8l39.6-24.5
		c0.2-0.1,0.5-0.1,0.7,0.2s0.1,0.5-0.2,0.7l-39.6,24.5c-0.1,0.1-0.2,0.1-0.3,0.1c-0.2,0-0.3-0.1-0.4-0.2
		C424,101.3,424.1,100.9,424.3,100.8z"/>
	<path class="st0" d="M409,106.7H6.5v99.6h31.9v-29c0-0.3,0.2-0.5,0.5-0.5h222.5c0.1,0,0.3,0.1,0.4,0.2l65.1,75.1l1.5,0.5l9.3-1.1
		l-56.6-64.7c-0.2-0.2-0.2-0.5,0-0.7s0.5-0.2,0.7,0l57,65.2l0.6-0.1l13.9-20.2l-58.4-66.3c0,0,0-0.1-0.1-0.1l0,0l0,0v-0.1
		c0,0,0,0,0-0.1l0,0v-39.7h-264c-0.3,0-0.5-0.2-0.5-0.5s0.2-0.5,0.5-0.5h264.6c0.3,0,0.5,0.2,0.5,0.5v39.5l7.2-3.3
		c0.3-0.1,0.5,0,0.7,0.2c0.1,0.3,0,0.5-0.2,0.7l-7.3,3.3l58.2,66.1c0.2,0.2,0.2,0.4,0,0.6L340.2,252c-0.1,0.1-0.2,0.2-0.4,0.2
		l-9.2,1l14.6,4.7l60.4-85l-10.6-9.1c-0.2-0.2-0.2-0.5-0.1-0.7c0.2-0.2,0.5-0.2,0.7-0.1l10.5,9.1c18.4-23.4,0.8-46.1-1-48.2
		c-0.3,0-0.5,0-0.8,0c-10.6,0-17.6,5.5-17.7,5.5c-0.2,0.2-0.5,0.1-0.7-0.1c-0.2-0.2-0.1-0.5,0.1-0.7c0.3-0.3,7.8-6.1,19.3-5.8
		c0.1,0,0.3,0.1,0.4,0.2c0.2,0.2,21.2,24.9,0.8,50.1l-60.4,85.1l26,8.4l67.2-134.4L409,106.7z M60.4,146.6l-29.9,18.5
		c-0.1,0.1-0.2,0.1-0.3,0.1c-0.2,0-0.3-0.1-0.4-0.2c-0.1-0.2-0.1-0.5,0.2-0.7l29.9-18.5c0.2-0.1,0.5-0.1,0.7,0.2
		C60.8,146.2,60.7,146.5,60.4,146.6z M71.7,130.7c0.1,0.2,0.1,0.5-0.2,0.7L17,165.2c-0.1,0.1-0.2,0.1-0.3,0.1
		c-0.2,0-0.3-0.1-0.4-0.2c-0.1-0.2-0.1-0.5,0.2-0.7L71,130.6C71.2,130.4,71.5,130.5,71.7,130.7z M52.4,133.9
		c0.2-0.1,0.5-0.1,0.7,0.2c0.1,0.2,0.1,0.5-0.2,0.7L23,153.3c-0.1,0.1-0.2,0.1-0.3,0.1c-0.2,0-0.3-0.1-0.4-0.2
		c-0.1-0.2-0.1-0.5,0.2-0.7L52.4,133.9z M386.3,129.9c0.4,0.2,8.7,5,10.8,14c1.3,5.5-0.1,11.4-4.2,17.5l-37.2,51.5
		c-0.1,0.1-0.2,0.2-0.4,0.2l0,0c-0.1,0-0.3-0.1-0.4-0.2l-47.8-53.7c-0.1-0.1-0.1-0.2-0.1-0.3v-28.5c0-0.3,0.2-0.5,0.5-0.5H386
		C386.1,129.8,386.2,129.8,386.3,129.9z"/>
	<path class="st0" d="M656.3,113.9H419.1l21.3,17.9c1.5,0.4,14.5,4,14.4,10.3c2.9-1,8.6-1.8,19.7-1.4c0.2,0,26.2-3.1,29.4,13.1
		c0.1,0.2,2.2,7.3-1.6,13.6c-2.6,4.4-7.5,7.2-14.3,8.4h-26.6c-0.1,0-0.3,0-0.8,0c-2.1,0-8.1-0.4-12.3-4.3c-2.9-2.6-4.4-6.3-4.4-11
		c0-0.1,0-0.2,0.1-0.2l7.9-16c0.1-0.4,0.4-1.1,2-1.8c0.7-5.4-11.1-9-13.4-9.7l-67.1,134.3l14.9,4.8l48.6-97.7
		c0.1-0.5,0.7-3.1,2.6-3.7c1.4-0.5,3.1,0.3,5,2.2c5.3,5.3,12.3,7.9,21.5,8.1c8.7,0.2,40.4-0.2,40.8-0.2c0,0,2.3-0.5,3.7-2.7
		c1.2-1.9,1.3-4.5,0.4-7.8c-2.8-9.8,2-29.2,2.3-30c0.1-0.2,0.3-0.4,0.5-0.4l0,0l135.9,0.4c0.7,0,65.6,1.6,108.8-22.5
		c0.2-0.1,14.8-11,24.9-26.5l-12-6.5C767.2,86.8,720.8,113.2,656.3,113.9z"/>
	<path class="st0" d="M784,56.7c-2.2,7.8-10,9.7-12.6,10.1v17l12.1,6.6c4.5-7.1,8-15.1,8.7-23.4c0-0.1,0.1-0.2,0.1-0.3
		c0,0,0.2-0.3,0.1-1C792.2,64.4,790.8,61.6,784,56.7z"/>
</g>
<g>
	<g class="st1">
		<image style="overflow:visible;" width="452" height="155" xlink:href="A30CBA3A.png"  transform="matrix(1 0 0 1 344 6)">
		</image>
	</g>
</g>
<g>
	<path class="st2" d="M307.5,129.8c-0.3,0-0.5,0.2-0.5,0.5v28.5c0,0.1,0,0.2,0.1,0.3l47.8,53.7c0.1,0.1,0.2,0.2,0.4,0.2l0,0
		c0.2,0,0.3-0.1,0.4-0.2l37.2-51.5c4.1-6,5.5-11.9,4.2-17.5c-2.1-9-10.5-13.8-10.8-14c-0.1,0-0.2-0.1-0.2-0.1h-78.6V129.8z
		 M396.1,144.1c1.2,5.3-0.1,10.9-4,16.7l-36.8,51L308,158.6v-27.8h77.9C386.9,131.4,394.3,136.1,396.1,144.1z"/>
	<g>
		<path class="st2" d="M22.4,153c0.1,0.2,0.3,0.2,0.4,0.2s0.2,0,0.3-0.1L53,134.6c0.2-0.1,0.3-0.5,0.2-0.7s-0.5-0.3-0.7-0.2
			l-29.9,18.5C22.3,152.5,22.2,152.8,22.4,153z"/>
		<path class="st2" d="M16.3,165c0.1,0.2,0.3,0.2,0.4,0.2s0.2,0,0.3-0.1l54.5-33.8c0.2-0.1,0.3-0.5,0.2-0.7
			c-0.1-0.2-0.5-0.3-0.7-0.2l-54.5,33.8C16.3,164.5,16.2,164.8,16.3,165z"/>
		<path class="st2" d="M59.9,145.8L30,164.3c-0.2,0.1-0.3,0.5-0.2,0.7c0.1,0.2,0.3,0.2,0.4,0.2s0.2,0,0.3-0.1l29.9-18.5
			c0.2-0.1,0.3-0.5,0.2-0.7C60.5,145.7,60.2,145.6,59.9,145.8z"/>
		<path class="st2" d="M429,93c0.1,0,0.2,0,0.3-0.1L451,79.5c0.2-0.1,0.3-0.5,0.2-0.7c-0.1-0.2-0.5-0.3-0.7-0.2L428.8,92
			c-0.2,0.1-0.3,0.5-0.2,0.7C428.6,92.9,428.8,93,429,93z"/>
		<path class="st2" d="M424.6,101.7c0.1,0,0.2,0,0.3-0.1l39.6-24.5c0.2-0.1,0.3-0.5,0.2-0.7s-0.5-0.3-0.7-0.2l-39.6,24.5
			c-0.2,0.1-0.3,0.5-0.2,0.7C424.2,101.6,424.4,101.7,424.6,101.7z"/>
		<path class="st2" d="M455.9,87.3l-21.7,13.4c-0.2,0.1-0.3,0.5-0.2,0.7c0.1,0.2,0.3,0.2,0.4,0.2s0.2,0,0.3-0.1l21.7-13.4
			c0.2-0.1,0.3-0.5,0.2-0.7C456.4,87.2,456.1,87.2,455.9,87.3z"/>
		<path class="st2" d="M769.8,46.9c-0.4-0.2-36-18.4-64.6-25v-5.8c0-0.3-0.2-0.5-0.5-0.5h-34.3l-0.2-14.2c0-0.3-0.2-0.5-0.5-0.5H659
			c-0.2,0-0.4,0.2-0.5,0.4l-0.2,0.9h-3.1c-0.3,0-0.5,0.2-0.5,0.5v7.1l-1.6,1.6l-0.5-0.5c-0.1-0.1-0.2-0.1-0.4-0.1h-7
			c-0.2,0-0.4,0.1-0.4,0.3l-0.6,1.2h-3.1c-0.2,0-0.4,0.1-0.5,0.3l-0.9,2.2h-0.6l-0.2-3.4c0-0.3-0.2-0.5-0.5-0.5H631
			c-0.2,0-0.4,0.2-0.5,0.4l-0.3,1.1h-3.1c-0.2,0-0.4,0.2-0.5,0.4l-0.5,2.1h-0.8l-0.2-3.4c0-0.3-0.2-0.5-0.5-0.5h-7.4
			c-0.2,0-0.4,0.2-0.5,0.4l-0.3,1.1h-3.1c-0.2,0-0.4,0.2-0.5,0.4l-0.5,2.1h-0.9l-0.2-3.4c0-0.3-0.2-0.5-0.5-0.5h-7.4
			c-0.2,0-0.4,0.2-0.5,0.4l-0.3,1.1h-3.1c-0.2,0-0.4,0.2-0.5,0.4l-0.5,2.1h-0.8l-0.2-3.4c0-0.3-0.2-0.5-0.5-0.5h-7.4
			c-0.2,0-0.4,0.2-0.5,0.4l-0.3,1.1h-3.1c-0.2,0-0.4,0.2-0.5,0.4l-0.5,2.1h-0.4h-0.8h-0.1l-0.2-3.4c0-0.3-0.2-0.5-0.5-0.5h-7.4
			c-0.2,0-0.4,0.2-0.5,0.4l-0.3,1.1h-3.1c-0.2,0-0.4,0.2-0.5,0.4l-0.5,2.1h-0.8l-0.2-3.4c0-0.3-0.2-0.5-0.5-0.5h-7.4
			c-0.2,0-0.4,0.2-0.5,0.4l-0.3,1.1h-3.1c-0.2,0-0.4,0.2-0.5,0.4l-0.5,2.1h-0.9l-0.2-3.4c0-0.3-0.2-0.5-0.5-0.5h-7.4
			c-0.2,0-0.4,0.2-0.5,0.4l-0.3,1.1h-3.1c-0.2,0-0.4,0.2-0.5,0.4l-0.5,2.1H542l-0.2-3.4c0-0.3-0.2-0.5-0.5-0.5h-7.4
			c-0.2,0-0.4,0.2-0.5,0.4l-0.3,1.1H530c-0.2,0-0.4,0.2-0.5,0.4l-0.5,2.1h-0.7l-0.2-3.4c0-0.3-0.2-0.5-0.5-0.5h-7.4
			c-0.2,0-0.4,0.2-0.5,0.4l-0.3,1.1h-3.1c-0.2,0-0.4,0.2-0.5,0.4l-0.5,2.1h-0.8l-0.2-3.4c0-0.3-0.2-0.5-0.5-0.5h-7.4
			c-0.2,0-0.4,0.2-0.5,0.4l-0.3,1.1h-3.1c-0.2,0-0.4,0.2-0.5,0.4l-0.5,2.1h-0.9l-0.2-3.4c0-0.3-0.2-0.5-0.5-0.5h-7.4
			c-0.2,0-0.4,0.2-0.5,0.4l-0.3,1.1h-3.1c-0.2,0-0.4,0.2-0.5,0.4l-0.5,2.1h-0.8l-0.2-3.4c0-0.3-0.2-0.5-0.5-0.5h-7.4
			c-0.2,0-0.4,0.2-0.5,0.4l-0.3,1.1h-3.1c-0.2,0-0.4,0.2-0.5,0.4l-0.5,2.1h-0.6h-0.6h-0.3l-0.2-3.4c0-0.3-0.2-0.5-0.5-0.5h-7.4
			c-0.2,0-0.4,0.2-0.5,0.4l-0.3,1.1h-3v-10c0-0.3-0.2-0.5-0.5-0.5h-37.2c-0.3,0-0.5,0.2-0.5,0.5v8.5l-6.7-7.5
			c-0.1-0.1-0.2-0.2-0.3-0.2c-0.1,0-0.3,0-0.4,0.1l-5,4.5l-1.9-2.5c-0.1-0.1-0.2-0.2-0.3-0.2c-0.1,0-0.3,0-0.4,0.1L344,61.1
			c-0.1,0.1-0.2,0.2-0.2,0.3s0,0.3,0.1,0.4l1.9,2.1l-4.9,4.3c-0.2,0.2-0.2,0.4-0.1,0.7l1.4,2.1h-105l-12.4-14.2l0,0
			c0,0-0.1,0-0.1-0.1c0,0,0,0-0.1,0h-0.1c0,0,0,0-0.1,0l0,0L6,57.2c-0.3,0-0.5,0.2-0.5,0.5v149.1c0,0.3,0.2,0.5,0.5,0.5h32.9
			c0.3,0,0.5-0.2,0.5-0.5v-29h221.8l65.1,75.1c0.1,0.1,0.1,0.1,0.2,0.1l61.8,19.9c0.1,0,0.1,0,0.2,0c0.2,0,0.4-0.1,0.4-0.3
			l48.9-98.2v-0.1c0,0,0.4-2.5,1.9-3c1-0.3,2.4,0.4,4,2c5.5,5.5,12.7,8.2,22.1,8.4c8.7,0.2,40.5-0.2,40.9-0.2c0.1,0,2.8-0.5,4.4-3.1
			c1.3-2.2,1.5-5,0.5-8.6c-2.5-8.8,1.5-26.3,2.2-29.1l135.5,0.4c0.7,0,65.9,1.6,109.3-22.7c0.2-0.2,15.1-11.3,25.3-27.1
			c0.1,0,0.1-0.1,0.2-0.2c0,0,0-0.1,0-0.2c4.6-7.2,8.2-15.4,9-24c0.2-0.2,0.4-0.8,0.2-1.6C793,62.6,788.5,57,769.8,46.9z M237.3,72
			h105.8c0.2,0,0.4-0.1,0.4-0.3c0.1-0.2,0.1-0.4,0-0.5l-1.7-2.5l5-4.3c0.1-0.1,0.2-0.2,0.2-0.3c0-0.1,0-0.3-0.1-0.4l-1.9-2.1
			l62.4-54l1.9,2.5c0.1,0.1,0.2,0.2,0.4,0.2c0.1,0,0.3,0,0.4-0.1l5-4.5l7.3,8.1c0.1,0.2,0.4,0.2,0.5,0.1c0.2-0.1,0.3-0.3,0.3-0.5
			V4.1h36.2v8.8c0,0.3,0.2,0.5,0.5,0.5h0.1c0.1,0,0.2,0.1,0.3,0.1h3.5c0.2,0,0.4-0.2,0.5-0.4l0.3-1.1h6.6l0.2,3.4
			c0,0.3,0.2,0.5,0.5,0.5h0.8h0.6h1c0.2,0,0.4-0.2,0.5-0.4l0.5-2.1h3.1c0.2,0,0.4-0.2,0.5-0.4l0.1-1h6.6l0.2,3.4
			c0,0.3,0.2,0.5,0.5,0.5h0.1h1.3h0.3c0.2,0,0.4-0.2,0.5-0.4l0.5-2.1h3.1c0.2,0,0.4-0.2,0.5-0.4l0.3-1.1h6.6l0.2,3.4
			c0,0.3,0.2,0.5,0.5,0.5h0.1h1.3h0.3c0.2,0,0.4-0.2,0.5-0.4l0.5-2.1h3.1c0.2,0,0.4-0.2,0.5-0.4l0.3-1.1h6.6l0.2,3.4
			c0,0.3,0.2,0.5,0.5,0.5h0.1h1.3h0.3c0.2,0,0.4-0.2,0.5-0.4l0.5-2.1h3.1c0.2,0,0.4-0.2,0.5-0.4l0.3-1.1h6.6l0.2,3.2
			c0,0,0,0.1,0,0.2c0,0.3,0.2,0.5,0.5,0.5l0,0h1.4h0.2c0.2,0,0.4-0.2,0.5-0.4l0.5-2.1h3.1c0.2,0,0.4-0.2,0.5-0.4l0.3-1.1h6.6
			l0.2,3.4c0,0.3,0.2,0.5,0.5,0.5h0.1h1.3h0.3c0.2,0,0.4-0.2,0.5-0.4l0.5-2.1h3.1c0.2,0,0.4-0.2,0.5-0.4L548,12h6.6l0.2,3.4
			c0,0.3,0.2,0.5,0.5,0.5h0.1h1.3h0.3c0.2,0,0.4-0.2,0.5-0.4l0.5-2.1h3.1c0.2,0,0.4-0.2,0.5-0.4l0.3-1.1h6.6l0.2,3.4
			c0,0.3,0.2,0.5,0.5,0.5h0.1h1.3h0.3c0.2,0,0.4-0.2,0.5-0.4l0.5-2.1h3.1c0.2,0,0.4-0.2,0.5-0.4l0.3-1.1h6.6l0.2,3.4
			c0,0.3,0.2,0.5,0.5,0.5h0.6h0.8h0.8c0.2,0,0.4-0.2,0.5-0.4l0.5-2.1h3.1c0.2,0,0.4-0.2,0.5-0.4L590,12h6.6l0.2,3.4
			c0,0.3,0.2,0.5,0.5,0.5h0.1h1.3h0.3c0.2,0,0.4-0.2,0.5-0.4l0.5-2.1h3.1c0.2,0,0.4-0.2,0.5-0.4l0.3-1.1h6.6l0.2,3.4
			c0,0.3,0.2,0.5,0.5,0.5h0.1h1.3h0.3c0.2,0,0.4-0.2,0.5-0.4l0.5-2.1h3.1c0.2,0,0.4-0.2,0.5-0.4l0.3-1.1h6.6l0.2,3.4
			c0,0.3,0.2,0.5,0.5,0.5h0.1h1.3h0.3c0.2,0,0.4-0.2,0.5-0.4l0.5-2.1h3.1c0.2,0,0.4-0.2,0.5-0.4l0.3-1.1h6.6l0.2,3.4
			c0,0.3,0.2,0.5,0.5,0.5h1.4c0.2,0,0.4-0.2,0.5-0.4c0,0,0,0,0-0.1l0.8-2h3c0.2,0,0.4-0.1,0.4-0.3l0.6-1.2h6.5l0.7,0.7
			c0.2,0.2,0.5,0.2,0.7,0l2.1-2.1c0.1-0.1,0.1-0.2,0.1-0.4V3.3h3c0.2,0,0.4-0.2,0.5-0.4l0.2-0.9h9.9l0.2,14.2c0,0.3,0.2,0.5,0.5,0.5
			h34.3v5.7c0,0.2,0.2,0.4,0.4,0.5c28.5,6.5,64.4,24.8,64.7,25c6,3.2,10.4,6,13.7,8.3c-2.3,9-12.5,9.8-12.6,9.8h-409
			c-0.2,0-0.4,0.1-0.5,0.3c-0.1,0.2,0,0.4,0.1,0.6l20,16.8c-10,0-73.9-0.1-145.6-0.2C235.4,76.5,236.8,72.9,237.3,72z M770.4,66.9
			v16.9c-3.7,2.2-49.8,28.4-114.1,29.1H418.7c-0.2,0-0.4,0.1-0.5,0.3L363,66.9H770.4z M236.4,71.6c-0.5,1.1-2,4.7-1.7,11.7
			c-4.5,0-9,0-13.6,0c-0.3-19,2.4-24.2,3.3-25.4L236.4,71.6z M6.5,58.2l216.8-0.6c-1.3,2-3.4,8-3.2,25.6c-8.5,0-17,0-25.5,0
			c-159-0.2-184,0.1-188.1,0.3V58.2z M6.5,84.5c13.5-0.7,366.3,0,376,0l25.3,21.2H6.5V84.5z M346.3,258.4l60.4-85.1
			c20.4-25.2-0.6-49.9-0.8-50.1c-0.1-0.1-0.2-0.2-0.4-0.2c-11.5-0.4-19,5.5-19.3,5.8c-0.2,0.2-0.2,0.5-0.1,0.7
			c0.2,0.2,0.5,0.2,0.7,0.1c0.1-0.1,7.1-5.5,17.7-5.5c0.3,0,0.5,0,0.8,0c1.8,2.2,19.4,24.9,1,48.2l-10.5-9.1
			c-0.2-0.2-0.5-0.2-0.7,0.1c-0.2,0.2-0.2,0.5,0.1,0.7l10.6,9.1l-60.4,85l-14.6-4.7l9.2-1c0.1,0,0.3-0.1,0.4-0.2l14.3-20.7
			c0.1-0.2,0.1-0.4,0-0.6l-58.2-66.1l7.3-3.3c0.3-0.1,0.4-0.4,0.2-0.7c-0.1-0.3-0.4-0.4-0.7-0.2l-7.2,3.3v-39.5
			c0-0.3-0.2-0.5-0.5-0.5H30.8c-0.3,0-0.5,0.2-0.5,0.5s0.2,0.5,0.5,0.5h264.1v39.7l0,0c0,0,0,0,0,0.1v0.1l0,0l0,0c0,0,0,0.1,0.1,0.1
			l58.4,66.3l-13.9,20.2l-0.6,0.1l-57-65.2c-0.2-0.2-0.5-0.2-0.7,0s-0.2,0.5,0,0.7l56.6,64.7l-9.3,1.1l-1.5-0.5L261.8,177
			c-0.1-0.1-0.2-0.2-0.4-0.2H38.9c-0.3,0-0.5,0.2-0.5,0.5v29H6.5v-99.6H409l30.5,25.6l-67.2,134.4L346.3,258.4z M758.1,117.7
			c-43.2,24.1-108.1,22.5-108.8,22.5l-135.9-0.4l0,0c-0.2,0-0.4,0.2-0.5,0.4c-0.2,0.8-5.1,20.2-2.3,30c0.9,3.3,0.8,5.9-0.4,7.8
			c-1.4,2.2-3.7,2.7-3.7,2.7c-0.4,0-32,0.4-40.8,0.2c-9.2-0.2-16.2-2.9-21.5-8.1c-1.9-1.9-3.6-2.7-5-2.2c-1.9,0.6-2.5,3.2-2.6,3.7
			L388,272l-14.9-4.8l67.1-134.3c2.3,0.6,14.1,4.2,13.4,9.7c-1.6,0.7-1.9,1.4-2,1.8l-7.9,16c0,0.1-0.1,0.1-0.1,0.2
			c0.1,4.7,1.6,8.4,4.4,11c4.2,3.9,10.2,4.3,12.3,4.3c0.5,0,0.7,0,0.8,0h26.6c6.9-1.2,11.7-4.1,14.3-8.4c3.8-6.3,1.7-13.3,1.6-13.6
			c-3.2-16.2-29.2-13.1-29.4-13.1c-11.1-0.4-16.8,0.4-19.7,1.4c0.1-6.3-13-9.9-14.4-10.3L418.8,114H656
			c64.6-0.7,110.9-27.1,114.6-29.3l12,6.5C772.9,106.6,758.3,117.5,758.1,117.7z M474.6,141.7c0.3,0,25.4-3,28.4,12.3
			c0,0.1,2.1,7-1.5,12.8c-2.5,4.1-7.1,6.8-13.6,8h-26.5c-0.1,0-7.6,0.4-12.4-4c-2.6-2.4-4-5.9-4.1-10.2l7.8-16c0-0.1,0-0.1,0-0.1
			C452.8,144.5,453.9,140.9,474.6,141.7z M792.4,66.6c-0.1,0.1-0.1,0.2-0.1,0.3c-0.7,8.4-4.2,16.4-8.7,23.4l-12.1-6.6v-17
			c2.6-0.4,10.3-2.3,12.6-10.1c6.8,4.9,8.2,7.7,8.5,8.9C792.6,66.3,792.4,66.6,792.4,66.6z"/>
		<path class="st2" d="M452.8,47.3c0.1,0.2,0.3,0.3,0.5,0.3h175.2c0.1,0,0.1,0,0.2,0c27.9-9.2,30.4-22,30.5-22.5
			c0-0.1,0-0.3-0.1-0.4s-0.2-0.2-0.4-0.2H445.8c-0.2,0-0.3,0.1-0.4,0.2s-0.1,0.3-0.1,0.5L452.8,47.3z M658,25.5
			c-0.9,2.6-5.8,13.3-29.6,21.1H453.6l-7.1-21.1C446.5,25.5,658,25.5,658,25.5z"/>
	</g>
</g>
</svg>
