<svg id="Layer_1" data-name="Layer 1" xmlns="http://www.w3.org/2000/svg" viewBox="0 0 463 291">
  <defs>
    <style>
      .cls-1 {
        fill: #264865;
      }

      .cls-2 {
        fill: #065a81;
      }

      .cls-3 {
        fill: #0f9159;
      }

      .cls-4 {
        fill: #00ab61;
      }

      .cls-5 {
        fill: #00de7e;
      }

      .cls-6 {
        fill: none;
      }

      .cls-7 {
        fill: #00c46f;
      }

      .cls-8 {
        fill: #232323;
      }

      .cls-9 {
        fill: #121310;
      }

      .cls-10 {
        fill: #0ccfeb;
      }

      .cls-11 {
        fill: #00edff;
      }
    </style>
  </defs>
  <title>neotagsingleunit</title>
  <g>
    <g>
      <rect class="cls-1" x="355.62" y="252.76" width="63.29" height="21.16" rx="1" transform="translate(774.54 526.68) rotate(-180)"/>
      <g>
        <rect class="cls-2" x="411.88" y="250.12" width="3.52" height="26.45" rx="1" transform="translate(827.28 526.68) rotate(-180)"/>
        <rect class="cls-2" x="406.61" y="250.12" width="3.52" height="26.45" rx="1" transform="translate(816.73 526.68) rotate(-180)"/>
        <rect class="cls-2" x="401.33" y="250.12" width="3.52" height="26.45" rx="1" transform="translate(806.18 526.68) rotate(-180)"/>
        <rect class="cls-2" x="396.06" y="250.12" width="3.52" height="26.45" rx="1" transform="translate(795.64 526.68) rotate(-180)"/>
        <rect class="cls-2" x="390.79" y="250.12" width="3.52" height="26.45" rx="1" transform="translate(785.09 526.68) rotate(-180)"/>
        <rect class="cls-2" x="385.51" y="250.12" width="3.52" height="26.45" rx="1" transform="translate(774.54 526.68) rotate(-180)"/>
        <rect class="cls-2" x="380.24" y="250.12" width="3.52" height="26.45" rx="1" transform="translate(763.99 526.68) rotate(-180)"/>
        <rect class="cls-2" x="374.96" y="250.12" width="3.52" height="26.45" rx="1" transform="translate(753.44 526.68) rotate(-180)"/>
        <rect class="cls-2" x="369.69" y="250.12" width="3.52" height="26.45" rx="1" transform="translate(742.89 526.68) rotate(-180)"/>
        <rect class="cls-2" x="364.41" y="250.12" width="3.52" height="26.45" rx="1" transform="translate(732.34 526.68) rotate(-180)"/>
        <rect class="cls-2" x="359.14" y="250.12" width="3.52" height="26.45" rx="1" transform="translate(721.79 526.68) rotate(-180)"/>
      </g>
    </g>
    <path class="cls-3" d="M354.3,262.55H343.76V235a1.78,1.78,0,0,0-1.76-1.77h12.3a1.77,1.77,0,0,1,1.76,1.77v29.31A1.76,1.76,0,0,0,354.3,262.55Z"/>
    <path class="cls-3" d="M252.33,233.23h12.31a1.77,1.77,0,0,0-1.76,1.77v27.55H252.33a1.76,1.76,0,0,0-1.75,1.76V235A1.77,1.77,0,0,1,252.33,233.23Z"/>
    <path class="cls-4" d="M252.33,262.55h10.55v-44.2a1.76,1.76,0,0,1,1.76-1.76H342a1.77,1.77,0,0,1,1.76,1.76v44.2H354.3a1.76,1.76,0,0,1,1.76,1.76v25.22a1.77,1.77,0,0,1-1.76,1.77h-102a1.77,1.77,0,0,1-1.75-1.77V264.31A1.76,1.76,0,0,1,252.33,262.55Z"/>
    <g>
      <path class="cls-5" d="M160.2,38.75,158.65,6.48a2.18,2.18,0,0,1,2.06-2.27L242.82.26a2.15,2.15,0,0,1,1.55.56h0l31.81,33.69C243.85,34.05,205.19,35.05,160.2,38.75Z"/>
      <g>
        <path class="cls-6" d="M274.13,151.89l-4.32-6.5h36.05l4.51,6.5Z"/>
        <path class="cls-6" d="M282.78,162.74l-4.32-6.51h34.93l4.52,6.51Z"/>
        <path class="cls-6" d="M254.66,123.69l-4.32-6.5h36.1l4.46,6.5Z"/>
        <path class="cls-6" d="M289.27,173.59,285,167.08h36l4.54,6.51Z"/>
        <path class="cls-6" d="M248.17,112.85l-4.32-6.51h35.24l4.4,6.51Z"/>
        <path class="cls-6" d="M239.52,102l-4.32-6.51h38.59a13.74,13.74,0,0,0,2.4,6.51Z"/>
        <path class="cls-5" d="M259,184.43S181.12,93.32,189.77,78.14C194.6,69.66,248.61,50.38,295.4,35c36,1.25,62.69,4.28,80.22,6.95C329.25,54.33,272,74.06,273.79,95.49H235.2l4.32,6.51h36.67l2.9,4.34H243.85l4.32,6.51h35.32l2.95,4.34h-36.1l4.32,6.5H290.9c4.52,6.6,9.58,13.92,15,21.7H269.81l4.32,6.5h36.24c1,1.44,2,2.89,3,4.34H278.46l4.32,6.51h35.13l3,4.34H285l4.32,6.51h36.2c10.46,15,21.21,30.37,31.1,44.47H219c-4.2-5.91-3.5-11.81-1.07-16.82C268.5,197.8,259,184.43,259,184.43Z"/>
        <path class="cls-7" d="M325.47,173.59c10.46,15,21.21,30.37,31.1,44.47h24.64S431,202.87,463.41,166c0,0-8.66-73.75-62.73-119.31,0,0-8.35-2.2-25.06-4.74C329.25,54.33,272,74.06,273.79,95.49h9l4.33,6.51H276.19l2.9,4.34h12.35l4.32,6.51H283.49l2.95,4.34h11.49l4.32,6.5H290.9c4.52,6.6,9.58,13.92,15,21.7h11.53l4.33,6.5H310.37c1,1.44,2,2.89,3,4.34h12.66l4.32,6.51H317.91l3,4.34h11.61l4.32,6.51Zm12.47-38L312,100.92s-13-15.19,15.14-21.7,47.59,30.37,47.59,30.37,26.18,39.74,28.12,45.56c2.16,6.51,4.33,21.69-6.49,26-15.3,6.14-26,0-26,0Z"/>
      </g>
      <path class="cls-8" d="M.9,93.55c-.41-5.87-.41-10-.41-10S-1.67,42.34,15.64,42.34s26,10.85,26,10.85c43.51-6.91,83-11.51,118.61-14.44,45-3.7,83.65-4.7,116-4.23q10,.15,19.21.47C248.61,50.38,194.6,69.66,189.77,78.14c-2,3.58.74,11.41,6.19,21.27C119,79.92,31.29,89.3.9,93.55Z"/>
      <path class="cls-9" d="M217.9,201.24c3.82-7.88,11.89-13.55,11.89-13.55s-13-47.73-45.43-49.9-45.42-13-45.42-13l-97.35-2.17S35.1,133.46,17.8,133.46C5.46,133.46,1.92,108.11.9,93.55,31.29,89.3,119,79.92,196,99.41c17.6,31.87,63,85,63,85S268.5,197.8,217.9,201.24Z"/>
    </g>
    <ellipse class="cls-10" cx="153.37" cy="65.6" rx="11.85" ry="11.89"/>
    <ellipse class="cls-11" cx="155.74" cy="63.23" rx="8.3" ry="8.32"/>
  </g>
</svg>
