<svg id="Layer_1" data-name="Layer 1" xmlns="http://www.w3.org/2000/svg" viewBox="0 0 150 129"><defs><style>.cls-1{fill:#00dd7e;}</style></defs><title>neotag_splash_logo</title><path class="cls-1" d="M24.82,105.45V120h-1.7V105.45a2.54,2.54,0,0,0-2.51-2.55H1.81V120H.11V101.17h20.5A4.28,4.28,0,0,1,24.82,105.45Z"/><path class="cls-1" d="M51.15,109.73v-4.28a2.55,2.55,0,0,0-2.52-2.55H32.22a2.55,2.55,0,0,0-2.52,2.55v10.28a2.55,2.55,0,0,0,2.52,2.55H52.85V120H32.22A4.24,4.24,0,0,1,28,115.73V105.45a4.26,4.26,0,0,1,4.22-4.28H48.63a4.28,4.28,0,0,1,4.22,4.28v6H32.66v-1.72Z"/><path class="cls-1" d="M80.88,105.45v10.28A4.27,4.27,0,0,1,76.66,120H60.25A4.24,4.24,0,0,1,56,115.73V105.45a4.26,4.26,0,0,1,4.22-4.28H76.66A4.29,4.29,0,0,1,80.88,105.45Zm-1.71,0a2.54,2.54,0,0,0-2.51-2.55H60.25a2.54,2.54,0,0,0-2.52,2.55v10.28a2.54,2.54,0,0,0,2.52,2.55H76.66a2.54,2.54,0,0,0,2.51-2.55Z"/><path class="cls-1" d="M94.55,118.28V120H88.27a4.23,4.23,0,0,1-4.21-4.28V98.64h1.7v2.53h7.09v1.73H85.76v12.83a2.54,2.54,0,0,0,2.51,2.55Z"/><path class="cls-1" d="M121.7,105.45V120H101.07a4.24,4.24,0,0,1-4.22-4.28v-3.42a4.23,4.23,0,0,1,4.22-4.27H116.6v1.69H101.07a2.55,2.55,0,0,0-2.52,2.58v3.42a2.54,2.54,0,0,0,2.52,2.55H120V105.45a2.54,2.54,0,0,0-2.51-2.55H97.7v-1.73h19.78A4.29,4.29,0,0,1,121.7,105.45Z"/><path class="cls-1" d="M124.87,128.57v-1.69H145.5a2.58,2.58,0,0,0,2.52-2.59V102.9H129.09a2.55,2.55,0,0,0-2.52,2.55v10.28a2.55,2.55,0,0,0,2.52,2.55h16V120h-16a4.24,4.24,0,0,1-4.22-4.28V105.45a4.26,4.26,0,0,1,4.22-4.28h20.63v23.12a4.26,4.26,0,0,1-4.22,4.28Z"/><path class="cls-1" d="M113.12,26.14H98.24V66.25H91a6.22,6.22,0,0,1-4.71-2.48L54.49,26.22c-.09,0-.09,0-.09-.08h-.91V77.25a41.4,41.4,0,0,0,62.78-35.4A40,40,0,0,0,113.12,26.14Z"/><path class="cls-1" d="M59.12,21.51,91,59.14h.91v-33H77.44a.77.77,0,0,1-.76-.77.87.87,0,0,1,0-.28l2.18-5.5h0a.76.76,0,0,1,.72-.57H109.4A41.35,41.35,0,1,0,47.13,72.45V24.15c0-2.81,2.06-5.13,4.54-5.13H54.4A6.27,6.27,0,0,1,59.12,21.51Z"/></svg>