<?xml version="1.0" encoding="utf-8"?>
<!-- Generator: Adobe Adobe Illustrator 24.2.0, SVG Export Plug-In . SVG Version: 6.00 Build 0)  -->
<svg version="1.1" xmlns="http://www.w3.org/2000/svg" xmlns:xlink="http://www.w3.org/1999/xlink" x="0px" y="0px"
	 width="355.09px" height="461.13px" viewBox="0 0 355.09 461.13" style="enable-background:new 0 0 355.09 461.13;"
	 xml:space="preserve">
<style type="text/css">
	.st0{fill:#FFFFFF;}
	.st1{fill:url(#SVGID_1_);}
	.st2{fill:url(#SVGID_2_);}
	.st3{fill:url(#SVGID_3_);}
	.st4{fill:#1B596C;}
	.st5{fill:url(#SVGID_4_);}
	.st6{fill:url(#SVGID_5_);}
	.st7{fill:url(#SVGID_6_);}
	.st8{fill:#1D5556;}
	.st9{fill:url(#SVGID_7_);}
	.st10{fill:url(#SVGID_8_);}
	.st11{fill:url(#SVGID_9_);}
	.st12{fill:#E0E0E0;}
	.st13{fill:#363636;}
	.st14{fill:url(#SVGID_10_);}
	.st15{fill:url(#SVGID_11_);}
	.st16{fill:url(#SVGID_12_);}
	.st17{fill:#A0B8BA;}
	.st18{fill:#552B3D;}
	.st19{fill:#E6F4F5;}
	.st20{fill:#1C596C;}
	.st21{fill:url(#SVGID_13_);}
	.st22{fill:#9B9A93;}
	.st23{fill:#215855;}
	.st24{fill:#00984A;}
	.st25{opacity:0.8588;fill:#FFFFFF;}
	.st26{fill:#4A4D4B;}
	.st27{opacity:0.3412;fill:#FFFFFF;}
	.st28{opacity:0.4902;fill:#FFFFFF;}
	.st29{opacity:0.6392;fill:#FFFFFF;}
</style>
<g id="Layer_1">
</g>
<g id="Layer_2">
	<g>
		<radialGradient id="SVGID_1_" cx="134.4562" cy="219.6847" r="94.6627" gradientUnits="userSpaceOnUse">
			<stop  offset="0" style="stop-color:#F92891"/>
			<stop  offset="1" style="stop-color:#F9FCEF;stop-opacity:0.9216"/>
		</radialGradient>
		<path class="st1" d="M143.43,197.34c-1.73-1.37-2.86-3.27-3.95-5.1l-0.34-0.56c-5.05-8.42-11.93-15.86-19.9-21.58
			c-5.68,3.61-10.38,8.8-13.7,15.11c5.41-3.39,9.88-8.29,12.71-14.01l1.54,0.76c-3.26,6.59-8.6,12.17-15.04,15.72
			c-1.25,11.32-0.13,23.49,3.47,37.2c3.28,12.51,8.2,24.7,12.97,36.5c8.48,2.58,17.1,4.56,25.79,5.94
			c-9.92-27.93-17.66-56.86-23-86.01l1.69-0.31c1.2,6.56,2.54,13.11,3.99,19.65c2.21-2.06,4.45-4.49,7-7.61l0.66-0.8l0.66,0.8
			c5.32,6.41,8.93,14.13,10.42,22.32l-1.69,0.31c-1.38-7.56-4.62-14.71-9.4-20.73c-0.72,0.86-1.41,1.66-2.08,2.42l0.19-0.05
			l13.74,47.47l-1.65,0.48l-13.48-46.58c-1.35,1.46-2.66,2.77-3.96,3.93c4.95,22.02,11.25,43.81,18.82,65.01
			c5.23,0.78,10.49,1.34,15.75,1.68l-2.49-8.82C155.99,238.51,150.15,217.78,143.43,197.34z M130.16,259.79l-1.56,0.72
			c-6.74-14.59-11.85-29.96-15.2-45.67c-1.23-5.75-2.29-11.92-1.8-18.09c0.54-6.8,3.03-12.77,7.01-16.81l1.22,1.2
			c-3.7,3.75-6.02,9.34-6.53,15.74c-0.47,5.95,0.58,11.98,1.77,17.6C118.4,230.07,123.48,245.32,130.16,259.79z M147.92,246.86
			l1.67-0.36l1.13,5.19l-1.67,0.36L147.92,246.86z M150.28,256.01l-0.17-1.21l1.7-0.23l0.17,1.21L150.28,256.01z M147.3,217.67
			l1.65-0.45l5.92,21.87l-1.65,0.45L147.3,217.67z M160.65,267.04l-6.74-25.34l1.66-0.44l6.74,25.34L160.65,267.04z"/>
		<linearGradient id="SVGID_2_" gradientUnits="userSpaceOnUse" x1="180.9183" y1="219.5706" x2="206.7336" y2="225.1083">
			<stop  offset="0" style="stop-color:#2A6F3F"/>
			<stop  offset="1" style="stop-color:#1C4956"/>
		</linearGradient>
		<path class="st2" d="M207.22,240.56c2.17-1.8,4.5-2.4,6.4-1.63c0.57,0.23,1.08,0.58,1.57,0.9c0.5,0.34,0.96,0.65,1.39,0.78
			c1.44-14.45,4.49-28.5,9.06-41.79c0.04-0.11,0.08-0.23,0.12-0.34c-12.44-6.45-26.94-9.22-40.89-7.79l-0.02,0
			c-1.54,14.78-3.02,29.87-4.45,44.54c-0.15,1.51-0.22,2.75,0.27,3.79c0.26,0.54,0.79,1.01,1.35,1.19c0.25,0.08,0.64,0.14,0.99-0.06
			l1.31-0.73l-0.21,7.51l-3.02,0.22c0.43,0.43,0.86,0.85,1.28,1.26l0.3,0.29l-0.04,0.41c-0.14,1.35-0.4,2.67-0.76,3.96l20.1,1.58
			C201.2,249.34,203.19,243.9,207.22,240.56z"/>
		<linearGradient id="SVGID_3_" gradientUnits="userSpaceOnUse" x1="65.8404" y1="186.2973" x2="277.3036" y2="186.2973">
			<stop  offset="0" style="stop-color:#88164F"/>
			<stop  offset="0.4907" style="stop-color:#007536"/>
			<stop  offset="1" style="stop-color:#226292"/>
		</linearGradient>
		<path class="st3" d="M88.78,183.44c11.67-19.25,32.87-32.03,55.34-33.35l0.01,0.23c1.04-2.79,2.25-5.33,3.67-7.61l0.13-0.16
			c5.01-4.91,11.04-8.68,17.43-10.9c1.61-0.56,3.95-1.16,5.72,0.15l0.19,0.19c3.15,4.4,5.78,9.31,7.82,14.48
			c24.88-0.32,49.44,7.85,69.13,23.07l-0.37,0.48c0.15-0.06,0.29-0.13,0.44-0.19c4.8-1.76,10.02-1.81,14.46-0.28
			c-19.48-24.19-49.25-40.16-80.19-42.84c-31.68-2.74-64.77,8.51-88.55,30.09c-19.16,20.52-29.54,49.56-27.72,77.65l-0.46,0.03
			c1.81,1.38,3.6,2.74,5.36,4.07c4.19,2.74,8.52,5.3,12.94,7.71C75.72,226.08,77.43,202.18,88.78,183.44z"/>
		<path class="st4" d="M229.18,327.2l-0.04,0.17c-2.87,11.86-5.85,23.84-8.87,35.65c1.61-0.73,3.2-1.49,4.77-2.3
			c3.87-12.45,7.51-25.84,11.14-40.87c-2.86,0.86-5.75,1.63-8.64,2.36c0.76,1.49,1.31,3.1,1.62,4.82L229.18,327.2z"/>
		<linearGradient id="SVGID_4_" gradientUnits="userSpaceOnUse" x1="80.5682" y1="194.5758" x2="143.5968" y2="194.5758">
			<stop  offset="0" style="stop-color:#4C153D"/>
			<stop  offset="1" style="stop-color:#3E5923"/>
		</linearGradient>
		<path class="st5" d="M90.25,184.33c-9.55,15.76-12.1,35.26-7.35,52.96c1.28-12.6,9.01-24.4,20.24-30.38
			c-0.78-7.29-0.78-14.18,0.06-20.79l0.08-0.26c3.62-7.54,9.1-13.67,15.84-17.73l0.43,0.71l0.31-0.44
			c7.56,5.34,14.17,12.2,19.25,19.97c-0.38-5.13-0.27-10.3,0.34-15.41l0.11-0.86c0.63-4.85,1.29-9.86,2.43-14.69
			c0.47-1.98,1.02-3.8,1.62-5.56C121.91,153.35,101.51,165.73,90.25,184.33z"/>
		<radialGradient id="SVGID_5_" cx="181.5006" cy="357.7324" r="120.7841" gradientUnits="userSpaceOnUse">
			<stop  offset="0" style="stop-color:#66605C"/>
			<stop  offset="0.1981" style="stop-color:#595450;stop-opacity:0.9604"/>
			<stop  offset="0.5801" style="stop-color:#35312F;stop-opacity:0.884"/>
			<stop  offset="1" style="stop-color:#000000;stop-opacity:0.8"/>
		</radialGradient>
		<path class="st6" d="M135.34,296.69c-28.22-5.08-55.05-15.41-79.73-30.69c-4.07-2.53-7.97-5.3-11.7-8.25
			c10.34,27.83,20.96,56.49,31.09,85.04c6.74,20.94,12.82,43,18.06,65.6c5.24,13.65,14.63,26.09,26.42,34.93
			c12.05,9.03,26.3,14.36,41.21,15.41c24.48,1.89,50.22-7.64,68.92-25.47l21.34-46.48c9.07-19.75,18.45-40.18,28.55-59.87
			c12.59-24.55,26.42-48.21,39.57-70.42c-39.61,29.2-88.67,44.88-137.81,44.88C165.87,301.38,150.47,299.84,135.34,296.69z
			 M237.1,317.77l0.23-0.07c7.77-2.92,14.92-7.13,21.24-12.52l1.11,1.3c-6.44,5.49-13.71,9.77-21.61,12.76
			c-3.72,15.49-7.45,29.23-11.42,42c1.05,7.4,5.79,14.12,12.42,17.57l-0.79,1.52c-6.8-3.53-11.71-10.28-13.12-17.79
			c-14.29,7.33-30.25,11.21-46.31,11.21c-0.33,0-0.65,0-0.98-0.01c-16.44-0.16-32.74-4.38-47.2-12.18
			c-0.94,6.37-4.13,12.49-8.86,16.85l-1.16-1.26c4.6-4.24,7.67-10.23,8.43-16.44l0.4,0.05l-0.04-0.16
			c-3.95-14.36-5.64-27.91-5.17-41.42c-3.86-1.6-7.46-3.92-10.44-6.84l1.2-1.22c3.11,3.04,6.9,5.45,10.98,6.95l-0.08,0.21
			c31.96,9.68,66.88,10.53,99.64,2.63l-0.44-3.19l1.56,2.91C230.2,319.77,233.67,318.84,237.1,317.77z"/>
		<linearGradient id="SVGID_6_" gradientUnits="userSpaceOnUse" x1="266.7408" y1="213.1005" x2="312.3984" y2="225.6908">
			<stop  offset="0" style="stop-color:#12839D"/>
			<stop  offset="0.25" style="stop-color:#09576A"/>
			<stop  offset="0.5" style="stop-color:#0A596D"/>
			<stop  offset="1" style="stop-color:#095163"/>
		</linearGradient>
		<path class="st7" d="M287.47,243.5c0.64-19.09-5.9-48.4-17.99-66.07c0.1,0.4,0.21,0.81,0.3,1.2c1.62,7.44,2,15.05,1.1,22.61
			l-0.05,0.44c-0.3,2.53-0.62,5.14,0.55,7.16l0.13,0.23l-0.02,0.26c-0.66,8.57-2.36,17.08-5.02,25.32
			c3.31,4.91,5.34,10.56,5.93,16.44c0.81-0.41,1.62-0.8,2.43-1.22c4.14-1.52,8.14-3.38,11.95-5.53c0.42-0.28,0.84-0.54,1.26-0.83
			L287.47,243.5z"/>
		<path class="st8" d="M181.14,189.17c15.58-1.28,31.73,1.61,45.65,8.17c1.95-4.99,4.48-10.51,8.24-15.48
			c0.35-0.46,0.74-0.95,1.15-1.44c-16.88-8.17-35.89-12.32-54.96-11.94l-0.04-1.76c19.46-0.38,38.87,3.85,56.08,12.22l-0.41,0.71
			c2.93-3.37,7.16-7.06,12.78-9.37c-21.47-15.02-48.07-23.16-75.07-22.97c2.09,5.23,3.56,10.68,4.28,16.18
			c0.51,0.06,0.93,0.08,1.36,0.1l0.95,0.04l-0.38,10.29c-0.05,1.41,0.03,2.93,1.04,3.54c0.3,0.18,0.71,0.29,1.15,0.41
			c0.61,0.16,1.29,0.35,1.89,0.78c0.89,0.64,1.39,1.76,1.36,2.97c-0.03,0.99-0.38,1.9-0.69,2.71l-0.3,0.78l-0.86-0.22
			c-1.12-0.29-2.35-0.17-3.39,0.3c-0.12,1.05-0.24,2.11-0.36,3.16C180.83,188.59,181.04,188.86,181.14,189.17z"/>
		<linearGradient id="SVGID_7_" gradientUnits="userSpaceOnUse" x1="43.1464" y1="173.747" x2="310.5105" y2="173.747">
			<stop  offset="0" style="stop-color:#6D1642"/>
			<stop  offset="0.5" style="stop-color:#037346"/>
			<stop  offset="1" style="stop-color:#22697B"/>
		</linearGradient>
		<path class="st9" d="M92.82,155.59c24.18-21.94,57.77-33.35,89.89-30.57c32.23,2.79,63.24,19.76,82.96,45.41l-0.35,0.27
			c0.56,0.29,1.11,0.6,1.62,0.95l-0.15,0.22c0.84,0.9,1.44,1.97,1.9,3.11l0.77-0.57c13.51,18.09,20.18,48.45,19.72,68.3
			c7.18-5.04,14-11.08,19.97-18.35l0.14-0.13c0.41-0.32,0.81-0.66,1.21-1l-0.44-0.03c1.48-20.82-5.88-43.4-20.73-63.58
			c-14.9-20.25-36.01-36.45-59.42-45.62c-23.41-9.17-49.91-11.59-74.6-6.84c-27.19,0.6-54.56,12.23-75.23,31.92
			c-20.13,19.18-33.6,46.01-36.95,73.61c4.29,5.33,8.98,10.32,14.04,14.91c2.44,2.03,4.91,3.99,7.37,5.89
			C63.03,205.28,73.54,176.24,92.82,155.59z"/>
		<radialGradient id="SVGID_8_" cx="164.497" cy="200.567" r="79.4659" gradientUnits="userSpaceOnUse">
			<stop  offset="0" style="stop-color:#80CD31"/>
			<stop  offset="1" style="stop-color:#FFFFFF"/>
		</radialGradient>
		<path class="st10" d="M178.59,247.03l-1.2-1.31l5.07-0.37l0.09-3.35c-0.33,0.02-0.69-0.05-1.04-0.16
			c-1.01-0.32-1.92-1.12-2.38-2.08c-0.74-1.55-0.57-3.29-0.43-4.69c1.64-16.69,3.33-33.95,5.09-50.66l0.04-0.41l0.35-0.22
			c1.16-0.73,2.59-1.03,3.95-0.85c0.15-0.47,0.27-0.95,0.28-1.41c0.02-0.63-0.2-1.21-0.56-1.5c-0.27-0.21-0.67-0.33-1.1-0.45
			c-0.47-0.14-1-0.29-1.49-0.61c-1.6-1.06-1.76-3.09-1.7-4.93l0.28-8.33c-0.36-0.03-0.75-0.08-1.23-0.18l-0.62-0.12l-0.07-0.63
			c-1.24-11.34-5.49-22.57-11.96-31.66c-0.85-0.55-2.14-0.5-4.04,0.16c-5.63,1.96-10.95,5.17-15.52,9.33
			c6.32-1.16,12.25-4.46,16.49-9.29l0.94,0.82c-0.01-0.06-0.02-0.12-0.03-0.18l1.7-0.22c0.85,6.66,3.24,13.15,6.9,18.78l-1.44,0.93
			c-3.66-5.63-6.08-12.1-7.04-18.74c-4.93,5.47-11.9,9.08-19.21,9.9c-2.16,3.71-3.84,8.03-5.07,13.21
			c-1.12,4.74-1.77,9.71-2.4,14.52l-0.11,0.85c-0.73,6.13-0.73,12.35,0.01,18.49c1,1.67,2.05,3.35,3.54,4.46l0.22,0.16l0.08,0.26
			c2.75,8.35,5.34,16.74,7.88,25.24l0.5-0.71c3.07,2.17,7.31,1.79,11.04,1.27c3.88-0.55,8.14-1.12,11.77,0.57
			c-0.33-7.14,0.46-14.35,1.23-21.31c0.34-3.04,0.68-6.18,0.93-9.27c0.67-8.42,0.88-19.23-3.42-28.84c-2.8,1.57-5.74,3.48-8.52,5.34
			c-1.72,17.61-2.81,35.52-3.25,53.23l-1.71-0.04c0.45-17.89,1.56-35.98,3.3-53.76l0.04-0.4l0.34-0.23c3.18-2.14,6.58-4.36,9.8-6.09
			l0.79-0.42l0.39,0.81c4.86,10.18,4.67,21.67,3.96,30.54c-0.25,3.11-0.6,6.27-0.93,9.32c-0.77,6.94-1.56,14.12-1.22,21.17
			l-1.45,0.07c0.1,0.05,0.2,0.08,0.3,0.13l-0.82,1.51c-3.25-1.76-7.28-1.2-11.18-0.65c-3.85,0.55-8.09,0.9-11.54-1.06
			c3.58,12.06,7.04,24.33,10.61,37.01l1.09,3.86l7.38-5.11c1.18-0.82,2.41-1.67,3.26-2.77c1.61-2.09,1.88-5.11,2.09-7.53l1.71,0.15
			c-0.23,2.64-0.52,5.93-2.44,8.42c-1.02,1.32-2.35,2.24-3.64,3.14l-7.86,5.44l0.79,2.81c7.75-3.09,13.69-10.76,14.71-19.04
			C180.14,248.63,179.39,247.89,178.59,247.03z M147.56,191.4l-1.71,0.08c-0.78-15.76,3.01-32.05,10.66-45.85l1.5,0.83
			C150.51,159.99,146.8,175.95,147.56,191.4z M176.63,157.34l1.59-0.63c2.97,7.52,4.56,15.42,4.72,23.51l-1.71,0.03
			C181.08,172.37,179.53,164.66,176.63,157.34z M174,247.91c-4.11-0.6-8.36-1.23-12.67-2.27c-1.13-0.23-1.74-1.41-1.6-3.17
			l1.28-16.42l1.71,0.13l-1.27,16.42c-0.06,0.83,0.12,1.33,0.27,1.36c4.26,1.03,8.47,1.65,12.54,2.24L174,247.91z M176.01,225.06
			l1.71,0.05l-0.21,7.16l0.02,0l-0.04,0.59l-1.71-0.08L176.01,225.06z M176.8,244.31l-1.71-0.08l0.3-6.28l1.71,0.08L176.8,244.31z"
			/>
		<linearGradient id="SVGID_9_" gradientUnits="userSpaceOnUse" x1="255.6878" y1="247.2295" x2="281.7713" y2="248.9249">
			<stop  offset="0" style="stop-color:#1CAED0"/>
			<stop  offset="1" style="stop-color:#000000"/>
		</linearGradient>
		<path class="st11" d="M255.67,258.36c5.16-1.9,10.2-4.05,15.1-6.44c-0.44-5.38-2.15-10.58-4.99-15.17
			C263.2,244.25,259.81,251.5,255.67,258.36z"/>
		<path class="st12" d="M223.03,331.59c-0.63,0.13-1.28,0.2-1.93,0.2c-1.81,0-3.62-0.51-5.15-1.48l0.91-1.45
			c1.71,1.08,3.83,1.46,5.82,1.05c1.87-0.39,3.54-1.48,4.69-3c-0.23-1.1-0.59-2.15-1.03-3.15c-0.65,0.78-1.5,1.46-2.56,1.94
			c-1.6,0.73-3.31,0.94-4.97,1.15l-0.21-1.7c1.53-0.19,3.1-0.39,4.47-1.01c0.73-0.33,1.35-0.78,1.82-1.3
			c-5.09,1.2-10.23,2.2-15.4,2.98l-7.92,34.16l-1.67-0.39l7.77-33.51c-5.33,0.75-10.68,1.26-16.05,1.57l-3.84,21.04l10.15,7.47
			l-1.02,1.38l-10.61-7.81l0.52-0.7l-0.82-0.15l1.54-8.43c-1.76,0.51-3.33,1.76-4.17,3.38c-0.99,1.92-0.95,4.38,0.08,6.27
			c0.87,1.59,2.35,2.8,3.79,3.97l17.52,14.27l-0.26,0.33c4.7-1.25,9.31-2.83,13.78-4.75c2.88-11.26,5.73-22.68,8.48-34.01
			C225.65,330.7,224.39,331.31,223.03,331.59z"/>
		<path class="st4" d="M189.13,357.81c-3.34-0.65-6.66,1.64-8.22,4.25c-1.49,2.51-2.08,5.86-1.76,9.94
			c8.04-0.01,16.04-1.01,23.82-2.95l-13.84-11.27L189.13,357.81z"/>
		<path class="st13" d="M208.92,245.23c-0.45,0.9-0.75,1.87-0.91,2.85c0.32-0.65,0.83-1.13,1.46-1.32l0.45-0.14l0.9,0.79
			c0.65,0.57,1.64,1.24,2.94,2.01C212.9,247.36,211.05,245.76,208.92,245.23z"/>
		<radialGradient id="SVGID_10_" cx="246.0144" cy="220.1227" r="95.6708" gradientUnits="userSpaceOnUse">
			<stop  offset="0" style="stop-color:#4DC0DA"/>
			<stop  offset="1" style="stop-color:#DDDEED"/>
		</radialGradient>
		<path class="st14" d="M269.14,201.47l0.05-0.43c0.87-7.37,0.51-14.79-1.08-22.05c-0.53-2.42-1.33-5.1-3.25-6.59
			c-4.53-2.56-10.51-2.96-15.97-0.96c-3.9,1.43-7.07,3.79-9.57,6.27l0.18,0.12c0.03-0.04,0.1,0.07,0.18,0.1
			c0.28,0.13,0.74,0.07,1.15,0.02c3.43-0.47,6.99-0.96,10.3-2.01c3.68-1.17,6.6-2.91,8.69-5.16l1.18,1.1
			c0.1-0.07,0.19-0.16,0.29-0.24l0.99,1.39c-3.33,2.38-5.33,6.51-5.17,10.6c4.86,8.97,7.39,19.1,7.29,29.31l-1.71-0.02
			c0.1-9.73-2.26-19.39-6.81-27.98c-1.2,0.53-2.2,1.14-3.14,1.94c-2.19,6.63-3.91,13.17-5.26,19.98l-1.68-0.33
			c1.38-6.95,3.14-13.63,5.39-20.41l0.07-0.22l0.17-0.15c1.18-1.04,2.44-1.8,3.97-2.45c-0.03-3.37,1.21-6.73,3.38-9.32
			c-1.97,1.5-4.35,2.71-7.14,3.6c-3.46,1.1-7.09,1.59-10.59,2.07c-0.27,0.04-0.58,0.08-0.92,0.08c-0.38,0-0.79-0.06-1.18-0.24
			c-0.29-0.14-0.54-0.37-0.73-0.63c-1.23,1.34-2.29,2.69-3.13,3.9c-3.69,5.33-6.03,11.38-7.83,16.61
			c-4.61,13.41-7.66,27.61-9.05,42.2l-0.06,0.64l-0.32,0.06c0.71,4.14,4.64,7.02,6.4,8.11c3.15,1.96,6.9,3.33,11.28,4.16l-1.47-0.4
			c4.14-15.16,8.03-30.67,11.56-46.07l0.1-0.46l0.44-0.16c3.94-1.42,8.15-2.49,12.89-3.27l0.71-0.12l0.24,0.68
			c2.63,7.43,2.66,16.12,0.1,26.57c-1.14,4.64-2.67,9.23-4.15,13.67c-1.26,3.8-2.57,7.72-3.62,11.64l-1.66-0.44
			c1.06-3.97,2.38-7.92,3.65-11.74c1.47-4.41,2.99-8.96,4.11-13.53c2.4-9.8,2.47-17.96,0.18-24.92c-4.17,0.72-7.92,1.68-11.43,2.91
			c-3.51,15.27-7.37,30.64-11.47,45.67c3.06,0.57,6.42,0.88,10.14,0.91l-0.02,1.71c-9.48-0.09-16.84-1.84-22.5-5.36
			c-4.16-2.58-6.72-6.04-7.21-9.61c-0.69-0.21-1.31-0.59-1.88-0.98c-0.43-0.29-0.85-0.57-1.25-0.74c-1.88-0.76-4.04,0.85-4.66,1.36
			c-3.71,3.08-5.49,8.41-4.49,13.33l0.02,0c0.22,1.17,1.07,2.22,2.18,2.68c1.1,0.46,2.45,0.32,3.44-0.35l0.96,1.41
			c-0.89,0.61-1.96,0.92-3.02,0.92c-0.69,0-1.39-0.13-2.04-0.4c-1.35-0.56-2.38-1.69-2.91-3.03l-21.1-1.66
			c-2.27,6.4-7.12,11.82-13.3,14.69c8.72,0.4,17.45,0.2,26.13-0.63c5.87,0.06,11.7-0.18,17.48-0.69c-0.63-2.23-0.7-4.75-0.14-7.51
			c0.45-2.21,1.23-4.33,2.04-6.38c-1.21-0.24-2.34-0.85-3.17-1.76l1.27-1.15c0.78,0.86,1.89,1.35,3.12,1.32l0.02,0.69l0.83,0.33
			c-0.94,2.36-1.92,4.8-2.43,7.29c-0.54,2.62-0.46,4.97,0.18,7.01c2.66-0.26,5.31-0.57,7.95-0.95L221.2,267
			c0.49-4.48,1.62-8.87,3.35-13.03l1.58,0.66c-1.61,3.88-2.67,7.96-3.17,12.13c10.34-1.59,20.44-4.1,30.14-7.49
			c9.52-15.13,15.29-32.34,16.67-49.81C268.47,206.99,268.83,204.06,269.14,201.47z M227.89,214.81c-2.68,9.2-4.3,18.84-5.87,28.16
			l-1.69-0.28c1.57-9.37,3.2-19.06,5.91-28.36c3.08-10.56,7.13-19.15,12.38-26.27l1.38,1.02
			C234.88,196.03,230.91,204.44,227.89,214.81z M209.95,266.59c-8.94-0.07-18.03,0.1-27,0.5c-0.15,0.01-0.31,0.01-0.47,0.01
			c-1.36,0-2.98-0.31-4.3-1.98c-0.61-0.59-0.68-1.78-0.09-2.68c0.45-0.69,1.13-1.08,1.68-1.4l0.86,1.48
			c-0.41,0.24-0.88,0.52-1.11,0.87c-0.16,0.24-0.15,0.52-0.07,0.6c1.01,1.26,2.08,1.46,3.43,1.4c9-0.4,18.12-0.58,27.09-0.51
			L209.95,266.59z M215.69,250.89c-0.14,0.3-0.39,0.52-0.71,0.62c-0.58,0.18-1.16-0.09-1.38-0.22c-1.74-0.98-3.05-1.86-3.9-2.6
			l-0.05-0.04c-0.14,0.2-0.22,0.47-0.25,0.72c-0.04,0.35-0.01,0.72,0.02,1.12c0.02,0.33,0.05,0.67,0.04,1
			c-0.03,1.18-0.5,2.13-1.28,2.62l-0.87,0.55l-0.38-0.96c-1.25-3.17-0.95-6.86,0.8-9.87l0.29-0.51l0.58,0.09
			c3.37,0.52,6.3,3.19,7.14,6.49C215.78,250.08,215.88,250.47,215.69,250.89z"/>
		<linearGradient id="SVGID_11_" gradientUnits="userSpaceOnUse" x1="84.214" y1="234.7312" x2="119.0729" y2="234.7312">
			<stop  offset="0" style="stop-color:#760D42"/>
			<stop  offset="0.1136" style="stop-color:#6E1040;stop-opacity:0.9773"/>
			<stop  offset="0.3328" style="stop-color:#581838;stop-opacity:0.9334"/>
			<stop  offset="0.6353" style="stop-color:#311A24;stop-opacity:0.8729"/>
			<stop  offset="1" style="stop-color:#000000;stop-opacity:0.8"/>
		</linearGradient>
		<path class="st15" d="M119.07,260.7c-4.62-11.44-9.32-23.25-12.5-35.39c-1.51-5.76-2.58-11.25-3.24-16.53
			c-11.61,6.48-19.19,19.54-18.93,32.86l-0.19,0c0.65,1.89,1.36,3.77,2.18,5.61l-0.27,0.12c1.07,0.57,2.16,1.11,3.24,1.66
			c3.03,1.42,6.1,2.73,9.24,3.91C105.3,255.92,112.14,258.5,119.07,260.7z"/>
		<linearGradient id="SVGID_12_" gradientUnits="userSpaceOnUse" x1="26.7661" y1="151.103" x2="328.5771" y2="151.103">
			<stop  offset="0" style="stop-color:#861C50"/>
			<stop  offset="0.5" style="stop-color:#0B7446"/>
			<stop  offset="1" style="stop-color:#266A78"/>
		</linearGradient>
		<path class="st16" d="M292.75,116.79c-16.43-11.39-34.94-18.65-54.52-26.32l-1.52-0.6c-21.25-6.45-43.16-9.7-65.34-9.7
			c-6.39,0-12.81,0.27-19.24,0.81c-21.69,2.03-40.57,6.1-56.11,12.13c-16.46,6.38-29.63,13.82-40.25,22.76
			c-12.71,10.69-21.73,23.64-26.08,37.45c-4.77,15.14-3.67,31.68,2.94,44.24c2.74,4.63,5.76,9.07,9.04,13.31
			c3.72-27.42,17.21-53.96,37.23-73.03c20.98-19.98,48.76-31.79,76.23-32.38c24.86-4.8,51.69-2.34,75.4,6.94
			c23.71,9.28,45.08,25.69,60.18,46.2c14.79,20.09,22.25,42.56,21.12,63.43c0.47-0.44,0.94-0.9,1.39-1.37
			c1.15-1.61,2.26-3.25,3.29-4.94c5.94-9.71,9.9-20.93,11.59-32.35c0.56-6.47,0.55-13.12,0.32-20.13
			C323.71,146,311.09,129.5,292.75,116.79z"/>
		<path class="st17" d="M158.13,67.53c-32.84,3.23-58.25,9.07-79.96,18.35c-14.45,6.18-32.92,16.48-48.24,32.77
			c-2.8,12.79-3.9,25.93-3.14,38.91c0.37-1.6,0.79-3.19,1.28-4.76c4.44-14.12,13.64-27.34,26.61-38.25
			c10.77-9.06,24.1-16.6,40.74-23.05c15.68-6.08,34.72-10.2,56.58-12.24c28.95-2.44,57.64,0.58,85.29,8.98l1.58,0.62
			c19.68,7.71,38.27,15,54.87,26.51c16.62,11.52,28.64,26.13,34.5,41.74c1.18-10.89,0.88-21.9-0.81-32.67
			c-35.25-31.2-80.68-51.38-125.29-56.8C187.53,66.17,172.74,66.09,158.13,67.53z"/>
		<path class="st18" d="M130.54,334.69c1.63-0.14,3.23-0.74,4.78-1.33l2.82-1.07c-0.8-3.36-1.64-6.53-2.44-9.6
			c-3.27-0.79-6.52-1.63-9.73-2.59c-0.13,4.45,0,8.91,0.36,13.41C127.31,334.4,128.84,334.83,130.54,334.69z"/>
		<path class="st19" d="M60.23,92.47c32.6-18.48,70.69-24.21,100.23-27.14h0c13.74-1.36,27.9-1.09,42.15,0.66
			c25.8,2.66,51.04,9.72,73.75,20.87c14.37,8,29.19,16.25,42.09,26.86c3.01,2.47,5.81,5.01,8.43,7.6
			c-3.18-17.43-9.98-34.1-20.03-48.36c-20.47-33.8-54.2-58.42-92.58-67.6c-10.77-2.58-21.36-3.63-31.48-3.63
			c-34.02,0-62.78,11.93-75.52,18.19c-25.3,12.43-47.04,32.68-61.21,57.05c-6.87,11.81-12,24.68-15.28,38.01
			C39.21,106.39,49.12,98.77,60.23,92.47z"/>
		<path class="st20" d="M181.55,337.16c0.83,1.27,2.16,2.1,3.47,2.18l-0.02,0.37c0.88-0.54,1.86-0.91,2.89-1.1l1.98-10.87
			c-3,0.14-6,0.24-9,0.25c-0.26,1.58-0.54,3.22-0.5,4.82C180.4,334.56,180.8,336.02,181.55,337.16z"/>
		<linearGradient id="SVGID_13_" gradientUnits="userSpaceOnUse" x1="126.5169" y1="347.4727" x2="299.7995" y2="347.4727">
			<stop  offset="0" style="stop-color:#FFFFFF"/>
			<stop  offset="1" style="stop-color:#000000"/>
		</linearGradient>
		<path class="st21" d="M167.91,355.31c-0.38,0.57-0.86,1.1-1.46,1.55c-1.12,0.85-2.44,1.36-3.61,1.82l-0.63-1.6
			c1.12-0.44,2.27-0.89,3.2-1.59c0.94-0.71,1.54-1.65,1.64-2.55l0.03,0c-0.16-0.34-0.34-0.67-0.54-0.98
			c-0.53-0.79-1.43-1.6-2.49-1.86c-0.53,1.39-1.74,2.61-3.32,2.61c-0.01,0-0.03,0-0.04,0l0.02-1.71c0.01,0,0.01,0,0.02,0
			c0.94,0,1.73-1.05,1.87-2.04c0.18-1.19-0.24-2.48-0.64-3.73c-1.98-6.13-3.6-12.39-4.81-18.65l0.07-0.01
			c-6.61-0.8-13.17-1.94-19.63-3.42c0.8,3.03,1.61,6.15,2.4,9.49l0.17,0.73l-4.23,1.6c-1.66,0.63-3.37,1.28-5.24,1.43
			c-0.26,0.02-0.52,0.03-0.78,0.03c-1.25,0-2.4-0.29-3.39-0.78c0.17,1.8,0.39,3.61,0.64,5.42l0.35-0.31
			c0.72,0.8,2.09,0.99,4.08,0.58c2.29-0.48,4.58-1.28,6.78-2.05c1.58-0.55,3.22-1.12,4.88-1.59l0.46,1.65
			c-1.6,0.45-3.21,1.01-4.77,1.55c-2.26,0.79-4.59,1.6-6.99,2.11c-0.79,0.17-1.51,0.25-2.17,0.25c-0.92,0-1.71-0.18-2.37-0.51
			c0.84,5.59,2.03,11.25,3.61,17.05c6.1,3.33,12.54,5.97,19.18,7.97l-6.53-24.8l1.66-0.43l6.79,25.8c6.59,1.84,13.36,3.02,20.2,3.47
			l-4.2-15.73C168.05,355.82,167.98,355.57,167.91,355.31z"/>
		<path class="st22" d="M329.92,157.45c0.08,1.89,0.15,3.74,0.21,5.58c0.11,0.41,0.24,0.81,0.34,1.22
			c0.52,6.3,0.27,12.72-0.64,19.08c-0.31,3.61-0.77,7.18-1.51,10.72c-2.33,11.2-7.15,20.83-13.77,27.71
			c-7.11,9.89-16.35,18.12-26.94,24.08c-13.4,8.9-29.47,15.61-47.69,19.79c-19.84,4.55-39.92,5.93-62.5,5.93
			c-6.25,0-12.69-0.11-19.38-0.28c-24.42-2.81-48.03-9.89-69.36-20.69c-11.88-5.55-22.86-12.86-32.55-21.62
			c-9.24-7.68-18.04-16.43-23.98-27.19c-7.28-13.18-9.79-28.59-7.06-43.4c-0.78-12.38,0.1-24.91,2.52-37.16
			c-4.29,4.85-8.31,10.16-11.86,16.05c-0.88,1.21-1.72,2.45-2.52,3.71c-4.56,8.19-7.94,16.79-9.98,25.59
			c-0.21,1.18-0.42,2.37-0.57,3.57c-0.57,4.44-0.72,8.91-0.47,13.36c0.81,8.03,2.65,15.96,5.43,23.56
			c5.52,13.58,13.68,26.14,23.89,36.99c3.26,3.17,6.72,6.14,10.42,8.81l0.21,0.15l0.2,0.54c0.13,0.34,0.25,0.69,0.38,1.03
			c4.35,3.61,8.94,6.95,13.78,9.97c24.49,15.17,51.12,25.42,79.15,30.47c64.46,13.39,134.01-2.55,186.05-42.64
			c12.63-10.07,22.17-23.79,27.32-39.08c2.31-7.03,3.74-14.35,4.15-21.75c0.58-10.53-0.93-21.26-4.27-31.48
			c-0.73-2.11-1.54-4.19-2.45-6.23c-0.44-1.22-0.93-2.43-1.44-3.64c-3.93-8.56-9.17-16.56-15.57-23.58
			C330.86,136.82,331.06,147.2,329.92,157.45z"/>
		<path class="st23" d="M179.44,361.19c1.72-2.9,4.62-4.79,7.57-5.13l-0.84-0.68c-1.49-1.22-3.18-2.59-4.21-4.47
			c-1.32-2.41-1.36-5.43-0.1-7.88c0.43-0.84,1.02-1.59,1.7-2.24c-1.35-0.43-2.59-1.38-3.45-2.69c-0.93-1.41-1.42-3.18-1.47-5.25
			c-0.03-1.67,0.22-3.3,0.49-4.89c-6.75-0.05-13.49-0.44-20.18-1.19c1.19,6.02,2.74,12.03,4.63,17.87c0.38,1.18,0.77,2.45,0.76,3.76
			c1.39,0.3,2.7,1.21,3.63,2.61c0.95,1.43,1.4,3.12,1.8,4.62l4.34,16.24c1.11,0.05,2.21,0.12,3.32,0.14
			C177.11,367.63,177.78,363.99,179.44,361.19z"/>
		<path class="st0" d="M309.3,224.23l-0.14,0.13c-5.97,7.27-12.79,13.31-19.97,18.35c0,0.07,0,0.15,0,0.22
			c8.48-5.16,15.98-11.82,22.08-19.64l-0.76-0.05C310.11,223.57,309.71,223.91,309.3,224.23z"/>
		<path class="st0" d="M311.84,222.04c-0.01,0.18-0.01,0.36-0.02,0.54c0.48-0.63,0.95-1.26,1.42-1.91
			C312.78,221.14,312.31,221.59,311.84,222.04z"/>
		<path class="st0" d="M196.06,270.54c-0.6,0-1.2,0-1.81-0.01c-5.91,0.57-11.84,0.85-17.78,0.85c-26.76,0-53.61-5.73-78.52-16.87
			c-3.15-1.18-6.23-2.5-9.27-3.92c21.34,10.79,44.94,17.88,69.36,20.69c6.68,0.17,13.13,0.28,19.38,0.28
			c22.58,0,42.66-1.39,62.5-5.93c18.22-4.18,34.3-10.89,47.69-19.79c-3.87,2.17-7.91,4.06-12.1,5.59
			C251.74,263.93,224.26,270.54,196.06,270.54z"/>
		<path class="st0" d="M31.14,198.4c-6.15-11.68-7.68-26.62-4.36-40.83c-0.75-12.98,0.35-26.13,3.14-38.91
			c-0.78,0.83-1.54,1.71-2.31,2.57c-2.42,12.24-3.3,24.78-2.52,37.16c-2.73,14.81-0.22,30.22,7.06,43.4
			c5.94,10.77,14.74,19.51,23.98,27.19C46.37,220.13,37.9,209.84,31.14,198.4z"/>
		<path class="st0" d="M328.11,183.38c0.93-6.29,1.18-12.64,0.68-18.85c-0.11-0.43-0.24-0.86-0.36-1.29
			C328.66,170.25,328.67,176.91,328.11,183.38z"/>
		<path class="st0" d="M328.24,157.12c0.73,1.96,1.36,3.93,1.9,5.91c-0.06-1.84-0.13-3.69-0.21-5.58
			c1.14-10.25,0.94-20.63-0.45-30.82c-0.62-0.68-1.23-1.37-1.88-2.04c-0.05-0.05-0.11-0.09-0.16-0.14
			C329.11,135.22,329.42,146.23,328.24,157.12z"/>
		<path class="st0" d="M314.56,221.76c6.62-6.88,11.44-16.5,13.77-27.71c0.74-3.54,1.2-7.11,1.51-10.72
			c-1.7,11.78-5.74,23.31-11.85,33.29C316.91,218.38,315.76,220.09,314.56,221.76z"/>
		<path class="st0" d="M286.78,244.34c0.48-0.27,0.95-0.55,1.42-0.82l-0.16-0.01C287.63,243.8,287.2,244.06,286.78,244.34z"/>
		<path class="st0" d="M86.04,247.39c1.1,0.55,2.2,1.1,3.32,1.62c-1.08-0.55-2.17-1.09-3.24-1.66L86.04,247.39z"/>
		<path class="st0" d="M46.06,76.94c14.17-24.36,35.91-44.62,61.21-57.05c12.74-6.26,41.5-18.19,75.52-18.19
			c10.12,0,20.71,1.06,31.48,3.63c38.37,9.18,72.1,33.8,92.58,67.6c10.05,14.26,16.85,30.93,20.03,48.36
			c0.73,0.72,1.45,1.45,2.15,2.18c-3.01-18.55-10.09-36.37-20.75-51.48c-20.68-34.14-54.8-59.04-93.61-68.33
			c-47.49-11.36-91.46,6.48-108.16,14.68c-25.6,12.57-47.6,33.07-61.94,57.73c-7.44,12.79-12.86,26.81-16.13,41.29
			c0.76-0.82,1.54-1.63,2.33-2.43C34.06,101.63,39.19,88.76,46.06,76.94z"/>
		<path class="st0" d="M57.18,227.61c2.38,2.16,4.84,4.22,7.38,6.2c-0.01-0.1-0.01-0.21-0.01-0.31
			C62.09,231.6,59.62,229.64,57.18,227.61z"/>
		<path class="st0" d="M71.2,238.56c-1.76-1.33-3.56-2.69-5.36-4.07l-0.37,0.02c5.89,4.51,12.17,8.51,18.76,11.96
			c-0.03-0.07-0.06-0.14-0.08-0.2C79.72,243.86,75.4,241.3,71.2,238.56z"/>
		<path class="st0" d="M350.35,159c-1.05-3.15-2.28-6.25-3.66-9.29c0.49,1.16,0.95,2.32,1.37,3.5
			C348.9,155.11,349.66,157.04,350.35,159z"/>
		<path class="st0" d="M77.5,84.3c21.88-9.35,47.45-15.23,80.47-18.48c14.81-1.46,29.82-1.37,44.65,0.16
			c-14.25-1.75-28.41-2.02-42.15-0.66h0c-29.54,2.93-67.63,8.66-100.23,27.14c-11.12,6.3-21.02,13.92-29.45,22.48
			c-0.04,0.17-0.09,0.34-0.13,0.51C45.75,100.15,63.48,90.29,77.5,84.3z"/>
		<path class="st0" d="M322.68,254.18c-1.22,0.94-2.45,1.86-3.69,2.78c-13.16,22.21-26.98,45.87-39.57,70.42
			c-10.1,19.68-19.48,40.11-28.55,59.87l-21.34,46.48c-18.7,17.83-44.44,27.35-68.92,25.47c-14.91-1.05-29.16-6.37-41.21-15.41
			c-11.79-8.84-21.18-21.28-26.42-34.93c-5.25-22.6-11.32-44.66-18.06-65.6c-10.13-28.56-20.75-57.21-31.09-85.04
			c-0.89-0.7-1.76-1.42-2.62-2.15c10.65,28.68,21.64,58.28,32.09,87.74c6.72,20.87,12.78,42.89,18.05,65.55
			c5.39,14.06,14.99,26.77,27.03,35.8c12.31,9.23,26.87,14.68,42.11,15.75c2.08,0.16,4.17,0.24,6.27,0.24
			c23.06,0,46.62-9.58,64.09-26.29l21.6-46.89c9.07-19.74,18.44-40.15,28.52-59.8c12.88-25.1,27.05-49.3,40.48-71.95
			c13.6-10.68,23.76-25.53,29.15-41.93C345.32,229.89,335.58,243.89,322.68,254.18z"/>
		<path class="st0" d="M28.35,117.82c0.03-0.15,0.06-0.29,0.1-0.44c-6.55,7.01-12.13,14.61-16.6,22.61
			c0.79-1.24,1.62-2.46,2.48-3.65C18.47,129.45,23.24,123.3,28.35,117.82z"/>
		<path class="st0" d="M0.98,169.93c0.15-1.15,0.35-2.3,0.55-3.44c-0.64,2.8-1.16,5.62-1.53,8.45c0.02,2.82,0.21,5.63,0.49,8.43
			C0.25,178.89,0.4,174.39,0.98,169.93z"/>
		<path class="st0" d="M3.25,166.58c2.04-8.81,5.42-17.41,9.98-25.59C8.27,148.8,4.89,157.52,3.25,166.58z"/>
		<path class="st0" d="M317.36,115.03c-12.78-10.51-27.53-18.72-41.79-26.66c-22.59-11.09-47.73-18.1-73.43-20.71
			c44.61,5.42,90.04,25.6,125.29,56.8c-0.01-0.06-0.02-0.13-0.03-0.19C324.35,121.11,321,118.03,317.36,115.03z"/>
		<path class="st0" d="M353.19,191.55c-0.41,7.4-1.84,14.72-4.15,21.75c0.67-1.98,1.27-3.98,1.78-6.01
			c3.99-15.68,3.29-32.2-1.9-47.22C352.26,170.29,353.77,181.02,353.19,191.55z"/>
		<path class="st0" d="M42.16,253.02l-0.21-0.15c-3.7-2.67-7.16-5.64-10.42-8.81c3.5,3.72,7.24,7.24,11.21,10.52
			c-0.13-0.34-0.25-0.69-0.38-1.03L42.16,253.02z"/>
		<path class="st0" d="M6.79,204.98c0.27,0.7,0.57,1.39,0.85,2.09c-2.78-7.6-4.62-15.52-5.43-23.56
			C2.63,190.85,4.17,198.11,6.79,204.98z"/>
		<path class="st0" d="M345.04,150.21c-3.52-8.31-8.73-16.26-15.6-23.78c0.01,0.07,0.02,0.14,0.03,0.21
			C335.86,133.64,341.11,141.65,345.04,150.21z"/>
		<path class="st0" d="M30.33,245.27c-10.33-10.97-18.6-23.66-24.2-37.4C11.31,221.93,19.61,234.84,30.33,245.27z"/>
		<path class="st0" d="M327.43,124.45c0.05,0.05,0.11,0.09,0.16,0.14c0.64,0.66,1.25,1.36,1.88,2.04c-0.01-0.07-0.02-0.14-0.03-0.21
			c-0.66-0.72-1.34-1.44-2.03-2.16C327.41,124.33,327.42,124.39,327.43,124.45z"/>
		<path class="st0" d="M30.65,115.46c0.04-0.17,0.09-0.34,0.13-0.51c-0.79,0.8-1.57,1.61-2.33,2.43c-0.03,0.15-0.06,0.29-0.1,0.44
			C29.11,117.01,29.88,116.24,30.65,115.46z"/>
		<path class="st0" d="M276.36,86.85c-22.7-11.15-47.95-18.21-73.75-20.87c44.19,5.43,89.13,25.23,124.35,55.81
			c-0.03-0.16-0.06-0.32-0.09-0.49c-2.62-2.59-5.42-5.12-8.43-7.6C305.55,103.1,290.73,94.85,276.36,86.85z"/>
		<path class="st0" d="M27.62,121.22c0.03-0.17,0.07-0.34,0.11-0.52c-5.66,6.35-10.52,13.16-14.49,20.28
			c0.8-1.26,1.64-2.5,2.52-3.71C19.3,131.38,23.32,126.07,27.62,121.22z"/>
		<path class="st0" d="M2.68,170.15c0.15-1.2,0.36-2.38,0.57-3.57c-0.65,2.8-1.17,5.62-1.54,8.46c0.02,2.83,0.22,5.65,0.5,8.47
			C1.95,179.06,2.1,174.58,2.68,170.15z"/>
		<path class="st0" d="M78.17,85.88c21.71-9.28,47.12-15.12,79.96-18.35c14.6-1.44,29.39-1.36,44.01,0.12
			c-14.03-1.7-27.98-1.96-41.51-0.62c-29.37,2.91-67.24,8.61-99.56,26.93c-11.86,6.72-22.32,14.96-31.05,24.24
			c-0.03,0.15-0.07,0.3-0.1,0.45C45.25,102.36,63.72,92.06,78.17,85.88z"/>
		<path class="st0" d="M31.53,244.05c-10.21-10.85-18.37-23.4-23.89-36.99C12.73,220.96,20.93,233.73,31.53,244.05z"/>
		<path class="st0" d="M5.19,205.59c0.29,0.77,0.62,1.52,0.93,2.28c-2.91-7.9-4.82-16.15-5.64-24.52
			C0.9,190.96,2.48,198.48,5.19,205.59z"/>
		<path class="st0" d="M346.69,149.71c-3.86-9.2-9.77-17.98-17.66-26.22c0.01,0.06,0.02,0.11,0.03,0.17
			C336.4,131.29,342.34,140.17,346.69,149.71z"/>
		<path class="st0" d="M1.53,166.49c2.09-9.13,5.58-18.04,10.32-26.5C6.71,148.04,3.21,157.08,1.53,166.49z"/>
		<path class="st0" d="M40.73,254.1c-3.69-2.68-7.14-5.65-10.41-8.83c3.43,3.64,7.09,7.09,10.96,10.33
			c-0.18-0.48-0.36-0.97-0.54-1.45L40.73,254.1z"/>
		<path class="st0" d="M321.72,252.38c-52.05,40.09-121.59,56.03-186.05,42.64c-28.03-5.05-54.66-15.3-79.15-30.47
			c-4.84-3.01-9.43-6.36-13.78-9.97c0.39,1.05,0.79,2.12,1.18,3.17c3.73,2.95,7.63,5.72,11.7,8.25
			c24.68,15.29,51.51,25.61,79.73,30.69c15.13,3.14,30.53,4.68,45.93,4.68c49.15,0,98.21-15.67,137.81-44.88
			c0.35-0.58,0.69-1.18,1.04-1.76l0.21-0.24c13.39-10.48,23.4-25.08,28.71-41.21C343.89,228.59,334.35,242.3,321.72,252.38z"/>
		<path class="st0" d="M348.92,160.07c-1.09-3.35-2.41-6.64-3.88-9.86c0.51,1.21,1,2.42,1.44,3.64
			C347.38,155.88,348.19,157.96,348.92,160.07z"/>
		<path class="st0" d="M354.9,191.64c-0.42,7.55-1.87,15.01-4.23,22.18c0.68-2.01,1.29-4.05,1.82-6.12
			c4.12-16.2,3.33-33.28-2.13-48.72C353.88,169.59,355.5,180.71,354.9,191.64z"/>
		<path class="st0" d="M326.88,121.31c0.03,0.16,0.06,0.32,0.09,0.49c0.6,0.52,1.21,1.03,1.81,1.56c0.1,0.1,0.19,0.21,0.28,0.31
			c-0.01-0.06-0.02-0.11-0.03-0.17C328.33,122.76,327.61,122.03,326.88,121.31z"/>
		<path class="st0" d="M29.92,118.65c0.03-0.15,0.07-0.3,0.1-0.45c-0.78,0.83-1.55,1.67-2.3,2.51c-0.03,0.17-0.07,0.34-0.11,0.52
			C28.38,120.36,29.14,119.48,29.92,118.65z"/>
		<path class="st0" d="M61.08,93.96c32.32-18.32,70.18-24.01,99.56-26.93l-0.09-0.85l0.09,0.85c13.53-1.34,27.48-1.08,41.51,0.62
			c25.7,2.61,50.84,9.62,73.43,20.71c14.26,7.94,29.02,16.16,41.79,26.66c3.64,3,6.99,6.08,10.04,9.23
			c-0.13-0.83-0.29-1.65-0.44-2.47c-35.23-30.58-80.16-50.38-124.35-55.81c-14.83-1.53-29.84-1.62-44.65-0.16
			c-33.02,3.25-58.59,9.13-80.47,18.48c-14.01,5.99-31.75,15.84-46.85,31.16c-0.22,0.91-0.42,1.82-0.63,2.73
			C38.76,108.92,49.22,100.68,61.08,93.96z"/>
		<path class="st0" d="M42.74,254.58c-3.96-3.29-7.7-6.8-11.21-10.52c-10.6-10.32-18.8-23.09-23.89-36.99
			c-0.28-0.7-0.58-1.38-0.85-2.09c-2.62-6.87-4.16-14.13-4.58-21.47c-0.28-2.81-0.48-5.64-0.5-8.47c0.37-2.84,0.89-5.66,1.54-8.46
			c1.64-9.06,5.02-17.78,9.98-25.59c3.97-7.12,8.83-13.93,14.49-20.28c0.19-0.97,0.42-1.93,0.63-2.89
			c-5.12,5.48-9.88,11.63-14.02,18.51c-0.87,1.19-1.69,2.41-2.48,3.65c-4.73,8.46-8.22,17.37-10.32,26.5
			c-0.2,1.14-0.41,2.29-0.55,3.44c-0.57,4.46-0.73,8.96-0.49,13.43c0.82,8.37,2.72,16.62,5.64,24.52
			c5.61,13.73,13.87,26.43,24.2,37.4c3.26,3.18,6.72,6.15,10.41,8.83l0.02,0.05c0.18,0.48,0.36,0.97,0.54,1.45
			c0.87,0.72,1.74,1.45,2.62,2.15C43.52,256.7,43.13,255.63,42.74,254.58z"/>
		<path class="st0" d="M350.35,159c-0.69-1.96-1.45-3.89-2.29-5.79c-0.42-1.17-0.89-2.34-1.37-3.5
			c-4.35-9.54-10.29-18.42-17.63-26.05c0.15,0.92,0.26,1.84,0.38,2.76c6.87,7.52,12.08,15.47,15.6,23.78
			c1.48,3.22,2.79,6.51,3.88,9.86c5.19,15.02,5.89,31.54,1.9,47.22c-0.52,2.03-1.12,4.03-1.78,6.01
			c-5.3,16.13-15.31,30.73-28.71,41.21l-0.21,0.24c-0.34,0.58-0.69,1.17-1.04,1.76c1.24-0.91,2.47-1.84,3.69-2.78
			c12.9-10.29,22.64-24.29,27.89-39.9c2.36-7.17,3.81-14.64,4.23-22.18C355.5,180.71,353.88,169.59,350.35,159z"/>
		<path class="st0" d="M326.97,121.79c0.15,0.82,0.31,1.64,0.44,2.47c0.69,0.72,1.37,1.43,2.03,2.16c-0.13-0.92-0.24-1.84-0.38-2.76
			c-0.1-0.1-0.19-0.21-0.28-0.31C328.18,122.83,327.57,122.31,326.97,121.79z"/>
		<path class="st0" d="M30.65,115.46c-0.77,0.78-1.54,1.55-2.29,2.35c-0.21,0.96-0.43,1.92-0.63,2.89c0.75-0.84,1.52-1.68,2.3-2.51
			C30.23,117.28,30.43,116.37,30.65,115.46z"/>
		<path class="st0" d="M194.18,268.82c-8.68,0.83-17.41,1.03-26.13,0.63c-0.23,0.11-0.45,0.21-0.68,0.31
			c15.85,0.25,30.41-0.02,44.36-1.38c-0.03-0.08-0.04-0.17-0.07-0.25C205.88,268.64,200.05,268.88,194.18,268.82z"/>
		<path class="st0" d="M213.38,267.97c0.02,0.08,0.04,0.16,0.06,0.24c2.97-0.31,5.93-0.67,8.85-1.09l-0.97-0.11
			C218.69,267.4,216.04,267.71,213.38,267.97z"/>
		<path class="st0" d="M121.19,261.37c0.04,0.11,0.09,0.22,0.13,0.33l-0.23,0.09c8.52,2.62,17.25,4.7,26.12,6.21
			c-0.08-0.23-0.16-0.46-0.24-0.7C138.29,265.93,129.67,263.95,121.19,261.37z"/>
		<path class="st0" d="M148.89,267.6c0.07,0.21,0.14,0.41,0.21,0.62l-0.17,0.06c3.07,0.49,6.14,0.94,9.23,1.3
			c2.23,0.06,4.42,0.11,6.6,0.15l-0.13-0.44C159.38,268.94,154.13,268.37,148.89,267.6z"/>
		<path class="st0" d="M56.14,228.97c9.69,8.76,20.66,16.07,32.55,21.62c-6.37-3.22-12.54-6.76-18.47-10.63
			C65.62,236.49,60.83,232.86,56.14,228.97z"/>
		<path class="st0" d="M272.41,251.09c0.04,0.39,0.09,0.77,0.12,1.16l-1.71,0.12c-0.01-0.15-0.03-0.3-0.05-0.45
			c-4.9,2.39-9.94,4.55-15.1,6.44c-0.26,0.43-0.53,0.86-0.79,1.29c10.32-3.44,21.43-8.35,31.91-15.31
			c-3.81,2.15-7.81,4.01-11.95,5.53C274.03,250.29,273.22,250.69,272.41,251.09z"/>
		<path class="st0" d="M329.83,183.33c0.91-6.36,1.16-12.78,0.64-19.08c-0.1-0.41-0.23-0.81-0.34-1.22
			C330.37,170.07,330.39,176.78,329.83,183.33z"/>
		<path class="st0" d="M313.23,220.67c6.44-6.65,11.14-16.02,13.42-26.96c0.71-3.4,1.16-6.84,1.46-10.33
			c-1.69,11.42-5.64,22.64-11.59,32.35C315.49,217.42,314.38,219.06,313.23,220.67z"/>
		<path class="st0" d="M253.1,259.27c-9.7,3.39-19.8,5.9-30.14,7.49c-0.01,0.09-0.03,0.18-0.04,0.27
			c5.59-0.81,11.12-1.81,16.62-3.07c4.38-1,9.12-2.29,14.06-3.89l-0.72-0.45C252.96,259.5,253.03,259.38,253.1,259.27z"/>
		<path class="st0" d="M310.43,225.52c-6.32,7.67-13.99,14.46-22.81,20.32c10.59-5.96,19.82-14.19,26.94-24.08
			C313.25,223.12,311.87,224.38,310.43,225.52z"/>
		<path class="st0" d="M26.82,158.48l-0.02,0.11c-2.65,14.24-0.15,29.68,6.86,42.36c2.23,4.04,4.89,7.8,7.82,11.32
			c0.06-0.47,0.14-0.93,0.2-1.4c-3.28-4.23-6.31-8.67-9.04-13.31c-6.61-12.56-7.71-29.1-2.94-44.24
			c4.35-13.8,13.36-26.76,26.08-37.45c10.63-8.94,23.79-16.39,40.25-22.76c15.54-6.02,34.42-10.1,56.11-12.13
			c6.43-0.54,12.84-0.81,19.24-0.81c22.18,0,44.09,3.25,65.34,9.7l1.52,0.6c19.59,7.68,38.09,14.93,54.52,26.32
			c18.34,12.71,30.95,29.21,35.68,46.46c-0.06-1.93-0.13-3.87-0.22-5.85c0.01-0.09,0.01-0.18,0.02-0.27
			c-5.86-15.6-17.88-30.21-34.5-41.74c-16.6-11.51-35.19-18.8-54.87-26.51l-1.58-0.62c-27.65-8.39-56.34-11.42-85.29-8.98
			c-21.86,2.04-40.89,6.16-56.58,12.24c-16.64,6.45-29.96,13.99-40.74,23.05c-12.96,10.9-22.16,24.13-26.61,38.25
			c-0.5,1.57-0.91,3.16-1.28,4.76c0.02,0.27,0.02,0.54,0.04,0.81L26.82,158.48z"/>
		<path class="st0" d="M43.15,212.7c0,0,0,0.01,0,0.01l-1.44-0.18c4.64,5.53,9.98,10.49,15.48,15.07
			C52.12,223.02,47.43,218.03,43.15,212.7z"/>
		<path class="st0" d="M98.61,252.93c-3.14-1.18-6.22-2.5-9.24-3.91c9.56,4.84,19.58,8.94,29.93,12.22
			c-0.07-0.18-0.15-0.36-0.22-0.54C112.14,258.5,105.3,255.92,98.61,252.93z"/>
		<path class="st0" d="M328.21,157.39c0.08,1.98,0.16,3.93,0.22,5.85c0.12,0.43,0.25,0.86,0.36,1.29c0.5,6.21,0.25,12.56-0.68,18.85
			c-0.3,3.49-0.75,6.92-1.46,10.33c-2.27,10.94-6.97,20.31-13.42,26.96c-0.46,0.64-0.94,1.28-1.42,1.91
			c-0.02,0.25-0.02,0.5-0.03,0.74l-0.51-0.04c-6.1,7.82-13.6,14.48-22.08,19.64c-0.01,0.2,0,0.42-0.01,0.63l-0.98-0.03
			c-0.47,0.28-0.94,0.55-1.42,0.82c-10.48,6.97-21.58,11.87-31.91,15.31c-0.18,0.29-0.36,0.59-0.54,0.88l-0.73-0.46
			c-4.93,1.6-9.68,2.88-14.06,3.89c-5.5,1.26-11.03,2.26-16.62,3.07c-0.01,0.05-0.02,0.1-0.02,0.16l-0.6-0.07
			c-2.93,0.42-5.88,0.78-8.85,1.09c0.01,0.02,0.01,0.04,0.01,0.05l-1.62,0.56c-0.05-0.14-0.07-0.29-0.11-0.44
			c-13.95,1.35-28.51,1.63-44.36,1.38c-0.49,0.21-0.98,0.4-1.48,0.58l-0.86,0.3l-0.26-0.92c-2.18-0.04-4.37-0.09-6.6-0.15
			c-3.09-0.36-6.17-0.8-9.23-1.3l-1.44,0.52c-0.09-0.26-0.18-0.53-0.27-0.79c-8.87-1.5-17.6-3.59-26.12-6.21l-1.36,0.55
			c-0.15-0.37-0.3-0.74-0.45-1.11c-10.35-3.29-20.37-7.38-29.93-12.22c-1.12-0.52-2.22-1.07-3.32-1.62l-1.21,0.54
			c-0.22-0.48-0.4-0.97-0.6-1.46c-6.6-3.45-12.88-7.46-18.76-11.96l-0.88,0.06c-0.02-0.25-0.01-0.51-0.03-0.76
			c-2.54-1.98-5-4.04-7.38-6.2c-5.5-4.58-10.83-9.54-15.48-15.07l-0.26-0.03c0.01-0.08,0.02-0.15,0.03-0.23
			c-2.93-3.53-5.59-7.28-7.82-11.32c-7-12.68-9.5-28.12-6.86-42.36l0.02-0.11l-0.01-0.11c-0.02-0.27-0.02-0.54-0.04-0.81
			c-3.31,14.21-1.78,29.15,4.36,40.83c6.76,11.45,15.23,21.74,25,30.57c4.69,3.9,9.48,7.52,14.08,10.99
			c5.92,3.87,12.1,7.41,18.47,10.63c3.03,1.42,6.12,2.74,9.27,3.92c24.92,11.14,51.76,16.87,78.52,16.87
			c5.94,0,11.87-0.28,17.78-0.85c0.6,0.01,1.21,0.01,1.81,0.01c28.2,0,55.68-6.61,79.47-19.11c4.19-1.54,8.23-3.42,12.1-5.59
			c8.82-5.86,16.49-12.65,22.81-20.32c1.45-1.14,2.82-2.4,4.13-3.76c1.2-1.67,2.35-3.38,3.43-5.14c6.1-9.98,10.15-21.51,11.85-33.29
			c0.56-6.55,0.53-13.27,0.3-20.3c-0.54-1.98-1.16-3.96-1.9-5.91C328.23,157.21,328.22,157.3,328.21,157.39z"/>
		<path class="st24" d="M104.76,187.67c-0.04,0.02-0.08,0.05-0.12,0.07l-0.82-1.5c0.59-0.32,1.16-0.68,1.73-1.04
			c3.32-6.31,8.02-11.5,13.7-15.11c-0.13-0.09-0.25-0.2-0.38-0.29l0.68-0.96l-0.43-0.71c-6.74,4.05-12.22,10.18-15.84,17.73
			l-0.08,0.26c-0.84,6.6-0.85,13.5-0.06,20.79c0.11-0.06,0.22-0.13,0.33-0.19l0.79,1.52c-0.31,0.16-0.61,0.35-0.92,0.52
			c0.66,5.29,1.73,10.77,3.24,16.53c3.19,12.14,7.88,23.95,12.5,35.39c0.71,0.22,1.41,0.46,2.12,0.68c-4.77-11.8-9.69-24-12.97-36.5
			C104.63,211.16,103.51,198.98,104.76,187.67z"/>
		<path class="st0" d="M104.76,187.67c-0.04,0.02-0.08,0.05-0.12,0.07l-0.82-1.5c0.59-0.32,1.16-0.68,1.73-1.04
			c3.32-6.31,8.02-11.5,13.7-15.11c-0.13-0.09-0.25-0.2-0.38-0.29l0.68-0.96l-0.43-0.71c-6.74,4.05-12.22,10.18-15.84,17.73
			l-0.08,0.26c-0.84,6.6-0.85,13.5-0.06,20.79c0.11-0.06,0.22-0.13,0.33-0.19l0.79,1.52c-0.31,0.16-0.61,0.35-0.92,0.52
			c0.66,5.29,1.73,10.77,3.24,16.53c3.19,12.14,7.88,23.95,12.5,35.39c0.71,0.22,1.41,0.46,2.12,0.68c-4.77-11.8-9.69-24-12.97-36.5
			C104.63,211.16,103.51,198.98,104.76,187.67z"/>
		<path class="st0" d="M121.19,261.37c-0.71-0.22-1.41-0.45-2.12-0.68c0.07,0.18,0.15,0.36,0.22,0.54c0.6,0.19,1.21,0.37,1.81,0.56
			l0.23-0.09C121.28,261.59,121.24,261.48,121.19,261.37z"/>
		<path class="st25" d="M121.19,261.37c-0.71-0.22-1.41-0.45-2.12-0.68c0.07,0.18,0.15,0.36,0.22,0.54c0.6,0.19,1.21,0.37,1.81,0.56
			l0.23-0.09C121.28,261.59,121.24,261.48,121.19,261.37z"/>
		<path class="st0" d="M119.74,262.35l1.36-0.55c-0.6-0.19-1.21-0.37-1.81-0.56C119.44,261.61,119.59,261.98,119.74,262.35z"/>
		<path class="st25" d="M119.74,262.35l1.36-0.55c-0.6-0.19-1.21-0.37-1.81-0.56C119.44,261.61,119.59,261.98,119.74,262.35z"/>
		<path class="st0" d="M181.35,254.77l-0.7-0.06l0.13-1.71l1.1,0.09c0.36-1.29,0.62-2.62,0.76-3.96l0.04-0.41l-0.3-0.29
			c-0.43-0.41-0.85-0.82-1.28-1.26l3.02-0.22l0.21-7.51l-1.31,0.73c-0.36,0.2-0.74,0.14-0.99,0.06c-0.56-0.18-1.1-0.65-1.35-1.19
			c-0.5-1.04-0.42-2.28-0.27-3.79c1.44-14.67,2.92-29.76,4.45-44.54l-1.41,0.15l0.54-1.32c0.03-0.07-0.03-0.22-0.1-0.25l0.7-1.56
			c0.21,0.09,0.37,0.24,0.53,0.4c0.11-1.02,0.21-2.06,0.32-3.08c0.92-0.46,2.02-0.58,3.02-0.29l0.77,0.22l0.27-0.75
			c0.28-0.78,0.59-1.67,0.62-2.64c0.03-1.18-0.42-2.26-1.21-2.89c-0.53-0.42-1.14-0.6-1.68-0.76c-0.39-0.11-0.76-0.22-1.03-0.4
			c-0.9-0.59-0.97-2.07-0.93-3.44l0.34-10.01l-0.84-0.04c-0.39-0.02-0.76-0.04-1.22-0.1c-0.64-5.35-1.95-10.66-3.81-15.74
			c-0.26,0-0.53-0.01-0.79,0l-0.03-1.71c0.06,0,0.12,0,0.17,0c-2.05-5.17-4.67-10.08-7.82-14.48l-0.19-0.19
			c-1.77-1.3-4.11-0.71-5.72-0.15c-6.39,2.22-12.42,5.99-17.43,10.9l-0.13,0.16c-1.42,2.28-2.63,4.82-3.67,7.61l0.09,1.48
			c-0.21,0.01-0.42,0.04-0.63,0.06c-0.6,1.76-1.15,3.58-1.62,5.56c-1.14,4.83-1.8,9.84-2.43,14.69l-0.11,0.86
			c-0.61,5.11-0.72,10.28-0.34,15.41c-5.08-7.76-11.69-14.63-19.25-19.97l-0.31,0.44l0.46,0.76c-0.26,0.15-0.5,0.33-0.75,0.49
			c7.97,5.72,14.85,13.16,19.9,21.58l0.34,0.56c1.09,1.83,2.22,3.73,3.95,5.1c6.72,20.44,12.55,41.17,18.73,63.11l2.49,8.82
			c1.13,0.07,2.27,0.13,3.4,0.18C174.23,266.58,179.08,261.16,181.35,254.77z M166.18,268.41l-0.79-2.81l-0.19,0.13l-0.98-1.41
			l0.67-0.47l-1.09-3.86c-3.57-12.68-7.03-24.96-10.61-37.01c-0.28-0.16-0.57-0.3-0.84-0.49l0.49-0.68
			c-2.53-8.5-5.13-16.9-7.88-25.24l-0.08-0.26l-0.22-0.16c-1.49-1.11-2.54-2.79-3.54-4.46c-0.74-6.14-0.74-12.36-0.01-18.49
			l0.11-0.85c0.63-4.81,1.28-9.77,2.4-14.52c1.23-5.18,2.9-9.5,5.07-13.21c-0.01,0-0.01,0-0.02,0l-0.19-1.7
			c0.64-0.07,1.28-0.19,1.91-0.31c4.57-4.15,9.89-7.37,15.52-9.33c1.9-0.66,3.19-0.71,4.04-0.16c6.47,9.08,10.71,20.32,11.96,31.66
			l0.07,0.63l0.62,0.12c0.48,0.09,0.88,0.15,1.23,0.18l-0.28,8.33c-0.06,1.84,0.1,3.87,1.7,4.93c0.49,0.32,1.02,0.47,1.49,0.61
			c0.43,0.13,0.83,0.24,1.1,0.45c0.36,0.29,0.58,0.86,0.56,1.5c-0.01,0.46-0.13,0.94-0.28,1.41c-1.36-0.18-2.79,0.12-3.95,0.85
			l-0.35,0.22l-0.04,0.41c-1.76,16.71-3.46,33.97-5.09,50.66c-0.14,1.4-0.31,3.14,0.43,4.69c0.46,0.96,1.37,1.76,2.38,2.08
			c0.35,0.11,0.72,0.18,1.04,0.16l-0.09,3.35l-5.07,0.37l1.2,1.31c0.8,0.86,1.55,1.61,2.3,2.34
			C179.87,257.65,173.93,265.31,166.18,268.41z"/>
		<path class="st0" d="M164.65,269.27l0.13,0.44c0.87,0.02,1.73,0.03,2.6,0.04c0.23-0.1,0.45-0.21,0.68-0.31
			C166.91,269.4,165.78,269.35,164.65,269.27z"/>
		<path class="st0" d="M165.03,270.64l0.86-0.3c0.5-0.17,0.99-0.37,1.48-0.58c-0.86-0.01-1.72-0.03-2.6-0.04L165.03,270.64z"/>
		<path class="st0" d="M119.25,170.09c0.25-0.16,0.49-0.34,0.75-0.49l-0.46-0.76l-0.68,0.96C118.99,169.9,119.12,170,119.25,170.09z
			"/>
		<path class="st0" d="M262.76,169.56c-4.45-1.54-9.66-1.48-14.46,0.28c-0.15,0.06-0.29,0.13-0.44,0.19l-0.67,0.87
			c-0.16-0.13-0.33-0.24-0.5-0.37c-5.01,2.25-8.78,5.84-11.39,9.12l-0.44,0.82c-0.05-0.03-0.1-0.05-0.15-0.08
			c-0.36,0.48-0.71,0.95-1.02,1.4c-3.35,4.84-5.61,10.21-7.35,15.06c0.23,0.12,0.45,0.22,0.68,0.34l-0.8,1.52
			c-0.15-0.08-0.3-0.15-0.45-0.23c-0.04,0.11-0.08,0.23-0.12,0.34c-4.57,13.29-7.62,27.35-9.06,41.79
			c-0.43-0.13-0.89-0.43-1.39-0.78c-0.49-0.33-1-0.67-1.57-0.9c-1.9-0.77-4.23-0.18-6.4,1.63c-4.03,3.35-6.02,8.79-5.24,14.12
			l-20.1-1.58c-0.16,0.56-0.33,1.12-0.53,1.68l21.1,1.66c-0.12-0.3-0.24-0.6-0.3-0.91l1.67-0.31c-1-4.92,0.78-10.25,4.49-13.33
			c0.62-0.51,2.78-2.13,4.66-1.36c0.41,0.17,0.82,0.44,1.25,0.74c0.57,0.38,1.19,0.77,1.88,0.98c-0.04-0.31-0.1-0.62-0.11-0.93
			l1.71-0.06c0.01,0.35,0.06,0.69,0.11,1.03l0.32-0.06l0.06-0.64c1.39-14.59,4.44-28.79,9.05-42.2c1.8-5.22,4.13-11.28,7.83-16.61
			c0.84-1.22,1.9-2.56,3.13-3.9c-0.14-0.19-0.28-0.4-0.34-0.63c-0.13-0.47-0.07-0.95,0.19-1.33l1.25,0.82
			c2.5-2.48,5.67-4.84,9.57-6.27c5.46-2,11.44-1.6,15.97,0.96c-0.01-0.01-0.02-0.02-0.04-0.03l1.03-1.37l1.02,0.76l-0.07,0.1
			c0,0,0,0.01,0.01,0.01l0.15-0.22c-0.52-0.35-1.07-0.66-1.62-0.95l-1.01,0.78C263.82,170.82,263.28,170.2,262.76,169.56z"/>
		<path class="st0" d="M180.78,253l-0.13,1.71l0.7,0.06c0.2-0.55,0.37-1.11,0.53-1.68L180.78,253z"/>
		<path class="st0" d="M268.7,174.98c-0.46-1.14-1.07-2.21-1.9-3.11l-0.82,1.2c-0.36-0.24-0.75-0.44-1.13-0.66
			c1.92,1.49,2.72,4.17,3.25,6.59c1.58,7.26,1.95,14.67,1.08,22.05l-0.05,0.43c-0.31,2.59-0.66,5.51,0.64,7.98
			c-1.38,17.48-7.14,34.68-16.67,49.81c0.86-0.3,1.71-0.59,2.56-0.9c4.14-6.86,7.53-14.11,10.11-21.61
			c-0.27-0.44-0.54-0.89-0.84-1.32l1.41-0.97c0.04,0.06,0.08,0.13,0.12,0.19c2.66-8.24,4.37-16.75,5.02-25.32l0.02-0.26l-0.13-0.23
			c-1.17-2.03-0.85-4.64-0.55-7.16l0.05-0.44c0.89-7.56,0.52-15.17-1.1-22.61c-0.09-0.39-0.19-0.8-0.3-1.2
			c-0.46-0.67-0.91-1.36-1.39-2L268.7,174.98z"/>
		<path class="st0" d="M253.1,259.27c-0.07,0.12-0.14,0.23-0.21,0.35l0.72,0.45c0.42-0.14,0.85-0.28,1.27-0.42
			c0.27-0.43,0.53-0.86,0.79-1.29C254.82,258.68,253.96,258.97,253.1,259.27z"/>
		<path class="st0" d="M254.33,260.53c0.18-0.29,0.36-0.59,0.54-0.88c-0.42,0.14-0.85,0.28-1.27,0.42L254.33,260.53z"/>
		<path class="st0" d="M266.87,171.76l-1.02-0.76l-1.03,1.37c0.01,0.01,0.02,0.02,0.04,0.03c0.38,0.21,0.77,0.41,1.13,0.66l0.82-1.2
			c0,0,0-0.01-0.01-0.01L266.87,171.76z"/>
		<path class="st0" d="M208.6,243.42l-0.58-0.09l-0.29,0.51c-1.75,3.02-2.05,6.71-0.8,9.87l0.38,0.96l0.87-0.55
			c0.78-0.49,1.25-1.44,1.28-2.62c0.01-0.33-0.02-0.66-0.04-1c-0.03-0.4-0.06-0.77-0.02-1.12c0.03-0.25,0.12-0.53,0.25-0.72
			l0.05,0.04c0.85,0.74,2.16,1.61,3.9,2.6c0.22,0.13,0.8,0.4,1.38,0.22c0.32-0.1,0.57-0.32,0.71-0.62c0.19-0.41,0.09-0.81,0.05-0.98
			C214.9,246.61,211.96,243.94,208.6,243.42z M210.82,247.41l-0.9-0.79l-0.45,0.14c-0.62,0.19-1.14,0.67-1.46,1.32
			c0.16-0.99,0.46-1.96,0.91-2.85c2.13,0.53,3.98,2.13,4.84,4.19C212.46,248.65,211.48,247.98,210.82,247.41z"/>
		<path class="st0" d="M227.44,321.67c-0.02,0.07-0.06,0.13-0.08,0.2l0.03,0.06c0.05,0.09,0.09,0.18,0.13,0.27
			c2.9-0.73,5.79-1.49,8.64-2.36c-3.63,15.04-7.28,28.43-11.14,40.87c-1.57,0.82-3.16,1.57-4.77,2.3c-0.12,0.48-0.24,0.97-0.37,1.45
			l-1.66-0.42c0.01-0.05,0.03-0.11,0.04-0.16c-4.47,1.92-9.08,3.5-13.78,4.75l-0.82,1l-0.72-0.58c-7.78,1.94-15.79,2.94-23.82,2.95
			c0,0.04,0,0.08,0,0.12l-1.71,0.14c-0.01-0.09-0.01-0.17-0.01-0.26c-1.11-0.02-2.22-0.08-3.32-0.14l0.06,0.22l-1.66,0.44l-0.2-0.74
			c-6.84-0.45-13.61-1.64-20.2-3.47l0.05,0.18l-1.66,0.43l-0.31-1.18c-6.64-1.99-13.08-4.63-19.18-7.97
			c-1.58-5.8-2.77-11.47-3.61-17.05c-0.45-0.22-0.85-0.49-1.17-0.85l0.93-0.83c-0.25-1.81-0.47-3.62-0.64-5.42
			c-0.49-0.25-0.95-0.53-1.34-0.89l1.16-1.26c0,0,0,0,0,0c-0.35-4.49-0.49-8.96-0.36-13.41c3.21,0.96,6.46,1.81,9.73,2.59
			c-0.01-0.06-0.03-0.11-0.04-0.17l1.66-0.43c0.09,0.34,0.18,0.71,0.27,1.05c6.47,1.49,13.02,2.62,19.63,3.42l1.61-0.31
			c0.03,0.18,0.08,0.35,0.11,0.53c6.69,0.75,13.43,1.14,20.18,1.19c0.02-0.09,0.03-0.19,0.05-0.29l1.69,0.28
			c0,0.01,0,0.02-0.01,0.03c3-0.01,6-0.1,9-0.25l0.12-0.68l1.69,0.31l-0.05,0.27c5.37-0.31,10.73-0.82,16.05-1.57l0.16-0.7
			l1.67,0.39l-0.01,0.05c5.17-0.78,10.31-1.78,15.4-2.98c0.36-0.4,0.61-0.84,0.77-1.3l-0.09-0.63c-32.76,7.91-67.68,7.05-99.64-2.63
			l-0.51,1.39c-0.39-0.14-0.76-0.33-1.14-0.49c-0.47,13.51,1.21,27.06,5.17,41.42l0.04,0.16l1.3,0.16
			c-0.03,0.21-0.08,0.42-0.11,0.64c14.46,7.81,30.76,12.02,47.2,12.18c0.33,0,0.65,0.01,0.98,0.01c16.06,0,32.02-3.88,46.31-11.21
			c-0.08-0.41-0.19-0.81-0.24-1.22l1.7-0.23c0.01,0.05,0.02,0.1,0.03,0.15c3.96-12.76,7.7-26.51,11.42-42
			c-0.18,0.07-0.35,0.14-0.53,0.21l-0.6-1.61c0.13-0.05,0.25-0.1,0.38-0.15l-0.23,0.07c-3.43,1.07-6.91,2-10.4,2.86l0.53,0.98
			L227.44,321.67z"/>
		<path class="st0" d="M130.69,336.4c1.87-0.16,3.58-0.81,5.24-1.43l4.23-1.6l-0.17-0.73c-0.79-3.34-1.6-6.46-2.4-9.49
			c-0.63-0.14-1.26-0.3-1.89-0.45c0.81,3.07,1.64,6.24,2.44,9.6l-2.82,1.07c-1.55,0.59-3.15,1.19-4.78,1.33
			c-1.7,0.14-3.23-0.29-4.21-1.19c0.06,0.71,0.12,1.43,0.18,2.15c0.99,0.5,2.15,0.78,3.39,0.78
			C130.17,336.43,130.43,336.42,130.69,336.4z"/>
		<path class="st0" d="M137.32,322.08l-1.66,0.43c0.01,0.06,0.03,0.11,0.04,0.17c0.63,0.15,1.26,0.31,1.89,0.45
			C137.5,322.79,137.41,322.43,137.32,322.08z"/>
		<path class="st0" d="M126.33,333.5l-1.16,1.26c0.39,0.36,0.85,0.64,1.34,0.89C126.45,334.93,126.39,334.22,126.33,333.5
			C126.33,333.5,126.33,333.5,126.33,333.5z"/>
		<path class="st0" d="M161.97,345.23c0.4,1.25,0.82,2.54,0.64,3.73c-0.15,0.99-0.93,2.04-1.87,2.04c-0.01,0-0.01,0-0.02,0
			l-0.02,1.71c0.01,0,0.02,0,0.04,0c1.57,0,2.79-1.21,3.32-2.61c-0.21-0.05-0.42-0.12-0.65-0.12l0.02-1.71
			c0.31,0,0.61,0.08,0.91,0.14c0.01-1.31-0.38-2.58-0.76-3.76c-1.89-5.84-3.44-11.85-4.63-17.87c-0.58-0.06-1.15-0.14-1.72-0.21
			l-0.07,0.01C158.37,332.84,159.98,339.1,161.97,345.23z"/>
		<path class="st0" d="M158.84,326.25l-1.61,0.31c0.58,0.07,1.15,0.15,1.72,0.21C158.91,326.6,158.87,326.43,158.84,326.25z"/>
		<path class="st0" d="M167.97,351.02c-0.93-1.4-2.25-2.31-3.63-2.61c0,0.26,0.01,0.53-0.03,0.79c-0.04,0.3-0.14,0.6-0.25,0.9
			c1.06,0.27,1.96,1.07,2.49,1.86c0.21,0.31,0.38,0.64,0.54,0.98l1.67,0.17c-0.08,0.76-0.38,1.5-0.85,2.19
			c0.07,0.26,0.14,0.51,0.21,0.77l4.2,15.73c0.6,0.04,1.2,0.04,1.79,0.07l-4.34-16.24C169.37,354.15,168.92,352.45,167.97,351.02z"
			/>
		<path class="st0" d="M172.51,372.54l1.66-0.44l-0.06-0.22c-0.6-0.03-1.2-0.03-1.79-0.07L172.51,372.54z"/>
		<path class="st0" d="M163.41,349.98c0.23,0,0.44,0.07,0.65,0.12c0.11-0.3,0.2-0.6,0.25-0.9c0.04-0.27,0.03-0.53,0.03-0.79
			c-0.3-0.07-0.61-0.14-0.91-0.14L163.41,349.98z"/>
		<path class="st0" d="M165.41,355.5c-0.93,0.7-2.09,1.16-3.2,1.59l0.63,1.6c1.17-0.46,2.49-0.98,3.61-1.82
			c0.6-0.45,1.08-0.98,1.46-1.55c-0.23-0.81-0.48-1.62-0.82-2.36l-0.03,0C166.95,353.85,166.36,354.78,165.41,355.5z"/>
		<path class="st0" d="M168.75,353.12l-1.67-0.17c0.35,0.75,0.6,1.55,0.82,2.36C168.37,354.62,168.67,353.88,168.75,353.12z"/>
		<path class="st0" d="M131.94,343.01c2.4-0.5,4.74-1.32,6.99-2.11c1.56-0.54,3.17-1.11,4.77-1.55l-0.46-1.65
			c-1.65,0.46-3.29,1.03-4.88,1.59c-2.2,0.77-4.49,1.57-6.78,2.05c-1.99,0.41-3.37,0.22-4.08-0.58l-0.35,0.31
			c0.08,0.56,0.16,1.12,0.25,1.68c0.66,0.32,1.44,0.51,2.37,0.51C130.43,343.26,131.15,343.18,131.94,343.01z"/>
		<path class="st0" d="M126.23,341.9c0.32,0.36,0.73,0.63,1.17,0.85c-0.08-0.56-0.17-1.12-0.25-1.68L126.23,341.9z"/>
		<path class="st0" d="M143.67,342.97l6.53,24.8c0.64,0.19,1.28,0.38,1.92,0.56l-6.79-25.8L143.67,342.97z"/>
		<path class="st0" d="M150.51,368.95l1.66-0.43l-0.05-0.18c-0.64-0.18-1.28-0.37-1.92-0.56L150.51,368.95z"/>
		<path class="st0" d="M223.08,324.14c-1.37,0.62-2.94,0.82-4.47,1.01l0.21,1.7c1.65-0.21,3.36-0.42,4.97-1.15
			c1.06-0.48,1.91-1.15,2.56-1.94c-0.13-0.3-0.23-0.61-0.38-0.89l-0.11,0.02l-0.04-0.27c-0.31,0.07-0.61,0.15-0.92,0.22
			C224.43,323.36,223.81,323.81,223.08,324.14z"/>
		<path class="st0" d="M225.82,322.62l-0.15-1.08c-0.16,0.46-0.41,0.9-0.77,1.3C225.2,322.77,225.51,322.69,225.82,322.62z"/>
		<path class="st0" d="M227.44,321.67l-0.21-0.05l0.13,0.25C227.39,321.8,227.43,321.74,227.44,321.67z"/>
		<path class="st0" d="M226.34,323.76c0.44,1,0.8,2.04,1.03,3.15c0.07-0.1,0.16-0.18,0.23-0.28l1.41,0.97
			c-0.61,0.89-1.39,1.65-2.26,2.28c-2.75,11.33-5.6,22.75-8.48,34.01c0.66-0.29,1.33-0.57,1.99-0.87
			c3.02-11.81,6.01-23.79,8.87-35.65l0.04-0.17l-0.03-0.18c-0.31-1.71-0.86-3.33-1.62-4.82c-0.11,0.03-0.22,0.05-0.33,0.08
			C227,322.81,226.72,323.31,226.34,323.76z"/>
		<path class="st26" d="M225.58,320.91c0.37-0.09,0.75-0.19,1.12-0.28l-1.56-2.91L225.58,320.91z"/>
		<path class="st0" d="M218.24,364.05l1.66,0.42c0.12-0.48,0.24-0.97,0.37-1.45c-0.66,0.3-1.32,0.58-1.99,0.87
			C218.27,363.95,218.26,364,218.24,364.05z"/>
		<path class="st0" d="M225.67,321.54c0.03-0.09,0.09-0.18,0.11-0.28l1.45,0.36l-0.53-0.98c-0.37,0.09-0.75,0.19-1.12,0.28
			L225.67,321.54z"/>
		<path class="st0" d="M227.53,322.2c-0.05-0.09-0.08-0.18-0.13-0.27l-0.03-0.06c-0.04,0.14-0.11,0.27-0.16,0.41
			C227.31,322.25,227.42,322.23,227.53,322.2z"/>
		<path class="st0" d="M225.96,322.87c0.15,0.28,0.25,0.6,0.38,0.89c0.38-0.46,0.66-0.96,0.86-1.48c-0.46,0.11-0.93,0.22-1.39,0.34
			l0.04,0.27L225.96,322.87z"/>
		<path class="st0" d="M227.21,322.28c0.05-0.14,0.12-0.27,0.16-0.41l-0.13-0.25l-1.45-0.36c-0.02,0.09-0.08,0.18-0.11,0.28
			l0.15,1.08C226.28,322.51,226.74,322.4,227.21,322.28z"/>
		<path class="st0" d="M222.68,329.91c-1.98,0.41-4.1,0.03-5.82-1.05l-0.91,1.45c1.54,0.97,3.34,1.48,5.15,1.48
			c0.65,0,1.29-0.06,1.93-0.2c1.36-0.28,2.62-0.89,3.73-1.7c0.22-0.91,0.45-1.83,0.67-2.74c-0.02-0.08-0.05-0.16-0.06-0.24
			C226.23,328.43,224.55,329.53,222.68,329.91z"/>
		<path class="st0" d="M226.76,329.89c0.87-0.64,1.65-1.39,2.26-2.28l-1.41-0.97c-0.07,0.1-0.16,0.18-0.23,0.28
			c0.02,0.08,0.05,0.15,0.06,0.24C227.21,328.06,226.98,328.97,226.76,329.89z"/>
		<path class="st0" d="M201.58,359.98l7.92-34.16c-0.61,0.09-1.21,0.17-1.82,0.26l-7.77,33.51L201.58,359.98z"/>
		<path class="st0" d="M209.51,325.77l-1.67-0.39l-0.16,0.7c0.61-0.09,1.21-0.17,1.82-0.26L209.51,325.77z"/>
		<path class="st0" d="M188.32,338.53l0.21,1.7c-0.33,0.04-0.66,0.12-0.98,0.21l-1.54,8.43l0.82,0.15l0.5-0.68l0.46,0.34l3.84-21.04
			c-0.59,0.03-1.17,0.07-1.76,0.1l-1.98,10.87C188.03,338.59,188.17,338.55,188.32,338.53z"/>
		<path class="st0" d="M191.67,327.38l-1.69-0.31l-0.12,0.68c0.59-0.03,1.17-0.07,1.76-0.1L191.67,327.38z"/>
		<path class="st0" d="M187.25,354.06c-1.44-1.17-2.92-2.38-3.79-3.97c-1.03-1.89-1.07-4.35-0.08-6.27
			c0.83-1.62,2.41-2.87,4.17-3.38l0.33-1.83c-1.03,0.18-2,0.56-2.89,1.1l-0.08,1.34c-0.46-0.03-0.91-0.11-1.36-0.26
			c-0.68,0.65-1.27,1.4-1.7,2.24c-1.26,2.45-1.22,5.46,0.1,7.88c1.03,1.88,2.72,3.26,4.21,4.47l0.84,0.68
			c0.82-0.1,1.65-0.09,2.46,0.07l-0.33,1.66l13.84,11.27c0.51-0.13,1.02-0.28,1.53-0.42l0.26-0.33L187.25,354.06z"/>
		<path class="st0" d="M203.69,369.65l0.82-1c-0.51,0.14-1.02,0.29-1.53,0.42L203.69,369.65z"/>
		<path class="st0" d="M188.32,338.53c-0.15,0.02-0.29,0.06-0.44,0.08l-0.33,1.83c0.32-0.09,0.65-0.17,0.98-0.21L188.32,338.53z"/>
		<polygon class="st0" points="186.83,349.02 186.31,349.72 196.92,357.53 197.94,356.15 187.79,348.68 187.7,349.18 		"/>
		<polygon class="st0" points="186.83,349.02 187.7,349.18 187.79,348.68 187.33,348.35 		"/>
		<path class="st0" d="M180.12,338.1c0.86,1.31,2.09,2.26,3.45,2.69c0.44-0.41,0.92-0.77,1.43-1.09l0.02-0.37
			c-1.31-0.08-2.64-0.91-3.47-2.18c-0.75-1.14-1.15-2.61-1.19-4.35c-0.03-1.6,0.24-3.24,0.5-4.82c-0.58,0-1.15-0.02-1.73-0.03
			c-0.26,1.58-0.52,3.21-0.49,4.89C178.69,334.92,179.19,336.69,180.12,338.1z"/>
		<path class="st0" d="M180.87,327.96l-1.69-0.28c-0.02,0.09-0.03,0.19-0.05,0.29c0.58,0,1.15,0.03,1.73,0.03
			C180.86,327.98,180.87,327.97,180.87,327.96z"/>
		<path class="st0" d="M183.56,340.8c0.44,0.14,0.9,0.23,1.36,0.26l0.08-1.34C184.48,340.02,184,340.38,183.56,340.8z"/>
		<path class="st0" d="M180.91,362.07c1.55-2.61,4.88-4.9,8.22-4.25l0-0.02l-2.13-1.73c-2.95,0.34-5.84,2.23-7.57,5.13
			c-1.66,2.8-2.33,6.44-2.01,10.83c0.16,0,0.32,0.02,0.48,0.02c0.41,0,0.83-0.02,1.24-0.02
			C178.83,367.93,179.42,364.58,180.91,362.07z"/>
		<path class="st0" d="M177.43,372.02c0.01,0.09,0.01,0.17,0.01,0.26l1.71-0.14c0-0.04,0-0.08,0-0.12c-0.41,0-0.83,0.03-1.24,0.02
			C177.75,372.03,177.59,372.02,177.43,372.02z"/>
		<path class="st0" d="M189.46,356.13c-0.81-0.16-1.63-0.17-2.46-0.07l2.13,1.73L189.46,356.13z"/>
		<path class="st0" d="M129.56,360.96l-0.05-0.19l-0.4-0.05c-0.76,6.21-3.83,12.2-8.43,16.44l1.16,1.26
			c4.73-4.36,7.93-10.48,8.86-16.85c-0.27-0.15-0.55-0.29-0.82-0.44L129.56,360.96z"/>
		<path class="st0" d="M129.5,360.77l0.05,0.19l0.32,0.17c0.27,0.15,0.55,0.29,0.82,0.44c0.03-0.21,0.08-0.42,0.11-0.64
			L129.5,360.77z"/>
		<path class="st0" d="M226.46,361.91l-0.31,0.17c-0.32,0.17-0.65,0.31-0.96,0.47c1.41,7.51,6.32,14.26,13.12,17.79l0.79-1.52
			c-6.63-3.45-11.37-10.17-12.42-17.57c-0.03,0.11-0.07,0.22-0.1,0.33L226.46,361.91z"/>
		<path class="st0" d="M224.94,361.32c0.06,0.41,0.17,0.81,0.24,1.22c0.32-0.16,0.65-0.3,0.96-0.47l0.31-0.17l0.11-0.34
			c0.03-0.11,0.07-0.22,0.1-0.33c-0.01-0.05-0.02-0.1-0.03-0.15L224.94,361.32z"/>
		<path class="st0" d="M238.19,318.79c-0.04,0.15-0.07,0.3-0.11,0.46c7.9-2.99,15.17-7.28,21.61-12.76l-1.11-1.3
			c-6.32,5.39-13.47,9.6-21.24,12.52l1.21-0.38L238.19,318.79z"/>
		<path class="st0" d="M237.55,319.46c0.18-0.07,0.35-0.14,0.53-0.21c0.04-0.15,0.07-0.3,0.11-0.46l0.35-1.46l-1.21,0.38
			c-0.13,0.05-0.25,0.1-0.38,0.15L237.55,319.46z"/>
		<path class="st0" d="M124.34,317.81l1.07,0.33c0.18,0.05,0.36,0.1,0.54,0.15l0.08-0.21c-4.07-1.5-7.87-3.91-10.98-6.95l-1.2,1.22
			c2.98,2.92,6.58,5.24,10.44,6.84c0-0.09,0-0.18,0-0.27L124.34,317.81z"/>
		<path class="st0" d="M125.95,318.29c-0.18-0.05-0.36-0.1-0.54-0.15l-1.07-0.33l-0.04,1.11c0,0.09,0,0.18,0,0.27
			c0.38,0.16,0.75,0.35,1.14,0.49L125.95,318.29z"/>
		<path class="st0" d="M130.05,202.61l-1.14-1.27c0.25-0.22,0.5-0.47,0.75-0.7c-1.44-6.53-2.78-13.08-3.99-19.65l-1.69,0.31
			c5.33,29.15,13.08,58.08,23,86.01c0.64,0.1,1.27,0.19,1.91,0.29c-7.57-21.2-13.87-42.98-18.82-65.01
			C130.07,202.6,130.06,202.6,130.05,202.61z"/>
		<path class="st0" d="M148.89,267.6c-0.64-0.09-1.28-0.19-1.91-0.29c0.08,0.23,0.16,0.46,0.24,0.7c0.57,0.1,1.14,0.18,1.72,0.27
			l0.17-0.06C149.03,268.01,148.97,267.8,148.89,267.6z"/>
		<path class="st0" d="M147.5,268.79l1.44-0.52c-0.57-0.09-1.14-0.18-1.72-0.27C147.32,268.27,147.4,268.53,147.5,268.79z"/>
		<path class="st0" d="M134.04,198.66l-0.26-0.9l1.46-0.42c0.68-0.76,1.37-1.56,2.08-2.42c4.78,6.02,8.02,13.17,9.4,20.73l1.69-0.31
			c-1.5-8.19-5.1-15.91-10.42-22.32l-0.66-0.8l-0.66,0.8c-2.55,3.12-4.8,5.55-7,7.61c0.14,0.65,0.27,1.3,0.42,1.96
			C131.38,201.42,132.68,200.12,134.04,198.66z"/>
		<path class="st0" d="M130.05,202.61c0.01-0.01,0.02-0.02,0.02-0.02c-0.15-0.65-0.28-1.3-0.42-1.96c-0.25,0.23-0.5,0.48-0.75,0.7
			L130.05,202.61z"/>
		
			<rect x="150.23" y="217.06" transform="matrix(0.9651 -0.2618 0.2618 0.9651 -54.5211 47.5197)" class="st0" width="1.71" height="22.66"/>
		
			<rect x="157.25" y="241.04" transform="matrix(0.9664 -0.2571 0.2571 0.9664 -60.0204 49.1846)" class="st0" width="1.71" height="26.22"/>
		<path class="st0" d="M104.76,187.67c6.44-3.55,11.77-9.12,15.04-15.72l-1.54-0.76c-2.83,5.72-7.31,10.62-12.71,14.01
			c-0.22,0.43-0.46,0.84-0.67,1.28C104.82,186.87,104.8,187.27,104.76,187.67z"/>
		<path class="st0" d="M104.64,187.74c0.04-0.02,0.08-0.05,0.12-0.07c0.04-0.39,0.07-0.8,0.12-1.19c0.21-0.44,0.45-0.85,0.67-1.28
			c-0.57,0.36-1.14,0.71-1.73,1.04L104.64,187.74z"/>
		<path class="st0" d="M167.92,134.7c-0.03-0.19-0.07-0.38-0.09-0.58l-0.94-0.82c-4.24,4.83-10.17,8.14-16.49,9.29
			c-0.4,0.37-0.81,0.73-1.2,1.11c-0.18,0.29-0.33,0.6-0.5,0.9C156.02,143.78,163,140.17,167.92,134.7z"/>
		<path class="st0" d="M150.41,142.6c-0.63,0.12-1.27,0.23-1.91,0.31l0.19,1.7c0.01,0,0.01,0,0.02,0c0.17-0.29,0.32-0.61,0.5-0.9
			C149.6,143.32,150,142.96,150.41,142.6z"/>
		<path class="st0" d="M238.22,178.86c0.2,0.27,0.44,0.5,0.73,0.63c0.39,0.18,0.8,0.24,1.18,0.24c0.33,0,0.65-0.04,0.92-0.08
			c3.51-0.48,7.13-0.98,10.59-2.07c2.79-0.89,5.16-2.11,7.14-3.6c0.66-0.78,1.4-1.48,2.22-2.1l-1.18-1.1
			c-2.09,2.25-5.01,3.99-8.69,5.16c-3.32,1.05-6.87,1.54-10.3,2.01c-0.4,0.05-0.86,0.12-1.15-0.02c-0.08-0.04-0.15-0.14-0.18-0.1
			l-0.18-0.12C238.93,178.1,238.57,178.48,238.22,178.86z"/>
		<path class="st0" d="M237.88,178.24c0.06,0.23,0.2,0.44,0.34,0.63c0.35-0.38,0.71-0.76,1.1-1.14l-1.25-0.82
			C237.81,177.29,237.75,177.76,237.88,178.24z"/>
		<path class="st0" d="M247.16,208.91c3.51-1.24,7.26-2.19,11.43-2.91c2.28,6.96,2.22,15.12-0.18,24.92
			c-1.12,4.57-2.64,9.13-4.11,13.53c-1.27,3.82-2.59,7.77-3.65,11.74l1.66,0.44c1.05-3.92,2.36-7.84,3.62-11.64
			c1.48-4.44,3.01-9.03,4.15-13.67c2.57-10.45,2.53-19.14-0.1-26.57l-0.24-0.68l-0.71,0.12c-4.73,0.78-8.95,1.85-12.89,3.27
			l-0.44,0.16l-0.1,0.46c-3.53,15.41-7.42,30.91-11.56,46.07l1.47,0.4c0.06,0.01,0.12,0.03,0.19,0.04
			C239.8,239.55,243.66,224.18,247.16,208.91z"/>
		<path class="st0" d="M255.4,184.04c-0.02-0.25,0-0.49,0-0.74c-1.53,0.65-2.79,1.41-3.97,2.45l-0.17,0.15l-0.07,0.22
			c-2.25,6.78-4.01,13.45-5.39,20.41l1.68,0.33c1.35-6.81,3.07-13.34,5.26-19.98c0.94-0.8,1.93-1.41,3.14-1.94
			c4.55,8.59,6.9,18.25,6.81,27.98l1.71,0.02c0.1-10.21-2.42-20.33-7.29-29.31c0,0.1-0.01,0.19,0,0.29L255.4,184.04z"/>
		<path class="st0" d="M82.89,237.29c0.39,1.46,0.83,2.9,1.32,4.33l0.19,0c-0.26-13.32,7.32-26.37,18.93-32.86
			c-0.08-0.62-0.14-1.24-0.2-1.85C91.91,212.89,84.17,224.69,82.89,237.29z"/>
		<path class="st0" d="M103.46,206.72c-0.11,0.06-0.22,0.13-0.33,0.19c0.07,0.62,0.13,1.23,0.2,1.85c0.31-0.17,0.61-0.36,0.92-0.52
			L103.46,206.72z"/>
		<path class="st0" d="M225.76,198.48c0.19-0.54,0.37-1.08,0.57-1.63c-12.41-6.39-26.81-9.2-40.71-7.95
			c-0.09-0.3-0.28-0.57-0.5-0.79c-0.09,0.86-0.18,1.73-0.27,2.59l0.02,0C198.82,189.26,213.31,192.03,225.76,198.48z"/>
		<path class="st0" d="M184.6,187.71l-0.7,1.56c0.07,0.03,0.13,0.18,0.1,0.25l-0.54,1.32l1.41-0.15c0.09-0.86,0.18-1.73,0.27-2.59
			C184.97,187.95,184.8,187.8,184.6,187.71z"/>
		<path class="st0" d="M226.21,198.71l0.8-1.52c-0.22-0.12-0.45-0.23-0.68-0.34c-0.2,0.55-0.39,1.09-0.57,1.63
			C225.91,198.56,226.06,198.63,226.21,198.71z"/>
		<path class="st0" d="M270.77,251.92c0.55-0.27,1.09-0.55,1.64-0.83c-0.59-5.87-2.62-11.53-5.93-16.44c-0.23,0.7-0.46,1.4-0.7,2.09
			C268.62,241.34,270.33,246.54,270.77,251.92z"/>
		<path class="st0" d="M270.82,252.37l1.71-0.12c-0.03-0.39-0.08-0.77-0.12-1.16c-0.55,0.27-1.09,0.56-1.64,0.83
			C270.78,252.07,270.81,252.22,270.82,252.37z"/>
		<path class="st0" d="M264.94,235.43c0.29,0.43,0.56,0.87,0.84,1.32c0.24-0.7,0.47-1.39,0.7-2.09c-0.04-0.06-0.08-0.13-0.12-0.19
			L264.94,235.43z"/>
		<path class="st0" d="M258.78,173.99c-2.17,2.58-3.4,5.95-3.38,9.32c0.19-0.08,0.36-0.16,0.55-0.24l0.7-0.27l0.36,0.66
			c0.03,0.06,0.06,0.13,0.1,0.19c-0.16-4.09,1.84-8.22,5.17-10.6l-0.99-1.39c-0.1,0.07-0.19,0.16-0.29,0.24l0.07,0.07
			C260.4,172.69,259.62,173.36,258.78,173.99z"/>
		<path class="st0" d="M258.78,173.99c0.83-0.63,1.61-1.3,2.29-2.03l-0.07-0.07C260.19,172.5,259.44,173.2,258.78,173.99z"/>
		<path class="st0" d="M256.66,182.8l-0.7,0.27c-0.19,0.08-0.37,0.16-0.55,0.24c0,0.25-0.02,0.49,0,0.74l1.71-0.11
			c-0.01-0.1,0-0.19,0-0.29c-0.03-0.06-0.06-0.13-0.1-0.19L256.66,182.8z"/>
		<path class="st0" d="M226.25,214.33c-2.71,9.29-4.34,18.98-5.91,28.36l1.69,0.28c1.57-9.32,3.18-18.96,5.87-28.16
			c3.02-10.36,6.98-18.78,12.11-25.73l-1.38-1.02C233.38,195.17,229.33,203.77,226.25,214.33z"/>
		<path class="st0" d="M216.11,242.23c0.49,3.57,3.06,7.03,7.21,9.61c5.66,3.52,13.02,5.28,22.5,5.36l0.02-1.71
			c-3.72-0.03-7.08-0.35-10.14-0.91c0,0,0,0.01,0,0.01l-0.19-0.05c-4.38-0.83-8.13-2.2-11.28-4.16c-1.76-1.09-5.69-3.97-6.4-8.11
			l-0.31,0.06C217.01,242.43,216.55,242.36,216.11,242.23z"/>
		<path class="st0" d="M216,241.3c0.01,0.31,0.06,0.62,0.11,0.93c0.44,0.13,0.9,0.2,1.41,0.1l0.31-0.06
			c-0.06-0.34-0.1-0.68-0.11-1.03L216,241.3z"/>
		<path class="st0" d="M235.7,254.58c-0.06-0.01-0.12-0.03-0.19-0.04l0.19,0.05C235.7,254.59,235.7,254.58,235.7,254.58z"/>
		<path class="st0" d="M224.55,253.97c-1.73,4.16-2.85,8.55-3.35,13.03l0.13,0.01c0.55-0.08,1.09-0.17,1.64-0.26
			c0.5-4.17,1.55-8.25,3.17-12.13L224.55,253.97z"/>
		<path class="st0" d="M221.33,267.01l0.97,0.11c0.21-0.03,0.42-0.06,0.63-0.09c0.01-0.09,0.03-0.18,0.04-0.27
			C222.42,266.84,221.88,266.94,221.33,267.01z"/>
		<path class="st0" d="M222.9,267.19c0.01-0.05,0.02-0.1,0.02-0.16c-0.21,0.03-0.42,0.06-0.63,0.09L222.9,267.19z"/>
		<path class="st0" d="M213.2,260.96c0.51-2.5,1.49-4.94,2.43-7.29l-0.83-0.33l0.03,1.02c-0.06,0-0.12,0-0.18,0
			c-0.37,0-0.73-0.05-1.09-0.12c-0.81,2.05-1.59,4.17-2.04,6.38c-0.56,2.77-0.5,5.28,0.14,7.51c0.57-0.05,1.15-0.11,1.72-0.16
			C212.74,265.93,212.67,263.58,213.2,260.96z"/>
		<path class="st0" d="M211.66,268.13c0.02,0.08,0.04,0.17,0.07,0.25c0.57-0.06,1.14-0.12,1.72-0.18c-0.03-0.08-0.04-0.16-0.06-0.24
			C212.81,268.02,212.23,268.08,211.66,268.13z"/>
		<path class="st0" d="M211.84,268.82l1.62-0.56c-0.01-0.02-0.01-0.04-0.01-0.05c-0.57,0.06-1.14,0.12-1.72,0.18
			C211.77,268.53,211.79,268.68,211.84,268.82z"/>
		<path class="st0" d="M179.45,263.98c-0.08-0.08-0.08-0.36,0.07-0.6c0.23-0.35,0.7-0.63,1.11-0.87l-0.86-1.48
			c-0.55,0.32-1.23,0.72-1.68,1.4c-0.59,0.9-0.53,2.09,0.09,2.68c1.32,1.67,2.94,1.98,4.3,1.98c0.16,0,0.32,0,0.47-0.01
			c8.97-0.4,18.06-0.57,27-0.5l0.01-1.71c-8.97-0.07-18.09,0.1-27.09,0.51C181.54,265.44,180.46,265.24,179.45,263.98z"/>
		<path class="st0" d="M204.11,256.56l-1.66-0.13c0.52,1.35,1.56,2.47,2.91,3.03c0.65,0.27,1.34,0.4,2.04,0.4
			c1.07,0,2.13-0.31,3.02-0.92l-0.96-1.41c-0.98,0.67-2.33,0.81-3.44,0.35c-1.1-0.46-1.96-1.51-2.18-2.68l-0.02,0
			c0.02,0.08,0.02,0.15,0.03,0.23L204.11,256.56z"/>
		<path class="st0" d="M202.45,256.43l1.66,0.13l-0.25-1.13c-0.02-0.08-0.02-0.15-0.03-0.23l-1.67,0.31
			C202.22,255.83,202.34,256.13,202.45,256.43z"/>
		<path class="st0" d="M214.79,253.33l-0.02-0.69c-1.23,0.03-2.33-0.46-3.12-1.32l-1.27,1.15c0.83,0.91,1.97,1.53,3.17,1.76
			c0.16-0.4,0.32-0.81,0.48-1.21L214.79,253.33z"/>
		<path class="st0" d="M214.82,254.35l-0.03-1.02l-0.75-0.3c-0.16,0.4-0.32,0.81-0.48,1.21c0.36,0.07,0.72,0.12,1.09,0.12
			C214.71,254.35,214.77,254.35,214.82,254.35z"/>
		<path class="st0" d="M113.31,196.88c0.51-6.4,2.82-11.99,6.53-15.74l-1.22-1.2c-3.98,4.04-6.48,10.01-7.01,16.81
			c-0.49,6.17,0.58,12.34,1.8,18.09c3.35,15.71,8.46,31.08,15.2,45.67l1.56-0.72c-6.69-14.48-11.76-29.72-15.08-45.31
			C113.88,208.86,112.84,202.84,113.31,196.88z"/>
		<path class="st0" d="M147.51,245.23l1.65-0.48l-13.74-47.47l-0.19,0.05c-0.41,0.46-0.8,0.89-1.2,1.32L147.51,245.23z"/>
		<path class="st0" d="M134.04,198.66c0.4-0.43,0.79-0.86,1.2-1.32l-1.46,0.42L134.04,198.66z"/>
		
			<rect x="148.46" y="246.62" transform="matrix(0.9771 -0.213 0.213 0.9771 -49.6677 37.5242)" class="st0" width="1.71" height="5.31"/>
		<path class="st0" d="M269.47,174.4l-0.77,0.57c0.33,0.8,0.57,1.63,0.78,2.45c12.08,17.66,18.63,46.98,17.99,66.07l0.57,0.02
			c0.38-0.26,0.77-0.54,1.15-0.81C289.65,222.85,282.99,192.5,269.47,174.4z"/>
		
			<rect x="150.19" y="254.67" transform="matrix(0.9908 -0.1351 0.1351 0.9908 -33.1071 22.7485)" class="st0" width="1.71" height="1.23"/>
		<path class="st0" d="M167.92,134.7c0.96,6.65,3.38,13.11,7.04,18.74l1.44-0.93c-3.66-5.63-6.05-12.13-6.9-18.78l-1.7,0.22
			c0.01,0.06,0.02,0.12,0.03,0.18l0.35,0.31C168.1,134.53,168,134.61,167.92,134.7z"/>
		<path class="st0" d="M168.18,134.43l-0.35-0.31c0.03,0.19,0.06,0.38,0.09,0.58C168,134.61,168.1,134.53,168.18,134.43z"/>
		<path class="st0" d="M182.94,180.21c-0.16-8.08-1.75-15.99-4.72-23.51l-1.59,0.63c2.9,7.33,4.45,15.03,4.6,22.91L182.94,180.21z"
			/>
		<path class="st27" d="M177.88,222.97c-0.34-7.05,0.45-14.23,1.22-21.17c0.34-3.05,0.68-6.21,0.93-9.32
			c0.71-8.87,0.9-20.36-3.96-30.54l-0.39-0.81l-0.79,0.42c-3.22,1.73-6.61,3.95-9.8,6.09l-0.34,0.23l-0.04,0.4
			c-1.74,17.78-2.85,35.87-3.3,53.76l1.71,0.04c0.44-17.71,1.54-35.62,3.25-53.23c2.78-1.86,5.71-3.77,8.52-5.34
			c4.3,9.61,4.09,20.43,3.42,28.84c-0.25,3.09-0.59,6.23-0.93,9.27c-0.77,6.97-1.56,14.17-1.23,21.31c0.09,0.04,0.18,0.08,0.27,0.12
			L177.88,222.97z"/>
		<polygon class="st0" points="177.53,232.27 177.51,232.27 177.72,225.11 176.01,225.06 175.78,232.77 177.49,232.85 		"/>
		
			<rect x="172.96" y="240.28" transform="matrix(0.0489 -0.9988 0.9988 0.0489 -73.351 405.2395)" class="st0" width="6.28" height="1.71"/>
		<path class="st0" d="M161.43,242.61l1.27-16.42l-1.71-0.13l-1.28,16.42c-0.13,1.75,0.48,2.94,1.6,3.17
			c4.31,1.04,8.56,1.66,12.67,2.27l0.25-1.7c-4.07-0.6-8.28-1.21-12.54-2.24C161.55,243.94,161.37,243.43,161.43,242.61z"/>
		<path class="st0" d="M164.74,224.04c3.9-0.55,7.92-1.12,11.18,0.65l0.82-1.51c-0.1-0.05-0.2-0.09-0.3-0.13l-0.26,0.01
			c0-0.04,0-0.09,0-0.13c-3.63-1.69-7.89-1.12-11.77-0.57c-3.73,0.53-7.98,0.91-11.04-1.27l-0.5,0.71c0.12,0.39,0.23,0.79,0.35,1.18
			C156.65,224.93,160.89,224.58,164.74,224.04z"/>
		<path class="st0" d="M152.36,222.48c0.27,0.19,0.55,0.33,0.84,0.49c-0.12-0.39-0.23-0.79-0.35-1.18L152.36,222.48z"/>
		<path class="st0" d="M176.43,223.04c-0.09-0.04-0.18-0.08-0.27-0.12c0,0.04,0,0.09,0,0.13L176.43,223.04z"/>
		<path class="st0" d="M145.85,191.48l1.71-0.08c-0.76-15.45,2.95-31.41,10.45-44.93l-1.5-0.83
			C148.86,159.44,145.07,175.72,145.85,191.48z"/>
		<path class="st0" d="M176.89,257.01c1.92-2.49,2.21-5.78,2.44-8.42l-1.71-0.15c-0.21,2.42-0.48,5.43-2.09,7.53
			c-0.85,1.11-2.08,1.96-3.26,2.77l-7.38,5.11l0.49,1.74l7.86-5.44C174.54,259.25,175.87,258.33,176.89,257.01z"/>
		<polygon class="st0" points="164.22,264.31 165.2,265.72 165.39,265.59 164.9,263.85 		"/>
		<path class="st0" d="M82.89,237.29c-4.74-17.7-2.2-37.2,7.35-52.96c11.27-18.6,31.67-30.98,53.35-32.47
			c0.18-0.52,0.35-1.04,0.54-1.54l-0.01-0.23c-22.47,1.32-43.68,14.1-55.34,33.35c-11.35,18.74-13.06,42.64-4.63,62.83
			c0.66,0.36,1.31,0.73,1.97,1.08l0.27-0.12c-0.82-1.83-1.53-3.71-2.18-5.61l-1.52,0.03C82.66,240.2,82.74,238.74,82.89,237.29z"/>
		<path class="st0" d="M84.15,246.27c0.03,0.07,0.06,0.14,0.08,0.2c0.6,0.31,1.21,0.61,1.81,0.91l0.08-0.04
			C85.46,247,84.81,246.63,84.15,246.27z"/>
		<path class="st0" d="M84.83,247.94l1.21-0.54c-0.6-0.3-1.21-0.6-1.81-0.91C84.44,246.96,84.62,247.46,84.83,247.94z"/>
		<path class="st0" d="M144.22,151.8l-0.09-1.48c-0.19,0.5-0.36,1.02-0.54,1.54C143.81,151.84,144.01,151.81,144.22,151.8z"/>
		<path class="st0" d="M82.69,241.66l1.52-0.03c-0.49-1.43-0.93-2.88-1.32-4.33C82.74,238.74,82.66,240.2,82.69,241.66z"/>
		<path class="st0" d="M185.65,167.06l0.04,1.71c17.01-0.37,33.96,3.66,49.01,11.61c0.19-0.24,0.39-0.49,0.59-0.74l0.37-0.69
			C220.31,170.81,203.01,166.7,185.65,167.06z"/>
		<path class="st0" d="M234.85,180.47l0.44-0.82c-0.2,0.25-0.4,0.5-0.59,0.74C234.75,180.42,234.8,180.44,234.85,180.47z"/>
		<path class="st0" d="M247.85,170.03l0.37-0.48c-19.7-15.22-44.25-23.39-69.13-23.07c0.22,0.57,0.43,1.14,0.64,1.72
			c24.08-0.19,47.8,7.73,66.94,22.34C247.07,170.36,247.45,170.19,247.85,170.03z"/>
		<path class="st0" d="M178.92,146.47l0.03,1.71c0.26,0,0.53,0.01,0.79,0c-0.21-0.57-0.42-1.15-0.64-1.72
			C179.03,146.47,178.98,146.47,178.92,146.47z"/>
		<path class="st0" d="M247.18,170.9l0.67-0.87c-0.4,0.16-0.79,0.33-1.17,0.5C246.85,170.66,247.02,170.78,247.18,170.9z"/>
		<path class="st0" d="M288.05,243.51l0.16,0.01c0.33-0.2,0.66-0.39,0.99-0.59c0-0.07,0-0.15,0-0.22
			C288.81,242.98,288.43,243.25,288.05,243.51z"/>
		<path class="st0" d="M289.19,243.55c0.01-0.2,0-0.42,0.01-0.63c-0.33,0.2-0.66,0.4-0.99,0.59L289.19,243.55z"/>
		<path class="st0" d="M268.1,175.43c0.48,0.64,0.93,1.33,1.39,2c-0.21-0.82-0.46-1.65-0.78-2.45L268.1,175.43z"/>
		<path class="st0" d="M94.02,156.81c23.78-21.58,56.87-32.82,88.55-30.09c30.94,2.68,60.71,18.65,80.19,42.84
			c0.89,0.31,1.75,0.7,2.57,1.14l0.35-0.27c-19.72-25.65-50.73-42.62-82.96-45.41c-32.12-2.78-65.72,8.63-89.89,30.57
			c-19.28,20.64-29.79,49.69-28.27,77.9c0.43,0.33,0.86,0.67,1.29,0.99l0.46-0.03C64.48,206.38,74.86,177.33,94.02,156.81z"/>
		<path class="st0" d="M64.55,233.49c0.01,0.1,0.01,0.21,0.01,0.31c0.3,0.24,0.6,0.47,0.9,0.71l0.37-0.02
			C65.41,234.16,64.98,233.83,64.55,233.49z"/>
		<path class="st0" d="M64.59,234.57l0.88-0.06c-0.3-0.23-0.6-0.47-0.9-0.71C64.58,234.06,64.57,234.32,64.59,234.57z"/>
		<path class="st0" d="M264.32,171.48l1.01-0.78c-0.82-0.44-1.67-0.83-2.57-1.14C263.28,170.2,263.82,170.82,264.32,171.48z"/>
		<path class="st0" d="M80.09,139.08c20.67-19.69,48.04-31.32,75.23-31.92c24.69-4.75,51.18-2.32,74.6,6.84
			c23.42,9.17,44.52,25.37,59.42,45.62c14.85,20.18,22.21,42.76,20.73,63.58l0.44,0.03c0.45-0.38,0.89-0.78,1.33-1.19
			c1.13-20.87-6.33-43.34-21.12-63.43c-15.09-20.51-36.46-36.92-60.18-46.2c-23.71-9.28-50.54-11.74-75.4-6.94
			c-27.47,0.59-55.25,12.39-76.23,32.38c-20.02,19.07-33.52,45.61-37.23,73.03c0.48,0.62,0.98,1.22,1.47,1.83
			C46.5,185.09,59.96,158.26,80.09,139.08z"/>
		<path class="st0" d="M310.51,223.23l0.76,0.05c0.18-0.23,0.36-0.47,0.54-0.71c0.01-0.18,0.01-0.36,0.02-0.54
			C311.4,222.44,310.96,222.84,310.51,223.23z"/>
		<path class="st0" d="M43.15,212.7c-0.49-0.61-0.99-1.21-1.47-1.83c-0.06,0.47-0.14,0.93-0.2,1.4c0.07,0.09,0.15,0.17,0.23,0.26
			l1.44,0.18C43.14,212.71,43.15,212.7,43.15,212.7z"/>
		<path class="st0" d="M311.78,223.32c0.02-0.25,0.02-0.5,0.03-0.74c-0.18,0.24-0.36,0.47-0.54,0.71L311.78,223.32z"/>
		<path class="st0" d="M41.45,212.5l0.26,0.03c-0.07-0.09-0.15-0.17-0.23-0.26C41.47,212.35,41.45,212.43,41.45,212.5z"/>
	</g>
	<path class="st28" d="M99.47,236.31c-27.51-7.78-51.24-28.03-63.23-53.99c-4.84-38.47,4.88-78.18,27.21-109.05
		s56.98-52.54,96.35-58.53c-38.57,19.46-68.05,56.11-78.81,97.95s-2.61,88.16,21.78,123.82C101.55,236.62,100.4,236.57,99.47,236.31
		z"/>
	<path class="st29" d="M201.69,12.15c35.5,10.97,69.66,29.79,92.38,59.18s32.23,70.5,17.31,103.68
		c-4.77,16.93-13.87,32.62-27.37,44.7c15.1-38.07,15.08-81.91-0.05-119.97C268.82,61.7,238.74,29.82,201.69,12.15z"/>
</g>
</svg>
