<svg width="249" height="201" viewBox="0 0 249 201" fill="none" xmlns="http://www.w3.org/2000/svg">
<g filter="url(#filter0_d_101_5987)">
<path d="M6.4342 13.4717L5.32845 21.4544L4.29086 27.8412L1.71389 51.6889L6.87953 56.8506L10.3611 59.4498L15.9498 58.678L17.1488 57.3358L35.0344 69.9938L51.4013 82.5459L59.0432 123.227C59.0432 123.227 72.1166 143.798 77.4479 137.425C82.7783 131.051 95.1916 115.683 95.1916 115.683L100.459 120.94L111.437 125.72L119.045 116.371L113.419 112.052L110.212 121.51L100.566 116.191L103.049 113.193L105.613 108.746L106.647 109.753L109.645 107.976L98.9278 98.5766L89.04 106.815L69.9796 112.983L75.068 107.295L69.6485 85.3547L71.7873 75.9034L90.1909 89.0499L79.0255 112.156L106.34 95.2988L125.009 121.183L190.245 159.375C190.245 159.375 196.957 160.01 199.019 160.113C201.081 160.216 203.418 159.723 203.418 159.723L222.288 150.454C222.288 150.454 232.852 139.724 227.539 133.42C222.225 127.116 208.599 112.013 208.599 112.013L193.506 96.4265L173.785 92.0841L169.834 94.4239L121.345 64.5089L118.731 62.8964L117.826 58.6911L171.931 91.1772L185.315 87.9684L185.583 83.5473L179.827 81.2076L178.105 83.0887L175.182 83.6802L116.183 47.5632L114.757 47.9241L114.852 43.1503L110.324 40.2769L108.225 42.7408L105.267 42.6568L103.908 41.0822L94.5572 38.7959L92.7233 37.69L74.7656 50.4649L67.9243 45.7509L61.8001 41.5523L62.0667 39.6605C62.0667 39.6605 62.5539 37.8641 61.6645 36.2582C60.7751 34.6523 58.5092 33.2368 58.5092 33.2368L28.7989 14.6853L17.9064 8.29935" fill="#BFBFBF"/>
<path d="M13.1436 6.99129C12.5024 7.01804 11.8744 7.12193 11.3005 7.33645C8.24002 8.48057 6.42377 13.1474 6.42376 13.1474L4.8608 25.1107L10.336 28.7641C10.336 28.7641 10.5665 28.9162 10.6559 29.1698C10.7453 29.4235 10.6931 29.779 10.693 29.779L10.3384 32.4984L59.6176 68.4082C59.6176 68.4082 60.1639 68.7358 60.3579 69.2634C60.5516 69.7909 60.3924 70.5184 60.3924 70.5184L58.5756 83.345L64.76 113.947L69.8529 108.978L64.4269 84.4391L66.4699 72.5494L81.5299 84.2506C81.5299 84.2506 84.3674 87.3775 84.5936 90.8685C84.8208 94.3594 82.4375 98.2134 82.4375 98.2134L60.2551 120.827C60.2551 120.827 59.1546 121.666 58.9178 122.538C58.681 123.409 59.3272 124.714 59.3272 124.714C59.3272 124.714 60.9854 129.202 64.2359 132.825C67.4868 136.447 71.5136 138.323 71.5136 138.323C71.5136 138.323 73.9756 139.28 75.3995 138.938C76.8225 138.597 78.0029 137.438 78.0029 137.438L93.4424 117.842C93.4424 117.842 93.7483 117.532 93.6987 117.115C93.6483 116.696 93.3569 116.391 93.3569 116.391L92.147 115.11C92.147 115.11 91.7578 114.731 92.1587 114.358C92.5588 113.983 92.8376 114.217 92.8376 114.217L96.446 118.084C96.446 118.084 105.056 126.165 110.778 125.92C116.5 125.675 119.113 116.812 119.113 116.812C119.113 116.812 141.037 134.391 156.897 144.524C172.756 154.657 182.551 157.345 182.551 157.345C182.551 157.345 187.304 158.942 191.133 159.409C194.962 159.877 197.865 159.216 197.865 159.216C197.865 159.216 196.889 155.518 201.686 151.834C206.482 148.149 217.05 144.479 217.05 144.479C217.05 144.479 213.503 143.426 210.978 141.566C208.454 139.706 206.953 137.038 206.953 137.038L204.71 137.883C204.71 137.883 203.137 138.454 202.151 138.303C201.166 138.152 200.233 137.493 200.233 137.493L74.7627 56.0529L69.5868 59.9455L44.5326 42.8527C44.5326 42.8527 45.2231 37.8998 48.1151 35.1184C51.0067 32.3368 56.1 31.7262 56.1 31.7262L18.9557 8.20394C18.9557 8.20394 15.9228 6.87551 13.1436 6.99129ZM5.17947 27.1775C5.07618 27.1827 4.97172 27.2014 4.86904 27.2379C4.26086 27.4227 4.26012 28.2326 4.26012 28.2326L1.49002 51.0209C1.49002 51.0209 1.36832 51.8145 1.6117 52.3987C1.85518 52.9834 2.38716 53.4398 2.38716 53.4398L7.32708 57.1339C7.32708 57.1339 6.89125 56.9411 6.7619 55.2153C6.63253 53.4892 7.19942 50.794 7.19942 50.794C7.19942 50.794 9.55363 30.5897 9.34942 29.9375C9.14521 29.2852 8.26498 28.7586 8.26498 28.7586L6.59531 27.7782C6.59531 27.7782 5.90286 27.1415 5.17947 27.1775ZM54.4921 33.4014C54.1348 33.419 53.7892 33.4632 53.4631 33.5345C48.3156 34.6604 46.139 41.6148 46.139 41.6148L49.5803 44.1167C49.5803 44.1167 52.3236 40.1393 55.2336 39.5598C58.1439 38.9804 61.949 40.6836 61.949 40.6836C61.949 40.6836 62.8278 38.0398 61.387 36.1342C60.0918 34.4214 56.9939 33.2783 54.4921 33.4014ZM10.9255 35.0797C10.1383 35.1058 9.87243 35.8781 9.87243 35.8781L9.7902 36.6333L8.64388 49.2043C8.64388 49.2043 8.48258 50.2277 8.69046 50.6406C8.86627 51.2819 9.39708 51.5999 9.39708 51.5999L51.9047 83.8697L58.6063 118.206C58.6063 118.206 58.6565 119 59.0859 119.204C59.5155 119.407 60.0313 118.903 60.0313 118.903L63.4778 115.387L57.3758 83.3089L58.6047 71.4197C58.6047 71.4197 58.7777 70.691 58.5214 70.111C58.265 69.531 57.5797 69.1015 57.5797 69.1015L12.5657 35.866C12.5657 35.866 11.7126 35.0537 10.9255 35.0797ZM92.1633 37.5157C91.7909 37.5155 91.484 37.6923 91.484 37.6923C91.484 37.6923 71.7966 51.6111 70.8994 52.5693C70.0014 53.5276 69.8231 54.655 69.6771 55.9829C69.5309 57.3109 70.3146 57.8811 70.3146 57.8811L91.3877 43.232C91.3877 43.232 91.9931 42.8813 92.4943 41.6454C92.9954 40.4095 93.4336 38.3281 92.8515 37.7841C92.6333 37.5802 92.3866 37.5158 92.1633 37.5157ZM95.3612 38.6057C94.8207 38.6513 94.6197 38.7843 94.6197 38.7843C94.6197 38.7843 93.9828 42.1774 92.8184 43.4049C91.6539 44.632 76.1595 55.1501 76.1595 55.1501L98.5731 69.5415L102.823 52.2448L103.333 50.0445L173.163 91.9148C173.163 91.9148 179.9 97.1261 183.594 101.963C187.289 106.8 188.694 108.507 187.94 111.262C187.186 114.018 182.495 111.482 182.495 111.482L166.536 101.82L108.631 66.0306C108.631 66.0306 107.152 65.1615 103.715 66.0246C100.278 66.8869 99.4834 70.0087 99.4834 70.0087L199.61 135.386C199.61 135.386 201.236 136.356 202.115 136.482C202.993 136.607 204.567 135.956 204.567 135.956L205.918 135.406L191.063 103.306C191.063 103.306 190.781 102.744 191.247 102.469C191.713 102.194 191.986 102.753 191.986 102.753L207.004 134.796C207.004 134.796 210.387 140.967 216.337 142.894C222.285 144.819 225.543 141.912 225.543 141.912C225.543 141.912 227.387 140.267 227.889 138.145C228.392 136.022 227.555 133.421 227.555 133.421C227.555 133.421 222.782 126.086 215.243 117.129C207.704 108.171 197.401 97.5912 197.4 97.5913L185.706 88.1522L186.028 84.3962C186.028 84.3962 186.145 84.0227 185.949 83.5957C185.755 83.1687 185.199 82.9162 185.199 82.9162L181.368 80.8066C181.368 80.8066 180.911 80.5901 180.536 80.6621C180.161 80.7341 179.867 81.0964 179.867 81.0964L178.963 82.1287L181.009 83.3333C181.009 83.3333 182.129 83.9946 182.343 84.4891C182.557 84.9828 182.553 85.6157 182.553 85.6157L182.193 87.7327L180.561 88.3224L180.88 86.0678C180.88 86.0678 180.974 85.2029 180.791 84.6784C180.608 84.1539 179.969 83.831 179.969 83.831L176.554 81.6931C176.554 81.6931 175.69 81.0515 175.259 81.099C175.052 81.122 174.108 81.2716 174.108 81.2716C174.108 81.2716 173.612 81.2684 173.256 81.534C172.9 81.8004 172.684 82.3347 172.684 82.3347L172.171 83.2756C172.171 83.2756 171.671 84.2647 171.042 84.4541C170.414 84.6444 170.016 84.3672 170.016 84.3672L168.413 83.3914L168.618 83.0338C168.618 83.0338 168.841 82.6492 169.182 82.3841C169.524 82.1198 169.983 81.9769 169.983 81.9769L171.682 81.5222L172.001 80.924C172.001 80.924 172.232 80.5391 172.075 80.1713C171.919 79.8043 171.376 79.4544 171.376 79.4544L170.62 78.9386C170.62 78.9386 170.131 78.5486 169.594 78.4735C169.057 78.3976 168.47 78.6375 168.47 78.6375L166.638 79.0857C166.638 79.0857 166.014 79.1344 165.593 79.4625C165.173 79.7898 164.956 80.3949 164.956 80.3949L164.603 81.0733L162.745 79.9417L162.981 79.5311C162.981 79.5311 163.203 79.1448 163.545 78.8805C163.886 78.6163 164.347 78.4742 164.347 78.4742L166.044 78.0186L166.364 77.4204C166.364 77.4204 166.595 77.0364 166.439 76.6685C166.282 76.3007 165.738 75.9508 165.738 75.9508L164.982 75.4351C164.982 75.4351 164.494 75.0441 163.957 74.9691C163.419 74.894 162.835 75.1339 162.835 75.1339L161 75.5813C161 75.5813 160.377 75.6308 159.957 75.9581C159.536 76.2854 159.318 76.8922 159.318 76.8922L158.938 77.6252L157.329 76.6454L157.578 76.2131C157.578 76.2131 157.8 75.8285 158.142 75.5642C158.483 75.3 158.942 75.1562 158.942 75.1562L160.641 74.7006L160.961 74.1042C160.961 74.1042 161.192 73.7184 161.035 73.3514C160.878 72.9836 160.335 72.6337 160.335 72.6337L159.579 72.1171C159.579 72.1171 159.09 71.7287 158.554 71.6528C158.016 71.5778 157.43 71.816 157.43 71.816L155.597 72.2641C155.597 72.2641 154.973 72.3146 154.553 72.6419C154.132 72.9692 153.915 73.5742 153.915 73.5742L153.523 74.3298L151.835 73.3024L152.061 72.9074C152.061 72.9074 152.284 72.5228 152.625 72.2585C152.967 71.9943 153.426 71.8505 153.426 71.8505L155.124 71.3958L155.444 70.7985C155.444 70.7985 155.675 70.4127 155.518 70.0449C155.362 69.6779 154.817 69.328 154.817 69.328L154.061 68.8114C154.061 68.8114 153.574 68.423 153.037 68.3471C152.499 68.272 151.913 68.5111 151.913 68.5111L150.08 68.9593C150.08 68.9593 149.456 69.0088 149.036 69.3361C148.616 69.6634 148.399 70.2685 148.399 70.2685L148.027 70.9842L146.167 69.8526L146.424 69.4047C146.424 69.4047 146.646 69.0184 146.988 68.7541C147.329 68.4899 147.79 68.3469 147.79 68.3469L149.487 67.8922L149.806 67.294C149.806 67.294 150.037 66.91 149.88 66.5422C149.724 66.1752 149.181 65.8244 149.181 65.8244L148.425 65.3087C148.425 65.3087 147.935 64.9186 147.399 64.8435C146.862 64.7676 146.277 65.0075 146.277 65.0075L144.443 65.4557C144.444 65.4557 143.819 65.5044 143.398 65.8326C142.978 66.1599 142.761 66.7658 142.761 66.7658L142.361 67.5352L140.671 66.5079L140.907 66.099C140.907 66.099 141.13 65.7143 141.471 65.4493C141.812 65.185 142.271 65.0421 142.271 65.0421L143.97 64.5865L144.289 63.9892C144.289 63.9892 144.52 63.6043 144.363 63.2365C144.207 62.8695 143.664 62.5196 143.664 62.5196L142.907 62.003C142.907 62.003 142.419 61.6137 141.883 61.5387C141.345 61.4636 140.759 61.7019 140.759 61.7019L138.926 62.1508C138.927 62.1508 138.302 62.2004 137.882 62.5277C137.461 62.855 137.244 63.46 137.244 63.46L136.865 64.1914L134.961 63.0323L135.22 62.5792C135.22 62.5792 135.443 62.1937 135.785 61.9294C136.126 61.6652 136.585 61.5223 136.585 61.5223L138.282 61.0672L138.604 60.4693C138.604 60.4693 138.834 60.0846 138.678 59.7173C138.521 59.3498 137.977 59 137.977 59L137.221 58.4836C137.221 58.4837 136.732 58.0944 136.195 58.0193C135.658 57.9439 135.073 58.1825 135.073 58.1825L133.239 58.6314C133.239 58.6314 132.615 58.6798 132.195 59.0072C131.775 59.3349 131.557 59.9409 131.557 59.9409L131.155 60.7156L129.466 59.6879L129.703 59.2737C129.703 59.2737 129.926 58.8889 130.267 58.6247C130.609 58.3604 131.069 58.2169 131.069 58.2169L132.766 57.7615L133.087 57.1645C133.087 57.1645 133.316 56.7791 133.16 56.4116C133.004 56.044 132.46 55.6943 132.46 55.6943L131.704 55.1789C131.704 55.1789 131.215 54.7887 130.678 54.7135C130.141 54.6381 129.556 54.8778 129.556 54.8778L127.722 55.3257C127.722 55.3257 127.099 55.3747 126.678 55.7024C126.258 56.0299 126.04 56.6351 126.04 56.6351L125.658 57.3702L123.797 56.238L124.066 55.7708C124.066 55.7708 124.289 55.385 124.631 55.1208C124.971 54.8565 125.431 54.714 125.431 54.714L127.128 54.2586L127.449 53.6606C127.449 53.6606 127.679 53.2752 127.523 52.9077C127.367 52.5405 126.823 52.1913 126.823 52.1913L126.067 51.6751C126.067 51.6751 125.578 51.2851 125.041 51.2096C124.504 51.1345 123.919 51.3739 123.919 51.3739L122.085 51.8218C122.085 51.8218 121.461 51.8711 121.041 52.1985C120.62 52.5259 120.403 53.1322 120.403 53.1322L119.993 53.9222L118.303 52.8934L118.549 52.465C118.549 52.465 118.771 52.0806 119.113 51.816C119.454 51.5518 119.914 51.4082 119.914 51.4082L121.611 50.9529L121.932 50.3549C121.932 50.3549 122.163 49.9701 122.006 49.6029C121.85 49.2353 121.306 48.8856 121.306 48.8856L120.55 48.3693C120.55 48.3693 120.061 47.98 119.524 47.9049C118.987 47.8295 118.402 48.0691 118.402 48.0691L116.568 48.517C116.568 48.517 115.944 48.5664 115.524 48.8938C115.103 49.2214 114.886 49.8264 114.886 49.8264L114.497 50.5768L113.21 49.7939C113.21 49.7939 112.608 49.4635 112.627 49.1107C112.644 48.7579 113.092 48.547 113.092 48.5469L115.136 47.8229L116.082 45.0519C116.082 45.0519 116.306 43.8969 116.058 43.1565C115.808 42.4161 115.085 42.0899 115.085 42.0899L112.648 40.5595C112.648 40.5595 112.09 39.9506 111.048 39.962C110.531 39.9679 109.887 40.7739 109.887 40.7739L112.827 42.7249C112.827 42.7249 113.38 43.0489 113.597 43.474C113.815 43.8994 113.576 44.5574 113.576 44.5574L113.223 45.8629L111.329 46.3829L111.8 44.5601C111.8 44.5601 111.935 43.9849 111.788 43.5979C111.64 43.2111 111.21 43.0126 111.21 43.0126L108.797 41.3553C108.797 41.3553 108.516 41.0542 107.819 40.8794C107.122 40.7045 106.086 41.0488 106.086 41.0488C106.086 41.0488 105.502 41.1227 105.156 41.4227C104.81 41.7227 104.7 42.2483 104.7 42.2483L104.212 44.2448L103.244 44.0716L103.61 42.4335C103.61 42.4335 103.699 41.737 103.998 41.2939C104.298 40.8504 100.854 39.6522 98.1399 38.952C96.7826 38.6018 95.9026 38.56 95.3612 38.6057ZM57.5577 40.8299C57.0027 40.8392 56.4394 40.9032 55.8936 41.046C52.9826 41.8083 50.5679 44.8194 50.5679 44.8195L68.2374 57.0522C68.2374 57.0522 68.3521 54.2818 69.7293 52.4469C71.1065 50.6121 73.7459 49.7124 73.7459 49.7124L62.2133 41.7716C62.2133 41.7716 59.9629 40.7893 57.5577 40.8299ZM8.37077 52.3303C8.37077 52.3303 8.24372 55.0567 8.2737 55.9628C8.30366 56.8686 8.83859 58.7642 10.6992 59.5409C14.8117 61.2848 16.2377 58.3561 16.2377 58.3561L8.37077 52.3303ZM104.53 52.2304C104.453 52.237 104.379 52.2561 104.311 52.2907C103.765 52.5674 103.591 53.8465 103.591 53.8465L100.926 65.4543C100.926 65.4543 102.34 64.5823 104.296 64.3882C106.25 64.1932 108.748 64.6761 108.748 64.6761L183.677 110.418C183.677 110.418 185.638 111.699 186.705 110.76C187.772 109.822 186.193 107.762 186.193 107.762C186.193 107.762 182.48 102.578 179.071 98.8533C175.663 95.1279 172.56 92.8639 172.56 92.8639L165.486 97.0621L110.71 63.4206L110.709 63.4206L105.773 52.7396C105.773 52.7396 105.071 52.1839 104.53 52.2304ZM107.169 53.4279L108.152 55.2686L108.153 55.2696L111.867 62.6593L118.497 62.0934L118.311 61.0365C118.311 61.0365 118.273 60.7425 118.143 60.5316C118.014 60.3211 117.792 60.1941 117.793 60.1941L107.169 53.4279ZM118.738 62.9055L113.261 63.5559L142.815 81.5003L165.327 95.17L168.302 93.4901L118.738 62.9055ZM67.6586 74.6085L65.756 85.205L70.8239 107.937L73.7343 104.985C73.7343 104.985 74.0942 104.604 74.2101 104.192C74.3251 103.78 74.1963 103.338 74.1963 103.338L69.9107 85.415L71.1773 78.9068C71.1774 78.9068 71.2904 78.1349 71.163 77.6537C71.0355 77.1725 70.6671 76.9812 70.6671 76.9812L67.6586 74.6085ZM92.3863 95.2682C92.797 95.2656 93.1412 95.5958 93.1412 95.5958L107.596 107.566C107.596 107.566 111.114 110.844 111.524 114.079C111.933 117.314 109.234 120.507 109.234 120.507C109.234 120.507 104.892 118.144 101.602 115.185C98.3113 112.226 96.0734 108.674 96.0734 108.674L96.6689 103.849C96.6688 103.848 96.8195 102.529 96.5063 101.612C96.193 100.695 95.5392 100.049 95.5392 100.049L91.8601 96.8534C91.8601 96.8534 91.1942 96.1992 91.8107 95.541C91.9992 95.3397 92.1998 95.2701 92.3863 95.2682ZM98.4995 101.918L97.3781 107.822C97.3781 107.822 97.2453 108.315 97.3437 108.715C97.443 109.114 97.7744 109.419 97.7744 109.419C97.7744 109.419 99.0247 110.94 99.8036 111.739C100.531 112.485 101.8 113.576 101.8 113.576C101.8 113.576 102.132 113.886 102.429 113.821C102.725 113.757 102.985 113.319 102.985 113.319C102.985 113.319 104.12 111.452 104.73 110.787C105.729 109.695 106.511 109.787 106.511 109.787C106.511 109.787 107.087 109.436 107.07 109.083C107.052 108.73 106.442 108.374 106.442 108.374L98.4995 101.918ZM221.425 145.187C219.899 145.201 218.316 145.836 218.316 145.836C218.285 145.847 206.002 150.285 202.701 153.089C199.394 155.897 198.862 158.305 201.531 159.434C204.339 160.622 209.928 157.367 214.612 155.012C219.297 152.658 222.004 150.661 222.004 150.661C222.004 150.661 225.145 148.004 223.757 146.106C223.236 145.395 222.341 145.179 221.425 145.187Z" fill="white"/>
</g>
<defs>
<filter id="filter0_d_101_5987" x="0" y="0" width="248.749" height="206.564" filterUnits="userSpaceOnUse" color-interpolation-filters="sRGB">
<feFlood flood-opacity="0" result="BackgroundImageFix"/>
<feColorMatrix in="SourceAlpha" type="matrix" values="0 0 0 0 0 0 0 0 0 0 0 0 0 0 0 0 0 0 127 0" result="hardAlpha"/>
<feOffset dx="15" dy="36"/>
<feGaussianBlur stdDeviation="2"/>
<feComposite in2="hardAlpha" operator="out"/>
<feColorMatrix type="matrix" values="0 0 0 0 0 0 0 0 0 0 0 0 0 0 0 0 0 0 0.75 0"/>
<feBlend mode="normal" in2="BackgroundImageFix" result="effect1_dropShadow_101_5987"/>
<feBlend mode="normal" in="SourceGraphic" in2="effect1_dropShadow_101_5987" result="shape"/>
</filter>
</defs>
</svg>
